<?xml version="1.0" encoding="utf-8"?>
<svg xmlns="http://www.w3.org/2000/svg" xmlns:xlink="http://www.w3.org/1999/xlink" width="600" height="400" viewBox="0 0 2400 1600">
<defs>
  <clipPath id="clip650">
    <rect x="0" y="0" width="2400" height="1600"/>
  </clipPath>
</defs>
<path clip-path="url(#clip650)" d="M0 1600 L2400 1600 L2400 0 L0 0  Z" fill="#ffffff" fill-rule="evenodd" fill-opacity="1"/>
<defs>
  <clipPath id="clip651">
    <rect x="480" y="0" width="1681" height="1600"/>
  </clipPath>
</defs>
<path clip-path="url(#clip650)" d="M251.842 1410.9 L2352.76 1410.9 L2352.76 123.472 L251.842 123.472  Z" fill="#ffffff" fill-rule="evenodd" fill-opacity="1"/>
<defs>
  <clipPath id="clip652">
    <rect x="251" y="123" width="2102" height="1288"/>
  </clipPath>
</defs>
<polyline clip-path="url(#clip652)" style="stroke:#000000; stroke-linecap:round; stroke-linejoin:round; stroke-width:2; stroke-opacity:0.1; fill:none" points="806.801,1410.9 806.801,123.472 "/>
<polyline clip-path="url(#clip652)" style="stroke:#000000; stroke-linecap:round; stroke-linejoin:round; stroke-width:2; stroke-opacity:0.1; fill:none" points="1797.8,1410.9 1797.8,123.472 "/>
<polyline clip-path="url(#clip650)" style="stroke:#000000; stroke-linecap:round; stroke-linejoin:round; stroke-width:4; stroke-opacity:1; fill:none" points="251.842,1410.9 2352.76,1410.9 "/>
<polyline clip-path="url(#clip650)" style="stroke:#000000; stroke-linecap:round; stroke-linejoin:round; stroke-width:4; stroke-opacity:1; fill:none" points="806.801,1410.9 806.801,1392 "/>
<polyline clip-path="url(#clip650)" style="stroke:#000000; stroke-linecap:round; stroke-linejoin:round; stroke-width:4; stroke-opacity:1; fill:none" points="1797.8,1410.9 1797.8,1392 "/>
<path clip-path="url(#clip650)" d="M771.783 1485.02 L779.422 1485.02 L779.422 1458.66 L771.112 1460.32 L771.112 1456.06 L779.376 1454.4 L784.052 1454.4 L784.052 1485.02 L791.691 1485.02 L791.691 1488.96 L771.783 1488.96 L771.783 1485.02 Z" fill="#000000" fill-rule="nonzero" fill-opacity="1" /><path clip-path="url(#clip650)" d="M811.135 1457.48 Q807.524 1457.48 805.695 1461.04 Q803.89 1464.58 803.89 1471.71 Q803.89 1478.82 805.695 1482.38 Q807.524 1485.92 811.135 1485.92 Q814.769 1485.92 816.575 1482.38 Q818.404 1478.82 818.404 1471.71 Q818.404 1464.58 816.575 1461.04 Q814.769 1457.48 811.135 1457.48 M811.135 1453.77 Q816.945 1453.77 820.001 1458.38 Q823.08 1462.96 823.08 1471.71 Q823.08 1480.44 820.001 1485.04 Q816.945 1489.63 811.135 1489.63 Q805.325 1489.63 802.246 1485.04 Q799.191 1480.44 799.191 1471.71 Q799.191 1462.96 802.246 1458.38 Q805.325 1453.77 811.135 1453.77 Z" fill="#000000" fill-rule="nonzero" fill-opacity="1" /><path clip-path="url(#clip650)" d="M832.784 1435.97 Q829.85 1435.97 828.364 1438.86 Q826.897 1441.74 826.897 1447.53 Q826.897 1453.31 828.364 1456.2 Q829.85 1459.08 832.784 1459.08 Q835.737 1459.08 837.204 1456.2 Q838.69 1453.31 838.69 1447.53 Q838.69 1441.74 837.204 1438.86 Q835.737 1435.97 832.784 1435.97 M832.784 1432.96 Q837.505 1432.96 839.988 1436.7 Q842.489 1440.43 842.489 1447.53 Q842.489 1454.62 839.988 1458.37 Q837.505 1462.09 832.784 1462.09 Q828.064 1462.09 825.562 1458.37 Q823.08 1454.62 823.08 1447.53 Q823.08 1440.43 825.562 1436.7 Q828.064 1432.96 832.784 1432.96 Z" fill="#000000" fill-rule="nonzero" fill-opacity="1" /><path clip-path="url(#clip650)" d="M1763.57 1485.02 L1771.21 1485.02 L1771.21 1458.66 L1762.9 1460.32 L1762.9 1456.06 L1771.16 1454.4 L1775.84 1454.4 L1775.84 1485.02 L1783.48 1485.02 L1783.48 1488.96 L1763.57 1488.96 L1763.57 1485.02 Z" fill="#000000" fill-rule="nonzero" fill-opacity="1" /><path clip-path="url(#clip650)" d="M1802.92 1457.48 Q1799.31 1457.48 1797.48 1461.04 Q1795.68 1464.58 1795.68 1471.71 Q1795.68 1478.82 1797.48 1482.38 Q1799.31 1485.92 1802.92 1485.92 Q1806.56 1485.92 1808.36 1482.38 Q1810.19 1478.82 1810.19 1471.71 Q1810.19 1464.58 1808.36 1461.04 Q1806.56 1457.48 1802.92 1457.48 M1802.92 1453.77 Q1808.73 1453.77 1811.79 1458.38 Q1814.87 1462.96 1814.87 1471.71 Q1814.87 1480.44 1811.79 1485.04 Q1808.73 1489.63 1802.92 1489.63 Q1797.11 1489.63 1794.03 1485.04 Q1790.98 1480.44 1790.98 1471.71 Q1790.98 1462.96 1794.03 1458.38 Q1797.11 1453.77 1802.92 1453.77 Z" fill="#000000" fill-rule="nonzero" fill-opacity="1" /><path clip-path="url(#clip650)" d="M1819.44 1458.35 L1832.7 1458.35 L1832.7 1461.55 L1814.87 1461.55 L1814.87 1458.35 Q1817.03 1456.11 1820.75 1452.35 Q1824.5 1448.57 1825.46 1447.48 Q1827.28 1445.43 1827.99 1444.02 Q1828.73 1442.59 1828.73 1441.22 Q1828.73 1438.98 1827.15 1437.57 Q1825.59 1436.16 1823.07 1436.16 Q1821.28 1436.16 1819.29 1436.78 Q1817.31 1437.4 1815.05 1438.66 L1815.05 1434.82 Q1817.35 1433.9 1819.34 1433.43 Q1821.34 1432.96 1822.99 1432.96 Q1827.35 1432.96 1829.95 1435.14 Q1832.55 1437.32 1832.55 1440.97 Q1832.55 1442.7 1831.89 1444.26 Q1831.25 1445.8 1829.54 1447.91 Q1829.07 1448.46 1826.55 1451.07 Q1824.03 1453.67 1819.44 1458.35 Z" fill="#000000" fill-rule="nonzero" fill-opacity="1" /><path clip-path="url(#clip650)" d="M1184.39 1551.91 Q1186.46 1552.61 1188.4 1554.9 Q1190.37 1557.19 1192.35 1561.2 L1198.87 1574.19 L1191.97 1574.19 L1185.89 1562 Q1183.53 1557.22 1181.3 1555.66 Q1179.11 1554.1 1175.29 1554.1 L1168.29 1554.1 L1168.29 1574.19 L1161.86 1574.19 L1161.86 1526.67 L1176.37 1526.67 Q1184.52 1526.67 1188.53 1530.07 Q1192.54 1533.48 1192.54 1540.35 Q1192.54 1544.84 1190.44 1547.8 Q1188.37 1550.76 1184.39 1551.91 M1168.29 1531.95 L1168.29 1548.82 L1176.37 1548.82 Q1181.02 1548.82 1183.37 1546.69 Q1185.76 1544.52 1185.76 1540.35 Q1185.76 1536.18 1183.37 1534.08 Q1181.02 1531.95 1176.37 1531.95 L1168.29 1531.95 Z" fill="#000000" fill-rule="nonzero" fill-opacity="1" /><path clip-path="url(#clip650)" d="M1220.96 1524.72 Q1216.7 1532.04 1214.63 1539.21 Q1212.56 1546.37 1212.56 1553.72 Q1212.56 1561.07 1214.63 1568.3 Q1216.73 1575.49 1220.96 1582.78 L1215.87 1582.78 Q1211.09 1575.3 1208.71 1568.07 Q1206.35 1560.85 1206.35 1553.72 Q1206.35 1546.62 1208.71 1539.43 Q1211.06 1532.24 1215.87 1524.72 L1220.96 1524.72 Z" fill="#000000" fill-rule="nonzero" fill-opacity="1" /><path clip-path="url(#clip650)" d="M1232.58 1526.67 L1242.16 1526.67 L1254.29 1559 L1266.48 1526.67 L1276.06 1526.67 L1276.06 1574.19 L1269.79 1574.19 L1269.79 1532.46 L1257.53 1565.05 L1251.07 1565.05 L1238.82 1532.46 L1238.82 1574.19 L1232.58 1574.19 L1232.58 1526.67 Z" fill="#000000" fill-rule="nonzero" fill-opacity="1" /><path clip-path="url(#clip650)" d="M1294.23 1568.84 L1294.23 1587.74 L1288.34 1587.74 L1288.34 1538.54 L1294.23 1538.54 L1294.23 1543.95 Q1296.08 1540.77 1298.88 1539.24 Q1301.71 1537.68 1305.63 1537.68 Q1312.12 1537.68 1316.16 1542.83 Q1320.23 1547.99 1320.23 1556.39 Q1320.23 1564.8 1316.16 1569.95 Q1312.12 1575.11 1305.63 1575.11 Q1301.71 1575.11 1298.88 1573.58 Q1296.08 1572.02 1294.23 1568.84 M1314.16 1556.39 Q1314.16 1549.93 1311.48 1546.27 Q1308.84 1542.58 1304.19 1542.58 Q1299.55 1542.58 1296.87 1546.27 Q1294.23 1549.93 1294.23 1556.39 Q1294.23 1562.85 1296.87 1566.55 Q1299.55 1570.21 1304.19 1570.21 Q1308.84 1570.21 1311.48 1566.55 Q1314.16 1562.85 1314.16 1556.39 Z" fill="#000000" fill-rule="nonzero" fill-opacity="1" /><path clip-path="url(#clip650)" d="M1355.6 1539.91 L1355.6 1545.38 Q1353.11 1544.01 1350.6 1543.34 Q1348.12 1542.64 1345.57 1542.64 Q1339.87 1542.64 1336.72 1546.27 Q1333.57 1549.87 1333.57 1556.39 Q1333.57 1562.92 1336.72 1566.55 Q1339.87 1570.14 1345.57 1570.14 Q1348.12 1570.14 1350.6 1569.47 Q1353.11 1568.77 1355.6 1567.41 L1355.6 1572.82 Q1353.15 1573.96 1350.5 1574.54 Q1347.89 1575.11 1344.93 1575.11 Q1336.88 1575.11 1332.14 1570.05 Q1327.4 1564.99 1327.4 1556.39 Q1327.4 1547.67 1332.17 1542.68 Q1336.98 1537.68 1345.32 1537.68 Q1348.02 1537.68 1350.6 1538.25 Q1353.18 1538.79 1355.6 1539.91 Z" fill="#000000" fill-rule="nonzero" fill-opacity="1" /><path clip-path="url(#clip650)" d="M1376.19 1526.67 L1381.6 1526.67 L1365.05 1580.23 L1359.64 1580.23 L1376.19 1526.67 Z" fill="#000000" fill-rule="nonzero" fill-opacity="1" /><path clip-path="url(#clip650)" d="M1417.38 1552.67 L1417.38 1574.19 L1411.52 1574.19 L1411.52 1552.86 Q1411.52 1547.8 1409.55 1545.29 Q1407.57 1542.77 1403.63 1542.77 Q1398.88 1542.77 1396.15 1545.79 Q1393.41 1548.82 1393.41 1554.04 L1393.41 1574.19 L1387.52 1574.19 L1387.52 1524.66 L1393.41 1524.66 L1393.41 1544.08 Q1395.51 1540.86 1398.34 1539.27 Q1401.21 1537.68 1404.93 1537.68 Q1411.07 1537.68 1414.22 1541.5 Q1417.38 1545.29 1417.38 1552.67 Z" fill="#000000" fill-rule="nonzero" fill-opacity="1" /><path clip-path="url(#clip650)" d="M1428.13 1524.72 L1433.23 1524.72 Q1438 1532.24 1440.36 1539.43 Q1442.74 1546.62 1442.74 1553.72 Q1442.74 1560.85 1440.36 1568.07 Q1438 1575.3 1433.23 1582.78 L1428.13 1582.78 Q1432.37 1575.49 1434.44 1568.3 Q1436.54 1561.07 1436.54 1553.72 Q1436.54 1546.37 1434.44 1539.21 Q1432.37 1532.04 1428.13 1524.72 Z" fill="#000000" fill-rule="nonzero" fill-opacity="1" /><polyline clip-path="url(#clip652)" style="stroke:#000000; stroke-linecap:round; stroke-linejoin:round; stroke-width:2; stroke-opacity:0.1; fill:none" points="251.842,1138.33 2352.76,1138.33 "/>
<polyline clip-path="url(#clip652)" style="stroke:#000000; stroke-linecap:round; stroke-linejoin:round; stroke-width:2; stroke-opacity:0.1; fill:none" points="251.842,728.481 2352.76,728.481 "/>
<polyline clip-path="url(#clip652)" style="stroke:#000000; stroke-linecap:round; stroke-linejoin:round; stroke-width:2; stroke-opacity:0.1; fill:none" points="251.842,318.628 2352.76,318.628 "/>
<polyline clip-path="url(#clip650)" style="stroke:#000000; stroke-linecap:round; stroke-linejoin:round; stroke-width:4; stroke-opacity:1; fill:none" points="251.842,1410.9 251.842,123.472 "/>
<polyline clip-path="url(#clip650)" style="stroke:#000000; stroke-linecap:round; stroke-linejoin:round; stroke-width:4; stroke-opacity:1; fill:none" points="251.842,1138.33 270.74,1138.33 "/>
<polyline clip-path="url(#clip650)" style="stroke:#000000; stroke-linecap:round; stroke-linejoin:round; stroke-width:4; stroke-opacity:1; fill:none" points="251.842,728.481 270.74,728.481 "/>
<polyline clip-path="url(#clip650)" style="stroke:#000000; stroke-linecap:round; stroke-linejoin:round; stroke-width:4; stroke-opacity:1; fill:none" points="251.842,318.628 270.74,318.628 "/>
<path clip-path="url(#clip650)" d="M114.931 1158.13 L122.57 1158.13 L122.57 1131.76 L114.26 1133.43 L114.26 1129.17 L122.524 1127.5 L127.2 1127.5 L127.2 1158.13 L134.839 1158.13 L134.839 1162.06 L114.931 1162.06 L114.931 1158.13 Z" fill="#000000" fill-rule="nonzero" fill-opacity="1" /><path clip-path="url(#clip650)" d="M154.283 1130.58 Q150.672 1130.58 148.843 1134.15 Q147.038 1137.69 147.038 1144.82 Q147.038 1151.92 148.843 1155.49 Q150.672 1159.03 154.283 1159.03 Q157.917 1159.03 159.723 1155.49 Q161.552 1151.92 161.552 1144.82 Q161.552 1137.69 159.723 1134.15 Q157.917 1130.58 154.283 1130.58 M154.283 1126.88 Q160.093 1126.88 163.149 1131.48 Q166.227 1136.07 166.227 1144.82 Q166.227 1153.54 163.149 1158.15 Q160.093 1162.73 154.283 1162.73 Q148.473 1162.73 145.394 1158.15 Q142.339 1153.54 142.339 1144.82 Q142.339 1136.07 145.394 1131.48 Q148.473 1126.88 154.283 1126.88 Z" fill="#000000" fill-rule="nonzero" fill-opacity="1" /><path clip-path="url(#clip650)" d="M166.227 1120.98 L190.339 1120.98 L190.339 1124.18 L166.227 1124.18 L166.227 1120.98 Z" fill="#000000" fill-rule="nonzero" fill-opacity="1" /><path clip-path="url(#clip650)" d="M210.05 1119.51 Q212.777 1120.09 214.3 1121.94 Q215.842 1123.78 215.842 1126.49 Q215.842 1130.65 212.984 1132.92 Q210.125 1135.2 204.859 1135.2 Q203.091 1135.2 201.21 1134.84 Q199.348 1134.5 197.354 1133.81 L197.354 1130.14 Q198.934 1131.06 200.815 1131.53 Q202.696 1132 204.746 1132 Q208.319 1132 210.181 1130.59 Q212.062 1129.18 212.062 1126.49 Q212.062 1124.01 210.313 1122.61 Q208.583 1121.2 205.479 1121.2 L202.207 1121.2 L202.207 1118.08 L205.63 1118.08 Q208.432 1118.08 209.918 1116.97 Q211.404 1115.84 211.404 1113.74 Q211.404 1111.57 209.861 1110.43 Q208.338 1109.26 205.479 1109.26 Q203.918 1109.26 202.132 1109.6 Q200.345 1109.94 198.201 1110.65 L198.201 1107.27 Q200.364 1106.67 202.244 1106.36 Q204.144 1106.06 205.818 1106.06 Q210.144 1106.06 212.664 1108.04 Q215.184 1109.99 215.184 1113.34 Q215.184 1115.67 213.849 1117.29 Q212.513 1118.89 210.05 1119.51 Z" fill="#000000" fill-rule="nonzero" fill-opacity="1" /><path clip-path="url(#clip650)" d="M115.703 748.273 L123.341 748.273 L123.341 721.908 L115.031 723.574 L115.031 719.315 L123.295 717.649 L127.971 717.649 L127.971 748.273 L135.61 748.273 L135.61 752.209 L115.703 752.209 L115.703 748.273 Z" fill="#000000" fill-rule="nonzero" fill-opacity="1" /><path clip-path="url(#clip650)" d="M155.054 720.727 Q151.443 720.727 149.614 724.292 Q147.809 727.834 147.809 734.963 Q147.809 742.07 149.614 745.635 Q151.443 749.176 155.054 749.176 Q158.688 749.176 160.494 745.635 Q162.323 742.07 162.323 734.963 Q162.323 727.834 160.494 724.292 Q158.688 720.727 155.054 720.727 M155.054 717.024 Q160.864 717.024 163.92 721.63 Q166.999 726.213 166.999 734.963 Q166.999 743.69 163.92 748.297 Q160.864 752.88 155.054 752.88 Q149.244 752.88 146.165 748.297 Q143.11 743.69 143.11 734.963 Q143.11 726.213 146.165 721.63 Q149.244 717.024 155.054 717.024 Z" fill="#000000" fill-rule="nonzero" fill-opacity="1" /><path clip-path="url(#clip650)" d="M166.999 711.125 L191.11 711.125 L191.11 714.322 L166.999 714.322 L166.999 711.125 Z" fill="#000000" fill-rule="nonzero" fill-opacity="1" /><path clip-path="url(#clip650)" d="M202.583 721.601 L215.842 721.601 L215.842 724.798 L198.013 724.798 L198.013 721.601 Q200.175 719.363 203.899 715.601 Q207.642 711.821 208.601 710.73 Q210.426 708.68 211.14 707.269 Q211.874 705.84 211.874 704.467 Q211.874 702.229 210.294 700.818 Q208.733 699.408 206.213 699.408 Q204.426 699.408 202.432 700.028 Q200.458 700.649 198.201 701.909 L198.201 698.072 Q200.495 697.151 202.489 696.681 Q204.482 696.21 206.138 696.21 Q210.501 696.21 213.096 698.392 Q215.692 700.574 215.692 704.222 Q215.692 705.953 215.034 707.514 Q214.394 709.056 212.683 711.163 Q212.212 711.708 209.692 714.322 Q207.172 716.918 202.583 721.601 Z" fill="#000000" fill-rule="nonzero" fill-opacity="1" /><path clip-path="url(#clip650)" d="M115.402 338.42 L123.04 338.42 L123.04 312.055 L114.73 313.721 L114.73 309.462 L122.994 307.795 L127.67 307.795 L127.67 338.42 L135.309 338.42 L135.309 342.355 L115.402 342.355 L115.402 338.42 Z" fill="#000000" fill-rule="nonzero" fill-opacity="1" /><path clip-path="url(#clip650)" d="M154.753 310.874 Q151.142 310.874 149.313 314.439 Q147.508 317.98 147.508 325.11 Q147.508 332.216 149.313 335.781 Q151.142 339.323 154.753 339.323 Q158.388 339.323 160.193 335.781 Q162.022 332.216 162.022 325.11 Q162.022 317.98 160.193 314.439 Q158.388 310.874 154.753 310.874 M154.753 307.17 Q160.563 307.17 163.619 311.777 Q166.698 316.36 166.698 325.11 Q166.698 333.837 163.619 338.443 Q160.563 343.027 154.753 343.027 Q148.943 343.027 145.864 338.443 Q142.809 333.837 142.809 325.11 Q142.809 316.36 145.864 311.777 Q148.943 307.17 154.753 307.17 Z" fill="#000000" fill-rule="nonzero" fill-opacity="1" /><path clip-path="url(#clip650)" d="M166.698 301.272 L190.809 301.272 L190.809 304.469 L166.698 304.469 L166.698 301.272 Z" fill="#000000" fill-rule="nonzero" fill-opacity="1" /><path clip-path="url(#clip650)" d="M199.668 311.748 L205.874 311.748 L205.874 290.326 L199.122 291.68 L199.122 288.219 L205.837 286.865 L209.636 286.865 L209.636 311.748 L215.842 311.748 L215.842 314.945 L199.668 314.945 L199.668 311.748 Z" fill="#000000" fill-rule="nonzero" fill-opacity="1" /><path clip-path="url(#clip650)" d="M33.0032 814.959 Q33.0032 819.797 36.5043 822.407 Q40.1646 825.144 46.212 825.144 Q52.6095 825.144 56.3017 822.439 Q59.9619 819.701 59.9619 814.959 Q59.9619 810.28 56.2698 807.543 Q52.5777 804.806 46.212 804.806 Q40.3874 804.806 36.5043 807.543 Q33.0032 810.057 33.0032 814.959 M28.3562 814.959 L28.3562 795.512 L34.2127 795.512 L34.2127 802.068 Q39.1779 798.599 46.212 798.599 Q54.9649 798.599 59.9301 802.96 Q64.9272 807.32 64.9272 814.959 Q64.9272 822.63 59.9301 826.958 Q54.9649 831.319 46.212 831.319 Q37.3955 831.319 32.4621 826.958 Q28.3562 823.362 28.3562 814.959 Z" fill="#000000" fill-rule="nonzero" fill-opacity="1" /><path clip-path="url(#clip650)" d="M14.5426 773.391 Q21.8632 777.656 29.0246 779.725 Q36.186 781.794 43.5384 781.794 Q50.8908 781.794 58.1159 779.725 Q65.3091 777.624 72.5979 773.391 L72.5979 778.484 Q65.1182 783.258 57.8931 785.645 Q50.668 788 43.5384 788 Q36.4406 788 29.2474 785.645 Q22.0542 783.29 14.5426 778.484 L14.5426 773.391 Z" fill="#000000" fill-rule="nonzero" fill-opacity="1" /><path clip-path="url(#clip650)" d="M41.7242 739.239 Q42.4244 737.17 44.7161 735.229 Q47.0077 733.255 51.0181 731.282 L64.0042 724.757 L64.0042 731.664 L51.8138 737.743 Q47.0395 740.098 45.48 742.326 Q43.9204 744.522 43.9204 748.342 L43.9204 755.344 L64.0042 755.344 L64.0042 761.774 L16.4842 761.774 L16.4842 747.26 Q16.4842 739.112 19.8898 735.101 Q23.2955 731.091 30.1704 731.091 Q34.6582 731.091 37.6183 733.192 Q40.5784 735.26 41.7242 739.239 M21.7677 755.344 L38.6368 755.344 L38.6368 747.26 Q38.6368 742.613 36.5043 740.257 Q34.34 737.87 30.1704 737.87 Q26.0009 737.87 23.9002 740.257 Q21.7677 742.613 21.7677 747.26 L21.7677 755.344 Z" fill="#000000" fill-rule="nonzero" fill-opacity="1" /><path clip-path="url(#clip650)" d="M14.5426 717.659 L14.5426 712.567 Q22.0542 707.792 29.2474 705.437 Q36.4406 703.05 43.5384 703.05 Q50.668 703.05 57.8931 705.437 Q65.1182 707.792 72.5979 712.567 L72.5979 717.659 Q65.3091 713.426 58.1159 711.357 Q50.8908 709.256 43.5384 709.256 Q36.186 709.256 29.0246 711.357 Q21.8632 713.426 14.5426 717.659 Z" fill="#000000" fill-rule="nonzero" fill-opacity="1" /><path clip-path="url(#clip650)" d="M1198.96 33.1202 Q1192.8 33.1202 1189.48 37.5762 Q1186 42.2347 1186 49.9314 Q1186 58.0738 1189.44 62.7728 Q1192.92 67.4314 1198.96 67.4314 Q1204.92 67.4314 1208.4 62.7323 Q1211.88 58.0333 1211.88 49.9314 Q1211.88 42.5183 1208.4 37.5762 Q1205.2 33.1202 1198.96 33.1202 M1198.96 27.2059 L1223.71 27.2059 L1223.71 34.6595 L1215.37 34.6595 Q1219.78 40.9789 1219.78 49.9314 Q1219.78 61.0714 1214.23 67.3908 Q1208.68 73.7508 1198.96 73.7508 Q1189.2 73.7508 1183.69 67.3908 Q1178.14 61.0714 1178.14 49.9314 Q1178.14 38.7104 1183.69 32.4315 Q1188.27 27.2059 1198.96 27.2059 Z" fill="#000000" fill-rule="nonzero" fill-opacity="1" /><path clip-path="url(#clip650)" d="M1254.98 27.2059 L1262.88 27.2059 L1277.06 65.2844 L1291.24 27.2059 L1299.14 27.2059 L1282.13 72.576 L1272 72.576 L1254.98 27.2059 Z" fill="#000000" fill-rule="nonzero" fill-opacity="1" /><path clip-path="url(#clip650)" d="M1338.35 28.5427 L1338.35 35.5912 Q1335.19 33.9709 1331.79 33.1607 Q1328.39 32.3505 1324.74 32.3505 Q1319.19 32.3505 1316.4 34.0519 Q1313.64 35.7533 1313.64 39.156 Q1313.64 41.7486 1315.63 43.2475 Q1317.61 44.7058 1323.61 46.0426 L1326.16 46.6097 Q1334.1 48.3111 1337.42 51.4303 Q1340.78 54.509 1340.78 60.0587 Q1340.78 66.3781 1335.76 70.0644 Q1330.78 73.7508 1322.03 73.7508 Q1318.38 73.7508 1314.41 73.0216 Q1310.48 72.3329 1306.11 70.9151 L1306.11 63.2184 Q1310.24 65.3654 1314.25 66.4591 Q1318.26 67.5124 1322.19 67.5124 Q1327.46 67.5124 1330.29 65.73 Q1333.13 63.9071 1333.13 60.6258 Q1333.13 57.5877 1331.06 55.9673 Q1329.04 54.3469 1322.11 52.8481 L1319.52 52.2405 Q1312.59 50.7821 1309.51 47.7845 Q1306.43 44.7463 1306.43 39.4801 Q1306.43 33.0797 1310.97 29.5959 Q1315.51 26.1121 1323.85 26.1121 Q1327.98 26.1121 1331.63 26.7198 Q1335.27 27.3274 1338.35 28.5427 Z" fill="#000000" fill-rule="nonzero" fill-opacity="1" /><path clip-path="url(#clip650)" d="M1408.03 44.2197 Q1410.66 45.1109 1413.13 48.0275 Q1415.64 50.9442 1418.15 56.0483 L1426.46 72.576 L1417.67 72.576 L1409.93 57.061 Q1406.93 50.9847 1404.1 48.9997 Q1401.3 47.0148 1396.44 47.0148 L1387.53 47.0148 L1387.53 72.576 L1379.35 72.576 L1379.35 12.096 L1397.82 12.096 Q1408.19 12.096 1413.29 16.4305 Q1418.4 20.7649 1418.4 29.5149 Q1418.4 35.2267 1415.72 38.994 Q1413.09 42.7613 1408.03 44.2197 M1387.53 18.8205 L1387.53 40.2903 L1397.82 40.2903 Q1403.73 40.2903 1406.73 37.5762 Q1409.77 34.8216 1409.77 29.5149 Q1409.77 24.2082 1406.73 21.5346 Q1403.73 18.8205 1397.82 18.8205 L1387.53 18.8205 Z" fill="#000000" fill-rule="nonzero" fill-opacity="1" /><polyline clip-path="url(#clip652)" style="stroke:#009af9; stroke-linecap:round; stroke-linejoin:round; stroke-width:4; stroke-opacity:1; fill:none" points="311.302,159.909 331.322,161.627 351.342,163.627 371.363,165.939 391.383,168.587 411.403,171.588 431.423,174.945 451.443,178.644 471.463,182.649 491.483,186.903 511.504,191.335 531.524,195.872 551.544,200.458 571.564,205.071 591.584,209.727 611.604,214.461 631.624,219.292 651.645,224.216 671.665,229.213 691.685,234.285 711.705,239.448 731.725,244.705 751.745,250.051 771.765,255.493 791.786,261.035 811.806,266.677 831.826,272.426 851.846,278.283 871.866,284.252 891.886,290.337 911.906,296.54 931.927,302.867 951.947,309.32 971.967,315.903 991.987,322.621 1012.01,329.478 1032.03,336.478 1052.05,343.625 1072.07,350.925 1092.09,358.382 1112.11,366.002 1132.13,373.789 1152.15,381.75 1172.17,389.89 1192.19,398.216 1212.21,406.734 1232.23,415.451 1252.25,424.373 1272.27,433.51 1292.29,442.867 1312.31,452.454 1332.33,462.28 1352.35,472.352 1372.37,482.681 1392.39,493.276 1412.41,504.147 1432.43,515.304 1452.45,526.759 1472.47,538.521 1492.49,550.602 1512.51,563.013 1532.53,575.767 1552.55,588.874 1572.57,602.347 1592.59,616.197 1612.61,630.437 1632.63,645.078 1652.65,660.134 1672.67,675.615 1692.69,691.532 1712.71,707.897 1732.73,724.718 1752.75,742 1772.77,759.745 1792.79,777.934 1812.81,796.497 1832.83,815.28 1852.85,834.21 1872.87,853.419 1892.89,873.085 1912.91,893.319 1932.93,914.171 1952.95,935.654 1972.97,957.769 1992.99,980.505 2013.01,1003.85 2033.03,1027.76 2053.05,1052.19 2073.07,1077.12 2093.09,1102.48 2113.11,1128.26 2133.13,1154.41 2153.16,1180.91 2173.18,1207.73 2193.2,1234.87 2213.22,1262.28 2233.24,1289.97 2253.26,1317.9 2273.28,1346.07 2293.3,1374.46 "/>
</svg>
