<?xml version="1.0" encoding="utf-8"?>
<svg xmlns="http://www.w3.org/2000/svg" xmlns:xlink="http://www.w3.org/1999/xlink" width="600" height="400" viewBox="0 0 2400 1600">
<defs>
  <clipPath id="clip380">
    <rect x="0" y="0" width="2400" height="1600"/>
  </clipPath>
</defs>
<path clip-path="url(#clip380)" d="M0 1600 L2400 1600 L2400 0 L0 0  Z" fill="#ffffff" fill-rule="evenodd" fill-opacity="1"/>
<defs>
  <clipPath id="clip381">
    <rect x="480" y="0" width="1681" height="1600"/>
  </clipPath>
</defs>
<path clip-path="url(#clip380)" d="M222.69 1410.9 L2352.76 1410.9 L2352.76 47.2441 L222.69 47.2441  Z" fill="#ffffff" fill-rule="evenodd" fill-opacity="1"/>
<defs>
  <clipPath id="clip382">
    <rect x="222" y="47" width="2131" height="1365"/>
  </clipPath>
</defs>
<polyline clip-path="url(#clip382)" style="stroke:#000000; stroke-linecap:round; stroke-linejoin:round; stroke-width:2; stroke-opacity:0.1; fill:none" points="282.975,1410.9 282.975,47.2441 "/>
<polyline clip-path="url(#clip382)" style="stroke:#000000; stroke-linecap:round; stroke-linejoin:round; stroke-width:2; stroke-opacity:0.1; fill:none" points="748.472,1410.9 748.472,47.2441 "/>
<polyline clip-path="url(#clip382)" style="stroke:#000000; stroke-linecap:round; stroke-linejoin:round; stroke-width:2; stroke-opacity:0.1; fill:none" points="1213.97,1410.9 1213.97,47.2441 "/>
<polyline clip-path="url(#clip382)" style="stroke:#000000; stroke-linecap:round; stroke-linejoin:round; stroke-width:2; stroke-opacity:0.1; fill:none" points="1679.46,1410.9 1679.46,47.2441 "/>
<polyline clip-path="url(#clip382)" style="stroke:#000000; stroke-linecap:round; stroke-linejoin:round; stroke-width:2; stroke-opacity:0.1; fill:none" points="2144.96,1410.9 2144.96,47.2441 "/>
<polyline clip-path="url(#clip380)" style="stroke:#000000; stroke-linecap:round; stroke-linejoin:round; stroke-width:4; stroke-opacity:1; fill:none" points="222.69,1410.9 2352.76,1410.9 "/>
<polyline clip-path="url(#clip380)" style="stroke:#000000; stroke-linecap:round; stroke-linejoin:round; stroke-width:4; stroke-opacity:1; fill:none" points="282.975,1410.9 282.975,1392 "/>
<polyline clip-path="url(#clip380)" style="stroke:#000000; stroke-linecap:round; stroke-linejoin:round; stroke-width:4; stroke-opacity:1; fill:none" points="748.472,1410.9 748.472,1392 "/>
<polyline clip-path="url(#clip380)" style="stroke:#000000; stroke-linecap:round; stroke-linejoin:round; stroke-width:4; stroke-opacity:1; fill:none" points="1213.97,1410.9 1213.97,1392 "/>
<polyline clip-path="url(#clip380)" style="stroke:#000000; stroke-linecap:round; stroke-linejoin:round; stroke-width:4; stroke-opacity:1; fill:none" points="1679.46,1410.9 1679.46,1392 "/>
<polyline clip-path="url(#clip380)" style="stroke:#000000; stroke-linecap:round; stroke-linejoin:round; stroke-width:4; stroke-opacity:1; fill:none" points="2144.96,1410.9 2144.96,1392 "/>
<path clip-path="url(#clip380)" d="M232.395 1485.02 L240.033 1485.02 L240.033 1458.66 L231.723 1460.32 L231.723 1456.06 L239.987 1454.4 L244.663 1454.4 L244.663 1485.02 L252.302 1485.02 L252.302 1488.96 L232.395 1488.96 L232.395 1485.02 Z" fill="#000000" fill-rule="nonzero" fill-opacity="1" /><path clip-path="url(#clip380)" d="M271.746 1457.48 Q268.135 1457.48 266.306 1461.04 Q264.501 1464.58 264.501 1471.71 Q264.501 1478.82 266.306 1482.38 Q268.135 1485.92 271.746 1485.92 Q275.38 1485.92 277.186 1482.38 Q279.015 1478.82 279.015 1471.71 Q279.015 1464.58 277.186 1461.04 Q275.38 1457.48 271.746 1457.48 M271.746 1453.77 Q277.556 1453.77 280.612 1458.38 Q283.691 1462.96 283.691 1471.71 Q283.691 1480.44 280.612 1485.04 Q277.556 1489.63 271.746 1489.63 Q265.936 1489.63 262.857 1485.04 Q259.802 1480.44 259.802 1471.71 Q259.802 1462.96 262.857 1458.38 Q265.936 1453.77 271.746 1453.77 Z" fill="#000000" fill-rule="nonzero" fill-opacity="1" /><path clip-path="url(#clip380)" d="M283.691 1447.87 L307.802 1447.87 L307.802 1451.07 L283.691 1451.07 L283.691 1447.87 Z" fill="#000000" fill-rule="nonzero" fill-opacity="1" /><path clip-path="url(#clip380)" d="M326.441 1436.78 L316.849 1451.77 L326.441 1451.77 L326.441 1436.78 M325.444 1433.47 L330.221 1433.47 L330.221 1451.77 L334.227 1451.77 L334.227 1454.93 L330.221 1454.93 L330.221 1461.55 L326.441 1461.55 L326.441 1454.93 L313.764 1454.93 L313.764 1451.26 L325.444 1433.47 Z" fill="#000000" fill-rule="nonzero" fill-opacity="1" /><path clip-path="url(#clip380)" d="M698.352 1485.02 L705.991 1485.02 L705.991 1458.66 L697.681 1460.32 L697.681 1456.06 L705.945 1454.4 L710.62 1454.4 L710.62 1485.02 L718.259 1485.02 L718.259 1488.96 L698.352 1488.96 L698.352 1485.02 Z" fill="#000000" fill-rule="nonzero" fill-opacity="1" /><path clip-path="url(#clip380)" d="M737.704 1457.48 Q734.093 1457.48 732.264 1461.04 Q730.458 1464.58 730.458 1471.71 Q730.458 1478.82 732.264 1482.38 Q734.093 1485.92 737.704 1485.92 Q741.338 1485.92 743.143 1482.38 Q744.972 1478.82 744.972 1471.71 Q744.972 1464.58 743.143 1461.04 Q741.338 1457.48 737.704 1457.48 M737.704 1453.77 Q743.514 1453.77 746.569 1458.38 Q749.648 1462.96 749.648 1471.71 Q749.648 1480.44 746.569 1485.04 Q743.514 1489.63 737.704 1489.63 Q731.893 1489.63 728.815 1485.04 Q725.759 1480.44 725.759 1471.71 Q725.759 1462.96 728.815 1458.38 Q731.893 1453.77 737.704 1453.77 Z" fill="#000000" fill-rule="nonzero" fill-opacity="1" /><path clip-path="url(#clip380)" d="M749.648 1447.87 L773.76 1447.87 L773.76 1451.07 L749.648 1451.07 L749.648 1447.87 Z" fill="#000000" fill-rule="nonzero" fill-opacity="1" /><path clip-path="url(#clip380)" d="M793.47 1446.41 Q796.197 1446.99 797.721 1448.83 Q799.263 1450.68 799.263 1453.38 Q799.263 1457.54 796.404 1459.82 Q793.545 1462.09 788.279 1462.09 Q786.511 1462.09 784.63 1461.73 Q782.768 1461.4 780.775 1460.7 L780.775 1457.03 Q782.355 1457.95 784.235 1458.42 Q786.116 1458.89 788.166 1458.89 Q791.74 1458.89 793.602 1457.48 Q795.483 1456.07 795.483 1453.38 Q795.483 1450.9 793.733 1449.51 Q792.003 1448.1 788.9 1448.1 L785.627 1448.1 L785.627 1444.98 L789.05 1444.98 Q791.853 1444.98 793.338 1443.87 Q794.824 1442.74 794.824 1440.63 Q794.824 1438.47 793.282 1437.32 Q791.759 1436.16 788.9 1436.16 Q787.339 1436.16 785.552 1436.49 Q783.765 1436.83 781.621 1437.55 L781.621 1434.16 Q783.784 1433.56 785.665 1433.26 Q787.564 1432.96 789.238 1432.96 Q793.564 1432.96 796.084 1434.93 Q798.605 1436.89 798.605 1440.24 Q798.605 1442.57 797.269 1444.19 Q795.934 1445.79 793.47 1446.41 Z" fill="#000000" fill-rule="nonzero" fill-opacity="1" /><path clip-path="url(#clip380)" d="M1164.23 1485.02 L1171.87 1485.02 L1171.87 1458.66 L1163.56 1460.32 L1163.56 1456.06 L1171.83 1454.4 L1176.5 1454.4 L1176.5 1485.02 L1184.14 1485.02 L1184.14 1488.96 L1164.23 1488.96 L1164.23 1485.02 Z" fill="#000000" fill-rule="nonzero" fill-opacity="1" /><path clip-path="url(#clip380)" d="M1203.59 1457.48 Q1199.97 1457.48 1198.15 1461.04 Q1196.34 1464.58 1196.34 1471.71 Q1196.34 1478.82 1198.15 1482.38 Q1199.97 1485.92 1203.59 1485.92 Q1207.22 1485.92 1209.03 1482.38 Q1210.85 1478.82 1210.85 1471.71 Q1210.85 1464.58 1209.03 1461.04 Q1207.22 1457.48 1203.59 1457.48 M1203.59 1453.77 Q1209.4 1453.77 1212.45 1458.38 Q1215.53 1462.96 1215.53 1471.71 Q1215.53 1480.44 1212.45 1485.04 Q1209.4 1489.63 1203.59 1489.63 Q1197.78 1489.63 1194.7 1485.04 Q1191.64 1480.44 1191.64 1471.71 Q1191.64 1462.96 1194.7 1458.38 Q1197.78 1453.77 1203.59 1453.77 Z" fill="#000000" fill-rule="nonzero" fill-opacity="1" /><path clip-path="url(#clip380)" d="M1215.53 1447.87 L1239.64 1447.87 L1239.64 1451.07 L1215.53 1451.07 L1215.53 1447.87 Z" fill="#000000" fill-rule="nonzero" fill-opacity="1" /><path clip-path="url(#clip380)" d="M1251.11 1458.35 L1264.37 1458.35 L1264.37 1461.55 L1246.54 1461.55 L1246.54 1458.35 Q1248.71 1456.11 1252.43 1452.35 Q1256.17 1448.57 1257.13 1447.48 Q1258.96 1445.43 1259.67 1444.02 Q1260.41 1442.59 1260.41 1441.22 Q1260.41 1438.98 1258.83 1437.57 Q1257.26 1436.16 1254.74 1436.16 Q1252.96 1436.16 1250.96 1436.78 Q1248.99 1437.4 1246.73 1438.66 L1246.73 1434.82 Q1249.03 1433.9 1251.02 1433.43 Q1253.01 1432.96 1254.67 1432.96 Q1259.03 1432.96 1261.63 1435.14 Q1264.22 1437.32 1264.22 1440.97 Q1264.22 1442.7 1263.57 1444.26 Q1262.93 1445.8 1261.21 1447.91 Q1260.74 1448.46 1258.22 1451.07 Q1255.7 1453.67 1251.11 1458.35 Z" fill="#000000" fill-rule="nonzero" fill-opacity="1" /><path clip-path="url(#clip380)" d="M1629.58 1485.02 L1637.22 1485.02 L1637.22 1458.66 L1628.91 1460.32 L1628.91 1456.06 L1637.17 1454.4 L1641.85 1454.4 L1641.85 1485.02 L1649.49 1485.02 L1649.49 1488.96 L1629.58 1488.96 L1629.58 1485.02 Z" fill="#000000" fill-rule="nonzero" fill-opacity="1" /><path clip-path="url(#clip380)" d="M1668.93 1457.48 Q1665.32 1457.48 1663.49 1461.04 Q1661.69 1464.58 1661.69 1471.71 Q1661.69 1478.82 1663.49 1482.38 Q1665.32 1485.92 1668.93 1485.92 Q1672.57 1485.92 1674.37 1482.38 Q1676.2 1478.82 1676.2 1471.71 Q1676.2 1464.58 1674.37 1461.04 Q1672.57 1457.48 1668.93 1457.48 M1668.93 1453.77 Q1674.74 1453.77 1677.8 1458.38 Q1680.88 1462.96 1680.88 1471.71 Q1680.88 1480.44 1677.8 1485.04 Q1674.74 1489.63 1668.93 1489.63 Q1663.12 1489.63 1660.04 1485.04 Q1656.99 1480.44 1656.99 1471.71 Q1656.99 1462.96 1660.04 1458.38 Q1663.12 1453.77 1668.93 1453.77 Z" fill="#000000" fill-rule="nonzero" fill-opacity="1" /><path clip-path="url(#clip380)" d="M1680.88 1447.87 L1704.99 1447.87 L1704.99 1451.07 L1680.88 1451.07 L1680.88 1447.87 Z" fill="#000000" fill-rule="nonzero" fill-opacity="1" /><path clip-path="url(#clip380)" d="M1713.85 1458.35 L1720.05 1458.35 L1720.05 1436.93 L1713.3 1438.28 L1713.3 1434.82 L1720.02 1433.47 L1723.81 1433.47 L1723.81 1458.35 L1730.02 1458.35 L1730.02 1461.55 L1713.85 1461.55 L1713.85 1458.35 Z" fill="#000000" fill-rule="nonzero" fill-opacity="1" /><path clip-path="url(#clip380)" d="M2109.94 1485.02 L2117.58 1485.02 L2117.58 1458.66 L2109.27 1460.32 L2109.27 1456.06 L2117.54 1454.4 L2122.21 1454.4 L2122.21 1485.02 L2129.85 1485.02 L2129.85 1488.96 L2109.94 1488.96 L2109.94 1485.02 Z" fill="#000000" fill-rule="nonzero" fill-opacity="1" /><path clip-path="url(#clip380)" d="M2149.3 1457.48 Q2145.68 1457.48 2143.86 1461.04 Q2142.05 1464.58 2142.05 1471.71 Q2142.05 1478.82 2143.86 1482.38 Q2145.68 1485.92 2149.3 1485.92 Q2152.93 1485.92 2154.74 1482.38 Q2156.56 1478.82 2156.56 1471.71 Q2156.56 1464.58 2154.74 1461.04 Q2152.93 1457.48 2149.3 1457.48 M2149.3 1453.77 Q2155.11 1453.77 2158.16 1458.38 Q2161.24 1462.96 2161.24 1471.71 Q2161.24 1480.44 2158.16 1485.04 Q2155.11 1489.63 2149.3 1489.63 Q2143.49 1489.63 2140.41 1485.04 Q2137.35 1480.44 2137.35 1471.71 Q2137.35 1462.96 2140.41 1458.38 Q2143.49 1453.77 2149.3 1453.77 Z" fill="#000000" fill-rule="nonzero" fill-opacity="1" /><path clip-path="url(#clip380)" d="M2170.95 1435.97 Q2168.01 1435.97 2166.53 1438.86 Q2165.06 1441.74 2165.06 1447.53 Q2165.06 1453.31 2166.53 1456.2 Q2168.01 1459.08 2170.95 1459.08 Q2173.9 1459.08 2175.37 1456.2 Q2176.85 1453.31 2176.85 1447.53 Q2176.85 1441.74 2175.37 1438.86 Q2173.9 1435.97 2170.95 1435.97 M2170.95 1432.96 Q2175.67 1432.96 2178.15 1436.7 Q2180.65 1440.43 2180.65 1447.53 Q2180.65 1454.62 2178.15 1458.37 Q2175.67 1462.09 2170.95 1462.09 Q2166.22 1462.09 2163.72 1458.37 Q2161.24 1454.62 2161.24 1447.53 Q2161.24 1440.43 2163.72 1436.7 Q2166.22 1432.96 2170.95 1432.96 Z" fill="#000000" fill-rule="nonzero" fill-opacity="1" /><path clip-path="url(#clip380)" d="M1242.94 1524.66 L1248.83 1524.66 L1248.83 1553.91 L1266.3 1538.54 L1273.78 1538.54 L1254.88 1555.22 L1274.58 1574.19 L1266.94 1574.19 L1248.83 1556.78 L1248.83 1574.19 L1242.94 1574.19 L1242.94 1524.66 Z" fill="#000000" fill-rule="nonzero" fill-opacity="1" /><path clip-path="url(#clip380)" d="M1291.32 1526.67 L1296.73 1526.67 L1280.18 1580.23 L1274.77 1580.23 L1291.32 1526.67 Z" fill="#000000" fill-rule="nonzero" fill-opacity="1" /><path clip-path="url(#clip380)" d="M1332.51 1552.67 L1332.51 1574.19 L1326.65 1574.19 L1326.65 1552.86 Q1326.65 1547.8 1324.68 1545.29 Q1322.7 1542.77 1318.76 1542.77 Q1314.01 1542.77 1311.28 1545.79 Q1308.54 1548.82 1308.54 1554.04 L1308.54 1574.19 L1302.65 1574.19 L1302.65 1524.66 L1308.54 1524.66 L1308.54 1544.08 Q1310.64 1540.86 1313.47 1539.27 Q1316.34 1537.68 1320.06 1537.68 Q1326.2 1537.68 1329.35 1541.5 Q1332.51 1545.29 1332.51 1552.67 Z" fill="#000000" fill-rule="nonzero" fill-opacity="1" /><polyline clip-path="url(#clip382)" style="stroke:#000000; stroke-linecap:round; stroke-linejoin:round; stroke-width:2; stroke-opacity:0.1; fill:none" points="222.69,998.102 2352.76,998.102 "/>
<polyline clip-path="url(#clip382)" style="stroke:#000000; stroke-linecap:round; stroke-linejoin:round; stroke-width:2; stroke-opacity:0.1; fill:none" points="222.69,250.015 2352.76,250.015 "/>
<polyline clip-path="url(#clip380)" style="stroke:#000000; stroke-linecap:round; stroke-linejoin:round; stroke-width:4; stroke-opacity:1; fill:none" points="222.69,1410.9 222.69,47.2441 "/>
<polyline clip-path="url(#clip380)" style="stroke:#000000; stroke-linecap:round; stroke-linejoin:round; stroke-width:4; stroke-opacity:1; fill:none" points="222.69,998.102 241.588,998.102 "/>
<polyline clip-path="url(#clip380)" style="stroke:#000000; stroke-linecap:round; stroke-linejoin:round; stroke-width:4; stroke-opacity:1; fill:none" points="222.69,250.015 241.588,250.015 "/>
<path clip-path="url(#clip380)" d="M117.565 1017.89 L125.203 1017.89 L125.203 991.529 L116.893 993.196 L116.893 988.937 L125.157 987.27 L129.833 987.27 L129.833 1017.89 L137.472 1017.89 L137.472 1021.83 L117.565 1021.83 L117.565 1017.89 Z" fill="#000000" fill-rule="nonzero" fill-opacity="1" /><path clip-path="url(#clip380)" d="M156.916 990.349 Q153.305 990.349 151.476 993.913 Q149.671 997.455 149.671 1004.58 Q149.671 1011.69 151.476 1015.26 Q153.305 1018.8 156.916 1018.8 Q160.55 1018.8 162.356 1015.26 Q164.185 1011.69 164.185 1004.58 Q164.185 997.455 162.356 993.913 Q160.55 990.349 156.916 990.349 M156.916 986.645 Q162.726 986.645 165.782 991.251 Q168.861 995.835 168.861 1004.58 Q168.861 1013.31 165.782 1017.92 Q162.726 1022.5 156.916 1022.5 Q151.106 1022.5 148.027 1017.92 Q144.972 1013.31 144.972 1004.58 Q144.972 995.835 148.027 991.251 Q151.106 986.645 156.916 986.645 Z" fill="#000000" fill-rule="nonzero" fill-opacity="1" /><path clip-path="url(#clip380)" d="M173.431 991.222 L186.69 991.222 L186.69 994.42 L168.861 994.42 L168.861 991.222 Q171.023 988.984 174.747 985.223 Q178.49 981.442 179.449 980.351 Q181.274 978.301 181.988 976.891 Q182.722 975.461 182.722 974.088 Q182.722 971.85 181.142 970.44 Q179.581 969.029 177.061 969.029 Q175.274 969.029 173.28 969.65 Q171.306 970.27 169.049 971.53 L169.049 967.694 Q171.343 966.772 173.337 966.302 Q175.33 965.832 176.986 965.832 Q181.349 965.832 183.944 968.013 Q186.54 970.195 186.54 973.844 Q186.54 975.574 185.882 977.135 Q185.242 978.677 183.531 980.784 Q183.06 981.329 180.54 983.944 Q178.02 986.539 173.431 991.222 Z" fill="#000000" fill-rule="nonzero" fill-opacity="1" /><path clip-path="url(#clip380)" d="M114.931 269.807 L122.57 269.807 L122.57 243.441 L114.26 245.108 L114.26 240.849 L122.524 239.182 L127.2 239.182 L127.2 269.807 L134.839 269.807 L134.839 273.742 L114.931 273.742 L114.931 269.807 Z" fill="#000000" fill-rule="nonzero" fill-opacity="1" /><path clip-path="url(#clip380)" d="M154.283 242.261 Q150.672 242.261 148.843 245.826 Q147.038 249.367 147.038 256.497 Q147.038 263.603 148.843 267.168 Q150.672 270.71 154.283 270.71 Q157.917 270.71 159.723 267.168 Q161.552 263.603 161.552 256.497 Q161.552 249.367 159.723 245.826 Q157.917 242.261 154.283 242.261 M154.283 238.557 Q160.093 238.557 163.149 243.164 Q166.227 247.747 166.227 256.497 Q166.227 265.224 163.149 269.83 Q160.093 274.413 154.283 274.413 Q148.473 274.413 145.394 269.83 Q142.339 265.224 142.339 256.497 Q142.339 247.747 145.394 243.164 Q148.473 238.557 154.283 238.557 Z" fill="#000000" fill-rule="nonzero" fill-opacity="1" /><path clip-path="url(#clip380)" d="M178.904 221.562 L169.312 236.552 L178.904 236.552 L178.904 221.562 M177.907 218.252 L182.684 218.252 L182.684 236.552 L186.69 236.552 L186.69 239.711 L182.684 239.711 L182.684 246.332 L178.904 246.332 L178.904 239.711 L166.227 239.711 L166.227 236.044 L177.907 218.252 Z" fill="#000000" fill-rule="nonzero" fill-opacity="1" /><path clip-path="url(#clip380)" d="M21.7677 737.982 L39.6235 737.982 L39.6235 729.898 Q39.6235 725.41 37.3 722.959 Q34.9765 720.508 30.6797 720.508 Q26.4147 720.508 24.0912 722.959 Q21.7677 725.41 21.7677 729.898 L21.7677 737.982 M16.4842 744.412 L16.4842 729.898 Q16.4842 721.909 20.1126 717.835 Q23.7092 713.729 30.6797 713.729 Q37.7138 713.729 41.3104 717.835 Q44.907 721.909 44.907 729.898 L44.907 737.982 L64.0042 737.982 L64.0042 744.412 L16.4842 744.412 Z" fill="#000000" fill-rule="nonzero" fill-opacity="1" /><polyline clip-path="url(#clip382)" style="stroke:#009af9; stroke-linecap:round; stroke-linejoin:round; stroke-width:4; stroke-opacity:1; fill:none" points="282.975,726.257 287.018,723.14 291.062,720.023 295.106,716.906 299.149,713.789 303.191,710.672 307.235,707.556 311.277,704.439 315.321,701.323 319.365,698.206 323.407,695.09 327.452,691.974 331.494,688.858 335.537,685.742 339.581,682.626 343.624,679.51 347.668,676.394 351.711,673.279 355.754,670.163 359.796,667.048 363.84,663.933 367.883,660.818 371.927,657.704 375.969,654.589 380.013,651.475 384.056,648.36 388.1,645.247 392.143,642.133 396.186,639.019 400.23,635.906 404.273,632.792 408.316,629.679 412.359,626.567 416.402,623.454 420.446,620.342 424.489,617.23 428.532,614.119 432.576,611.007 436.619,607.896 440.662,604.785 444.705,601.676 448.749,598.565 452.792,595.456 456.835,592.346 460.878,589.236 464.921,586.129 468.965,583.021 473.008,579.913 477.052,576.806 481.095,573.699 485.138,570.593 489.181,567.486 493.225,564.381 497.267,561.276 501.311,558.172 505.354,555.068 509.397,551.965 513.441,548.862 517.484,545.761 521.527,542.66 525.571,539.559 529.614,536.459 533.657,533.36 537.7,530.262 541.743,527.164 545.787,524.067 549.83,520.971 553.873,517.877 557.916,514.782 561.96,511.689 566.003,508.597 570.046,505.506 574.09,502.415 578.133,499.326 582.176,496.238 586.219,493.151 590.262,490.065 594.306,486.981 598.349,483.898 602.392,480.816 606.435,477.735 610.479,474.656 614.522,471.578 618.565,468.502 622.609,465.427 626.652,462.354 630.695,459.282 634.738,456.212 638.781,453.144 642.825,450.078 646.868,447.013 650.911,443.95 654.954,440.889 658.998,437.83 663.041,434.774 667.084,431.719 671.127,428.667 675.171,425.616 679.214,422.568 683.257,419.523 687.301,416.479 691.344,413.439 695.387,410.4 699.43,407.365 703.473,404.332 707.517,401.302 711.56,398.275 715.603,395.251 719.646,392.229 723.69,389.211 727.733,386.196 731.776,383.185 735.819,380.177 739.863,377.172 743.906,374.17 747.949,371.173 751.993,368.179 756.035,365.189 760.08,362.202 764.122,359.22 768.166,356.242 772.209,353.269 776.251,350.299 780.295,347.335 784.339,344.375 788.382,341.419 792.425,338.469 796.469,335.523 800.511,332.583 804.554,329.648 808.597,326.718 812.641,323.793 816.684,320.875 820.728,317.962 824.771,315.055 828.814,312.154 832.857,309.26 836.901,306.372 840.943,303.49 844.987,300.615 849.03,297.747 853.073,294.887 857.117,292.033 861.16,289.187 865.204,286.348 869.246,283.517 873.29,280.694 877.333,277.88 881.377,275.073 885.42,272.275 889.463,269.486 893.506,266.706 897.549,263.934 901.593,261.172 905.636,258.42 909.679,255.677 913.723,252.945 917.766,250.222 921.809,247.51 925.852,244.808 929.895,242.117 933.939,239.437 937.982,236.768 942.025,234.112 946.069,231.466 950.111,228.832 954.155,226.211 958.198,223.602 962.242,221.006 966.285,218.422 970.328,215.852 974.371,213.296 978.415,210.753 982.458,208.223 986.501,205.708 990.545,203.208 994.587,200.722 998.631,198.251 1002.67,195.795 1006.72,193.355 1010.76,190.931 1014.8,188.523 1018.85,186.132 1022.89,183.756 1026.93,181.399 1030.98,179.058 1035.02,176.734 1039.06,174.43 1043.11,172.143 1047.15,169.875 1051.19,167.626 1055.24,165.396 1059.28,163.185 1063.32,160.996 1067.37,158.826 1071.41,156.677 1075.45,154.549 1079.5,152.441 1083.54,150.355 1087.58,148.291 1091.63,146.249 1095.67,144.231 1099.71,142.237 1103.76,140.268 1107.8,138.323 1111.84,136.404 1115.88,134.509 1119.93,132.641 1123.97,130.799 1128.01,128.984 1132.06,127.195 1136.1,125.435 1140.14,123.705 1144.19,122.003 1148.23,120.331 1152.27,118.689 1156.32,117.078 1160.36,115.498 1164.4,113.949 1168.45,112.432 1172.49,110.948 1176.53,109.498 1180.58,108.082 1184.62,106.701 1188.66,105.356 1192.71,104.048 1196.75,102.777 1200.79,101.544 1204.84,100.35 1208.88,99.1964 1212.92,98.0832 1216.97,97.0118 1221.01,95.9827 1225.05,94.997 1229.1,94.0557 1233.14,93.1595 1237.18,92.31 1241.23,91.5078 1245.27,90.754 1249.31,90.0498 1253.35,89.3964 1257.4,88.7944 1261.44,88.2461 1265.49,87.7518 1269.53,87.3133 1273.57,86.9319 1277.62,86.6084 1281.66,86.3448 1285.7,86.1421 1289.74,86.0018 1293.79,85.9254 1297.83,85.9148 1301.87,85.9704 1305.92,86.0947 1309.96,86.2891 1314,86.5555 1318.05,86.8944 1322.09,87.3085 1326.13,87.7985 1330.18,88.3674 1334.22,89.0155 1338.26,89.7449 1342.31,90.5567 1346.35,91.4539 1350.39,92.4368 1354.44,93.5069 1358.48,94.6664 1362.52,95.916 1366.57,97.2578 1370.61,98.6926 1374.65,100.222 1378.7,101.845 1382.74,103.566 1386.78,105.383 1390.83,107.297 1394.87,109.308 1398.91,111.418 1402.96,113.625 1407,115.93 1411.04,118.33 1415.09,120.825 1419.13,123.414 1423.17,126.096 1427.22,128.867 1431.26,131.724 1435.3,134.665 1439.35,137.684 1443.39,140.779 1447.43,143.945 1451.47,147.175 1455.52,150.463 1459.56,153.803 1463.6,157.189 1467.65,160.611 1471.69,164.058 1475.73,167.522 1479.78,170.991 1483.82,174.458 1487.86,177.911 1491.91,181.345 1495.95,184.754 1499.99,188.128 1504.04,191.459 1508.08,194.731 1512.12,197.926 1516.17,201.028 1520.21,204.021 1524.25,206.898 1528.3,209.669 1532.34,212.338 1536.38,214.916 1540.43,217.41 1544.47,219.83 1548.51,222.183 1552.56,224.478 1556.6,226.727 1560.64,228.939 1564.69,231.13 1568.73,233.312 1572.77,235.506 1576.82,237.746 1580.86,240.064 1584.9,242.495 1588.95,245.073 1592.99,247.833 1597.03,250.81 1601.08,254.036 1605.12,257.543 1609.16,261.36 1613.21,265.503 1617.25,269.972 1621.29,274.771 1625.33,279.889 1629.38,285.312 1633.42,291.022 1637.46,296.988 1641.51,303.175 1645.55,309.54 1649.59,316.031 1653.64,322.59 1657.68,329.139 1661.72,335.595 1665.77,341.876 1669.81,347.887 1673.85,353.538 1677.9,358.759 1681.94,363.509 1685.98,367.757 1690.03,371.534 1694.07,374.889 1698.11,377.903 1702.16,380.69 1706.2,383.373 1710.24,386.086 1714.29,388.97 1718.33,392.154 1722.37,395.765 1726.42,399.902 1730.46,404.646 1734.5,410.041 1738.55,416.101 1742.59,422.791 1746.63,430.041 1750.68,437.717 1754.72,445.642 1758.76,453.577 1762.8,461.264 1766.85,468.453 1770.89,474.958 1774.94,480.681 1778.98,485.632 1783.02,489.897 1787.06,493.632 1791.11,497.054 1795.15,500.431 1799.19,504.084 1803.24,508.316 1807.28,513.359 1811.32,519.306 1815.37,526.102 1819.41,533.583 1823.45,541.508 1827.5,549.573 1831.54,557.423 1835.58,564.715 1839.63,571.207 1843.67,576.838 1847.71,581.736 1851.76,586.186 1855.8,590.575 1859.84,595.317 1863.89,600.736 1867.93,606.975 1871.97,613.983 1876.02,621.537 1880.06,629.298 1884.1,636.854 1888.15,643.86 1892.19,650.171 1896.23,655.876 1900.28,661.25 1904.32,666.672 1908.36,672.508 1912.41,678.962 1916.45,685.991 1920.49,693.353 1924.54,700.714 1928.58,707.768 1932.62,714.361 1936.67,720.57 1940.71,726.647 1944.75,732.886 1948.8,739.502 1952.84,746.5 1956.88,753.684 1960.92,760.821 1964.97,767.733 1969.01,774.386 1973.05,780.941 1977.1,787.592 1981.14,794.458 1985.18,801.528 1989.23,808.65 1993.27,815.684 1997.31,822.596 2001.36,829.444 2005.4,836.357 2009.44,843.395 2013.49,850.516 2017.53,857.644 2021.57,864.713 2025.62,871.753 2029.66,878.824 2033.7,885.966 2037.75,893.145 2041.79,900.329 2045.83,907.506 2049.88,914.687 2053.92,921.883 2057.96,929.101 2062.01,936.339 2066.05,943.597 2070.09,950.874 2074.14,958.17 2078.18,965.485 2082.22,972.816 2086.27,980.165 2090.31,987.53 2094.35,994.913 2098.4,1002.31 2102.44,1009.72 2106.48,1017.15 2110.53,1024.59 2114.57,1032.04 2118.61,1039.51 2122.65,1046.99 2126.7,1054.49 2130.74,1062 2134.78,1069.52 2138.83,1077.05 2142.87,1084.59 2146.92,1092.15 2150.96,1099.72 2155,1107.31 2159.04,1114.91 2163.09,1122.51 2167.13,1130.14 2171.17,1137.77 2175.22,1145.41 2179.26,1153.07 2183.3,1160.74 2187.35,1168.43 2191.39,1176.12 2195.43,1183.83 2199.48,1191.55 2203.52,1199.28 2207.56,1207.03 2211.61,1214.79 2215.65,1222.56 2219.69,1230.34 2223.74,1238.14 2227.78,1245.95 2231.82,1253.78 2235.87,1261.61 2239.91,1269.46 2243.95,1277.33 2248,1285.2 2252.04,1293.08 2256.08,1300.98 2260.12,1308.88 2264.17,1316.79 2268.21,1324.71 2272.26,1332.63 2276.3,1340.56 2280.34,1348.49 2284.39,1356.43 2288.43,1364.36 2292.47,1372.3 "/>
<polyline clip-path="url(#clip382)" style="stroke:#e26f46; stroke-linecap:round; stroke-linejoin:round; stroke-width:4; stroke-opacity:1; fill:none" points="282.975,727.026 287.018,723.908 291.062,720.791 295.106,717.673 299.149,714.556 303.191,711.439 307.235,708.321 311.277,705.205 315.321,702.088 319.365,698.97 323.407,695.854 327.452,692.736 331.494,689.62 335.537,686.503 339.581,683.387 343.624,680.27 347.668,677.154 351.711,674.038 355.754,670.922 359.796,667.806 363.84,664.69 367.883,661.574 371.927,658.458 375.969,655.343 380.013,652.228 384.056,649.113 388.1,645.997 392.143,642.882 396.186,639.768 400.23,636.653 404.273,633.539 408.316,630.424 412.359,627.31 416.402,624.197 420.446,621.083 424.489,617.97 428.532,614.856 432.576,611.743 436.619,608.63 440.662,605.518 444.705,602.406 448.749,599.293 452.792,596.181 456.835,593.07 460.878,589.959 464.921,586.848 468.965,583.738 473.008,580.627 477.052,577.517 481.095,574.408 485.138,571.299 489.181,568.19 493.225,565.081 497.267,561.973 501.311,558.866 505.354,555.759 509.397,552.652 513.441,549.546 517.484,546.44 521.527,543.335 525.571,540.23 529.614,537.126 533.657,534.023 537.7,530.92 541.743,527.817 545.787,524.715 549.83,521.615 553.873,518.514 557.916,515.415 561.96,512.316 566.003,509.217 570.046,506.12 574.09,503.023 578.133,499.928 582.176,496.833 586.219,493.739 590.262,490.646 594.306,487.554 598.349,484.463 602.392,481.373 606.435,478.284 610.479,475.196 614.522,472.11 618.565,469.024 622.609,465.94 626.652,462.857 630.695,459.776 634.738,456.696 638.781,453.617 642.825,450.54 646.868,447.464 650.911,444.39 654.954,441.317 658.998,438.247 663.041,435.178 667.084,432.111 671.127,429.045 675.171,425.982 679.214,422.92 683.257,419.861 687.301,416.804 691.344,413.749 695.387,410.696 699.43,407.646 703.473,404.598 707.517,401.553 711.56,398.51 715.603,395.47 719.646,392.432 723.69,389.398 727.733,386.366 731.776,383.338 735.819,380.312 739.863,377.29 743.906,374.271 747.949,371.256 751.993,368.244 756.035,365.236 760.08,362.231 764.122,359.231 768.166,356.234 772.209,353.241 776.251,350.254 780.295,347.27 784.339,344.29 788.382,341.316 792.425,338.346 796.469,335.38 800.511,332.421 804.554,329.466 808.597,326.517 812.641,323.573 816.684,320.634 820.728,317.701 824.771,314.775 828.814,311.854 832.857,308.94 836.901,306.032 840.943,303.131 844.987,300.237 849.03,297.349 853.073,294.469 857.117,291.596 861.16,288.731 865.204,285.873 869.246,283.024 873.29,280.182 877.333,277.349 881.377,274.524 885.42,271.708 889.463,268.901 893.506,266.103 897.549,263.315 901.593,260.536 905.636,257.768 909.679,255.009 913.723,252.26 917.766,249.522 921.809,246.795 925.852,244.08 929.895,241.375 933.939,238.681 937.982,236 942.025,233.331 946.069,230.673 950.111,228.029 954.155,225.397 958.198,222.778 962.242,220.173 966.285,217.581 970.328,215.004 974.371,212.44 978.415,209.891 982.458,207.357 986.501,204.837 990.545,202.333 994.587,199.845 998.631,197.373 1002.67,194.917 1006.72,192.477 1010.76,190.054 1014.8,187.649 1018.85,185.261 1022.89,182.89 1026.93,180.538 1030.98,178.204 1035.02,175.889 1039.06,173.593 1043.11,171.316 1047.15,169.059 1051.19,166.822 1055.24,164.606 1059.28,162.41 1063.32,160.235 1067.37,158.082 1071.41,155.95 1075.45,153.841 1079.5,151.754 1083.54,149.69 1087.58,147.649 1091.63,145.632 1095.67,143.639 1099.71,141.67 1103.76,139.726 1107.8,137.807 1111.84,135.914 1115.88,134.047 1119.93,132.206 1123.97,130.391 1128.01,128.605 1132.06,126.845 1136.1,125.114 1140.14,123.412 1144.19,121.738 1148.23,120.094 1152.27,118.48 1156.32,116.896 1160.36,115.344 1164.4,113.823 1168.45,112.334 1172.49,110.877 1176.53,109.454 1180.58,108.064 1184.62,106.709 1188.66,105.388 1192.71,104.103 1196.75,102.854 1200.79,101.643 1204.84,100.468 1208.88,99.3321 1212.92,98.235 1216.97,97.1776 1221.01,96.1609 1225.05,95.1853 1229.1,94.2521 1233.14,93.3619 1237.18,92.5157 1241.23,91.7145 1245.27,90.9591 1249.31,90.2508 1253.35,89.5905 1257.4,88.9791 1261.44,88.4181 1265.49,87.9084 1269.53,87.4513 1273.57,87.0483 1277.62,86.7003 1281.66,86.4091 1285.7,86.1757 1289.74,86.0018 1293.79,85.8887 1297.83,85.838 1301.87,85.8514 1305.92,85.9303 1309.96,86.0765 1314,86.2917 1318.05,86.5774 1322.09,86.9356 1326.13,87.3677 1330.18,87.8758 1334.22,88.4614 1338.26,89.1264 1342.31,89.8724 1346.35,90.7011 1350.39,91.6144 1354.44,92.6135 1358.48,93.7001 1362.52,94.8756 1366.57,96.1411 1370.61,97.4979 1374.65,98.9471 1378.7,100.49 1382.74,102.126 1386.78,103.856 1390.83,105.681 1394.87,107.6 1398.91,109.613 1402.96,111.72 1407,113.918 1411.04,116.208 1415.09,118.587 1419.13,121.053 1423.17,123.605 1427.22,126.238 1431.26,128.95 1435.3,131.737 1439.35,134.597 1443.39,137.523 1447.43,140.512 1451.47,143.558 1455.52,146.657 1459.56,149.803 1463.6,152.99 1467.65,156.212 1471.69,159.463 1475.73,162.736 1479.78,166.025 1483.82,169.323 1487.86,172.623 1491.91,175.918 1495.95,179.202 1499.99,182.467 1504.04,185.706 1508.08,188.913 1512.12,192.081 1516.17,195.204 1520.21,198.275 1524.25,201.289 1528.3,204.241 1532.34,207.127 1536.38,209.942 1540.43,212.685 1544.47,215.355 1548.51,217.953 1552.56,220.481 1556.6,222.942 1560.64,225.345 1564.69,227.698 1568.73,230.013 1572.77,232.306 1576.82,234.593 1580.86,236.895 1584.9,239.236 1588.95,241.641 1592.99,244.139 1597.03,246.76 1601.08,249.535 1605.12,252.496 1609.16,255.675 1613.21,259.102 1617.25,262.806 1621.29,266.811 1625.33,271.138 1629.38,275.801 1633.42,280.805 1637.46,286.15 1641.51,291.82 1645.55,297.794 1649.59,304.035 1653.64,310.492 1657.68,317.107 1661.72,323.805 1665.77,330.504 1669.81,337.114 1673.85,343.544 1677.9,349.703 1681.94,355.512 1685.98,360.903 1690.03,365.832 1694.07,370.283 1698.11,374.267 1702.16,377.834 1706.2,381.062 1710.24,384.06 1714.29,386.962 1718.33,389.917 1722.37,393.078 1726.42,396.595 1730.46,400.6 1734.5,405.198 1738.55,410.455 1742.59,416.395 1746.63,422.983 1750.68,430.136 1754.72,437.708 1758.76,445.511 1762.8,453.323 1766.85,460.909 1770.89,468.047 1774.94,474.559 1778.98,480.341 1783.02,485.386 1787.06,489.786 1791.11,493.729 1795.15,497.473 1799.19,501.316 1803.24,505.545 1807.28,510.397 1811.32,516.023 1815.37,522.455 1819.41,529.603 1823.45,537.249 1827.5,545.094 1831.54,552.794 1835.58,560.03 1839.63,566.59 1843.67,572.408 1847.71,577.598 1851.76,582.422 1855.8,587.233 1859.84,592.382 1863.89,598.131 1867.93,604.586 1871.97,611.666 1876.02,619.12 1880.06,626.604 1884.1,633.781 1888.15,640.431 1892.19,646.53 1896.23,652.253 1900.28,657.907 1904.32,663.813 1908.36,670.182 1912.41,677.036 1916.45,684.208 1920.49,691.418 1924.54,698.397 1928.58,705.021 1932.62,711.351 1936.67,717.598 1940.71,724.004 1944.75,730.709 1948.8,737.686 1952.84,744.768 1956.88,751.762 1960.92,758.562 1964.97,765.211 1969.01,771.856 1973.05,778.636 1977.1,785.588 1981.14,792.632 1985.18,799.649 1989.23,806.573 1993.27,813.437 1997.31,820.331 2001.36,827.319 2005.4,834.384 2009.44,841.458 2013.49,848.496 2017.53,855.51 2021.57,862.551 2025.62,869.649 2029.66,876.783 2033.7,883.915 2037.75,891.035 2041.79,898.169 2045.83,905.337 2049.88,912.535 2053.92,919.738 2057.96,926.941 2062.01,934.16 2066.05,941.408 2070.09,948.674 2074.14,955.943 2078.18,963.222 2082.22,970.524 2086.27,977.846 2090.31,985.173 2094.35,992.511 2098.4,999.87 2102.44,1007.25 2106.48,1014.63 2110.53,1022.02 2114.57,1029.44 2118.61,1036.87 2122.65,1044.3 2126.7,1051.75 2130.74,1059.22 2134.78,1066.7 2138.83,1074.19 2142.87,1081.69 2146.92,1089.21 2150.96,1096.74 2155,1104.28 2159.04,1111.83 2163.09,1119.4 2167.13,1126.98 2171.17,1134.57 2175.22,1142.18 2179.26,1149.79 2183.3,1157.42 2187.35,1165.06 2191.39,1172.71 2195.43,1180.37 2199.48,1188.04 2203.52,1195.73 2207.56,1203.43 2211.61,1211.13 2215.65,1218.85 2219.69,1226.58 2223.74,1234.33 2227.78,1242.08 2231.82,1249.84 2235.87,1257.62 2239.91,1265.4 2243.95,1273.2 2248,1281.01 2252.04,1288.82 2256.08,1296.65 2260.12,1304.49 2264.17,1312.34 2268.21,1320.2 2272.26,1328.07 2276.3,1335.95 2280.34,1343.84 2284.39,1351.74 2288.43,1359.64 2292.47,1367.56 "/>
<path clip-path="url(#clip380)" d="M1872.87 248.219 L2281.75 248.219 L2281.75 92.6992 L1872.87 92.6992  Z" fill="#ffffff" fill-rule="evenodd" fill-opacity="1"/>
<polyline clip-path="url(#clip380)" style="stroke:#000000; stroke-linecap:round; stroke-linejoin:round; stroke-width:4; stroke-opacity:1; fill:none" points="1872.87,248.219 2281.75,248.219 2281.75,92.6992 1872.87,92.6992 1872.87,248.219 "/>
<polyline clip-path="url(#clip380)" style="stroke:#009af9; stroke-linecap:round; stroke-linejoin:round; stroke-width:4; stroke-opacity:1; fill:none" points="1896.54,144.539 2038.54,144.539 "/>
<path clip-path="url(#clip380)" d="M2090.08 129.921 L2090.08 134.852 Q2087.72 132.653 2085.03 131.565 Q2082.37 130.477 2079.36 130.477 Q2073.43 130.477 2070.29 134.111 Q2067.14 137.722 2067.14 144.574 Q2067.14 151.403 2070.29 155.037 Q2073.43 158.648 2079.36 158.648 Q2082.37 158.648 2085.03 157.56 Q2087.72 156.472 2090.08 154.273 L2090.08 159.157 Q2087.62 160.824 2084.87 161.657 Q2082.14 162.49 2079.08 162.49 Q2071.24 162.49 2066.72 157.699 Q2062.21 152.884 2062.21 144.574 Q2062.21 136.241 2066.72 131.449 Q2071.24 126.634 2079.08 126.634 Q2082.18 126.634 2084.92 127.468 Q2087.67 128.278 2090.08 129.921 Z" fill="#000000" fill-rule="nonzero" fill-opacity="1" /><path clip-path="url(#clip380)" d="M2108.85 131.866 L2102.51 149.065 L2115.22 149.065 L2108.85 131.866 M2106.21 127.259 L2111.51 127.259 L2124.68 161.819 L2119.82 161.819 L2116.68 152.953 L2101.1 152.953 L2097.95 161.819 L2093.02 161.819 L2106.21 127.259 Z" fill="#000000" fill-rule="nonzero" fill-opacity="1" /><path clip-path="url(#clip380)" d="M2129.73 127.259 L2136.7 127.259 L2145.52 150.778 L2154.38 127.259 L2161.35 127.259 L2161.35 161.819 L2156.79 161.819 L2156.79 131.472 L2147.88 155.176 L2143.18 155.176 L2134.27 131.472 L2134.27 161.819 L2129.73 161.819 L2129.73 127.259 Z" fill="#000000" fill-rule="nonzero" fill-opacity="1" /><path clip-path="url(#clip380)" d="M2175.31 145.315 L2175.31 157.977 L2182.81 157.977 Q2186.58 157.977 2188.39 156.426 Q2190.22 154.852 2190.22 151.634 Q2190.22 148.393 2188.39 146.866 Q2186.58 145.315 2182.81 145.315 L2175.31 145.315 M2175.31 131.102 L2175.31 141.518 L2182.23 141.518 Q2185.66 141.518 2187.32 140.245 Q2189.01 138.949 2189.01 136.31 Q2189.01 133.694 2187.32 132.398 Q2185.66 131.102 2182.23 131.102 L2175.31 131.102 M2170.63 127.259 L2182.58 127.259 Q2187.92 127.259 2190.82 129.481 Q2193.71 131.704 2193.71 135.801 Q2193.71 138.972 2192.23 140.847 Q2190.75 142.722 2187.88 143.185 Q2191.33 143.926 2193.23 146.287 Q2195.15 148.625 2195.15 152.143 Q2195.15 156.773 2192 159.296 Q2188.85 161.819 2183.04 161.819 L2170.63 161.819 L2170.63 127.259 Z" fill="#000000" fill-rule="nonzero" fill-opacity="1" /><polyline clip-path="url(#clip380)" style="stroke:#e26f46; stroke-linecap:round; stroke-linejoin:round; stroke-width:4; stroke-opacity:1; fill:none" points="1896.54,196.379 2038.54,196.379 "/>
<path clip-path="url(#clip380)" d="M2062.21 179.099 L2068.5 179.099 L2083.83 208.011 L2083.83 179.099 L2088.37 179.099 L2088.37 213.659 L2082.07 213.659 L2066.74 184.747 L2066.74 213.659 L2062.21 213.659 L2062.21 179.099 Z" fill="#000000" fill-rule="nonzero" fill-opacity="1" /><path clip-path="url(#clip380)" d="M2107.53 190.719 Q2104.11 190.719 2102.11 193.405 Q2100.12 196.067 2100.12 200.719 Q2100.12 205.372 2102.09 208.057 Q2104.08 210.719 2107.53 210.719 Q2110.93 210.719 2112.93 208.034 Q2114.92 205.349 2114.92 200.719 Q2114.92 196.113 2112.93 193.428 Q2110.93 190.719 2107.53 190.719 M2107.53 187.108 Q2113.09 187.108 2116.26 190.719 Q2119.43 194.331 2119.43 200.719 Q2119.43 207.085 2116.26 210.719 Q2113.09 214.33 2107.53 214.33 Q2101.95 214.33 2098.78 210.719 Q2095.63 207.085 2095.63 200.719 Q2095.63 194.331 2098.78 190.719 Q2101.95 187.108 2107.53 187.108 Z" fill="#000000" fill-rule="nonzero" fill-opacity="1" /><path clip-path="url(#clip380)" d="M2148.04 198.011 L2148.04 213.659 L2143.78 213.659 L2143.78 198.15 Q2143.78 194.469 2142.35 192.641 Q2140.91 190.812 2138.04 190.812 Q2134.59 190.812 2132.6 193.011 Q2130.61 195.21 2130.61 199.006 L2130.61 213.659 L2126.33 213.659 L2126.33 187.733 L2130.61 187.733 L2130.61 191.761 Q2132.14 189.423 2134.2 188.266 Q2136.28 187.108 2138.99 187.108 Q2143.46 187.108 2145.75 189.886 Q2148.04 192.641 2148.04 198.011 Z" fill="#000000" fill-rule="nonzero" fill-opacity="1" /><path clip-path="url(#clip380)" d="M2156.54 177.641 L2160.8 177.641 L2160.8 213.659 L2156.54 213.659 L2156.54 177.641 Z" fill="#000000" fill-rule="nonzero" fill-opacity="1" /><path clip-path="url(#clip380)" d="M2179.75 190.719 Q2176.33 190.719 2174.34 193.405 Q2172.35 196.067 2172.35 200.719 Q2172.35 205.372 2174.31 208.057 Q2176.3 210.719 2179.75 210.719 Q2183.16 210.719 2185.15 208.034 Q2187.14 205.349 2187.14 200.719 Q2187.14 196.113 2185.15 193.428 Q2183.16 190.719 2179.75 190.719 M2179.75 187.108 Q2185.31 187.108 2188.48 190.719 Q2191.65 194.331 2191.65 200.719 Q2191.65 207.085 2188.48 210.719 Q2185.31 214.33 2179.75 214.33 Q2174.17 214.33 2171 210.719 Q2167.86 207.085 2167.86 200.719 Q2167.86 194.331 2171 190.719 Q2174.17 187.108 2179.75 187.108 Z" fill="#000000" fill-rule="nonzero" fill-opacity="1" /><path clip-path="url(#clip380)" d="M2217.37 188.729 L2217.37 192.71 Q2215.56 191.715 2213.73 191.229 Q2211.93 190.719 2210.08 190.719 Q2205.93 190.719 2203.64 193.358 Q2201.35 195.974 2201.35 200.719 Q2201.35 205.465 2203.64 208.104 Q2205.93 210.719 2210.08 210.719 Q2211.93 210.719 2213.73 210.233 Q2215.56 209.724 2217.37 208.729 L2217.37 212.664 Q2215.59 213.497 2213.67 213.914 Q2211.77 214.33 2209.61 214.33 Q2203.76 214.33 2200.31 210.65 Q2196.86 206.969 2196.86 200.719 Q2196.86 194.377 2200.33 190.743 Q2203.83 187.108 2209.89 187.108 Q2211.86 187.108 2213.73 187.525 Q2215.61 187.919 2217.37 188.729 Z" fill="#000000" fill-rule="nonzero" fill-opacity="1" /><path clip-path="url(#clip380)" d="M2236.56 200.627 Q2231.4 200.627 2229.41 201.807 Q2227.42 202.988 2227.42 205.835 Q2227.42 208.104 2228.9 209.446 Q2230.4 210.766 2232.97 210.766 Q2236.51 210.766 2238.64 208.266 Q2240.79 205.743 2240.79 201.576 L2240.79 200.627 L2236.56 200.627 M2245.05 198.868 L2245.05 213.659 L2240.79 213.659 L2240.79 209.724 Q2239.34 212.085 2237.16 213.219 Q2234.98 214.33 2231.84 214.33 Q2227.86 214.33 2225.49 212.108 Q2223.16 209.863 2223.16 206.113 Q2223.16 201.738 2226.07 199.516 Q2229.01 197.294 2234.82 197.294 L2240.79 197.294 L2240.79 196.877 Q2240.79 193.937 2238.85 192.34 Q2236.93 190.719 2233.43 190.719 Q2231.21 190.719 2229.1 191.252 Q2227 191.784 2225.05 192.849 L2225.05 188.914 Q2227.39 188.011 2229.59 187.571 Q2231.79 187.108 2233.87 187.108 Q2239.5 187.108 2242.28 190.025 Q2245.05 192.942 2245.05 198.868 Z" fill="#000000" fill-rule="nonzero" fill-opacity="1" /><path clip-path="url(#clip380)" d="M2253.83 177.641 L2258.09 177.641 L2258.09 213.659 L2253.83 213.659 L2253.83 177.641 Z" fill="#000000" fill-rule="nonzero" fill-opacity="1" /></svg>
