<?xml version="1.0" encoding="utf-8"?>
<svg xmlns="http://www.w3.org/2000/svg" xmlns:xlink="http://www.w3.org/1999/xlink" width="600" height="400" viewBox="0 0 2400 1600">
<defs>
  <clipPath id="clip470">
    <rect x="0" y="0" width="2400" height="1600"/>
  </clipPath>
</defs>
<path clip-path="url(#clip470)" d="M0 1600 L2400 1600 L2400 0 L0 0  Z" fill="#ffffff" fill-rule="evenodd" fill-opacity="1"/>
<defs>
  <clipPath id="clip471">
    <rect x="480" y="0" width="1681" height="1600"/>
  </clipPath>
</defs>
<path clip-path="url(#clip470)" d="M250.028 1410.9 L2352.76 1410.9 L2352.76 123.472 L250.028 123.472  Z" fill="#ffffff" fill-rule="evenodd" fill-opacity="1"/>
<defs>
  <clipPath id="clip472">
    <rect x="250" y="123" width="2104" height="1288"/>
  </clipPath>
</defs>
<polyline clip-path="url(#clip472)" style="stroke:#000000; stroke-linecap:round; stroke-linejoin:round; stroke-width:2; stroke-opacity:0.1; fill:none" points="309.539,1410.9 309.539,123.472 "/>
<polyline clip-path="url(#clip472)" style="stroke:#000000; stroke-linecap:round; stroke-linejoin:round; stroke-width:2; stroke-opacity:0.1; fill:none" points="769.062,1410.9 769.062,123.472 "/>
<polyline clip-path="url(#clip472)" style="stroke:#000000; stroke-linecap:round; stroke-linejoin:round; stroke-width:2; stroke-opacity:0.1; fill:none" points="1228.58,1410.9 1228.58,123.472 "/>
<polyline clip-path="url(#clip472)" style="stroke:#000000; stroke-linecap:round; stroke-linejoin:round; stroke-width:2; stroke-opacity:0.1; fill:none" points="1688.11,1410.9 1688.11,123.472 "/>
<polyline clip-path="url(#clip472)" style="stroke:#000000; stroke-linecap:round; stroke-linejoin:round; stroke-width:2; stroke-opacity:0.1; fill:none" points="2147.63,1410.9 2147.63,123.472 "/>
<polyline clip-path="url(#clip470)" style="stroke:#000000; stroke-linecap:round; stroke-linejoin:round; stroke-width:4; stroke-opacity:1; fill:none" points="250.028,1410.9 2352.76,1410.9 "/>
<polyline clip-path="url(#clip470)" style="stroke:#000000; stroke-linecap:round; stroke-linejoin:round; stroke-width:4; stroke-opacity:1; fill:none" points="309.539,1410.9 309.539,1392 "/>
<polyline clip-path="url(#clip470)" style="stroke:#000000; stroke-linecap:round; stroke-linejoin:round; stroke-width:4; stroke-opacity:1; fill:none" points="769.062,1410.9 769.062,1392 "/>
<polyline clip-path="url(#clip470)" style="stroke:#000000; stroke-linecap:round; stroke-linejoin:round; stroke-width:4; stroke-opacity:1; fill:none" points="1228.58,1410.9 1228.58,1392 "/>
<polyline clip-path="url(#clip470)" style="stroke:#000000; stroke-linecap:round; stroke-linejoin:round; stroke-width:4; stroke-opacity:1; fill:none" points="1688.11,1410.9 1688.11,1392 "/>
<polyline clip-path="url(#clip470)" style="stroke:#000000; stroke-linecap:round; stroke-linejoin:round; stroke-width:4; stroke-opacity:1; fill:none" points="2147.63,1410.9 2147.63,1392 "/>
<path clip-path="url(#clip470)" d="M258.959 1485.02 L266.598 1485.02 L266.598 1458.66 L258.287 1460.32 L258.287 1456.06 L266.551 1454.4 L271.227 1454.4 L271.227 1485.02 L278.866 1485.02 L278.866 1488.96 L258.959 1488.96 L258.959 1485.02 Z" fill="#000000" fill-rule="nonzero" fill-opacity="1" /><path clip-path="url(#clip470)" d="M298.31 1457.48 Q294.699 1457.48 292.871 1461.04 Q291.065 1464.58 291.065 1471.71 Q291.065 1478.82 292.871 1482.38 Q294.699 1485.92 298.31 1485.92 Q301.945 1485.92 303.75 1482.38 Q305.579 1478.82 305.579 1471.71 Q305.579 1464.58 303.75 1461.04 Q301.945 1457.48 298.31 1457.48 M298.31 1453.77 Q304.12 1453.77 307.176 1458.38 Q310.255 1462.96 310.255 1471.71 Q310.255 1480.44 307.176 1485.04 Q304.12 1489.63 298.31 1489.63 Q292.5 1489.63 289.422 1485.04 Q286.366 1480.44 286.366 1471.71 Q286.366 1462.96 289.422 1458.38 Q292.5 1453.77 298.31 1453.77 Z" fill="#000000" fill-rule="nonzero" fill-opacity="1" /><path clip-path="url(#clip470)" d="M310.255 1447.87 L334.366 1447.87 L334.366 1451.07 L310.255 1451.07 L310.255 1447.87 Z" fill="#000000" fill-rule="nonzero" fill-opacity="1" /><path clip-path="url(#clip470)" d="M353.005 1436.78 L343.413 1451.77 L353.005 1451.77 L353.005 1436.78 M352.008 1433.47 L356.785 1433.47 L356.785 1451.77 L360.791 1451.77 L360.791 1454.93 L356.785 1454.93 L356.785 1461.55 L353.005 1461.55 L353.005 1454.93 L340.328 1454.93 L340.328 1451.26 L352.008 1433.47 Z" fill="#000000" fill-rule="nonzero" fill-opacity="1" /><path clip-path="url(#clip470)" d="M718.942 1485.02 L726.581 1485.02 L726.581 1458.66 L718.27 1460.32 L718.27 1456.06 L726.534 1454.4 L731.21 1454.4 L731.21 1485.02 L738.849 1485.02 L738.849 1488.96 L718.942 1488.96 L718.942 1485.02 Z" fill="#000000" fill-rule="nonzero" fill-opacity="1" /><path clip-path="url(#clip470)" d="M758.293 1457.48 Q754.682 1457.48 752.854 1461.04 Q751.048 1464.58 751.048 1471.71 Q751.048 1478.82 752.854 1482.38 Q754.682 1485.92 758.293 1485.92 Q761.928 1485.92 763.733 1482.38 Q765.562 1478.82 765.562 1471.71 Q765.562 1464.58 763.733 1461.04 Q761.928 1457.48 758.293 1457.48 M758.293 1453.77 Q764.104 1453.77 767.159 1458.38 Q770.238 1462.96 770.238 1471.71 Q770.238 1480.44 767.159 1485.04 Q764.104 1489.63 758.293 1489.63 Q752.483 1489.63 749.405 1485.04 Q746.349 1480.44 746.349 1471.71 Q746.349 1462.96 749.405 1458.38 Q752.483 1453.77 758.293 1453.77 Z" fill="#000000" fill-rule="nonzero" fill-opacity="1" /><path clip-path="url(#clip470)" d="M770.238 1447.87 L794.349 1447.87 L794.349 1451.07 L770.238 1451.07 L770.238 1447.87 Z" fill="#000000" fill-rule="nonzero" fill-opacity="1" /><path clip-path="url(#clip470)" d="M814.06 1446.41 Q816.787 1446.99 818.31 1448.83 Q819.853 1450.68 819.853 1453.38 Q819.853 1457.54 816.994 1459.82 Q814.135 1462.09 808.869 1462.09 Q807.101 1462.09 805.22 1461.73 Q803.358 1461.4 801.365 1460.7 L801.365 1457.03 Q802.945 1457.95 804.825 1458.42 Q806.706 1458.89 808.756 1458.89 Q812.33 1458.89 814.192 1457.48 Q816.072 1456.07 816.072 1453.38 Q816.072 1450.9 814.323 1449.51 Q812.593 1448.1 809.49 1448.1 L806.217 1448.1 L806.217 1444.98 L809.64 1444.98 Q812.442 1444.98 813.928 1443.87 Q815.414 1442.74 815.414 1440.63 Q815.414 1438.47 813.872 1437.32 Q812.348 1436.16 809.49 1436.16 Q807.929 1436.16 806.142 1436.49 Q804.355 1436.83 802.211 1437.55 L802.211 1434.16 Q804.374 1433.56 806.255 1433.26 Q808.154 1432.96 809.828 1432.96 Q814.154 1432.96 816.674 1434.93 Q819.194 1436.89 819.194 1440.24 Q819.194 1442.57 817.859 1444.19 Q816.524 1445.79 814.06 1446.41 Z" fill="#000000" fill-rule="nonzero" fill-opacity="1" /><path clip-path="url(#clip470)" d="M1178.85 1485.02 L1186.49 1485.02 L1186.49 1458.66 L1178.18 1460.32 L1178.18 1456.06 L1186.44 1454.4 L1191.12 1454.4 L1191.12 1485.02 L1198.76 1485.02 L1198.76 1488.96 L1178.85 1488.96 L1178.85 1485.02 Z" fill="#000000" fill-rule="nonzero" fill-opacity="1" /><path clip-path="url(#clip470)" d="M1218.2 1457.48 Q1214.59 1457.48 1212.76 1461.04 Q1210.96 1464.58 1210.96 1471.71 Q1210.96 1478.82 1212.76 1482.38 Q1214.59 1485.92 1218.2 1485.92 Q1221.84 1485.92 1223.64 1482.38 Q1225.47 1478.82 1225.47 1471.71 Q1225.47 1464.58 1223.64 1461.04 Q1221.84 1457.48 1218.2 1457.48 M1218.2 1453.77 Q1224.01 1453.77 1227.07 1458.38 Q1230.15 1462.96 1230.15 1471.71 Q1230.15 1480.44 1227.07 1485.04 Q1224.01 1489.63 1218.2 1489.63 Q1212.39 1489.63 1209.31 1485.04 Q1206.26 1480.44 1206.26 1471.71 Q1206.26 1462.96 1209.31 1458.38 Q1212.39 1453.77 1218.2 1453.77 Z" fill="#000000" fill-rule="nonzero" fill-opacity="1" /><path clip-path="url(#clip470)" d="M1230.15 1447.87 L1254.26 1447.87 L1254.26 1451.07 L1230.15 1451.07 L1230.15 1447.87 Z" fill="#000000" fill-rule="nonzero" fill-opacity="1" /><path clip-path="url(#clip470)" d="M1265.73 1458.35 L1278.99 1458.35 L1278.99 1461.55 L1261.16 1461.55 L1261.16 1458.35 Q1263.32 1456.11 1267.05 1452.35 Q1270.79 1448.57 1271.75 1447.48 Q1273.57 1445.43 1274.29 1444.02 Q1275.02 1442.59 1275.02 1441.22 Q1275.02 1438.98 1273.44 1437.57 Q1271.88 1436.16 1269.36 1436.16 Q1267.57 1436.16 1265.58 1436.78 Q1263.6 1437.4 1261.35 1438.66 L1261.35 1434.82 Q1263.64 1433.9 1265.64 1433.43 Q1267.63 1432.96 1269.28 1432.96 Q1273.65 1432.96 1276.24 1435.14 Q1278.84 1437.32 1278.84 1440.97 Q1278.84 1442.7 1278.18 1444.26 Q1277.54 1445.8 1275.83 1447.91 Q1275.36 1448.46 1272.84 1451.07 Q1270.32 1453.67 1265.73 1458.35 Z" fill="#000000" fill-rule="nonzero" fill-opacity="1" /><path clip-path="url(#clip470)" d="M1638.22 1485.02 L1645.86 1485.02 L1645.86 1458.66 L1637.55 1460.32 L1637.55 1456.06 L1645.81 1454.4 L1650.49 1454.4 L1650.49 1485.02 L1658.13 1485.02 L1658.13 1488.96 L1638.22 1488.96 L1638.22 1485.02 Z" fill="#000000" fill-rule="nonzero" fill-opacity="1" /><path clip-path="url(#clip470)" d="M1677.57 1457.48 Q1673.96 1457.48 1672.13 1461.04 Q1670.33 1464.58 1670.33 1471.71 Q1670.33 1478.82 1672.13 1482.38 Q1673.96 1485.92 1677.57 1485.92 Q1681.21 1485.92 1683.01 1482.38 Q1684.84 1478.82 1684.84 1471.71 Q1684.84 1464.58 1683.01 1461.04 Q1681.21 1457.48 1677.57 1457.48 M1677.57 1453.77 Q1683.38 1453.77 1686.44 1458.38 Q1689.52 1462.96 1689.52 1471.71 Q1689.52 1480.44 1686.44 1485.04 Q1683.38 1489.63 1677.57 1489.63 Q1671.76 1489.63 1668.68 1485.04 Q1665.63 1480.44 1665.63 1471.71 Q1665.63 1462.96 1668.68 1458.38 Q1671.76 1453.77 1677.57 1453.77 Z" fill="#000000" fill-rule="nonzero" fill-opacity="1" /><path clip-path="url(#clip470)" d="M1689.52 1447.87 L1713.63 1447.87 L1713.63 1451.07 L1689.52 1451.07 L1689.52 1447.87 Z" fill="#000000" fill-rule="nonzero" fill-opacity="1" /><path clip-path="url(#clip470)" d="M1722.49 1458.35 L1728.69 1458.35 L1728.69 1436.93 L1721.94 1438.28 L1721.94 1434.82 L1728.66 1433.47 L1732.46 1433.47 L1732.46 1458.35 L1738.66 1458.35 L1738.66 1461.55 L1722.49 1461.55 L1722.49 1458.35 Z" fill="#000000" fill-rule="nonzero" fill-opacity="1" /><path clip-path="url(#clip470)" d="M2112.61 1485.02 L2120.25 1485.02 L2120.25 1458.66 L2111.94 1460.32 L2111.94 1456.06 L2120.2 1454.4 L2124.88 1454.4 L2124.88 1485.02 L2132.52 1485.02 L2132.52 1488.96 L2112.61 1488.96 L2112.61 1485.02 Z" fill="#000000" fill-rule="nonzero" fill-opacity="1" /><path clip-path="url(#clip470)" d="M2151.96 1457.48 Q2148.35 1457.48 2146.52 1461.04 Q2144.72 1464.58 2144.72 1471.71 Q2144.72 1478.82 2146.52 1482.38 Q2148.35 1485.92 2151.96 1485.92 Q2155.6 1485.92 2157.4 1482.38 Q2159.23 1478.82 2159.23 1471.71 Q2159.23 1464.58 2157.4 1461.04 Q2155.6 1457.48 2151.96 1457.48 M2151.96 1453.77 Q2157.77 1453.77 2160.83 1458.38 Q2163.91 1462.96 2163.91 1471.71 Q2163.91 1480.44 2160.83 1485.04 Q2157.77 1489.63 2151.96 1489.63 Q2146.15 1489.63 2143.07 1485.04 Q2140.02 1480.44 2140.02 1471.71 Q2140.02 1462.96 2143.07 1458.38 Q2146.15 1453.77 2151.96 1453.77 Z" fill="#000000" fill-rule="nonzero" fill-opacity="1" /><path clip-path="url(#clip470)" d="M2173.61 1435.97 Q2170.68 1435.97 2169.19 1438.86 Q2167.73 1441.74 2167.73 1447.53 Q2167.73 1453.31 2169.19 1456.2 Q2170.68 1459.08 2173.61 1459.08 Q2176.56 1459.08 2178.03 1456.2 Q2179.52 1453.31 2179.52 1447.53 Q2179.52 1441.74 2178.03 1438.86 Q2176.56 1435.97 2173.61 1435.97 M2173.61 1432.96 Q2178.33 1432.96 2180.82 1436.7 Q2183.32 1440.43 2183.32 1447.53 Q2183.32 1454.62 2180.82 1458.37 Q2178.33 1462.09 2173.61 1462.09 Q2168.89 1462.09 2166.39 1458.37 Q2163.91 1454.62 2163.91 1447.53 Q2163.91 1440.43 2166.39 1436.7 Q2168.89 1432.96 2173.61 1432.96 Z" fill="#000000" fill-rule="nonzero" fill-opacity="1" /><path clip-path="url(#clip470)" d="M1256.61 1524.66 L1262.5 1524.66 L1262.5 1553.91 L1279.97 1538.54 L1287.45 1538.54 L1268.54 1555.22 L1288.25 1574.19 L1280.61 1574.19 L1262.5 1556.78 L1262.5 1574.19 L1256.61 1574.19 L1256.61 1524.66 Z" fill="#000000" fill-rule="nonzero" fill-opacity="1" /><path clip-path="url(#clip470)" d="M1304.99 1526.67 L1310.4 1526.67 L1293.85 1580.23 L1288.44 1580.23 L1304.99 1526.67 Z" fill="#000000" fill-rule="nonzero" fill-opacity="1" /><path clip-path="url(#clip470)" d="M1346.17 1552.67 L1346.17 1574.19 L1340.32 1574.19 L1340.32 1552.86 Q1340.32 1547.8 1338.34 1545.29 Q1336.37 1542.77 1332.42 1542.77 Q1327.68 1542.77 1324.95 1545.79 Q1322.21 1548.82 1322.21 1554.04 L1322.21 1574.19 L1316.32 1574.19 L1316.32 1524.66 L1322.21 1524.66 L1322.21 1544.08 Q1324.31 1540.86 1327.14 1539.27 Q1330.01 1537.68 1333.73 1537.68 Q1339.87 1537.68 1343.02 1541.5 Q1346.17 1545.29 1346.17 1552.67 Z" fill="#000000" fill-rule="nonzero" fill-opacity="1" /><polyline clip-path="url(#clip472)" style="stroke:#000000; stroke-linecap:round; stroke-linejoin:round; stroke-width:2; stroke-opacity:0.1; fill:none" points="250.028,1304.58 2352.76,1304.58 "/>
<polyline clip-path="url(#clip472)" style="stroke:#000000; stroke-linecap:round; stroke-linejoin:round; stroke-width:2; stroke-opacity:0.1; fill:none" points="250.028,1008.48 2352.76,1008.48 "/>
<polyline clip-path="url(#clip472)" style="stroke:#000000; stroke-linecap:round; stroke-linejoin:round; stroke-width:2; stroke-opacity:0.1; fill:none" points="250.028,712.376 2352.76,712.376 "/>
<polyline clip-path="url(#clip472)" style="stroke:#000000; stroke-linecap:round; stroke-linejoin:round; stroke-width:2; stroke-opacity:0.1; fill:none" points="250.028,416.274 2352.76,416.274 "/>
<polyline clip-path="url(#clip470)" style="stroke:#000000; stroke-linecap:round; stroke-linejoin:round; stroke-width:4; stroke-opacity:1; fill:none" points="250.028,1410.9 250.028,123.472 "/>
<polyline clip-path="url(#clip470)" style="stroke:#000000; stroke-linecap:round; stroke-linejoin:round; stroke-width:4; stroke-opacity:1; fill:none" points="250.028,1304.58 268.926,1304.58 "/>
<polyline clip-path="url(#clip470)" style="stroke:#000000; stroke-linecap:round; stroke-linejoin:round; stroke-width:4; stroke-opacity:1; fill:none" points="250.028,1008.48 268.926,1008.48 "/>
<polyline clip-path="url(#clip470)" style="stroke:#000000; stroke-linecap:round; stroke-linejoin:round; stroke-width:4; stroke-opacity:1; fill:none" points="250.028,712.376 268.926,712.376 "/>
<polyline clip-path="url(#clip470)" style="stroke:#000000; stroke-linecap:round; stroke-linejoin:round; stroke-width:4; stroke-opacity:1; fill:none" points="250.028,416.274 268.926,416.274 "/>
<path clip-path="url(#clip470)" d="M126.691 1290.38 Q123.08 1290.38 121.251 1293.94 Q119.445 1297.49 119.445 1304.62 Q119.445 1311.72 121.251 1315.29 Q123.08 1318.83 126.691 1318.83 Q130.325 1318.83 132.13 1315.29 Q133.959 1311.72 133.959 1304.62 Q133.959 1297.49 132.13 1293.94 Q130.325 1290.38 126.691 1290.38 M126.691 1286.68 Q132.501 1286.68 135.556 1291.28 Q138.635 1295.87 138.635 1304.62 Q138.635 1313.34 135.556 1317.95 Q132.501 1322.53 126.691 1322.53 Q120.88 1322.53 117.802 1317.95 Q114.746 1313.34 114.746 1304.62 Q114.746 1295.87 117.802 1291.28 Q120.88 1286.68 126.691 1286.68 Z" fill="#000000" fill-rule="nonzero" fill-opacity="1" /><path clip-path="url(#clip470)" d="M146.853 1315.98 L151.737 1315.98 L151.737 1321.86 L146.853 1321.86 L146.853 1315.98 Z" fill="#000000" fill-rule="nonzero" fill-opacity="1" /><path clip-path="url(#clip470)" d="M171.922 1290.38 Q168.311 1290.38 166.482 1293.94 Q164.677 1297.49 164.677 1304.62 Q164.677 1311.72 166.482 1315.29 Q168.311 1318.83 171.922 1318.83 Q175.556 1318.83 177.362 1315.29 Q179.19 1311.72 179.19 1304.62 Q179.19 1297.49 177.362 1293.94 Q175.556 1290.38 171.922 1290.38 M171.922 1286.68 Q177.732 1286.68 180.788 1291.28 Q183.866 1295.87 183.866 1304.62 Q183.866 1313.34 180.788 1317.95 Q177.732 1322.53 171.922 1322.53 Q166.112 1322.53 163.033 1317.95 Q159.978 1313.34 159.978 1304.62 Q159.978 1295.87 163.033 1291.28 Q166.112 1286.68 171.922 1286.68 Z" fill="#000000" fill-rule="nonzero" fill-opacity="1" /><path clip-path="url(#clip470)" d="M202.084 1290.38 Q198.473 1290.38 196.644 1293.94 Q194.838 1297.49 194.838 1304.62 Q194.838 1311.72 196.644 1315.29 Q198.473 1318.83 202.084 1318.83 Q205.718 1318.83 207.524 1315.29 Q209.352 1311.72 209.352 1304.62 Q209.352 1297.49 207.524 1293.94 Q205.718 1290.38 202.084 1290.38 M202.084 1286.68 Q207.894 1286.68 210.949 1291.28 Q214.028 1295.87 214.028 1304.62 Q214.028 1313.34 210.949 1317.95 Q207.894 1322.53 202.084 1322.53 Q196.274 1322.53 193.195 1317.95 Q190.139 1313.34 190.139 1304.62 Q190.139 1295.87 193.195 1291.28 Q196.274 1286.68 202.084 1286.68 Z" fill="#000000" fill-rule="nonzero" fill-opacity="1" /><path clip-path="url(#clip470)" d="M128.288 994.277 Q124.677 994.277 122.848 997.842 Q121.043 1001.38 121.043 1008.51 Q121.043 1015.62 122.848 1019.18 Q124.677 1022.73 128.288 1022.73 Q131.922 1022.73 133.728 1019.18 Q135.556 1015.62 135.556 1008.51 Q135.556 1001.38 133.728 997.842 Q131.922 994.277 128.288 994.277 M128.288 990.573 Q134.098 990.573 137.154 995.18 Q140.232 999.763 140.232 1008.51 Q140.232 1017.24 137.154 1021.85 Q134.098 1026.43 128.288 1026.43 Q122.478 1026.43 119.399 1021.85 Q116.343 1017.24 116.343 1008.51 Q116.343 999.763 119.399 995.18 Q122.478 990.573 128.288 990.573 Z" fill="#000000" fill-rule="nonzero" fill-opacity="1" /><path clip-path="url(#clip470)" d="M148.45 1019.88 L153.334 1019.88 L153.334 1025.76 L148.45 1025.76 L148.45 1019.88 Z" fill="#000000" fill-rule="nonzero" fill-opacity="1" /><path clip-path="url(#clip470)" d="M173.519 994.277 Q169.908 994.277 168.079 997.842 Q166.274 1001.38 166.274 1008.51 Q166.274 1015.62 168.079 1019.18 Q169.908 1022.73 173.519 1022.73 Q177.153 1022.73 178.959 1019.18 Q180.788 1015.62 180.788 1008.51 Q180.788 1001.38 178.959 997.842 Q177.153 994.277 173.519 994.277 M173.519 990.573 Q179.329 990.573 182.385 995.18 Q185.463 999.763 185.463 1008.51 Q185.463 1017.24 182.385 1021.85 Q179.329 1026.43 173.519 1026.43 Q167.709 1026.43 164.63 1021.85 Q161.575 1017.24 161.575 1008.51 Q161.575 999.763 164.63 995.18 Q167.709 990.573 173.519 990.573 Z" fill="#000000" fill-rule="nonzero" fill-opacity="1" /><path clip-path="url(#clip470)" d="M197.709 1021.82 L214.028 1021.82 L214.028 1025.76 L192.084 1025.76 L192.084 1021.82 Q194.746 1019.07 199.329 1014.44 Q203.936 1009.79 205.116 1008.44 Q207.362 1005.92 208.241 1004.18 Q209.144 1002.43 209.144 1000.74 Q209.144 997.981 207.199 996.245 Q205.278 994.509 202.176 994.509 Q199.977 994.509 197.524 995.272 Q195.093 996.036 192.315 997.587 L192.315 992.865 Q195.139 991.731 197.593 991.152 Q200.047 990.573 202.084 990.573 Q207.454 990.573 210.649 993.259 Q213.843 995.944 213.843 1000.43 Q213.843 1002.56 213.033 1004.49 Q212.246 1006.38 210.139 1008.98 Q209.561 1009.65 206.459 1012.86 Q203.357 1016.06 197.709 1021.82 Z" fill="#000000" fill-rule="nonzero" fill-opacity="1" /><path clip-path="url(#clip470)" d="M126.205 698.175 Q122.593 698.175 120.765 701.74 Q118.959 705.281 118.959 712.411 Q118.959 719.517 120.765 723.082 Q122.593 726.624 126.205 726.624 Q129.839 726.624 131.644 723.082 Q133.473 719.517 133.473 712.411 Q133.473 705.281 131.644 701.74 Q129.839 698.175 126.205 698.175 M126.205 694.471 Q132.015 694.471 135.07 699.078 Q138.149 703.661 138.149 712.411 Q138.149 721.138 135.07 725.744 Q132.015 730.328 126.205 730.328 Q120.394 730.328 117.316 725.744 Q114.26 721.138 114.26 712.411 Q114.26 703.661 117.316 699.078 Q120.394 694.471 126.205 694.471 Z" fill="#000000" fill-rule="nonzero" fill-opacity="1" /><path clip-path="url(#clip470)" d="M146.366 723.777 L151.251 723.777 L151.251 729.656 L146.366 729.656 L146.366 723.777 Z" fill="#000000" fill-rule="nonzero" fill-opacity="1" /><path clip-path="url(#clip470)" d="M171.436 698.175 Q167.825 698.175 165.996 701.74 Q164.19 705.281 164.19 712.411 Q164.19 719.517 165.996 723.082 Q167.825 726.624 171.436 726.624 Q175.07 726.624 176.876 723.082 Q178.704 719.517 178.704 712.411 Q178.704 705.281 176.876 701.74 Q175.07 698.175 171.436 698.175 M171.436 694.471 Q177.246 694.471 180.301 699.078 Q183.38 703.661 183.38 712.411 Q183.38 721.138 180.301 725.744 Q177.246 730.328 171.436 730.328 Q165.626 730.328 162.547 725.744 Q159.491 721.138 159.491 712.411 Q159.491 703.661 162.547 699.078 Q165.626 694.471 171.436 694.471 Z" fill="#000000" fill-rule="nonzero" fill-opacity="1" /><path clip-path="url(#clip470)" d="M204.445 699.17 L192.639 717.619 L204.445 717.619 L204.445 699.17 M203.218 695.096 L209.098 695.096 L209.098 717.619 L214.028 717.619 L214.028 721.508 L209.098 721.508 L209.098 729.656 L204.445 729.656 L204.445 721.508 L188.843 721.508 L188.843 716.994 L203.218 695.096 Z" fill="#000000" fill-rule="nonzero" fill-opacity="1" /><path clip-path="url(#clip470)" d="M126.529 402.073 Q122.918 402.073 121.089 405.638 Q119.283 409.179 119.283 416.309 Q119.283 423.415 121.089 426.98 Q122.918 430.522 126.529 430.522 Q130.163 430.522 131.968 426.98 Q133.797 423.415 133.797 416.309 Q133.797 409.179 131.968 405.638 Q130.163 402.073 126.529 402.073 M126.529 398.369 Q132.339 398.369 135.394 402.976 Q138.473 407.559 138.473 416.309 Q138.473 425.036 135.394 429.642 Q132.339 434.225 126.529 434.225 Q120.718 434.225 117.64 429.642 Q114.584 425.036 114.584 416.309 Q114.584 407.559 117.64 402.976 Q120.718 398.369 126.529 398.369 Z" fill="#000000" fill-rule="nonzero" fill-opacity="1" /><path clip-path="url(#clip470)" d="M146.691 427.675 L151.575 427.675 L151.575 433.554 L146.691 433.554 L146.691 427.675 Z" fill="#000000" fill-rule="nonzero" fill-opacity="1" /><path clip-path="url(#clip470)" d="M171.76 402.073 Q168.149 402.073 166.32 405.638 Q164.515 409.179 164.515 416.309 Q164.515 423.415 166.32 426.98 Q168.149 430.522 171.76 430.522 Q175.394 430.522 177.2 426.98 Q179.028 423.415 179.028 416.309 Q179.028 409.179 177.2 405.638 Q175.394 402.073 171.76 402.073 M171.76 398.369 Q177.57 398.369 180.626 402.976 Q183.704 407.559 183.704 416.309 Q183.704 425.036 180.626 429.642 Q177.57 434.225 171.76 434.225 Q165.95 434.225 162.871 429.642 Q159.815 425.036 159.815 416.309 Q159.815 407.559 162.871 402.976 Q165.95 398.369 171.76 398.369 Z" fill="#000000" fill-rule="nonzero" fill-opacity="1" /><path clip-path="url(#clip470)" d="M202.5 414.411 Q199.352 414.411 197.5 416.564 Q195.672 418.716 195.672 422.466 Q195.672 426.193 197.5 428.369 Q199.352 430.522 202.5 430.522 Q205.649 430.522 207.477 428.369 Q209.329 426.193 209.329 422.466 Q209.329 418.716 207.477 416.564 Q205.649 414.411 202.5 414.411 M211.783 399.758 L211.783 404.017 Q210.024 403.184 208.218 402.744 Q206.436 402.304 204.676 402.304 Q200.047 402.304 197.593 405.429 Q195.163 408.554 194.815 414.874 Q196.181 412.86 198.241 411.795 Q200.301 410.707 202.778 410.707 Q207.987 410.707 210.996 413.878 Q214.028 417.026 214.028 422.466 Q214.028 427.79 210.88 431.008 Q207.732 434.225 202.5 434.225 Q196.505 434.225 193.334 429.642 Q190.163 425.036 190.163 416.309 Q190.163 408.114 194.051 403.253 Q197.94 398.369 204.491 398.369 Q206.25 398.369 208.033 398.716 Q209.838 399.064 211.783 399.758 Z" fill="#000000" fill-rule="nonzero" fill-opacity="1" /><path clip-path="url(#clip470)" d="M21.7677 1036.61 L39.6235 1036.61 L39.6235 1028.53 Q39.6235 1024.04 37.3 1021.59 Q34.9765 1019.14 30.6797 1019.14 Q26.4147 1019.14 24.0912 1021.59 Q21.7677 1024.04 21.7677 1028.53 L21.7677 1036.61 M16.4842 1043.04 L16.4842 1028.53 Q16.4842 1020.54 20.1126 1016.47 Q23.7092 1012.36 30.6797 1012.36 Q37.7138 1012.36 41.3104 1016.47 Q44.907 1020.54 44.907 1028.53 L44.907 1036.61 L64.0042 1036.61 L64.0042 1043.04 L16.4842 1043.04 Z" fill="#000000" fill-rule="nonzero" fill-opacity="1" /><path clip-path="url(#clip470)" d="M74.8259 976.903 L79.3773 976.903 L79.3773 1010.77 L74.8259 1010.77 L74.8259 976.903 Z" fill="#000000" fill-rule="nonzero" fill-opacity="1" /><path clip-path="url(#clip470)" d="M42.4881 941.764 L64.0042 941.764 L64.0042 947.62 L42.679 947.62 Q37.6183 947.62 35.1038 949.594 Q32.5894 951.567 32.5894 955.514 Q32.5894 960.256 35.6131 962.994 Q38.6368 965.731 43.8567 965.731 L64.0042 965.731 L64.0042 971.619 L28.3562 971.619 L28.3562 965.731 L33.8944 965.731 Q30.6797 963.63 29.0883 960.797 Q27.4968 957.933 27.4968 954.209 Q27.4968 948.066 31.3163 944.915 Q35.1038 941.764 42.4881 941.764 Z" fill="#000000" fill-rule="nonzero" fill-opacity="1" /><path clip-path="url(#clip470)" d="M14.479 930.083 L14.479 924.226 L64.0042 924.226 L64.0042 930.083 L14.479 930.083 Z" fill="#000000" fill-rule="nonzero" fill-opacity="1" /><path clip-path="url(#clip470)" d="M16.4842 880.844 L16.4842 875.433 L70.0516 891.984 L70.0516 897.395 L16.4842 880.844 Z" fill="#000000" fill-rule="nonzero" fill-opacity="1" /><path clip-path="url(#clip470)" d="M21.7677 841.886 L39.6235 841.886 L39.6235 833.802 Q39.6235 829.314 37.3 826.863 Q34.9765 824.412 30.6797 824.412 Q26.4147 824.412 24.0912 826.863 Q21.7677 829.314 21.7677 833.802 L21.7677 841.886 M16.4842 848.315 L16.4842 833.802 Q16.4842 825.813 20.1126 821.738 Q23.7092 817.633 30.6797 817.633 Q37.7138 817.633 41.3104 821.738 Q44.907 825.813 44.907 833.802 L44.907 841.886 L64.0042 841.886 L64.0042 848.315 L16.4842 848.315 Z" fill="#000000" fill-rule="nonzero" fill-opacity="1" /><path clip-path="url(#clip470)" d="M74.8259 782.176 L79.3773 782.176 L79.3773 816.041 L74.8259 816.041 L74.8259 782.176 Z" fill="#000000" fill-rule="nonzero" fill-opacity="1" /><path clip-path="url(#clip470)" d="M20.1444 740.83 L26.9239 740.83 Q23.9002 744.077 22.4043 747.769 Q20.9083 751.429 20.9083 755.567 Q20.9083 763.715 25.9054 768.044 Q30.8707 772.372 40.2919 772.372 Q49.6813 772.372 54.6784 768.044 Q59.6436 763.715 59.6436 755.567 Q59.6436 751.429 58.1477 747.769 Q56.6518 744.077 53.6281 740.83 L60.3439 740.83 Q62.6355 744.204 63.7814 747.992 Q64.9272 751.748 64.9272 755.949 Q64.9272 766.739 58.3387 772.945 Q51.7183 779.152 40.2919 779.152 Q28.8336 779.152 22.2451 772.945 Q15.6248 766.739 15.6248 755.949 Q15.6248 751.684 16.7706 747.928 Q17.8846 744.141 20.1444 740.83 Z" fill="#000000" fill-rule="nonzero" fill-opacity="1" /><path clip-path="url(#clip470)" d="M22.818 715.017 L46.4666 723.738 L46.4666 706.265 L22.818 715.017 M16.4842 718.646 L16.4842 711.357 L64.0042 693.247 L64.0042 699.931 L51.8138 704.259 L51.8138 725.68 L64.0042 730.009 L64.0042 736.788 L16.4842 718.646 Z" fill="#000000" fill-rule="nonzero" fill-opacity="1" /><path clip-path="url(#clip470)" d="M16.4842 686.308 L16.4842 676.728 L48.8219 664.601 L16.4842 652.411 L16.4842 642.83 L64.0042 642.83 L64.0042 649.101 L22.277 649.101 L54.8694 661.355 L54.8694 667.816 L22.277 680.07 L64.0042 680.07 L64.0042 686.308 L16.4842 686.308 Z" fill="#000000" fill-rule="nonzero" fill-opacity="1" /><path clip-path="url(#clip470)" d="M41.3104 623.638 L58.7206 623.638 L58.7206 613.325 Q58.7206 608.137 56.5881 605.655 Q54.4238 603.14 49.9996 603.14 Q45.5436 603.14 43.4429 605.655 Q41.3104 608.137 41.3104 613.325 L41.3104 623.638 M21.7677 623.638 L36.0905 623.638 L36.0905 614.121 Q36.0905 609.41 34.34 607.119 Q32.5576 604.795 28.9291 604.795 Q25.3325 604.795 23.5501 607.119 Q21.7677 609.41 21.7677 614.121 L21.7677 623.638 M16.4842 630.067 L16.4842 613.644 Q16.4842 606.291 19.5397 602.313 Q22.5952 598.334 28.2289 598.334 Q32.5894 598.334 35.1675 600.371 Q37.7456 602.408 38.3822 606.355 Q39.4007 601.612 42.6472 599.002 Q45.8619 596.361 50.6998 596.361 Q57.0655 596.361 60.5348 600.689 Q64.0042 605.018 64.0042 613.007 L64.0042 630.067 L16.4842 630.067 Z" fill="#000000" fill-rule="nonzero" fill-opacity="1" /><path clip-path="url(#clip470)" d="M43.5384 567.842 L43.5384 550.687 L48.7583 550.687 L48.7583 567.842 L43.5384 567.842 Z" fill="#000000" fill-rule="nonzero" fill-opacity="1" /><path clip-path="url(#clip470)" d="M58.5933 518.699 L58.5933 508.196 L22.3406 508.196 L24.6323 519.622 L18.7758 519.622 L16.4842 508.259 L16.4842 501.83 L58.5933 501.83 L58.5933 491.326 L64.0042 491.326 L64.0042 518.699 L58.5933 518.699 Z" fill="#000000" fill-rule="nonzero" fill-opacity="1" /><path clip-path="url(#clip470)" d="M636.902 18.8205 L636.902 41.5461 L647.191 41.5461 Q652.903 41.5461 656.022 38.5889 Q659.141 35.6318 659.141 30.163 Q659.141 24.7348 656.022 21.7777 Q652.903 18.8205 647.191 18.8205 L636.902 18.8205 M628.719 12.096 L647.191 12.096 Q657.359 12.096 662.544 16.714 Q667.77 21.2916 667.77 30.163 Q667.77 39.1155 662.544 43.6931 Q657.359 48.2706 647.191 48.2706 L636.902 48.2706 L636.902 72.576 L628.719 72.576 L628.719 12.096 Z" fill="#000000" fill-rule="nonzero" fill-opacity="1" /><path clip-path="url(#clip470)" d="M693.047 32.4315 Q687.052 32.4315 683.568 37.1306 Q680.085 41.7891 680.085 49.9314 Q680.085 58.0738 683.528 62.7728 Q687.012 67.4314 693.047 67.4314 Q699.002 67.4314 702.486 62.7323 Q705.97 58.0333 705.97 49.9314 Q705.97 41.8701 702.486 37.1711 Q699.002 32.4315 693.047 32.4315 M693.047 26.1121 Q702.77 26.1121 708.319 32.4315 Q713.869 38.7509 713.869 49.9314 Q713.869 61.0714 708.319 67.4314 Q702.77 73.7508 693.047 73.7508 Q683.285 73.7508 677.735 67.4314 Q672.226 61.0714 672.226 49.9314 Q672.226 38.7509 677.735 32.4315 Q683.285 26.1121 693.047 26.1121 Z" fill="#000000" fill-rule="nonzero" fill-opacity="1" /><path clip-path="url(#clip470)" d="M721.89 27.2059 L729.344 27.2059 L738.661 62.6108 L747.937 27.2059 L756.728 27.2059 L766.045 62.6108 L775.321 27.2059 L782.775 27.2059 L770.906 72.576 L762.115 72.576 L752.353 35.3887 L742.55 72.576 L733.759 72.576 L721.89 27.2059 Z" fill="#000000" fill-rule="nonzero" fill-opacity="1" /><path clip-path="url(#clip470)" d="M832.885 48.0275 L832.885 51.6733 L798.614 51.6733 Q799.1 59.3701 803.232 63.421 Q807.405 67.4314 814.818 67.4314 Q819.112 67.4314 823.122 66.3781 Q827.173 65.3249 831.143 63.2184 L831.143 70.267 Q827.132 71.9684 822.919 72.8596 Q818.707 73.7508 814.372 73.7508 Q803.516 73.7508 797.156 67.4314 Q790.836 61.1119 790.836 50.3365 Q790.836 39.1965 796.832 32.6746 Q802.867 26.1121 813.076 26.1121 Q822.231 26.1121 827.538 32.0264 Q832.885 37.9003 832.885 48.0275 M825.431 45.84 Q825.35 39.7232 821.988 36.0774 Q818.666 32.4315 813.157 32.4315 Q806.918 32.4315 803.151 35.9558 Q799.424 39.4801 798.857 45.8805 L825.431 45.84 Z" fill="#000000" fill-rule="nonzero" fill-opacity="1" /><path clip-path="url(#clip470)" d="M871.409 34.1734 Q870.153 33.4443 868.654 33.1202 Q867.196 32.7556 865.413 32.7556 Q859.094 32.7556 855.691 36.8875 Q852.329 40.9789 852.329 48.6757 L852.329 72.576 L844.835 72.576 L844.835 27.2059 L852.329 27.2059 L852.329 34.2544 Q854.679 30.1225 858.446 28.1376 Q862.213 26.1121 867.601 26.1121 Q868.371 26.1121 869.302 26.2337 Q870.234 26.3147 871.368 26.5172 L871.409 34.1734 Z" fill="#000000" fill-rule="nonzero" fill-opacity="1" /><path clip-path="url(#clip470)" d="M934.522 28.5427 L934.522 35.5912 Q931.362 33.9709 927.959 33.1607 Q924.557 32.3505 920.911 32.3505 Q915.361 32.3505 912.566 34.0519 Q909.811 35.7533 909.811 39.156 Q909.811 41.7486 911.796 43.2475 Q913.781 44.7058 919.777 46.0426 L922.329 46.6097 Q930.268 48.3111 933.59 51.4303 Q936.952 54.509 936.952 60.0587 Q936.952 66.3781 931.929 70.0644 Q926.947 73.7508 918.197 73.7508 Q914.551 73.7508 910.581 73.0216 Q906.652 72.3329 902.277 70.9151 L902.277 63.2184 Q906.409 65.3654 910.419 66.4591 Q914.429 67.5124 918.359 67.5124 Q923.625 67.5124 926.461 65.73 Q929.296 63.9071 929.296 60.6258 Q929.296 57.5877 927.23 55.9673 Q925.205 54.3469 918.278 52.8481 L915.685 52.2405 Q908.758 50.7821 905.679 47.7845 Q902.601 44.7463 902.601 39.4801 Q902.601 33.0797 907.138 29.5959 Q911.675 26.1121 920.02 26.1121 Q924.152 26.1121 927.797 26.7198 Q931.443 27.3274 934.522 28.5427 Z" fill="#000000" fill-rule="nonzero" fill-opacity="1" /><path clip-path="url(#clip470)" d="M956.032 65.7705 L956.032 89.8329 L948.538 89.8329 L948.538 27.2059 L956.032 27.2059 L956.032 34.0924 Q958.382 30.0415 961.947 28.0971 Q965.552 26.1121 970.534 26.1121 Q978.798 26.1121 983.943 32.6746 Q989.128 39.2371 989.128 49.9314 Q989.128 60.6258 983.943 67.1883 Q978.798 73.7508 970.534 73.7508 Q965.552 73.7508 961.947 71.8063 Q958.382 69.8214 956.032 65.7705 M981.391 49.9314 Q981.391 41.7081 977.988 37.0496 Q974.626 32.3505 968.712 32.3505 Q962.797 32.3505 959.394 37.0496 Q956.032 41.7081 956.032 49.9314 Q956.032 58.1548 959.394 62.8538 Q962.797 67.5124 968.712 67.5124 Q974.626 67.5124 977.988 62.8538 Q981.391 58.1548 981.391 49.9314 Z" fill="#000000" fill-rule="nonzero" fill-opacity="1" /><path clip-path="url(#clip470)" d="M1040.29 48.0275 L1040.29 51.6733 L1006.02 51.6733 Q1006.51 59.3701 1010.64 63.421 Q1014.81 67.4314 1022.22 67.4314 Q1026.52 67.4314 1030.53 66.3781 Q1034.58 65.3249 1038.55 63.2184 L1038.55 70.267 Q1034.54 71.9684 1030.33 72.8596 Q1026.11 73.7508 1021.78 73.7508 Q1010.92 73.7508 1004.56 67.4314 Q998.243 61.1119 998.243 50.3365 Q998.243 39.1965 1004.24 32.6746 Q1010.27 26.1121 1020.48 26.1121 Q1029.64 26.1121 1034.94 32.0264 Q1040.29 37.9003 1040.29 48.0275 M1032.84 45.84 Q1032.76 39.7232 1029.39 36.0774 Q1026.07 32.4315 1020.56 32.4315 Q1014.32 32.4315 1010.56 35.9558 Q1006.83 39.4801 1006.26 45.8805 L1032.84 45.84 Z" fill="#000000" fill-rule="nonzero" fill-opacity="1" /><path clip-path="url(#clip470)" d="M1085.18 28.9478 L1085.18 35.9153 Q1082.02 34.1734 1078.82 33.3227 Q1075.66 32.4315 1072.41 32.4315 Q1065.16 32.4315 1061.15 37.0496 Q1057.14 41.6271 1057.14 49.9314 Q1057.14 58.2358 1061.15 62.8538 Q1065.16 67.4314 1072.41 67.4314 Q1075.66 67.4314 1078.82 66.5807 Q1082.02 65.6895 1085.18 63.9476 L1085.18 70.8341 Q1082.06 72.2924 1078.69 73.0216 Q1075.37 73.7508 1071.6 73.7508 Q1061.36 73.7508 1055.32 67.3098 Q1049.28 60.8689 1049.28 49.9314 Q1049.28 38.832 1055.36 32.472 Q1061.48 26.1121 1072.09 26.1121 Q1075.53 26.1121 1078.82 26.8413 Q1082.1 27.5299 1085.18 28.9478 Z" fill="#000000" fill-rule="nonzero" fill-opacity="1" /><path clip-path="url(#clip470)" d="M1105.51 14.324 L1105.51 27.2059 L1120.86 27.2059 L1120.86 32.9987 L1105.51 32.9987 L1105.51 57.6282 Q1105.51 63.1779 1107.01 64.7578 Q1108.55 66.3376 1113.21 66.3376 L1120.86 66.3376 L1120.86 72.576 L1113.21 72.576 Q1104.58 72.576 1101.3 69.3758 Q1098.02 66.1351 1098.02 57.6282 L1098.02 32.9987 L1092.55 32.9987 L1092.55 27.2059 L1098.02 27.2059 L1098.02 14.324 L1105.51 14.324 Z" fill="#000000" fill-rule="nonzero" fill-opacity="1" /><path clip-path="url(#clip470)" d="M1156.96 34.1734 Q1155.7 33.4443 1154.2 33.1202 Q1152.74 32.7556 1150.96 32.7556 Q1144.64 32.7556 1141.24 36.8875 Q1137.88 40.9789 1137.88 48.6757 L1137.88 72.576 L1130.38 72.576 L1130.38 27.2059 L1137.88 27.2059 L1137.88 34.2544 Q1140.23 30.1225 1143.99 28.1376 Q1147.76 26.1121 1153.15 26.1121 Q1153.92 26.1121 1154.85 26.2337 Q1155.78 26.3147 1156.92 26.5172 L1156.96 34.1734 Z" fill="#000000" fill-rule="nonzero" fill-opacity="1" /><path clip-path="url(#clip470)" d="M1164.01 54.671 L1164.01 27.2059 L1171.46 27.2059 L1171.46 54.3874 Q1171.46 60.8284 1173.97 64.0691 Q1176.48 67.2693 1181.51 67.2693 Q1187.54 67.2693 1191.03 63.421 Q1194.55 59.5726 1194.55 52.9291 L1194.55 27.2059 L1202 27.2059 L1202 72.576 L1194.55 72.576 L1194.55 65.6084 Q1191.84 69.7404 1188.23 71.7658 Q1184.67 73.7508 1179.93 73.7508 Q1172.11 73.7508 1168.06 68.8897 Q1164.01 64.0286 1164.01 54.671 M1182.76 26.1121 L1182.76 26.1121 Z" fill="#000000" fill-rule="nonzero" fill-opacity="1" /><path clip-path="url(#clip470)" d="M1252.68 35.9153 Q1255.48 30.8922 1259.36 28.5022 Q1263.25 26.1121 1268.52 26.1121 Q1275.61 26.1121 1279.46 31.0947 Q1283.3 36.0368 1283.3 45.1919 L1283.3 72.576 L1275.81 72.576 L1275.81 45.4349 Q1275.81 38.913 1273.5 35.7533 Q1271.19 32.5936 1266.45 32.5936 Q1260.66 32.5936 1257.3 36.4419 Q1253.94 40.2903 1253.94 46.9338 L1253.94 72.576 L1246.44 72.576 L1246.44 45.4349 Q1246.44 38.8725 1244.13 35.7533 Q1241.82 32.5936 1237 32.5936 Q1231.29 32.5936 1227.93 36.4824 Q1224.57 40.3308 1224.57 46.9338 L1224.57 72.576 L1217.07 72.576 L1217.07 27.2059 L1224.57 27.2059 L1224.57 34.2544 Q1227.12 30.082 1230.68 28.0971 Q1234.25 26.1121 1239.15 26.1121 Q1244.09 26.1121 1247.54 28.6237 Q1251.02 31.1352 1252.68 35.9153 Z" fill="#000000" fill-rule="nonzero" fill-opacity="1" /><path clip-path="url(#clip470)" d="M1350.83 34.1734 Q1349.58 33.4443 1348.08 33.1202 Q1346.62 32.7556 1344.84 32.7556 Q1338.52 32.7556 1335.12 36.8875 Q1331.75 40.9789 1331.75 48.6757 L1331.75 72.576 L1324.26 72.576 L1324.26 27.2059 L1331.75 27.2059 L1331.75 34.2544 Q1334.1 30.1225 1337.87 28.1376 Q1341.64 26.1121 1347.03 26.1121 Q1347.8 26.1121 1348.73 26.2337 Q1349.66 26.3147 1350.79 26.5172 L1350.83 34.1734 Z" fill="#000000" fill-rule="nonzero" fill-opacity="1" /><path clip-path="url(#clip470)" d="M1379.27 49.7694 Q1370.24 49.7694 1366.75 51.8354 Q1363.27 53.9013 1363.27 58.8839 Q1363.27 62.8538 1365.86 65.2034 Q1368.5 67.5124 1372.99 67.5124 Q1379.19 67.5124 1382.92 63.1374 Q1386.68 58.7219 1386.68 51.4303 L1386.68 49.7694 L1379.27 49.7694 M1394.14 46.6907 L1394.14 72.576 L1386.68 72.576 L1386.68 65.6895 Q1384.13 69.8214 1380.32 71.8063 Q1376.52 73.7508 1371.01 73.7508 Q1364.04 73.7508 1359.91 69.8619 Q1355.82 65.9325 1355.82 59.3701 Q1355.82 51.7138 1360.92 47.825 Q1366.06 43.9361 1376.23 43.9361 L1386.68 43.9361 L1386.68 43.2069 Q1386.68 38.0623 1383.28 35.2672 Q1379.92 32.4315 1373.8 32.4315 Q1369.91 32.4315 1366.23 33.3632 Q1362.54 34.295 1359.14 36.1584 L1359.14 29.2718 Q1363.23 27.692 1367.08 26.9223 Q1370.93 26.1121 1374.57 26.1121 Q1384.42 26.1121 1389.28 31.2163 Q1394.14 36.3204 1394.14 46.6907 Z" fill="#000000" fill-rule="nonzero" fill-opacity="1" /><path clip-path="url(#clip470)" d="M1416.86 14.324 L1416.86 27.2059 L1432.22 27.2059 L1432.22 32.9987 L1416.86 32.9987 L1416.86 57.6282 Q1416.86 63.1779 1418.36 64.7578 Q1419.9 66.3376 1424.56 66.3376 L1432.22 66.3376 L1432.22 72.576 L1424.56 72.576 Q1415.93 72.576 1412.65 69.3758 Q1409.37 66.1351 1409.37 57.6282 L1409.37 32.9987 L1403.9 32.9987 L1403.9 27.2059 L1409.37 27.2059 L1409.37 14.324 L1416.86 14.324 Z" fill="#000000" fill-rule="nonzero" fill-opacity="1" /><path clip-path="url(#clip470)" d="M1442.02 27.2059 L1449.47 27.2059 L1449.47 72.576 L1442.02 72.576 L1442.02 27.2059 M1442.02 9.54393 L1449.47 9.54393 L1449.47 18.9825 L1442.02 18.9825 L1442.02 9.54393 Z" fill="#000000" fill-rule="nonzero" fill-opacity="1" /><path clip-path="url(#clip470)" d="M1482.65 32.4315 Q1476.65 32.4315 1473.17 37.1306 Q1469.69 41.7891 1469.69 49.9314 Q1469.69 58.0738 1473.13 62.7728 Q1476.61 67.4314 1482.65 67.4314 Q1488.6 67.4314 1492.09 62.7323 Q1495.57 58.0333 1495.57 49.9314 Q1495.57 41.8701 1492.09 37.1711 Q1488.6 32.4315 1482.65 32.4315 M1482.65 26.1121 Q1492.37 26.1121 1497.92 32.4315 Q1503.47 38.7509 1503.47 49.9314 Q1503.47 61.0714 1497.92 67.4314 Q1492.37 73.7508 1482.65 73.7508 Q1472.89 73.7508 1467.34 67.4314 Q1461.83 61.0714 1461.83 49.9314 Q1461.83 38.7509 1467.34 32.4315 Q1472.89 26.1121 1482.65 26.1121 Z" fill="#000000" fill-rule="nonzero" fill-opacity="1" /><path clip-path="url(#clip470)" d="M1537.86 27.2059 L1545.32 27.2059 L1554.63 62.6108 L1563.91 27.2059 L1572.7 27.2059 L1582.02 62.6108 L1591.29 27.2059 L1598.75 27.2059 L1586.88 72.576 L1578.09 72.576 L1568.33 35.3887 L1558.52 72.576 L1549.73 72.576 L1537.86 27.2059 Z" fill="#000000" fill-rule="nonzero" fill-opacity="1" /><path clip-path="url(#clip470)" d="M1610.05 27.2059 L1617.5 27.2059 L1617.5 72.576 L1610.05 72.576 L1610.05 27.2059 M1610.05 9.54393 L1617.5 9.54393 L1617.5 18.9825 L1610.05 18.9825 L1610.05 9.54393 Z" fill="#000000" fill-rule="nonzero" fill-opacity="1" /><path clip-path="url(#clip470)" d="M1640.47 14.324 L1640.47 27.2059 L1655.83 27.2059 L1655.83 32.9987 L1640.47 32.9987 L1640.47 57.6282 Q1640.47 63.1779 1641.97 64.7578 Q1643.51 66.3376 1648.17 66.3376 L1655.83 66.3376 L1655.83 72.576 L1648.17 72.576 Q1639.54 72.576 1636.26 69.3758 Q1632.98 66.1351 1632.98 57.6282 L1632.98 32.9987 L1627.51 32.9987 L1627.51 27.2059 L1632.98 27.2059 L1632.98 14.324 L1640.47 14.324 Z" fill="#000000" fill-rule="nonzero" fill-opacity="1" /><path clip-path="url(#clip470)" d="M1703.34 45.1919 L1703.34 72.576 L1695.89 72.576 L1695.89 45.4349 Q1695.89 38.994 1693.38 35.7938 Q1690.87 32.5936 1685.84 32.5936 Q1679.81 32.5936 1676.32 36.4419 Q1672.84 40.2903 1672.84 46.9338 L1672.84 72.576 L1665.35 72.576 L1665.35 9.54393 L1672.84 9.54393 L1672.84 34.2544 Q1675.51 30.163 1679.12 28.1376 Q1682.76 26.1121 1687.5 26.1121 Q1695.32 26.1121 1699.33 30.9732 Q1703.34 35.7938 1703.34 45.1919 Z" fill="#000000" fill-rule="nonzero" fill-opacity="1" /><path clip-path="url(#clip470)" d="M1790.19 16.7545 L1790.19 25.383 Q1786.06 21.5346 1781.36 19.6307 Q1776.7 17.7268 1771.44 17.7268 Q1761.07 17.7268 1755.56 24.0867 Q1750.05 30.4061 1750.05 42.3968 Q1750.05 54.3469 1755.56 60.7069 Q1761.07 67.0263 1771.44 67.0263 Q1776.7 67.0263 1781.36 65.1223 Q1786.06 63.2184 1790.19 59.3701 L1790.19 67.9175 Q1785.9 70.8341 1781.08 72.2924 Q1776.3 73.7508 1770.95 73.7508 Q1757.22 73.7508 1749.32 65.3654 Q1741.42 56.9395 1741.42 42.3968 Q1741.42 27.8135 1749.32 19.4281 Q1757.22 11.0023 1770.95 11.0023 Q1776.38 11.0023 1781.16 12.4606 Q1785.98 13.8784 1790.19 16.7545 Z" fill="#000000" fill-rule="nonzero" fill-opacity="1" /><path clip-path="url(#clip470)" d="M1823.05 20.1573 L1811.95 50.2555 L1834.19 50.2555 L1823.05 20.1573 M1818.43 12.096 L1827.71 12.096 L1850.76 72.576 L1842.25 72.576 L1836.74 57.061 L1809.48 57.061 L1803.97 72.576 L1795.34 72.576 L1818.43 12.096 Z" fill="#000000" fill-rule="nonzero" fill-opacity="1" /><path clip-path="url(#clip470)" d="M1859.59 12.096 L1871.78 12.096 L1887.21 53.2532 L1902.73 12.096 L1914.92 12.096 L1914.92 72.576 L1906.94 72.576 L1906.94 19.4686 L1891.35 60.9499 L1883.12 60.9499 L1867.53 19.4686 L1867.53 72.576 L1859.59 72.576 L1859.59 12.096 Z" fill="#000000" fill-rule="nonzero" fill-opacity="1" /><path clip-path="url(#clip470)" d="M1939.35 43.6931 L1939.35 65.8515 L1952.47 65.8515 Q1959.08 65.8515 1962.24 63.1374 Q1965.44 60.3828 1965.44 54.752 Q1965.44 49.0808 1962.24 46.4072 Q1959.08 43.6931 1952.47 43.6931 L1939.35 43.6931 M1939.35 18.8205 L1939.35 37.0496 L1951.46 37.0496 Q1957.46 37.0496 1960.37 34.8216 Q1963.33 32.5531 1963.33 27.935 Q1963.33 23.3575 1960.37 21.089 Q1957.46 18.8205 1951.46 18.8205 L1939.35 18.8205 M1931.17 12.096 L1952.07 12.096 Q1961.43 12.096 1966.49 15.9849 Q1971.55 19.8737 1971.55 27.0438 Q1971.55 32.5936 1968.96 35.8748 Q1966.37 39.156 1961.35 39.9662 Q1967.38 41.2625 1970.7 45.3944 Q1974.06 49.4858 1974.06 55.6432 Q1974.06 63.745 1968.56 68.1605 Q1963.05 72.576 1952.88 72.576 L1931.17 72.576 L1931.17 12.096 Z" fill="#000000" fill-rule="nonzero" fill-opacity="1" /><polyline clip-path="url(#clip472)" style="stroke:#009af9; stroke-linecap:round; stroke-linejoin:round; stroke-width:4; stroke-opacity:1; fill:none" points="309.539,1374.46 313.53,1374.43 317.522,1374.38 321.514,1374.29 325.505,1374.27 329.496,1374.27 333.488,1374.18 337.478,1374.21 341.47,1374.13 345.462,1374.04 349.452,1374.06 353.445,1373.93 357.436,1373.91 361.427,1373.85 365.418,1373.8 369.41,1373.74 373.401,1373.65 377.393,1373.6 381.384,1373.54 385.375,1373.52 389.366,1373.44 393.358,1373.33 397.35,1373.2 401.34,1373.18 405.331,1373.09 409.323,1372.97 413.315,1372.84 417.306,1372.74 421.297,1372.67 425.289,1372.53 429.28,1372.43 433.272,1372.3 437.263,1372.2 441.254,1372.15 445.246,1371.9 449.237,1371.81 453.228,1371.67 457.22,1371.49 461.211,1371.29 465.202,1371.22 469.194,1370.94 473.185,1370.82 477.177,1370.59 481.168,1370.47 485.159,1370.28 489.15,1369.98 493.142,1369.76 497.133,1369.58 501.125,1369.29 505.116,1369.05 509.107,1368.79 513.098,1368.57 517.09,1368.25 521.081,1368.05 525.073,1367.68 529.064,1367.37 533.055,1367.07 537.047,1366.77 541.038,1366.38 545.029,1366.01 549.021,1365.64 553.012,1365.25 557.003,1364.89 560.995,1364.42 564.986,1364.02 568.978,1363.52 572.969,1363.08 576.96,1362.58 580.952,1362.08 584.943,1361.55 588.934,1361 592.926,1360.47 596.917,1359.91 600.909,1359.29 604.9,1358.66 608.891,1358.05 612.882,1357.41 616.874,1356.67 620.865,1356 624.857,1355.25 628.848,1354.53 632.839,1353.73 636.831,1352.92 640.822,1352.12 644.814,1351.28 648.805,1350.41 652.796,1349.5 656.787,1348.59 660.779,1347.61 664.77,1346.62 668.762,1345.62 672.753,1344.58 676.744,1343.56 680.736,1342.47 684.727,1341.35 688.718,1340.21 692.71,1339.03 696.701,1337.85 700.693,1336.63 704.684,1335.39 708.675,1334.11 712.667,1332.83 716.658,1331.52 720.649,1330.15 724.641,1328.79 728.632,1327.37 732.624,1325.96 736.615,1324.52 740.606,1323.06 744.598,1321.54 748.589,1320.04 752.58,1318.5 756.572,1316.95 760.563,1315.36 764.554,1313.78 768.546,1312.17 772.538,1310.5 776.528,1308.94 780.521,1307.15 784.511,1305.53 788.503,1303.81 792.495,1302.06 796.485,1300.45 800.476,1298.67 804.469,1296.87 808.459,1295.13 812.451,1293.37 816.442,1291.56 820.433,1289.84 824.424,1288.05 828.416,1286.25 832.407,1284.45 836.399,1282.61 840.39,1280.8 844.382,1278.98 848.372,1277.22 852.364,1275.42 856.356,1273.59 860.346,1271.83 864.338,1270.02 868.329,1268.27 872.32,1266.49 876.313,1264.68 880.303,1262.98 884.295,1261.19 888.286,1259.52 892.278,1257.79 896.269,1256.15 900.261,1254.43 904.252,1252.82 908.243,1251.22 912.235,1249.6 916.226,1248.06 920.218,1246.48 924.209,1245.01 928.2,1243.56 932.192,1242.08 936.183,1240.69 940.174,1239.34 944.165,1238.04 948.157,1236.8 952.148,1235.53 956.139,1234.39 960.131,1233.23 964.123,1232.17 968.113,1231.18 972.105,1230.18 976.096,1229.34 980.088,1228.44 984.079,1227.74 988.07,1227.04 992.062,1226.35 996.053,1225.78 1000.04,1225.42 1004.04,1225.04 1008.03,1224.64 1012.02,1224.44 1016.01,1224.3 1020,1224.27 1023.99,1224.32 1027.98,1224.45 1031.98,1224.71 1035.97,1224.98 1039.96,1225.47 1043.95,1225.93 1047.94,1226.54 1051.93,1227.33 1055.92,1228.08 1059.91,1229.04 1063.91,1230.08 1067.9,1231.15 1071.89,1232.36 1075.88,1233.74 1079.87,1235.12 1083.86,1236.63 1087.85,1238.19 1091.85,1239.95 1095.84,1241.81 1099.83,1243.87 1103.82,1245.95 1107.81,1248.22 1111.8,1250.51 1115.79,1252.85 1119.79,1255.15 1123.78,1257.45 1127.77,1259.85 1131.76,1262.35 1135.75,1264.83 1139.74,1267.39 1143.73,1269.99 1147.72,1272.65 1151.72,1275.27 1155.71,1277.83 1159.7,1280.42 1163.69,1282.97 1167.68,1285.51 1171.67,1288.02 1175.66,1290.55 1179.66,1293.09 1183.65,1295.63 1187.64,1298.1 1191.63,1300.56 1195.62,1302.93 1199.61,1305.25 1203.6,1307.49 1207.6,1309.61 1211.59,1311.62 1215.58,1313.55 1219.57,1315.33 1223.56,1316.94 1227.55,1318.41 1231.54,1319.68 1235.53,1320.81 1239.53,1321.74 1243.52,1322.46 1247.51,1323.02 1251.5,1323.32 1255.49,1323.41 1259.48,1323.26 1263.47,1322.89 1267.46,1322.26 1271.46,1321.41 1275.45,1320.24 1279.44,1318.85 1283.43,1317.16 1287.42,1315.18 1291.41,1312.96 1295.4,1310.44 1299.4,1307.64 1303.39,1304.58 1307.38,1301.23 1311.37,1297.58 1315.36,1293.73 1319.35,1289.59 1323.34,1285.2 1327.34,1280.52 1331.33,1275.66 1335.32,1270.55 1339.31,1265.27 1343.3,1259.71 1347.29,1254 1351.28,1248.1 1355.28,1242.09 1359.27,1235.81 1363.26,1229.44 1367.25,1222.94 1371.24,1216.25 1375.23,1209.45 1379.22,1202.46 1383.21,1195.3 1387.21,1187.97 1391.2,1180.5 1395.19,1172.74 1399.18,1164.77 1403.17,1156.61 1407.16,1148.07 1411.15,1139.18 1415.15,1129.92 1419.14,1120.14 1423.13,1109.96 1427.12,1099.17 1431.11,1087.85 1435.1,1075.76 1439.09,1062.99 1443.09,1049.54 1447.08,1035.34 1451.07,1020.47 1455.06,1004.78 1459.05,988.318 1463.04,971.267 1467.03,953.611 1471.02,935.518 1475.02,916.884 1479.01,898.202 1483,879.766 1486.99,861.932 1490.98,844.992 1494.97,829.151 1498.96,814.724 1502.96,801.596 1506.95,789.823 1510.94,779.533 1514.93,770.85 1518.92,764.753 1522.91,762.233 1526.9,764.137 1530.9,771.537 1534.89,784.444 1538.88,801.571 1542.87,821.956 1546.86,844.224 1550.85,867.632 1554.84,891.125 1558.83,913.998 1562.83,935.733 1566.82,955.584 1570.81,973.36 1574.8,988.489 1578.79,1000.86 1582.78,1009.97 1586.77,1014.4 1590.77,1012.93 1594.76,1004.57 1598.75,988.505 1602.74,964.053 1606.73,930.803 1610.72,888.58 1614.71,837.371 1618.71,777.217 1622.7,709.563 1626.69,636.801 1630.68,561.066 1634.67,485.175 1638.66,411.851 1642.65,343.531 1646.64,283.112 1650.64,232.741 1654.63,194.451 1658.62,169.833 1662.61,159.909 1666.6,166.379 1670.59,190.045 1674.58,230.984 1678.58,289.414 1682.57,365.108 1686.56,455.819 1690.55,557.501 1694.54,666.534 1698.53,775.715 1702.52,878.805 1706.51,969.471 1710.51,1041.98 1714.5,1092.41 1718.49,1118.75 1722.48,1120.43 1726.47,1099.25 1730.46,1057.66 1734.46,1000.15 1738.45,931.173 1742.44,856.504 1746.43,781.034 1750.42,709.996 1754.41,647.092 1758.4,597.229 1762.39,563.476 1766.39,550.91 1770.38,562.863 1774.37,600.806 1778.36,661.124 1782.35,735.908 1786.34,814.465 1790.33,887.723 1794.33,949.859 1798.32,998.335 1802.31,1032.51 1806.3,1050.14 1810.29,1049.88 1814.28,1032.15 1818.27,1002.34 1822.26,968.49 1826.26,937.359 1830.25,911.295 1834.24,890.664 1838.23,876.56 1842.22,871.452 1846.21,877.702 1850.2,895.279 1854.2,922.58 1858.19,957.583 1862.18,996.806 1866.17,1034.68 1870.16,1065.26 1874.15,1085.21 1878.14,1091.91 1882.13,1082.59 1886.13,1057.02 1890.12,1021.82 1894.11,988.738 1898.1,969.031 1902.09,970.707 1906.08,996.753 1910.07,1041.72 1914.07,1091.04 1918.06,1128.09 1922.05,1141.17 1926.04,1127.09 1930.03,1091.9 1934.02,1052.09 1938.01,1027.7 1942.01,1031.22 1946,1061.76 1949.99,1104.79 1953.98,1138.09 1957.97,1145.88 1961.96,1128.38 1965.95,1097.21 1969.95,1072.95 1973.94,1072.17 1977.93,1092.93 1981.92,1120.83 1985.91,1137.22 1989.9,1132.39 1993.89,1114.06 1997.88,1098.37 2001.88,1096.71 2005.87,1109.64 2009.86,1123.59 2013.85,1127.02 2017.84,1119.33 2021.83,1108.76 2025.82,1106.19 2029.82,1111.58 2033.81,1117.35 2037.8,1116.5 2041.79,1111.05 2045.78,1106.39 2049.77,1105.64 2053.76,1107.17 2057.75,1107.78 2061.75,1106.39 2065.74,1104.63 2069.73,1103.7 2073.72,1102.7 2077.71,1100.2 2081.7,1096.88 2085.69,1094.17 2089.69,1091.7 2093.68,1088.25 2097.67,1084.07 2101.66,1080.56 2105.65,1077.17 2109.64,1073 2113.63,1068.76 2117.63,1065.15 2121.62,1061.35 2125.61,1056.99 2129.6,1053.18 2133.59,1049.53 2137.58,1045.35 2141.57,1041.42 2145.56,1037.8 2149.56,1033.77 2153.55,1029.59 2157.54,1025.92 2161.53,1021.78 2165.52,1017.98 2169.51,1014.26 2173.5,1010.04 2177.5,1006.35 2181.49,1002.2 2185.48,998.316 2189.47,994.37 2193.46,989.984 2197.45,986.041 2201.44,981.602 2205.43,977.178 2209.43,972.669 2213.42,967.876 2217.41,963.052 2221.4,958.119 2225.39,953.03 2229.38,947.421 2233.37,941.811 2237.37,936.097 2241.36,929.938 2245.35,923.762 2249.34,917.362 2253.33,911.186 2257.32,904.955 2261.31,898.917 2265.31,893.131 2269.3,887.658 2273.29,882.778 2277.28,878.185 2281.27,874.023 2285.26,870.838 2289.25,867.965 2293.24,866.006 "/>
<path clip-path="url(#clip470)" d="M2019.96 270.066 L2282.66 270.066 L2282.66 166.386 L2019.96 166.386  Z" fill="#ffffff" fill-rule="evenodd" fill-opacity="1"/>
<polyline clip-path="url(#clip470)" style="stroke:#000000; stroke-linecap:round; stroke-linejoin:round; stroke-width:4; stroke-opacity:1; fill:none" points="2019.96,270.066 2282.66,270.066 2282.66,166.386 2019.96,166.386 2019.96,270.066 "/>
<polyline clip-path="url(#clip470)" style="stroke:#009af9; stroke-linecap:round; stroke-linejoin:round; stroke-width:4; stroke-opacity:1; fill:none" points="2043.33,218.226 2183.51,218.226 "/>
<path clip-path="url(#clip470)" d="M2220.71 237.914 Q2218.91 242.543 2217.2 243.955 Q2215.48 245.367 2212.61 245.367 L2209.21 245.367 L2209.21 241.803 L2211.71 241.803 Q2213.47 241.803 2214.44 240.969 Q2215.41 240.136 2216.59 237.034 L2217.36 235.09 L2206.87 209.58 L2211.38 209.58 L2219.49 229.858 L2227.59 209.58 L2232.1 209.58 L2220.71 237.914 Z" fill="#000000" fill-rule="nonzero" fill-opacity="1" /><path clip-path="url(#clip470)" d="M2239.39 231.571 L2247.03 231.571 L2247.03 205.206 L2238.72 206.872 L2238.72 202.613 L2246.99 200.946 L2251.66 200.946 L2251.66 231.571 L2259.3 231.571 L2259.3 235.506 L2239.39 235.506 L2239.39 231.571 Z" fill="#000000" fill-rule="nonzero" fill-opacity="1" /></svg>
