<?xml version="1.0" encoding="utf-8"?>
<svg xmlns="http://www.w3.org/2000/svg" xmlns:xlink="http://www.w3.org/1999/xlink" width="600" height="400" viewBox="0 0 2400 1600">
<defs>
  <clipPath id="clip910">
    <rect x="0" y="0" width="2400" height="1600"/>
  </clipPath>
</defs>
<path clip-path="url(#clip910)" d="M0 1600 L2400 1600 L2400 0 L0 0  Z" fill="#ffffff" fill-rule="evenodd" fill-opacity="1"/>
<defs>
  <clipPath id="clip911">
    <rect x="480" y="0" width="1681" height="1600"/>
  </clipPath>
</defs>
<path clip-path="url(#clip910)" d="M252.764 1410.9 L2352.76 1410.9 L2352.76 123.472 L252.764 123.472  Z" fill="#ffffff" fill-rule="evenodd" fill-opacity="1"/>
<defs>
  <clipPath id="clip912">
    <rect x="252" y="123" width="2101" height="1288"/>
  </clipPath>
</defs>
<polyline clip-path="url(#clip912)" style="stroke:#000000; stroke-linecap:round; stroke-linejoin:round; stroke-width:2; stroke-opacity:0.1; fill:none" points="-851.013,1410.9 -851.013,123.472 "/>
<polyline clip-path="url(#clip912)" style="stroke:#000000; stroke-linecap:round; stroke-linejoin:round; stroke-width:2; stroke-opacity:0.1; fill:none" points="-190.638,1410.9 -190.638,123.472 "/>
<polyline clip-path="url(#clip912)" style="stroke:#000000; stroke-linecap:round; stroke-linejoin:round; stroke-width:2; stroke-opacity:0.1; fill:none" points="469.737,1410.9 469.737,123.472 "/>
<polyline clip-path="url(#clip912)" style="stroke:#000000; stroke-linecap:round; stroke-linejoin:round; stroke-width:2; stroke-opacity:0.1; fill:none" points="1130.11,1410.9 1130.11,123.472 "/>
<polyline clip-path="url(#clip912)" style="stroke:#000000; stroke-linecap:round; stroke-linejoin:round; stroke-width:2; stroke-opacity:0.1; fill:none" points="1790.49,1410.9 1790.49,123.472 "/>
<polyline clip-path="url(#clip912)" style="stroke:#000000; stroke-linecap:round; stroke-linejoin:round; stroke-width:2; stroke-opacity:0.1; fill:none" points="2450.86,1410.9 2450.86,123.472 "/>
<polyline clip-path="url(#clip910)" style="stroke:#000000; stroke-linecap:round; stroke-linejoin:round; stroke-width:4; stroke-opacity:1; fill:none" points="252.764,1410.9 2352.76,1410.9 "/>
<polyline clip-path="url(#clip910)" style="stroke:#000000; stroke-linecap:round; stroke-linejoin:round; stroke-width:4; stroke-opacity:1; fill:none" points="-851.013,1410.9 -851.013,1392 "/>
<polyline clip-path="url(#clip910)" style="stroke:#000000; stroke-linecap:round; stroke-linejoin:round; stroke-width:4; stroke-opacity:1; fill:none" points="-190.638,1410.9 -190.638,1392 "/>
<polyline clip-path="url(#clip910)" style="stroke:#000000; stroke-linecap:round; stroke-linejoin:round; stroke-width:4; stroke-opacity:1; fill:none" points="469.737,1410.9 469.737,1392 "/>
<polyline clip-path="url(#clip910)" style="stroke:#000000; stroke-linecap:round; stroke-linejoin:round; stroke-width:4; stroke-opacity:1; fill:none" points="1130.11,1410.9 1130.11,1392 "/>
<polyline clip-path="url(#clip910)" style="stroke:#000000; stroke-linecap:round; stroke-linejoin:round; stroke-width:4; stroke-opacity:1; fill:none" points="1790.49,1410.9 1790.49,1392 "/>
<polyline clip-path="url(#clip910)" style="stroke:#000000; stroke-linecap:round; stroke-linejoin:round; stroke-width:4; stroke-opacity:1; fill:none" points="2450.86,1410.9 2450.86,1392 "/>
<path clip-path="url(#clip910)" d="M-901.358 1485.02 L-893.719 1485.02 L-893.719 1458.66 L-902.029 1460.32 L-902.029 1456.06 L-893.765 1454.4 L-889.09 1454.4 L-889.09 1485.02 L-881.451 1485.02 L-881.451 1488.96 L-901.358 1488.96 L-901.358 1485.02 Z" fill="#000000" fill-rule="nonzero" fill-opacity="1" /><path clip-path="url(#clip910)" d="M-862.006 1457.48 Q-865.617 1457.48 -867.446 1461.04 Q-869.252 1464.58 -869.252 1471.71 Q-869.252 1478.82 -867.446 1482.38 Q-865.617 1485.92 -862.006 1485.92 Q-858.372 1485.92 -856.567 1482.38 Q-854.738 1478.82 -854.738 1471.71 Q-854.738 1464.58 -856.567 1461.04 Q-858.372 1457.48 -862.006 1457.48 M-862.006 1453.77 Q-856.196 1453.77 -853.141 1458.38 Q-850.062 1462.96 -850.062 1471.71 Q-850.062 1480.44 -853.141 1485.04 Q-856.196 1489.63 -862.006 1489.63 Q-867.817 1489.63 -870.895 1485.04 Q-873.951 1480.44 -873.951 1471.71 Q-873.951 1462.96 -870.895 1458.38 Q-867.817 1453.77 -862.006 1453.77 Z" fill="#000000" fill-rule="nonzero" fill-opacity="1" /><path clip-path="url(#clip910)" d="M-850.062 1447.87 L-825.95 1447.87 L-825.95 1451.07 L-850.062 1451.07 L-850.062 1447.87 Z" fill="#000000" fill-rule="nonzero" fill-opacity="1" /><path clip-path="url(#clip910)" d="M-809.625 1448.21 Q-812.334 1448.21 -813.895 1449.66 Q-815.437 1451.11 -815.437 1453.65 Q-815.437 1456.19 -813.895 1457.63 Q-812.334 1459.08 -809.625 1459.08 Q-806.917 1459.08 -805.356 1457.63 Q-803.795 1456.17 -803.795 1453.65 Q-803.795 1451.11 -805.356 1449.66 Q-806.898 1448.21 -809.625 1448.21 M-813.424 1446.59 Q-815.87 1445.99 -817.242 1444.32 Q-818.597 1442.64 -818.597 1440.24 Q-818.597 1436.87 -816.208 1434.91 Q-813.801 1432.96 -809.625 1432.96 Q-805.431 1432.96 -803.043 1434.91 Q-800.654 1436.87 -800.654 1440.24 Q-800.654 1442.64 -802.027 1444.32 Q-803.381 1445.99 -805.807 1446.59 Q-803.061 1447.23 -801.538 1449.1 Q-799.996 1450.96 -799.996 1453.65 Q-799.996 1457.73 -802.497 1459.91 Q-804.98 1462.09 -809.625 1462.09 Q-814.271 1462.09 -816.772 1459.91 Q-819.255 1457.73 -819.255 1453.65 Q-819.255 1450.96 -817.713 1449.1 Q-816.17 1447.23 -813.424 1446.59 M-814.816 1440.59 Q-814.816 1442.78 -813.462 1444 Q-812.089 1445.22 -809.625 1445.22 Q-807.18 1445.22 -805.807 1444 Q-804.416 1442.78 -804.416 1440.59 Q-804.416 1438.41 -805.807 1437.19 Q-807.18 1435.97 -809.625 1435.97 Q-812.089 1435.97 -813.462 1437.19 Q-814.816 1438.41 -814.816 1440.59 Z" fill="#000000" fill-rule="nonzero" fill-opacity="1" /><path clip-path="url(#clip910)" d="M-241.087 1485.02 L-233.448 1485.02 L-233.448 1458.66 L-241.758 1460.32 L-241.758 1456.06 L-233.494 1454.4 L-228.818 1454.4 L-228.818 1485.02 L-221.179 1485.02 L-221.179 1488.96 L-241.087 1488.96 L-241.087 1485.02 Z" fill="#000000" fill-rule="nonzero" fill-opacity="1" /><path clip-path="url(#clip910)" d="M-201.735 1457.48 Q-205.346 1457.48 -207.175 1461.04 Q-208.98 1464.58 -208.98 1471.71 Q-208.98 1478.82 -207.175 1482.38 Q-205.346 1485.92 -201.735 1485.92 Q-198.101 1485.92 -196.295 1482.38 Q-194.467 1478.82 -194.467 1471.71 Q-194.467 1464.58 -196.295 1461.04 Q-198.101 1457.48 -201.735 1457.48 M-201.735 1453.77 Q-195.925 1453.77 -192.869 1458.38 Q-189.791 1462.96 -189.791 1471.71 Q-189.791 1480.44 -192.869 1485.04 Q-195.925 1489.63 -201.735 1489.63 Q-207.545 1489.63 -210.624 1485.04 Q-213.679 1480.44 -213.679 1471.71 Q-213.679 1462.96 -210.624 1458.38 Q-207.545 1453.77 -201.735 1453.77 Z" fill="#000000" fill-rule="nonzero" fill-opacity="1" /><path clip-path="url(#clip910)" d="M-189.791 1447.87 L-165.679 1447.87 L-165.679 1451.07 L-189.791 1451.07 L-189.791 1447.87 Z" fill="#000000" fill-rule="nonzero" fill-opacity="1" /><path clip-path="url(#clip910)" d="M-148.884 1445.99 Q-151.442 1445.99 -152.946 1447.74 Q-154.432 1449.49 -154.432 1452.54 Q-154.432 1455.57 -152.946 1457.33 Q-151.442 1459.08 -148.884 1459.08 Q-146.326 1459.08 -144.84 1457.33 Q-143.335 1455.57 -143.335 1452.54 Q-143.335 1449.49 -144.84 1447.74 Q-146.326 1445.99 -148.884 1445.99 M-141.342 1434.09 L-141.342 1437.55 Q-142.771 1436.87 -144.238 1436.51 Q-145.686 1436.16 -147.116 1436.16 Q-150.877 1436.16 -152.871 1438.69 Q-154.846 1441.23 -155.128 1446.37 Q-154.018 1444.73 -152.344 1443.87 Q-150.67 1442.98 -148.658 1442.98 Q-144.426 1442.98 -141.981 1445.56 Q-139.517 1448.12 -139.517 1452.54 Q-139.517 1456.86 -142.075 1459.48 Q-144.633 1462.09 -148.884 1462.09 Q-153.755 1462.09 -156.332 1458.37 Q-158.908 1454.62 -158.908 1447.53 Q-158.908 1440.88 -155.749 1436.93 Q-152.589 1432.96 -147.266 1432.96 Q-145.837 1432.96 -144.389 1433.24 Q-142.922 1433.52 -141.342 1434.09 Z" fill="#000000" fill-rule="nonzero" fill-opacity="1" /><path clip-path="url(#clip910)" d="M419.157 1485.02 L426.795 1485.02 L426.795 1458.66 L418.485 1460.32 L418.485 1456.06 L426.749 1454.4 L431.425 1454.4 L431.425 1485.02 L439.064 1485.02 L439.064 1488.96 L419.157 1488.96 L419.157 1485.02 Z" fill="#000000" fill-rule="nonzero" fill-opacity="1" /><path clip-path="url(#clip910)" d="M458.508 1457.48 Q454.897 1457.48 453.068 1461.04 Q451.263 1464.58 451.263 1471.71 Q451.263 1478.82 453.068 1482.38 Q454.897 1485.92 458.508 1485.92 Q462.142 1485.92 463.948 1482.38 Q465.777 1478.82 465.777 1471.71 Q465.777 1464.58 463.948 1461.04 Q462.142 1457.48 458.508 1457.48 M458.508 1453.77 Q464.318 1453.77 467.374 1458.38 Q470.453 1462.96 470.453 1471.71 Q470.453 1480.44 467.374 1485.04 Q464.318 1489.63 458.508 1489.63 Q452.698 1489.63 449.619 1485.04 Q446.564 1480.44 446.564 1471.71 Q446.564 1462.96 449.619 1458.38 Q452.698 1453.77 458.508 1453.77 Z" fill="#000000" fill-rule="nonzero" fill-opacity="1" /><path clip-path="url(#clip910)" d="M470.453 1447.87 L494.564 1447.87 L494.564 1451.07 L470.453 1451.07 L470.453 1447.87 Z" fill="#000000" fill-rule="nonzero" fill-opacity="1" /><path clip-path="url(#clip910)" d="M513.203 1436.78 L503.611 1451.77 L513.203 1451.77 L513.203 1436.78 M512.206 1433.47 L516.983 1433.47 L516.983 1451.77 L520.989 1451.77 L520.989 1454.93 L516.983 1454.93 L516.983 1461.55 L513.203 1461.55 L513.203 1454.93 L500.526 1454.93 L500.526 1451.26 L512.206 1433.47 Z" fill="#000000" fill-rule="nonzero" fill-opacity="1" /><path clip-path="url(#clip910)" d="M1080.38 1485.02 L1088.02 1485.02 L1088.02 1458.66 L1079.71 1460.32 L1079.71 1456.06 L1087.97 1454.4 L1092.65 1454.4 L1092.65 1485.02 L1100.28 1485.02 L1100.28 1488.96 L1080.38 1488.96 L1080.38 1485.02 Z" fill="#000000" fill-rule="nonzero" fill-opacity="1" /><path clip-path="url(#clip910)" d="M1119.73 1457.48 Q1116.12 1457.48 1114.29 1461.04 Q1112.48 1464.58 1112.48 1471.71 Q1112.48 1478.82 1114.29 1482.38 Q1116.12 1485.92 1119.73 1485.92 Q1123.36 1485.92 1125.17 1482.38 Q1127 1478.82 1127 1471.71 Q1127 1464.58 1125.17 1461.04 Q1123.36 1457.48 1119.73 1457.48 M1119.73 1453.77 Q1125.54 1453.77 1128.6 1458.38 Q1131.67 1462.96 1131.67 1471.71 Q1131.67 1480.44 1128.6 1485.04 Q1125.54 1489.63 1119.73 1489.63 Q1113.92 1489.63 1110.84 1485.04 Q1107.78 1480.44 1107.78 1471.71 Q1107.78 1462.96 1110.84 1458.38 Q1113.92 1453.77 1119.73 1453.77 Z" fill="#000000" fill-rule="nonzero" fill-opacity="1" /><path clip-path="url(#clip910)" d="M1131.67 1447.87 L1155.79 1447.87 L1155.79 1451.07 L1131.67 1451.07 L1131.67 1447.87 Z" fill="#000000" fill-rule="nonzero" fill-opacity="1" /><path clip-path="url(#clip910)" d="M1167.26 1458.35 L1180.52 1458.35 L1180.52 1461.55 L1162.69 1461.55 L1162.69 1458.35 Q1164.85 1456.11 1168.57 1452.35 Q1172.32 1448.57 1173.28 1447.48 Q1175.1 1445.43 1175.82 1444.02 Q1176.55 1442.59 1176.55 1441.22 Q1176.55 1438.98 1174.97 1437.57 Q1173.41 1436.16 1170.89 1436.16 Q1169.1 1436.16 1167.11 1436.78 Q1165.13 1437.4 1162.88 1438.66 L1162.88 1434.82 Q1165.17 1433.9 1167.16 1433.43 Q1169.16 1432.96 1170.81 1432.96 Q1175.18 1432.96 1177.77 1435.14 Q1180.37 1437.32 1180.37 1440.97 Q1180.37 1442.7 1179.71 1444.26 Q1179.07 1445.8 1177.36 1447.91 Q1176.89 1448.46 1174.37 1451.07 Q1171.85 1453.67 1167.26 1458.35 Z" fill="#000000" fill-rule="nonzero" fill-opacity="1" /><path clip-path="url(#clip910)" d="M1755.47 1485.02 L1763.11 1485.02 L1763.11 1458.66 L1754.8 1460.32 L1754.8 1456.06 L1763.06 1454.4 L1767.74 1454.4 L1767.74 1485.02 L1775.38 1485.02 L1775.38 1488.96 L1755.47 1488.96 L1755.47 1485.02 Z" fill="#000000" fill-rule="nonzero" fill-opacity="1" /><path clip-path="url(#clip910)" d="M1794.82 1457.48 Q1791.21 1457.48 1789.38 1461.04 Q1787.58 1464.58 1787.58 1471.71 Q1787.58 1478.82 1789.38 1482.38 Q1791.21 1485.92 1794.82 1485.92 Q1798.46 1485.92 1800.26 1482.38 Q1802.09 1478.82 1802.09 1471.71 Q1802.09 1464.58 1800.26 1461.04 Q1798.46 1457.48 1794.82 1457.48 M1794.82 1453.77 Q1800.63 1453.77 1803.69 1458.38 Q1806.77 1462.96 1806.77 1471.71 Q1806.77 1480.44 1803.69 1485.04 Q1800.63 1489.63 1794.82 1489.63 Q1789.01 1489.63 1785.93 1485.04 Q1782.88 1480.44 1782.88 1471.71 Q1782.88 1462.96 1785.93 1458.38 Q1789.01 1453.77 1794.82 1453.77 Z" fill="#000000" fill-rule="nonzero" fill-opacity="1" /><path clip-path="url(#clip910)" d="M1816.47 1435.97 Q1813.54 1435.97 1812.05 1438.86 Q1810.58 1441.74 1810.58 1447.53 Q1810.58 1453.31 1812.05 1456.2 Q1813.54 1459.08 1816.47 1459.08 Q1819.42 1459.08 1820.89 1456.2 Q1822.38 1453.31 1822.38 1447.53 Q1822.38 1441.74 1820.89 1438.86 Q1819.42 1435.97 1816.47 1435.97 M1816.47 1432.96 Q1821.19 1432.96 1823.67 1436.7 Q1826.18 1440.43 1826.18 1447.53 Q1826.18 1454.62 1823.67 1458.37 Q1821.19 1462.09 1816.47 1462.09 Q1811.75 1462.09 1809.25 1458.37 Q1806.77 1454.62 1806.77 1447.53 Q1806.77 1440.43 1809.25 1436.7 Q1811.75 1432.96 1816.47 1432.96 Z" fill="#000000" fill-rule="nonzero" fill-opacity="1" /><path clip-path="url(#clip910)" d="M2416.63 1485.02 L2424.27 1485.02 L2424.27 1458.66 L2415.96 1460.32 L2415.96 1456.06 L2424.23 1454.4 L2428.9 1454.4 L2428.9 1485.02 L2436.54 1485.02 L2436.54 1488.96 L2416.63 1488.96 L2416.63 1485.02 Z" fill="#000000" fill-rule="nonzero" fill-opacity="1" /><path clip-path="url(#clip910)" d="M2455.99 1457.48 Q2452.37 1457.48 2450.55 1461.04 Q2448.74 1464.58 2448.74 1471.71 Q2448.74 1478.82 2450.55 1482.38 Q2452.37 1485.92 2455.99 1485.92 Q2459.62 1485.92 2461.43 1482.38 Q2463.25 1478.82 2463.25 1471.71 Q2463.25 1464.58 2461.43 1461.04 Q2459.62 1457.48 2455.99 1457.48 M2455.99 1453.77 Q2461.8 1453.77 2464.85 1458.38 Q2467.93 1462.96 2467.93 1471.71 Q2467.93 1480.44 2464.85 1485.04 Q2461.8 1489.63 2455.99 1489.63 Q2450.18 1489.63 2447.1 1485.04 Q2444.04 1480.44 2444.04 1471.71 Q2444.04 1462.96 2447.1 1458.38 Q2450.18 1453.77 2455.99 1453.77 Z" fill="#000000" fill-rule="nonzero" fill-opacity="1" /><path clip-path="url(#clip910)" d="M2472.5 1458.35 L2485.76 1458.35 L2485.76 1461.55 L2467.93 1461.55 L2467.93 1458.35 Q2470.09 1456.11 2473.82 1452.35 Q2477.56 1448.57 2478.52 1447.48 Q2480.34 1445.43 2481.06 1444.02 Q2481.79 1442.59 2481.79 1441.22 Q2481.79 1438.98 2480.21 1437.57 Q2478.65 1436.16 2476.13 1436.16 Q2474.34 1436.16 2472.35 1436.78 Q2470.38 1437.4 2468.12 1438.66 L2468.12 1434.82 Q2470.41 1433.9 2472.41 1433.43 Q2474.4 1432.96 2476.06 1432.96 Q2480.42 1432.96 2483.01 1435.14 Q2485.61 1437.32 2485.61 1440.97 Q2485.61 1442.7 2484.95 1444.26 Q2484.31 1445.8 2482.6 1447.91 Q2482.13 1448.46 2479.61 1451.07 Q2477.09 1453.67 2472.5 1458.35 Z" fill="#000000" fill-rule="nonzero" fill-opacity="1" /><path clip-path="url(#clip910)" d="M1257.98 1524.66 L1263.87 1524.66 L1263.87 1553.91 L1281.34 1538.54 L1288.82 1538.54 L1269.91 1555.22 L1289.61 1574.19 L1281.98 1574.19 L1263.87 1556.78 L1263.87 1574.19 L1257.98 1574.19 L1257.98 1524.66 Z" fill="#000000" fill-rule="nonzero" fill-opacity="1" /><path clip-path="url(#clip910)" d="M1306.36 1526.67 L1311.77 1526.67 L1295.22 1580.23 L1289.81 1580.23 L1306.36 1526.67 Z" fill="#000000" fill-rule="nonzero" fill-opacity="1" /><path clip-path="url(#clip910)" d="M1347.54 1552.67 L1347.54 1574.19 L1341.69 1574.19 L1341.69 1552.86 Q1341.69 1547.8 1339.71 1545.29 Q1337.74 1542.77 1333.79 1542.77 Q1329.05 1542.77 1326.31 1545.79 Q1323.58 1548.82 1323.58 1554.04 L1323.58 1574.19 L1317.69 1574.19 L1317.69 1524.66 L1323.58 1524.66 L1323.58 1544.08 Q1325.68 1540.86 1328.51 1539.27 Q1331.37 1537.68 1335.1 1537.68 Q1341.24 1537.68 1344.39 1541.5 Q1347.54 1545.29 1347.54 1552.67 Z" fill="#000000" fill-rule="nonzero" fill-opacity="1" /><polyline clip-path="url(#clip912)" style="stroke:#000000; stroke-linecap:round; stroke-linejoin:round; stroke-width:2; stroke-opacity:0.1; fill:none" points="252.764,1731.4 2352.76,1731.4 "/>
<polyline clip-path="url(#clip912)" style="stroke:#000000; stroke-linecap:round; stroke-linejoin:round; stroke-width:2; stroke-opacity:0.1; fill:none" points="252.764,1363.44 2352.76,1363.44 "/>
<polyline clip-path="url(#clip912)" style="stroke:#000000; stroke-linecap:round; stroke-linejoin:round; stroke-width:2; stroke-opacity:0.1; fill:none" points="252.764,995.477 2352.76,995.477 "/>
<polyline clip-path="url(#clip912)" style="stroke:#000000; stroke-linecap:round; stroke-linejoin:round; stroke-width:2; stroke-opacity:0.1; fill:none" points="252.764,627.513 2352.76,627.513 "/>
<polyline clip-path="url(#clip912)" style="stroke:#000000; stroke-linecap:round; stroke-linejoin:round; stroke-width:2; stroke-opacity:0.1; fill:none" points="252.764,259.55 2352.76,259.55 "/>
<polyline clip-path="url(#clip912)" style="stroke:#000000; stroke-linecap:round; stroke-linejoin:round; stroke-width:2; stroke-opacity:0.1; fill:none" points="252.764,-108.414 2352.76,-108.414 "/>
<polyline clip-path="url(#clip910)" style="stroke:#000000; stroke-linecap:round; stroke-linejoin:round; stroke-width:4; stroke-opacity:1; fill:none" points="252.764,1410.9 252.764,123.472 "/>
<polyline clip-path="url(#clip910)" style="stroke:#000000; stroke-linecap:round; stroke-linejoin:round; stroke-width:4; stroke-opacity:1; fill:none" points="252.764,1731.4 271.662,1731.4 "/>
<polyline clip-path="url(#clip910)" style="stroke:#000000; stroke-linecap:round; stroke-linejoin:round; stroke-width:4; stroke-opacity:1; fill:none" points="252.764,1363.44 271.662,1363.44 "/>
<polyline clip-path="url(#clip910)" style="stroke:#000000; stroke-linecap:round; stroke-linejoin:round; stroke-width:4; stroke-opacity:1; fill:none" points="252.764,995.477 271.662,995.477 "/>
<polyline clip-path="url(#clip910)" style="stroke:#000000; stroke-linecap:round; stroke-linejoin:round; stroke-width:4; stroke-opacity:1; fill:none" points="252.764,627.513 271.662,627.513 "/>
<polyline clip-path="url(#clip910)" style="stroke:#000000; stroke-linecap:round; stroke-linejoin:round; stroke-width:4; stroke-opacity:1; fill:none" points="252.764,259.55 271.662,259.55 "/>
<polyline clip-path="url(#clip910)" style="stroke:#000000; stroke-linecap:round; stroke-linejoin:round; stroke-width:4; stroke-opacity:1; fill:none" points="252.764,-108.414 271.662,-108.414 "/>
<path clip-path="url(#clip910)" d="M114.931 1751.2 L122.57 1751.2 L122.57 1724.83 L114.26 1726.5 L114.26 1722.24 L122.524 1720.57 L127.2 1720.57 L127.2 1751.2 L134.839 1751.2 L134.839 1755.13 L114.931 1755.13 L114.931 1751.2 Z" fill="#000000" fill-rule="nonzero" fill-opacity="1" /><path clip-path="url(#clip910)" d="M154.283 1723.65 Q150.672 1723.65 148.843 1727.22 Q147.038 1730.76 147.038 1737.89 Q147.038 1744.99 148.843 1748.56 Q150.672 1752.1 154.283 1752.1 Q157.917 1752.1 159.723 1748.56 Q161.552 1744.99 161.552 1737.89 Q161.552 1730.76 159.723 1727.22 Q157.917 1723.65 154.283 1723.65 M154.283 1719.95 Q160.093 1719.95 163.149 1724.55 Q166.227 1729.14 166.227 1737.89 Q166.227 1746.61 163.149 1751.22 Q160.093 1755.8 154.283 1755.8 Q148.473 1755.8 145.394 1751.22 Q142.339 1746.61 142.339 1737.89 Q142.339 1729.14 145.394 1724.55 Q148.473 1719.95 154.283 1719.95 Z" fill="#000000" fill-rule="nonzero" fill-opacity="1" /><path clip-path="url(#clip910)" d="M166.227 1714.05 L190.339 1714.05 L190.339 1717.25 L166.227 1717.25 L166.227 1714.05 Z" fill="#000000" fill-rule="nonzero" fill-opacity="1" /><path clip-path="url(#clip910)" d="M208.978 1702.95 L199.386 1717.94 L208.978 1717.94 L208.978 1702.95 M207.981 1699.64 L212.758 1699.64 L212.758 1717.94 L216.764 1717.94 L216.764 1721.1 L212.758 1721.1 L212.758 1727.72 L208.978 1727.72 L208.978 1721.1 L196.301 1721.1 L196.301 1717.43 L207.981 1699.64 Z" fill="#000000" fill-rule="nonzero" fill-opacity="1" /><path clip-path="url(#clip910)" d="M116.624 1383.23 L124.263 1383.23 L124.263 1356.87 L115.953 1358.53 L115.953 1354.27 L124.217 1352.61 L128.893 1352.61 L128.893 1383.23 L136.531 1383.23 L136.531 1387.17 L116.624 1387.17 L116.624 1383.23 Z" fill="#000000" fill-rule="nonzero" fill-opacity="1" /><path clip-path="url(#clip910)" d="M155.976 1355.69 Q152.365 1355.69 150.536 1359.25 Q148.73 1362.79 148.73 1369.92 Q148.73 1377.03 150.536 1380.59 Q152.365 1384.14 155.976 1384.14 Q159.61 1384.14 161.416 1380.59 Q163.244 1377.03 163.244 1369.92 Q163.244 1362.79 161.416 1359.25 Q159.61 1355.69 155.976 1355.69 M155.976 1351.98 Q161.786 1351.98 164.841 1356.59 Q167.92 1361.17 167.92 1369.92 Q167.92 1378.65 164.841 1383.26 Q161.786 1387.84 155.976 1387.84 Q150.166 1387.84 147.087 1383.26 Q144.031 1378.65 144.031 1369.92 Q144.031 1361.17 147.087 1356.59 Q150.166 1351.98 155.976 1351.98 Z" fill="#000000" fill-rule="nonzero" fill-opacity="1" /><path clip-path="url(#clip910)" d="M167.92 1346.08 L192.032 1346.08 L192.032 1349.28 L167.92 1349.28 L167.92 1346.08 Z" fill="#000000" fill-rule="nonzero" fill-opacity="1" /><path clip-path="url(#clip910)" d="M203.504 1356.56 L216.764 1356.56 L216.764 1359.76 L198.934 1359.76 L198.934 1356.56 Q201.097 1354.32 204.821 1350.56 Q208.564 1346.78 209.523 1345.69 Q211.347 1343.64 212.062 1342.23 Q212.796 1340.8 212.796 1339.43 Q212.796 1337.19 211.216 1335.78 Q209.655 1334.37 207.134 1334.37 Q205.348 1334.37 203.354 1334.99 Q201.379 1335.61 199.122 1336.87 L199.122 1333.03 Q201.417 1332.11 203.41 1331.64 Q205.404 1331.17 207.059 1331.17 Q211.423 1331.17 214.018 1333.35 Q216.613 1335.53 216.613 1339.18 Q216.613 1340.91 215.955 1342.47 Q215.316 1344.02 213.604 1346.12 Q213.134 1346.67 210.614 1349.28 Q208.094 1351.88 203.504 1356.56 Z" fill="#000000" fill-rule="nonzero" fill-opacity="1" /><path clip-path="url(#clip910)" d="M146.058 1015.27 L153.697 1015.27 L153.697 988.904 L145.387 990.571 L145.387 986.311 L153.651 984.645 L158.327 984.645 L158.327 1015.27 L165.966 1015.27 L165.966 1019.2 L146.058 1019.2 L146.058 1015.27 Z" fill="#000000" fill-rule="nonzero" fill-opacity="1" /><path clip-path="url(#clip910)" d="M185.41 987.723 Q181.799 987.723 179.97 991.288 Q178.165 994.83 178.165 1001.96 Q178.165 1009.07 179.97 1012.63 Q181.799 1016.17 185.41 1016.17 Q189.044 1016.17 190.85 1012.63 Q192.678 1009.07 192.678 1001.96 Q192.678 994.83 190.85 991.288 Q189.044 987.723 185.41 987.723 M185.41 984.02 Q191.22 984.02 194.276 988.626 Q197.354 993.209 197.354 1001.96 Q197.354 1010.69 194.276 1015.29 Q191.22 1019.88 185.41 1019.88 Q179.6 1019.88 176.521 1015.29 Q173.466 1010.69 173.466 1001.96 Q173.466 993.209 176.521 988.626 Q179.6 984.02 185.41 984.02 Z" fill="#000000" fill-rule="nonzero" fill-opacity="1" /><path clip-path="url(#clip910)" d="M207.059 966.216 Q204.125 966.216 202.639 969.112 Q201.172 971.99 201.172 977.782 Q201.172 983.556 202.639 986.453 Q204.125 989.33 207.059 989.33 Q210.012 989.33 211.479 986.453 Q212.965 983.556 212.965 977.782 Q212.965 971.99 211.479 969.112 Q210.012 966.216 207.059 966.216 M207.059 963.206 Q211.78 963.206 214.263 966.949 Q216.764 970.673 216.764 977.782 Q216.764 984.873 214.263 988.616 Q211.78 992.34 207.059 992.34 Q202.338 992.34 199.837 988.616 Q197.354 984.873 197.354 977.782 Q197.354 970.673 199.837 966.949 Q202.338 963.206 207.059 963.206 Z" fill="#000000" fill-rule="nonzero" fill-opacity="1" /><path clip-path="url(#clip910)" d="M147.638 647.306 L155.277 647.306 L155.277 620.94 L146.967 622.607 L146.967 618.348 L155.231 616.681 L159.907 616.681 L159.907 647.306 L167.545 647.306 L167.545 651.241 L147.638 651.241 L147.638 647.306 Z" fill="#000000" fill-rule="nonzero" fill-opacity="1" /><path clip-path="url(#clip910)" d="M186.99 619.76 Q183.379 619.76 181.55 623.325 Q179.744 626.866 179.744 633.996 Q179.744 641.102 181.55 644.667 Q183.379 648.209 186.99 648.209 Q190.624 648.209 192.43 644.667 Q194.258 641.102 194.258 633.996 Q194.258 626.866 192.43 623.325 Q190.624 619.76 186.99 619.76 M186.99 616.056 Q192.8 616.056 195.855 620.663 Q198.934 625.246 198.934 633.996 Q198.934 642.723 195.855 647.329 Q192.8 651.912 186.99 651.912 Q181.18 651.912 178.101 647.329 Q175.045 642.723 175.045 633.996 Q175.045 625.246 178.101 620.663 Q181.18 616.056 186.99 616.056 Z" fill="#000000" fill-rule="nonzero" fill-opacity="1" /><path clip-path="url(#clip910)" d="M203.504 620.633 L216.764 620.633 L216.764 623.831 L198.934 623.831 L198.934 620.633 Q201.097 618.395 204.821 614.634 Q208.564 610.853 209.523 609.762 Q211.347 607.712 212.062 606.302 Q212.796 604.872 212.796 603.499 Q212.796 601.261 211.216 599.851 Q209.655 598.44 207.134 598.44 Q205.348 598.44 203.354 599.061 Q201.379 599.681 199.122 600.942 L199.122 597.105 Q201.417 596.183 203.41 595.713 Q205.404 595.243 207.059 595.243 Q211.423 595.243 214.018 597.425 Q216.613 599.606 216.613 603.255 Q216.613 604.985 215.955 606.546 Q215.316 608.089 213.604 610.195 Q213.134 610.74 210.614 613.355 Q208.094 615.95 203.504 620.633 Z" fill="#000000" fill-rule="nonzero" fill-opacity="1" /><path clip-path="url(#clip910)" d="M145.005 279.342 L152.644 279.342 L152.644 252.977 L144.334 254.643 L144.334 250.384 L152.598 248.717 L157.274 248.717 L157.274 279.342 L164.912 279.342 L164.912 283.277 L145.005 283.277 L145.005 279.342 Z" fill="#000000" fill-rule="nonzero" fill-opacity="1" /><path clip-path="url(#clip910)" d="M184.357 251.796 Q180.746 251.796 178.917 255.361 Q177.111 258.903 177.111 266.032 Q177.111 273.139 178.917 276.703 Q180.746 280.245 184.357 280.245 Q187.991 280.245 189.797 276.703 Q191.625 273.139 191.625 266.032 Q191.625 258.903 189.797 255.361 Q187.991 251.796 184.357 251.796 M184.357 248.092 Q190.167 248.092 193.222 252.699 Q196.301 257.282 196.301 266.032 Q196.301 274.759 193.222 279.365 Q190.167 283.949 184.357 283.949 Q178.547 283.949 175.468 279.365 Q172.412 274.759 172.412 266.032 Q172.412 257.282 175.468 252.699 Q178.547 248.092 184.357 248.092 Z" fill="#000000" fill-rule="nonzero" fill-opacity="1" /><path clip-path="url(#clip910)" d="M208.978 231.097 L199.386 246.087 L208.978 246.087 L208.978 231.097 M207.981 227.787 L212.758 227.787 L212.758 246.087 L216.764 246.087 L216.764 249.247 L212.758 249.247 L212.758 255.867 L208.978 255.867 L208.978 249.247 L196.301 249.247 L196.301 245.579 L207.981 227.787 Z" fill="#000000" fill-rule="nonzero" fill-opacity="1" /><path clip-path="url(#clip910)" d="M146.077 -88.6214 L153.716 -88.6214 L153.716 -114.987 L145.406 -113.32 L145.406 -117.58 L153.67 -119.246 L158.346 -119.246 L158.346 -88.6214 L165.984 -88.6214 L165.984 -84.6862 L146.077 -84.6862 L146.077 -88.6214 Z" fill="#000000" fill-rule="nonzero" fill-opacity="1" /><path clip-path="url(#clip910)" d="M185.429 -116.168 Q181.818 -116.168 179.989 -112.603 Q178.183 -109.061 178.183 -101.931 Q178.183 -94.825 179.989 -91.2602 Q181.818 -87.7186 185.429 -87.7186 Q189.063 -87.7186 190.869 -91.2602 Q192.697 -94.825 192.697 -101.931 Q192.697 -109.061 190.869 -112.603 Q189.063 -116.168 185.429 -116.168 M185.429 -119.871 Q191.239 -119.871 194.294 -115.265 Q197.373 -110.681 197.373 -101.931 Q197.373 -93.2047 194.294 -88.5982 Q191.239 -84.0149 185.429 -84.0149 Q179.619 -84.0149 176.54 -88.5982 Q173.484 -93.2047 173.484 -101.931 Q173.484 -110.681 176.54 -115.265 Q179.619 -119.871 185.429 -119.871 Z" fill="#000000" fill-rule="nonzero" fill-opacity="1" /><path clip-path="url(#clip910)" d="M207.398 -127.651 Q204.84 -127.651 203.335 -125.901 Q201.849 -124.152 201.849 -121.106 Q201.849 -118.077 203.335 -116.31 Q204.84 -114.56 207.398 -114.56 Q209.956 -114.56 211.441 -116.31 Q212.946 -118.077 212.946 -121.106 Q212.946 -124.152 211.441 -125.901 Q209.956 -127.651 207.398 -127.651 M214.94 -139.556 L214.94 -136.095 Q213.51 -136.772 212.043 -137.13 Q210.595 -137.487 209.166 -137.487 Q205.404 -137.487 203.41 -134.948 Q201.436 -132.409 201.153 -127.274 Q202.263 -128.911 203.937 -129.776 Q205.611 -130.66 207.623 -130.66 Q211.855 -130.66 214.3 -128.083 Q216.764 -125.525 216.764 -121.106 Q216.764 -116.78 214.206 -114.165 Q211.648 -111.551 207.398 -111.551 Q202.526 -111.551 199.95 -115.275 Q197.373 -119.018 197.373 -126.108 Q197.373 -132.766 200.533 -136.716 Q203.693 -140.684 209.015 -140.684 Q210.445 -140.684 211.893 -140.402 Q213.36 -140.12 214.94 -139.556 Z" fill="#000000" fill-rule="nonzero" fill-opacity="1" /><path clip-path="url(#clip910)" d="M21.7677 776.096 L39.6235 776.096 L39.6235 768.012 Q39.6235 763.524 37.3 761.073 Q34.9765 758.623 30.6797 758.623 Q26.4147 758.623 24.0912 761.073 Q21.7677 763.524 21.7677 768.012 L21.7677 776.096 M16.4842 782.526 L16.4842 768.012 Q16.4842 760.023 20.1126 755.949 Q23.7092 751.843 30.6797 751.843 Q37.7138 751.843 41.3104 755.949 Q44.907 760.023 44.907 768.012 L44.907 776.096 L64.0042 776.096 L64.0042 782.526 L16.4842 782.526 Z" fill="#000000" fill-rule="nonzero" fill-opacity="1" /><path clip-path="url(#clip910)" d="M521.077 43.6931 L521.077 65.8515 L534.202 65.8515 Q540.805 65.8515 543.965 63.1374 Q547.165 60.3828 547.165 54.752 Q547.165 49.0808 543.965 46.4072 Q540.805 43.6931 534.202 43.6931 L521.077 43.6931 M521.077 18.8205 L521.077 37.0496 L533.189 37.0496 Q539.185 37.0496 542.101 34.8216 Q545.059 32.5531 545.059 27.935 Q545.059 23.3575 542.101 21.089 Q539.185 18.8205 533.189 18.8205 L521.077 18.8205 M512.894 12.096 L533.797 12.096 Q543.155 12.096 548.218 15.9849 Q553.282 19.8737 553.282 27.0438 Q553.282 32.5936 550.689 35.8748 Q548.097 39.156 543.074 39.9662 Q549.109 41.2625 552.431 45.3944 Q555.793 49.4858 555.793 55.6432 Q555.793 63.745 550.284 68.1605 Q544.775 72.576 534.607 72.576 L512.894 72.576 L512.894 12.096 Z" fill="#000000" fill-rule="nonzero" fill-opacity="1" /><path clip-path="url(#clip910)" d="M569.485 27.2059 L576.939 27.2059 L576.939 72.576 L569.485 72.576 L569.485 27.2059 M569.485 9.54393 L576.939 9.54393 L576.939 18.9825 L569.485 18.9825 L569.485 9.54393 Z" fill="#000000" fill-rule="nonzero" fill-opacity="1" /><path clip-path="url(#clip910)" d="M613.154 49.7694 Q604.121 49.7694 600.637 51.8354 Q597.153 53.9013 597.153 58.8839 Q597.153 62.8538 599.746 65.2034 Q602.379 67.5124 606.875 67.5124 Q613.073 67.5124 616.8 63.1374 Q620.567 58.7219 620.567 51.4303 L620.567 49.7694 L613.154 49.7694 M628.021 46.6907 L628.021 72.576 L620.567 72.576 L620.567 65.6895 Q618.015 69.8214 614.207 71.8063 Q610.4 73.7508 604.89 73.7508 Q597.923 73.7508 593.791 69.8619 Q589.7 65.9325 589.7 59.3701 Q589.7 51.7138 594.804 47.825 Q599.948 43.9361 610.116 43.9361 L620.567 43.9361 L620.567 43.2069 Q620.567 38.0623 617.165 35.2672 Q613.802 32.4315 607.686 32.4315 Q603.797 32.4315 600.11 33.3632 Q596.424 34.295 593.021 36.1584 L593.021 29.2718 Q597.113 27.692 600.961 26.9223 Q604.809 26.1121 608.455 26.1121 Q618.299 26.1121 623.16 31.2163 Q628.021 36.3204 628.021 46.6907 Z" fill="#000000" fill-rule="nonzero" fill-opacity="1" /><path clip-path="url(#clip910)" d="M672.297 28.5427 L672.297 35.5912 Q669.138 33.9709 665.735 33.1607 Q662.332 32.3505 658.686 32.3505 Q653.137 32.3505 650.342 34.0519 Q647.587 35.7533 647.587 39.156 Q647.587 41.7486 649.572 43.2475 Q651.557 44.7058 657.552 46.0426 L660.104 46.6097 Q668.044 48.3111 671.366 51.4303 Q674.728 54.509 674.728 60.0587 Q674.728 66.3781 669.705 70.0644 Q664.722 73.7508 655.972 73.7508 Q652.326 73.7508 648.357 73.0216 Q644.427 72.3329 640.052 70.9151 L640.052 63.2184 Q644.184 65.3654 648.195 66.4591 Q652.205 67.5124 656.134 67.5124 Q661.401 67.5124 664.236 65.73 Q667.072 63.9071 667.072 60.6258 Q667.072 57.5877 665.006 55.9673 Q662.98 54.3469 656.053 52.8481 L653.461 52.2405 Q646.534 50.7821 643.455 47.7845 Q640.376 44.7463 640.376 39.4801 Q640.376 33.0797 644.913 29.5959 Q649.45 26.1121 657.795 26.1121 Q661.927 26.1121 665.573 26.7198 Q669.219 27.3274 672.297 28.5427 Z" fill="#000000" fill-rule="nonzero" fill-opacity="1" /><path clip-path="url(#clip910)" d="M725.405 48.0275 L725.405 51.6733 L691.134 51.6733 Q691.62 59.3701 695.752 63.421 Q699.925 67.4314 707.338 67.4314 Q711.632 67.4314 715.642 66.3781 Q719.693 65.3249 723.663 63.2184 L723.663 70.267 Q719.653 71.9684 715.44 72.8596 Q711.227 73.7508 706.892 73.7508 Q696.036 73.7508 689.676 67.4314 Q683.356 61.1119 683.356 50.3365 Q683.356 39.1965 689.352 32.6746 Q695.388 26.1121 705.596 26.1121 Q714.751 26.1121 720.058 32.0264 Q725.405 37.9003 725.405 48.0275 M717.951 45.84 Q717.87 39.7232 714.508 36.0774 Q711.186 32.4315 705.677 32.4315 Q699.439 32.4315 695.671 35.9558 Q691.944 39.4801 691.377 45.8805 L717.951 45.84 Z" fill="#000000" fill-rule="nonzero" fill-opacity="1" /><path clip-path="url(#clip910)" d="M767.494 34.0924 L767.494 9.54393 L774.947 9.54393 L774.947 72.576 L767.494 72.576 L767.494 65.7705 Q765.144 69.8214 761.539 71.8063 Q757.974 73.7508 752.951 73.7508 Q744.728 73.7508 739.542 67.1883 Q734.398 60.6258 734.398 49.9314 Q734.398 39.2371 739.542 32.6746 Q744.728 26.1121 752.951 26.1121 Q757.974 26.1121 761.539 28.0971 Q765.144 30.0415 767.494 34.0924 M742.095 49.9314 Q742.095 58.1548 745.457 62.8538 Q748.86 67.5124 754.774 67.5124 Q760.688 67.5124 764.091 62.8538 Q767.494 58.1548 767.494 49.9314 Q767.494 41.7081 764.091 37.0496 Q760.688 32.3505 754.774 32.3505 Q748.86 32.3505 745.457 37.0496 Q742.095 41.7081 742.095 49.9314 Z" fill="#000000" fill-rule="nonzero" fill-opacity="1" /><path clip-path="url(#clip910)" d="M837.291 49.7694 Q828.257 49.7694 824.773 51.8354 Q821.29 53.9013 821.29 58.8839 Q821.29 62.8538 823.882 65.2034 Q826.515 67.5124 831.012 67.5124 Q837.21 67.5124 840.937 63.1374 Q844.704 58.7219 844.704 51.4303 L844.704 49.7694 L837.291 49.7694 M852.158 46.6907 L852.158 72.576 L844.704 72.576 L844.704 65.6895 Q842.152 69.8214 838.344 71.8063 Q834.536 73.7508 829.027 73.7508 Q822.059 73.7508 817.927 69.8619 Q813.836 65.9325 813.836 59.3701 Q813.836 51.7138 818.94 47.825 Q824.085 43.9361 834.253 43.9361 L844.704 43.9361 L844.704 43.2069 Q844.704 38.0623 841.301 35.2672 Q837.939 32.4315 831.822 32.4315 Q827.933 32.4315 824.247 33.3632 Q820.561 34.295 817.158 36.1584 L817.158 29.2718 Q821.249 27.692 825.098 26.9223 Q828.946 26.1121 832.592 26.1121 Q842.435 26.1121 847.297 31.2163 Q852.158 36.3204 852.158 46.6907 Z" fill="#000000" fill-rule="nonzero" fill-opacity="1" /><path clip-path="url(#clip910)" d="M905.224 45.1919 L905.224 72.576 L897.771 72.576 L897.771 45.4349 Q897.771 38.994 895.259 35.7938 Q892.748 32.5936 887.725 32.5936 Q881.689 32.5936 878.205 36.4419 Q874.721 40.2903 874.721 46.9338 L874.721 72.576 L867.227 72.576 L867.227 27.2059 L874.721 27.2059 L874.721 34.2544 Q877.395 30.163 881 28.1376 Q884.646 26.1121 889.385 26.1121 Q897.204 26.1121 901.214 30.9732 Q905.224 35.7938 905.224 45.1919 Z" fill="#000000" fill-rule="nonzero" fill-opacity="1" /><path clip-path="url(#clip910)" d="M949.946 34.0924 L949.946 9.54393 L957.4 9.54393 L957.4 72.576 L949.946 72.576 L949.946 65.7705 Q947.597 69.8214 943.992 71.8063 Q940.427 73.7508 935.404 73.7508 Q927.18 73.7508 921.995 67.1883 Q916.851 60.6258 916.851 49.9314 Q916.851 39.2371 921.995 32.6746 Q927.18 26.1121 935.404 26.1121 Q940.427 26.1121 943.992 28.0971 Q947.597 30.0415 949.946 34.0924 M924.547 49.9314 Q924.547 58.1548 927.91 62.8538 Q931.312 67.5124 937.227 67.5124 Q943.141 67.5124 946.544 62.8538 Q949.946 58.1548 949.946 49.9314 Q949.946 41.7081 946.544 37.0496 Q943.141 32.3505 937.227 32.3505 Q931.312 32.3505 927.91 37.0496 Q924.547 41.7081 924.547 49.9314 Z" fill="#000000" fill-rule="nonzero" fill-opacity="1" /><path clip-path="url(#clip910)" d="M998.517 12.096 L1006.74 12.096 L1006.74 48.8377 Q1006.74 58.5599 1010.26 62.8538 Q1013.79 67.1073 1021.69 67.1073 Q1029.55 67.1073 1033.07 62.8538 Q1036.6 58.5599 1036.6 48.8377 L1036.6 12.096 L1044.82 12.096 L1044.82 49.8504 Q1044.82 61.6791 1038.94 67.7149 Q1033.11 73.7508 1021.69 73.7508 Q1010.22 73.7508 1004.35 67.7149 Q998.517 61.6791 998.517 49.8504 L998.517 12.096 Z" fill="#000000" fill-rule="nonzero" fill-opacity="1" /><path clip-path="url(#clip910)" d="M1097.56 45.1919 L1097.56 72.576 L1090.11 72.576 L1090.11 45.4349 Q1090.11 38.994 1087.6 35.7938 Q1085.08 32.5936 1080.06 32.5936 Q1074.03 32.5936 1070.54 36.4419 Q1067.06 40.2903 1067.06 46.9338 L1067.06 72.576 L1059.56 72.576 L1059.56 27.2059 L1067.06 27.2059 L1067.06 34.2544 Q1069.73 30.163 1073.34 28.1376 Q1076.98 26.1121 1081.72 26.1121 Q1089.54 26.1121 1093.55 30.9732 Q1097.56 35.7938 1097.56 45.1919 Z" fill="#000000" fill-rule="nonzero" fill-opacity="1" /><path clip-path="url(#clip910)" d="M1145 49.9314 Q1145 41.7081 1141.59 37.0496 Q1138.23 32.3505 1132.32 32.3505 Q1126.4 32.3505 1123 37.0496 Q1119.64 41.7081 1119.64 49.9314 Q1119.64 58.1548 1123 62.8538 Q1126.4 67.5124 1132.32 67.5124 Q1138.23 67.5124 1141.59 62.8538 Q1145 58.1548 1145 49.9314 M1119.64 34.0924 Q1121.99 30.0415 1125.55 28.0971 Q1129.16 26.1121 1134.14 26.1121 Q1142.4 26.1121 1147.55 32.6746 Q1152.73 39.2371 1152.73 49.9314 Q1152.73 60.6258 1147.55 67.1883 Q1142.4 73.7508 1134.14 73.7508 Q1129.16 73.7508 1125.55 71.8063 Q1121.99 69.8214 1119.64 65.7705 L1119.64 72.576 L1112.14 72.576 L1112.14 9.54393 L1119.64 9.54393 L1119.64 34.0924 Z" fill="#000000" fill-rule="nonzero" fill-opacity="1" /><path clip-path="url(#clip910)" d="M1165.09 27.2059 L1172.54 27.2059 L1172.54 72.576 L1165.09 72.576 L1165.09 27.2059 M1165.09 9.54393 L1172.54 9.54393 L1172.54 18.9825 L1165.09 18.9825 L1165.09 9.54393 Z" fill="#000000" fill-rule="nonzero" fill-opacity="1" /><path clip-path="url(#clip910)" d="M1208.76 49.7694 Q1199.73 49.7694 1196.24 51.8354 Q1192.76 53.9013 1192.76 58.8839 Q1192.76 62.8538 1195.35 65.2034 Q1197.98 67.5124 1202.48 67.5124 Q1208.68 67.5124 1212.4 63.1374 Q1216.17 58.7219 1216.17 51.4303 L1216.17 49.7694 L1208.76 49.7694 M1223.63 46.6907 L1223.63 72.576 L1216.17 72.576 L1216.17 65.6895 Q1213.62 69.8214 1209.81 71.8063 Q1206 73.7508 1200.49 73.7508 Q1193.53 73.7508 1189.4 69.8619 Q1185.3 65.9325 1185.3 59.3701 Q1185.3 51.7138 1190.41 47.825 Q1195.55 43.9361 1205.72 43.9361 L1216.17 43.9361 L1216.17 43.2069 Q1216.17 38.0623 1212.77 35.2672 Q1209.41 32.4315 1203.29 32.4315 Q1199.4 32.4315 1195.71 33.3632 Q1192.03 34.295 1188.63 36.1584 L1188.63 29.2718 Q1192.72 27.692 1196.57 26.9223 Q1200.41 26.1121 1204.06 26.1121 Q1213.9 26.1121 1218.76 31.2163 Q1223.63 36.3204 1223.63 46.6907 Z" fill="#000000" fill-rule="nonzero" fill-opacity="1" /><path clip-path="url(#clip910)" d="M1267.9 28.5427 L1267.9 35.5912 Q1264.74 33.9709 1261.34 33.1607 Q1257.94 32.3505 1254.29 32.3505 Q1248.74 32.3505 1245.95 34.0519 Q1243.19 35.7533 1243.19 39.156 Q1243.19 41.7486 1245.18 43.2475 Q1247.16 44.7058 1253.16 46.0426 L1255.71 46.6097 Q1263.65 48.3111 1266.97 51.4303 Q1270.33 54.509 1270.33 60.0587 Q1270.33 66.3781 1265.31 70.0644 Q1260.33 73.7508 1251.58 73.7508 Q1247.93 73.7508 1243.96 73.0216 Q1240.03 72.3329 1235.66 70.9151 L1235.66 63.2184 Q1239.79 65.3654 1243.8 66.4591 Q1247.81 67.5124 1251.74 67.5124 Q1257 67.5124 1259.84 65.73 Q1262.68 63.9071 1262.68 60.6258 Q1262.68 57.5877 1260.61 55.9673 Q1258.58 54.3469 1251.66 52.8481 L1249.07 52.2405 Q1242.14 50.7821 1239.06 47.7845 Q1235.98 44.7463 1235.98 39.4801 Q1235.98 33.0797 1240.52 29.5959 Q1245.05 26.1121 1253.4 26.1121 Q1257.53 26.1121 1261.18 26.7198 Q1264.82 27.3274 1267.9 28.5427 Z" fill="#000000" fill-rule="nonzero" fill-opacity="1" /><path clip-path="url(#clip910)" d="M1321.01 48.0275 L1321.01 51.6733 L1286.74 51.6733 Q1287.22 59.3701 1291.36 63.421 Q1295.53 67.4314 1302.94 67.4314 Q1307.24 67.4314 1311.25 66.3781 Q1315.3 65.3249 1319.27 63.2184 L1319.27 70.267 Q1315.26 71.9684 1311.04 72.8596 Q1306.83 73.7508 1302.5 73.7508 Q1291.64 73.7508 1285.28 67.4314 Q1278.96 61.1119 1278.96 50.3365 Q1278.96 39.1965 1284.96 32.6746 Q1290.99 26.1121 1301.2 26.1121 Q1310.36 26.1121 1315.66 32.0264 Q1321.01 37.9003 1321.01 48.0275 M1313.56 45.84 Q1313.47 39.7232 1310.11 36.0774 Q1306.79 32.4315 1301.28 32.4315 Q1295.04 32.4315 1291.28 35.9558 Q1287.55 39.4801 1286.98 45.8805 L1313.56 45.84 Z" fill="#000000" fill-rule="nonzero" fill-opacity="1" /><path clip-path="url(#clip910)" d="M1363.1 34.0924 L1363.1 9.54393 L1370.55 9.54393 L1370.55 72.576 L1363.1 72.576 L1363.1 65.7705 Q1360.75 69.8214 1357.14 71.8063 Q1353.58 73.7508 1348.56 73.7508 Q1340.33 73.7508 1335.15 67.1883 Q1330 60.6258 1330 49.9314 Q1330 39.2371 1335.15 32.6746 Q1340.33 26.1121 1348.56 26.1121 Q1353.58 26.1121 1357.14 28.0971 Q1360.75 30.0415 1363.1 34.0924 M1337.7 49.9314 Q1337.7 58.1548 1341.06 62.8538 Q1344.46 67.5124 1350.38 67.5124 Q1356.29 67.5124 1359.7 62.8538 Q1363.1 58.1548 1363.1 49.9314 Q1363.1 41.7081 1359.7 37.0496 Q1356.29 32.3505 1350.38 32.3505 Q1344.46 32.3505 1341.06 37.0496 Q1337.7 41.7081 1337.7 49.9314 Z" fill="#000000" fill-rule="nonzero" fill-opacity="1" /><path clip-path="url(#clip910)" d="M1419.49 65.7705 L1419.49 89.8329 L1411.99 89.8329 L1411.99 27.2059 L1419.49 27.2059 L1419.49 34.0924 Q1421.84 30.0415 1425.4 28.0971 Q1429.01 26.1121 1433.99 26.1121 Q1442.25 26.1121 1447.4 32.6746 Q1452.58 39.2371 1452.58 49.9314 Q1452.58 60.6258 1447.4 67.1883 Q1442.25 73.7508 1433.99 73.7508 Q1429.01 73.7508 1425.4 71.8063 Q1421.84 69.8214 1419.49 65.7705 M1444.85 49.9314 Q1444.85 41.7081 1441.44 37.0496 Q1438.08 32.3505 1432.17 32.3505 Q1426.25 32.3505 1422.85 37.0496 Q1419.49 41.7081 1419.49 49.9314 Q1419.49 58.1548 1422.85 62.8538 Q1426.25 67.5124 1432.17 67.5124 Q1438.08 67.5124 1441.44 62.8538 Q1444.85 58.1548 1444.85 49.9314 Z" fill="#000000" fill-rule="nonzero" fill-opacity="1" /><path clip-path="url(#clip910)" d="M1482.52 32.4315 Q1476.52 32.4315 1473.04 37.1306 Q1469.56 41.7891 1469.56 49.9314 Q1469.56 58.0738 1473 62.7728 Q1476.48 67.4314 1482.52 67.4314 Q1488.47 67.4314 1491.96 62.7323 Q1495.44 58.0333 1495.44 49.9314 Q1495.44 41.8701 1491.96 37.1711 Q1488.47 32.4315 1482.52 32.4315 M1482.52 26.1121 Q1492.24 26.1121 1497.79 32.4315 Q1503.34 38.7509 1503.34 49.9314 Q1503.34 61.0714 1497.79 67.4314 Q1492.24 73.7508 1482.52 73.7508 Q1472.76 73.7508 1467.21 67.4314 Q1461.7 61.0714 1461.7 49.9314 Q1461.7 38.7509 1467.21 32.4315 Q1472.76 26.1121 1482.52 26.1121 Z" fill="#000000" fill-rule="nonzero" fill-opacity="1" /><path clip-path="url(#clip910)" d="M1511.36 27.2059 L1518.81 27.2059 L1528.13 62.6108 L1537.41 27.2059 L1546.2 27.2059 L1555.52 62.6108 L1564.79 27.2059 L1572.25 27.2059 L1560.38 72.576 L1551.59 72.576 L1541.82 35.3887 L1532.02 72.576 L1523.23 72.576 L1511.36 27.2059 Z" fill="#000000" fill-rule="nonzero" fill-opacity="1" /><path clip-path="url(#clip910)" d="M1622.36 48.0275 L1622.36 51.6733 L1588.09 51.6733 Q1588.57 59.3701 1592.7 63.421 Q1596.88 67.4314 1604.29 67.4314 Q1608.58 67.4314 1612.59 66.3781 Q1616.64 65.3249 1620.61 63.2184 L1620.61 70.267 Q1616.6 71.9684 1612.39 72.8596 Q1608.18 73.7508 1603.84 73.7508 Q1592.99 73.7508 1586.63 67.4314 Q1580.31 61.1119 1580.31 50.3365 Q1580.31 39.1965 1586.3 32.6746 Q1592.34 26.1121 1602.55 26.1121 Q1611.7 26.1121 1617.01 32.0264 Q1622.36 37.9003 1622.36 48.0275 M1614.9 45.84 Q1614.82 39.7232 1611.46 36.0774 Q1608.14 32.4315 1602.63 32.4315 Q1596.39 32.4315 1592.62 35.9558 Q1588.9 39.4801 1588.33 45.8805 L1614.9 45.84 Z" fill="#000000" fill-rule="nonzero" fill-opacity="1" /><path clip-path="url(#clip910)" d="M1660.88 34.1734 Q1659.62 33.4443 1658.13 33.1202 Q1656.67 32.7556 1654.88 32.7556 Q1648.57 32.7556 1645.16 36.8875 Q1641.8 40.9789 1641.8 48.6757 L1641.8 72.576 L1634.31 72.576 L1634.31 27.2059 L1641.8 27.2059 L1641.8 34.2544 Q1644.15 30.1225 1647.92 28.1376 Q1651.68 26.1121 1657.07 26.1121 Q1657.84 26.1121 1658.77 26.2337 Q1659.71 26.3147 1660.84 26.5172 L1660.88 34.1734 Z" fill="#000000" fill-rule="nonzero" fill-opacity="1" /><path clip-path="url(#clip910)" d="M1697.62 28.5427 L1697.62 35.5912 Q1694.46 33.9709 1691.06 33.1607 Q1687.66 32.3505 1684.01 32.3505 Q1678.46 32.3505 1675.67 34.0519 Q1672.91 35.7533 1672.91 39.156 Q1672.91 41.7486 1674.9 43.2475 Q1676.88 44.7058 1682.88 46.0426 L1685.43 46.6097 Q1693.37 48.3111 1696.69 51.4303 Q1700.05 54.509 1700.05 60.0587 Q1700.05 66.3781 1695.03 70.0644 Q1690.05 73.7508 1681.3 73.7508 Q1677.65 73.7508 1673.68 73.0216 Q1669.75 72.3329 1665.38 70.9151 L1665.38 63.2184 Q1669.51 65.3654 1673.52 66.4591 Q1677.53 67.5124 1681.46 67.5124 Q1686.72 67.5124 1689.56 65.73 Q1692.4 63.9071 1692.4 60.6258 Q1692.4 57.5877 1690.33 55.9673 Q1688.3 54.3469 1681.38 52.8481 L1678.79 52.2405 Q1671.86 50.7821 1668.78 47.7845 Q1665.7 44.7463 1665.7 39.4801 Q1665.7 33.0797 1670.24 29.5959 Q1674.77 26.1121 1683.12 26.1121 Q1687.25 26.1121 1690.9 26.7198 Q1694.54 27.3274 1697.62 28.5427 Z" fill="#000000" fill-rule="nonzero" fill-opacity="1" /><path clip-path="url(#clip910)" d="M1719.13 65.7705 L1719.13 89.8329 L1711.64 89.8329 L1711.64 27.2059 L1719.13 27.2059 L1719.13 34.0924 Q1721.48 30.0415 1725.05 28.0971 Q1728.65 26.1121 1733.63 26.1121 Q1741.9 26.1121 1747.04 32.6746 Q1752.23 39.2371 1752.23 49.9314 Q1752.23 60.6258 1747.04 67.1883 Q1741.9 73.7508 1733.63 73.7508 Q1728.65 73.7508 1725.05 71.8063 Q1721.48 69.8214 1719.13 65.7705 M1744.49 49.9314 Q1744.49 41.7081 1741.09 37.0496 Q1737.73 32.3505 1731.81 32.3505 Q1725.9 32.3505 1722.49 37.0496 Q1719.13 41.7081 1719.13 49.9314 Q1719.13 58.1548 1722.49 62.8538 Q1725.9 67.5124 1731.81 67.5124 Q1737.73 67.5124 1741.09 62.8538 Q1744.49 58.1548 1744.49 49.9314 Z" fill="#000000" fill-rule="nonzero" fill-opacity="1" /><path clip-path="url(#clip910)" d="M1803.39 48.0275 L1803.39 51.6733 L1769.12 51.6733 Q1769.61 59.3701 1773.74 63.421 Q1777.91 67.4314 1785.32 67.4314 Q1789.62 67.4314 1793.63 66.3781 Q1797.68 65.3249 1801.65 63.2184 L1801.65 70.267 Q1797.64 71.9684 1793.43 72.8596 Q1789.21 73.7508 1784.88 73.7508 Q1774.02 73.7508 1767.66 67.4314 Q1761.34 61.1119 1761.34 50.3365 Q1761.34 39.1965 1767.34 32.6746 Q1773.37 26.1121 1783.58 26.1121 Q1792.74 26.1121 1798.04 32.0264 Q1803.39 37.9003 1803.39 48.0275 M1795.94 45.84 Q1795.86 39.7232 1792.49 36.0774 Q1789.17 32.4315 1783.66 32.4315 Q1777.42 32.4315 1773.66 35.9558 Q1769.93 39.4801 1769.36 45.8805 L1795.94 45.84 Z" fill="#000000" fill-rule="nonzero" fill-opacity="1" /><path clip-path="url(#clip910)" d="M1848.27 28.9478 L1848.27 35.9153 Q1845.12 34.1734 1841.92 33.3227 Q1838.76 32.4315 1835.51 32.4315 Q1828.26 32.4315 1824.25 37.0496 Q1820.24 41.6271 1820.24 49.9314 Q1820.24 58.2358 1824.25 62.8538 Q1828.26 67.4314 1835.51 67.4314 Q1838.76 67.4314 1841.92 66.5807 Q1845.12 65.6895 1848.27 63.9476 L1848.27 70.8341 Q1845.16 72.2924 1841.79 73.0216 Q1838.47 73.7508 1834.7 73.7508 Q1824.46 73.7508 1818.42 67.3098 Q1812.38 60.8689 1812.38 49.9314 Q1812.38 38.832 1818.46 32.472 Q1824.58 26.1121 1835.19 26.1121 Q1838.63 26.1121 1841.92 26.8413 Q1845.2 27.5299 1848.27 28.9478 Z" fill="#000000" fill-rule="nonzero" fill-opacity="1" /><path clip-path="url(#clip910)" d="M1868.61 14.324 L1868.61 27.2059 L1883.96 27.2059 L1883.96 32.9987 L1868.61 32.9987 L1868.61 57.6282 Q1868.61 63.1779 1870.11 64.7578 Q1871.65 66.3376 1876.31 66.3376 L1883.96 66.3376 L1883.96 72.576 L1876.31 72.576 Q1867.68 72.576 1864.4 69.3758 Q1861.12 66.1351 1861.12 57.6282 L1861.12 32.9987 L1855.65 32.9987 L1855.65 27.2059 L1861.12 27.2059 L1861.12 14.324 L1868.61 14.324 Z" fill="#000000" fill-rule="nonzero" fill-opacity="1" /><path clip-path="url(#clip910)" d="M1920.06 34.1734 Q1918.8 33.4443 1917.3 33.1202 Q1915.84 32.7556 1914.06 32.7556 Q1907.74 32.7556 1904.34 36.8875 Q1900.98 40.9789 1900.98 48.6757 L1900.98 72.576 L1893.48 72.576 L1893.48 27.2059 L1900.98 27.2059 L1900.98 34.2544 Q1903.33 30.1225 1907.09 28.1376 Q1910.86 26.1121 1916.25 26.1121 Q1917.02 26.1121 1917.95 26.2337 Q1918.88 26.3147 1920.02 26.5172 L1920.06 34.1734 Z" fill="#000000" fill-rule="nonzero" fill-opacity="1" /><path clip-path="url(#clip910)" d="M1927.11 54.671 L1927.11 27.2059 L1934.56 27.2059 L1934.56 54.3874 Q1934.56 60.8284 1937.07 64.0691 Q1939.58 67.2693 1944.61 67.2693 Q1950.64 67.2693 1954.13 63.421 Q1957.65 59.5726 1957.65 52.9291 L1957.65 27.2059 L1965.1 27.2059 L1965.1 72.576 L1957.65 72.576 L1957.65 65.6084 Q1954.94 69.7404 1951.33 71.7658 Q1947.77 73.7508 1943.03 73.7508 Q1935.21 73.7508 1931.16 68.8897 Q1927.11 64.0286 1927.11 54.671 M1945.86 26.1121 L1945.86 26.1121 Z" fill="#000000" fill-rule="nonzero" fill-opacity="1" /><path clip-path="url(#clip910)" d="M2015.78 35.9153 Q2018.57 30.8922 2022.46 28.5022 Q2026.35 26.1121 2031.62 26.1121 Q2038.71 26.1121 2042.56 31.0947 Q2046.4 36.0368 2046.4 45.1919 L2046.4 72.576 L2038.91 72.576 L2038.91 45.4349 Q2038.91 38.913 2036.6 35.7533 Q2034.29 32.5936 2029.55 32.5936 Q2023.76 32.5936 2020.4 36.4419 Q2017.04 40.2903 2017.04 46.9338 L2017.04 72.576 L2009.54 72.576 L2009.54 45.4349 Q2009.54 38.8725 2007.23 35.7533 Q2004.92 32.5936 2000.1 32.5936 Q1994.39 32.5936 1991.03 36.4824 Q1987.67 40.3308 1987.67 46.9338 L1987.67 72.576 L1980.17 72.576 L1980.17 27.2059 L1987.67 27.2059 L1987.67 34.2544 Q1990.22 30.082 1993.78 28.0971 Q1997.35 26.1121 2002.25 26.1121 Q2007.19 26.1121 2010.64 28.6237 Q2014.12 31.1352 2015.78 35.9153 Z" fill="#000000" fill-rule="nonzero" fill-opacity="1" /><path clip-path="url(#clip910)" d="M2090.19 28.5427 L2090.19 35.5912 Q2087.04 33.9709 2083.63 33.1607 Q2080.23 32.3505 2076.58 32.3505 Q2071.03 32.3505 2068.24 34.0519 Q2065.48 35.7533 2065.48 39.156 Q2065.48 41.7486 2067.47 43.2475 Q2069.45 44.7058 2075.45 46.0426 L2078 46.6097 Q2085.94 48.3111 2089.26 51.4303 Q2092.63 54.509 2092.63 60.0587 Q2092.63 66.3781 2087.6 70.0644 Q2082.62 73.7508 2073.87 73.7508 Q2070.22 73.7508 2066.25 73.0216 Q2062.32 72.3329 2057.95 70.9151 L2057.95 63.2184 Q2062.08 65.3654 2066.09 66.4591 Q2070.1 67.5124 2074.03 67.5124 Q2079.3 67.5124 2082.13 65.73 Q2084.97 63.9071 2084.97 60.6258 Q2084.97 57.5877 2082.9 55.9673 Q2080.88 54.3469 2073.95 52.8481 L2071.36 52.2405 Q2064.43 50.7821 2061.35 47.7845 Q2058.27 44.7463 2058.27 39.4801 Q2058.27 33.0797 2062.81 29.5959 Q2067.35 26.1121 2075.69 26.1121 Q2079.82 26.1121 2083.47 26.7198 Q2087.12 27.3274 2090.19 28.5427 Z" fill="#000000" fill-rule="nonzero" fill-opacity="1" /><polyline clip-path="url(#clip912)" style="stroke:#009af9; stroke-linecap:round; stroke-linejoin:round; stroke-width:4; stroke-opacity:1; fill:none" points="312.198,579.596 314.181,578.535 316.164,577.474 318.147,576.414 320.13,575.353 322.113,574.292 324.096,573.231 326.079,572.171 328.063,571.11 330.046,570.049 332.029,568.989 334.012,567.928 335.995,566.867 337.978,565.806 339.961,564.746 341.944,563.685 343.927,562.624 345.911,561.564 347.894,560.503 349.877,559.442 351.86,558.381 353.843,557.321 355.826,556.26 357.809,555.199 359.792,554.139 361.775,553.078 363.758,552.017 365.742,550.957 367.725,549.896 369.708,548.835 371.691,547.775 373.674,546.714 375.657,545.653 377.64,544.593 379.623,543.532 381.606,542.471 383.59,541.411 385.573,540.35 387.556,539.289 389.539,538.229 391.522,537.168 393.505,536.107 395.488,535.047 397.471,533.986 399.454,532.926 401.438,531.865 403.421,530.804 405.404,529.744 407.387,528.683 409.37,527.623 411.353,526.562 413.336,525.501 415.319,524.441 417.302,523.38 419.285,522.32 421.269,521.259 423.252,520.199 425.235,519.138 427.218,518.078 429.201,517.017 431.184,515.957 433.167,514.896 435.15,513.836 437.133,512.775 439.117,511.715 441.1,510.654 443.083,509.594 445.066,508.533 447.049,507.473 449.032,506.412 451.015,505.352 452.998,504.291 454.981,503.231 456.965,502.171 458.948,501.11 460.931,500.05 462.914,498.99 464.897,497.929 466.88,496.869 468.863,495.808 470.846,494.748 472.829,493.688 474.813,492.628 476.796,491.567 478.779,490.507 480.762,489.447 482.745,488.387 484.728,487.326 486.711,486.266 488.694,485.206 490.677,484.146 492.66,483.086 494.644,482.026 496.627,480.966 498.61,479.905 500.593,478.845 502.576,477.785 504.559,476.725 506.542,475.665 508.525,474.605 510.508,473.545 512.492,472.485 514.475,471.425 516.458,470.366 518.441,469.306 520.424,468.246 522.407,467.186 524.39,466.126 526.373,465.067 528.356,464.007 530.34,462.947 532.323,461.887 534.306,460.828 536.289,459.768 538.272,458.709 540.255,457.649 542.238,456.59 544.221,455.53 546.204,454.471 548.187,453.411 550.171,452.352 552.154,451.293 554.137,450.233 556.12,449.174 558.103,448.115 560.086,447.056 562.069,445.997 564.052,444.938 566.035,443.878 568.019,442.82 570.002,441.761 571.985,440.702 573.968,439.643 575.951,438.584 577.934,437.525 579.917,436.467 581.9,435.408 583.883,434.35 585.867,433.291 587.85,432.233 589.833,431.174 591.816,430.116 593.799,429.058 595.782,428 597.765,426.942 599.748,425.884 601.731,424.826 603.714,423.768 605.698,422.71 607.681,421.652 609.664,420.595 611.647,419.537 613.63,418.48 615.613,417.423 617.596,416.365 619.579,415.308 621.562,414.251 623.546,413.194 625.529,412.137 627.512,411.08 629.495,410.024 631.478,408.967 633.461,407.911 635.444,406.855 637.427,405.798 639.41,404.742 641.394,403.686 643.377,402.631 645.36,401.575 647.343,400.519 649.326,399.464 651.309,398.409 653.292,397.354 655.275,396.299 657.258,395.244 659.242,394.189 661.225,393.135 663.208,392.08 665.191,391.026 667.174,389.972 669.157,388.918 671.14,387.865 673.123,386.811 675.106,385.758 677.089,384.705 679.073,383.652 681.056,382.599 683.039,381.547 685.022,380.495 687.005,379.443 688.988,378.391 690.971,377.339 692.954,376.288 694.937,375.237 696.921,374.186 698.904,373.136 700.887,372.085 702.87,371.035 704.853,369.986 706.836,368.936 708.819,367.887 710.802,366.838 712.785,365.79 714.769,364.741 716.752,363.694 718.735,362.646 720.718,361.599 722.701,360.552 724.684,359.505 726.667,358.459 728.65,357.413 730.633,356.368 732.616,355.322 734.6,354.278 736.583,353.233 738.566,352.19 740.549,351.146 742.532,350.103 744.515,349.061 746.498,348.018 748.481,346.977 750.464,345.936 752.448,344.895 754.431,343.855 756.414,342.815 758.397,341.776 760.38,340.737 762.363,339.699 764.346,338.661 766.329,337.624 768.312,336.588 770.296,335.552 772.279,334.517 774.262,333.482 776.245,332.448 778.228,331.415 780.211,330.382 782.194,329.35 784.177,328.319 786.16,327.289 788.144,326.259 790.127,325.23 792.11,324.201 794.093,323.174 796.076,322.147 798.059,321.121 800.042,320.096 802.025,319.071 804.008,318.048 805.991,317.025 807.975,316.003 809.958,314.983 811.941,313.963 813.924,312.944 815.907,311.926 817.89,310.909 819.873,309.893 821.856,308.878 823.839,307.864 825.823,306.851 827.806,305.839 829.789,304.829 831.772,303.819 833.755,302.811 835.738,301.804 837.721,300.798 839.704,299.793 841.687,298.79 843.671,297.788 845.654,296.787 847.637,295.787 849.62,294.789 851.603,293.792 853.586,292.797 855.569,291.803 857.552,290.81 859.535,289.819 861.518,288.83 863.502,287.842 865.485,286.855 867.468,285.87 869.451,284.887 871.434,283.906 873.417,282.926 875.4,281.948 877.383,280.971 879.366,279.997 881.35,279.024 883.333,278.053 885.316,277.084 887.299,276.117 889.282,275.152 891.265,274.189 893.248,273.227 895.231,272.268 897.214,271.311 899.198,270.356 901.181,269.403 903.164,268.453 905.147,267.504 907.13,266.558 909.113,265.614 911.096,264.672 913.079,263.733 915.062,262.796 917.045,261.862 919.029,260.93 921.012,260.001 922.995,259.074 924.978,258.15 926.961,257.228 928.944,256.309 930.927,255.393 932.91,254.48 934.893,253.569 936.877,252.662 938.86,251.757 940.843,250.855 942.826,249.956 944.809,249.06 946.792,248.167 948.775,247.277 950.758,246.39 952.741,245.507 954.725,244.627 956.708,243.75 958.691,242.876 960.674,242.006 962.657,241.139 964.64,240.276 966.623,239.416 968.606,238.559 970.589,237.707 972.573,236.858 974.556,236.012 976.539,235.171 978.522,234.333 980.505,233.499 982.488,232.669 984.471,231.843 986.454,231.02 988.437,230.202 990.42,229.388 992.404,228.578 994.387,227.773 996.37,226.971 998.353,226.174 1000.34,225.381 1002.32,224.593 1004.3,223.809 1006.29,223.03 1008.27,222.255 1010.25,221.485 1012.23,220.719 1014.22,219.959 1016.2,219.202 1018.18,218.451 1020.17,217.705 1022.15,216.964 1024.13,216.227 1026.12,215.496 1028.1,214.77 1030.08,214.049 1032.07,213.333 1034.05,212.623 1036.03,211.918 1038.02,211.218 1040,210.524 1041.98,209.835 1043.96,209.152 1045.95,208.475 1047.93,207.803 1049.91,207.138 1051.9,206.478 1053.88,205.824 1055.86,205.175 1057.85,204.533 1059.83,203.897 1061.81,203.268 1063.8,202.644 1065.78,202.027 1067.76,201.416 1069.74,200.812 1071.73,200.214 1073.71,199.623 1075.69,199.038 1077.68,198.46 1079.66,197.889 1081.64,197.325 1083.63,196.768 1085.61,196.218 1087.59,195.675 1089.58,195.14 1091.56,194.611 1093.54,194.09 1095.53,193.577 1097.51,193.071 1099.49,192.572 1101.47,192.082 1103.46,191.599 1105.44,191.124 1107.42,190.657 1109.41,190.199 1111.39,189.748 1113.37,189.306 1115.36,188.872 1117.34,188.447 1119.32,188.031 1121.31,187.623 1123.29,187.224 1125.27,186.834 1127.25,186.453 1129.24,186.081 1131.22,185.719 1133.2,185.366 1135.19,185.023 1137.17,184.689 1139.15,184.365 1141.14,184.052 1143.12,183.748 1145.1,183.455 1147.09,183.172 1149.07,182.9 1151.05,182.638 1153.04,182.388 1155.02,182.149 1157,181.921 1158.98,181.704 1160.97,181.499 1162.95,181.306 1164.93,181.124 1166.92,180.956 1168.9,180.799 1170.88,180.655 1172.87,180.524 1174.85,180.406 1176.83,180.301 1178.82,180.209 1180.8,180.132 1182.78,180.068 1184.77,180.019 1186.75,179.983 1188.73,179.963 1190.71,179.958 1192.7,179.967 1194.68,179.993 1196.66,180.033 1198.65,180.09 1200.63,180.164 1202.61,180.253 1204.6,180.36 1206.58,180.483 1208.56,180.625 1210.55,180.783 1212.53,180.96 1214.51,181.155 1216.49,181.368 1218.48,181.601 1220.46,181.852 1222.44,182.123 1224.43,182.413 1226.41,182.723 1228.39,183.054 1230.38,183.405 1232.36,183.776 1234.34,184.168 1236.33,184.582 1238.31,185.017 1240.29,185.473 1242.28,185.951 1244.26,186.45 1246.24,186.972 1248.22,187.515 1250.21,188.081 1252.19,188.669 1254.17,189.279 1256.16,189.911 1258.14,190.566 1260.12,191.242 1262.11,191.941 1264.09,192.661 1266.07,193.403 1268.06,194.167 1270.04,194.952 1272.02,195.758 1274,196.585 1275.99,197.432 1277.97,198.298 1279.95,199.185 1281.94,200.09 1283.92,201.013 1285.9,201.955 1287.89,202.913 1289.87,203.889 1291.85,204.88 1293.84,205.886 1295.82,206.906 1297.8,207.94 1299.79,208.987 1301.77,210.045 1303.75,211.115 1305.73,212.194 1307.72,213.282 1309.7,214.379 1311.68,215.482 1313.67,216.591 1315.65,217.705 1317.63,218.823 1319.62,219.943 1321.6,221.065 1323.58,222.188 1325.57,223.309 1327.55,224.429 1329.53,225.547 1331.51,226.66 1333.5,227.768 1335.48,228.869 1337.46,229.963 1339.45,231.049 1341.43,232.125 1343.41,233.191 1345.4,234.245 1347.38,235.286 1349.36,236.314 1351.35,237.328 1353.33,238.327 1355.31,239.309 1357.3,240.276 1359.28,241.226 1361.26,242.159 1363.24,243.074 1365.23,243.973 1367.21,244.854 1369.19,245.719 1371.18,246.568 1373.16,247.402 1375.14,248.222 1377.13,249.029 1379.11,249.826 1381.09,250.614 1383.08,251.396 1385.06,252.174 1387.04,252.952 1389.03,253.732 1391.01,254.519 1392.99,255.317 1394.97,256.128 1396.96,256.959 1398.94,257.814 1400.92,258.698 1402.91,259.616 1404.89,260.572 1406.87,261.573 1408.86,262.624 1410.84,263.728 1412.82,264.893 1414.81,266.121 1416.79,267.418 1418.77,268.787 1420.75,270.231 1422.74,271.753 1424.72,273.354 1426.7,275.037 1428.69,276.799 1430.67,278.641 1432.65,280.559 1434.64,282.55 1436.62,284.61 1438.6,286.731 1440.59,288.905 1442.57,291.124 1444.55,293.376 1446.54,295.65 1448.52,297.932 1450.5,300.209 1452.48,302.466 1454.47,304.688 1456.45,306.859 1458.43,308.966 1460.42,310.995 1462.4,312.934 1464.38,314.773 1466.37,316.505 1468.35,318.125 1470.33,319.632 1472.32,321.028 1474.3,322.32 1476.28,323.518 1478.26,324.634 1480.25,325.687 1482.23,326.696 1484.21,327.683 1486.2,328.673 1488.18,329.69 1490.16,330.76 1492.15,331.907 1494.13,333.154 1496.11,334.521 1498.1,336.025 1500.08,337.679 1502.06,339.491 1504.05,341.464 1506.03,343.594 1508.01,345.873 1509.99,348.283 1511.98,350.804 1513.96,353.408 1515.94,356.061 1517.93,358.728 1519.91,361.371 1521.89,363.95 1523.88,366.43 1525.86,368.78 1527.84,370.973 1529.83,372.995 1531.81,374.841 1533.79,376.516 1535.78,378.039 1537.76,379.438 1539.74,380.752 1541.72,382.025 1543.71,383.305 1545.69,384.641 1547.67,386.079 1549.66,387.657 1551.64,389.405 1553.62,391.341 1555.61,393.468 1557.59,395.777 1559.57,398.242 1561.56,400.825 1563.54,403.479 1565.52,406.149 1567.5,408.778 1569.49,411.313 1571.47,413.711 1573.45,415.943 1575.44,417.999 1577.42,419.888 1579.4,421.639 1581.39,423.296 1583.37,424.917 1585.35,426.56 1587.34,428.283 1589.32,430.133 1591.3,432.139 1593.29,434.314 1595.27,436.646 1597.25,439.105 1599.23,441.642 1601.22,444.2 1603.2,446.721 1605.18,449.155 1607.17,451.465 1609.15,453.64 1611.13,455.691 1613.12,457.651 1615.1,459.568 1617.08,461.498 1619.07,463.492 1621.05,465.589 1623.03,467.804 1625.01,470.133 1627,472.548 1628.98,475.006 1630.96,477.457 1632.95,479.86 1634.93,482.183 1636.91,484.42 1638.9,486.586 1640.88,488.712 1642.86,490.84 1644.85,493.008 1646.83,495.243 1648.81,497.553 1650.8,499.924 1652.78,502.33 1654.76,504.737 1656.74,507.114 1658.73,509.445 1660.71,511.731 1662.69,513.988 1664.68,516.243 1666.66,518.521 1668.64,520.838 1670.63,523.196 1672.61,525.585 1674.59,527.983 1676.58,530.372 1678.56,532.738 1680.54,535.083 1682.53,537.416 1684.51,539.754 1686.49,542.111 1688.47,544.491 1690.46,546.891 1692.44,549.299 1694.42,551.703 1696.41,554.099 1698.39,556.486 1700.37,558.871 1702.36,561.265 1704.34,563.672 1706.32,566.092 1708.31,568.519 1710.29,570.946 1712.27,573.37 1714.25,575.791 1716.24,578.215 1718.22,580.646 1720.2,583.087 1722.19,585.534 1724.17,587.984 1726.15,590.434 1728.14,592.883 1730.12,595.335 1732.1,597.794 1734.09,600.259 1736.07,602.729 1738.05,605.201 1740.04,607.673 1742.02,610.148 1744,612.626 1745.98,615.111 1747.97,617.601 1749.95,620.093 1751.93,622.585 1753.92,625.08 1755.9,627.58 1757.88,630.085 1759.87,632.594 1761.85,635.104 1763.83,637.616 1765.82,640.131 1767.8,642.652 1769.78,645.177 1771.76,647.703 1773.75,650.231 1775.73,652.762 1777.71,655.299 1779.7,657.838 1781.68,660.38 1783.66,662.923 1785.65,665.471 1787.63,668.023 1789.61,670.577 1791.6,673.132 1793.58,675.692 1795.56,678.255 1797.55,680.822 1799.53,683.389 1801.51,685.96 1803.49,688.535 1805.48,691.113 1807.46,693.693 1809.44,696.275 1811.43,698.862 1813.41,701.451 1815.39,704.042 1817.38,706.636 1819.36,709.234 1821.34,711.833 1823.33,714.436 1825.31,717.042 1827.29,719.65 1829.27,722.26 1831.26,724.874 1833.24,727.491 1835.22,730.109 1837.21,732.731 1839.19,735.355 1841.17,737.982 1843.16,740.611 1845.14,743.244 1847.12,745.878 1849.11,748.516 1851.09,751.156 1853.07,753.798 1855.06,756.443 1857.04,759.091 1859.02,761.74 1861,764.393 1862.99,767.048 1864.97,769.706 1866.95,772.366 1868.94,775.028 1870.92,777.693 1872.9,780.36 1874.89,783.03 1876.87,785.702 1878.85,788.377 1880.84,791.054 1882.82,793.733 1884.8,796.415 1886.79,799.099 1888.77,801.785 1890.75,804.474 1892.73,807.164 1894.72,809.858 1896.7,812.553 1898.68,815.251 1900.67,817.951 1902.65,820.653 1904.63,823.358 1906.62,826.064 1908.6,828.773 1910.58,831.484 1912.57,834.197 1914.55,836.913 1916.53,839.63 1918.51,842.35 1920.5,845.072 1922.48,847.796 1924.46,850.522 1926.45,853.25 1928.43,855.98 1930.41,858.713 1932.4,861.447 1934.38,864.183 1936.36,866.922 1938.35,869.662 1940.33,872.404 1942.31,875.149 1944.3,877.895 1946.28,880.644 1948.26,883.394 1950.24,886.146 1952.23,888.9 1954.21,891.657 1956.19,894.415 1958.18,897.175 1960.16,899.936 1962.14,902.7 1964.13,905.466 1966.11,908.233 1968.09,911.002 1970.08,913.773 1972.06,916.546 1974.04,919.321 1976.02,922.097 1978.01,924.875 1979.99,927.655 1981.97,930.437 1983.96,933.22 1985.94,936.005 1987.92,938.792 1989.91,941.581 1991.89,944.371 1993.87,947.163 1995.86,949.956 1997.84,952.752 1999.82,955.548 2001.81,958.347 2003.79,961.147 2005.77,963.948 2007.75,966.752 2009.74,969.556 2011.72,972.363 2013.7,975.17 2015.69,977.98 2017.67,980.791 2019.65,983.603 2021.64,986.417 2023.62,989.232 2025.6,992.049 2027.59,994.867 2029.57,997.687 2031.55,1000.51 2033.54,1003.33 2035.52,1006.15 2037.5,1008.98 2039.48,1011.81 2041.47,1014.63 2043.45,1017.46 2045.43,1020.29 2047.42,1023.12 2049.4,1025.96 2051.38,1028.79 2053.37,1031.63 2055.35,1034.46 2057.33,1037.3 2059.32,1040.14 2061.3,1042.98 2063.28,1045.82 2065.26,1048.66 2067.25,1051.51 2069.23,1054.35 2071.21,1057.2 2073.2,1060.05 2075.18,1062.89 2077.16,1065.74 2079.15,1068.59 2081.13,1071.44 2083.11,1074.3 2085.1,1077.15 2087.08,1080 2089.06,1082.86 2091.05,1085.71 2093.03,1088.57 2095.01,1091.43 2096.99,1094.28 2098.98,1097.14 2100.96,1100 2102.94,1102.86 2104.93,1105.72 2106.91,1108.59 2108.89,1111.45 2110.88,1114.31 2112.86,1117.17 2114.84,1120.04 2116.83,1122.9 2118.81,1125.77 2120.79,1128.64 2122.77,1131.5 2124.76,1134.37 2126.74,1137.24 2128.72,1140.1 2130.71,1142.97 2132.69,1145.84 2134.67,1148.71 2136.66,1151.58 2138.64,1154.45 2140.62,1157.32 2142.61,1160.19 2144.59,1163.06 2146.57,1165.93 2148.56,1168.8 2150.54,1171.67 2152.52,1174.54 2154.5,1177.41 2156.49,1180.27 2158.47,1183.14 2160.45,1186.01 2162.44,1188.88 2164.42,1191.75 2166.4,1194.62 2168.39,1197.49 2170.37,1200.36 2172.35,1203.22 2174.34,1206.09 2176.32,1208.96 2178.3,1211.82 2180.29,1214.69 2182.27,1217.55 2184.25,1220.42 2186.23,1223.28 2188.22,1226.14 2190.2,1229 2192.18,1231.86 2194.17,1234.72 2196.15,1237.58 2198.13,1240.44 2200.12,1243.29 2202.1,1246.15 2204.08,1249 2206.07,1251.85 2208.05,1254.7 2210.03,1257.55 2212.01,1260.4 2214,1263.24 2215.98,1266.09 2217.96,1268.93 2219.95,1271.77 2221.93,1274.6 2223.91,1277.44 2225.9,1280.27 2227.88,1283.1 2229.86,1285.93 2231.85,1288.75 2233.83,1291.58 2235.81,1294.4 2237.8,1297.21 2239.78,1300.03 2241.76,1302.84 2243.74,1305.65 2245.73,1308.45 2247.71,1311.25 2249.69,1314.05 2251.68,1316.85 2253.66,1319.64 2255.64,1322.42 2257.63,1325.21 2259.61,1327.99 2261.59,1330.76 2263.58,1333.53 2265.56,1336.3 2267.54,1339.06 2269.52,1341.81 2271.51,1344.57 2273.49,1347.31 2275.47,1350.05 2277.46,1352.79 2279.44,1355.52 2281.42,1358.24 2283.41,1360.96 2285.39,1363.67 2287.37,1366.38 2289.36,1369.08 2291.34,1371.77 2293.32,1374.46 "/>
<polyline clip-path="url(#clip912)" style="stroke:#e26f46; stroke-linecap:round; stroke-linejoin:round; stroke-width:4; stroke-opacity:1; fill:none" points="312.198,559.547 314.181,558.486 316.164,557.425 318.147,556.365 320.13,555.304 322.113,554.243 324.096,553.183 326.079,552.122 328.063,551.061 330.046,550 332.029,548.94 334.012,547.879 335.995,546.818 337.978,545.757 339.961,544.697 341.944,543.636 343.927,542.575 345.911,541.515 347.894,540.454 349.877,539.393 351.86,538.332 353.843,537.272 355.826,536.211 357.809,535.15 359.792,534.09 361.775,533.029 363.758,531.968 365.742,530.908 367.725,529.847 369.708,528.786 371.691,527.726 373.674,526.665 375.657,525.604 377.64,524.544 379.623,523.483 381.606,522.422 383.59,521.362 385.573,520.301 387.556,519.24 389.539,518.18 391.522,517.119 393.505,516.058 395.488,514.998 397.471,513.937 399.454,512.877 401.438,511.816 403.421,510.755 405.404,509.695 407.387,508.634 409.37,507.574 411.353,506.513 413.336,505.452 415.319,504.392 417.302,503.331 419.285,502.271 421.269,501.21 423.252,500.15 425.235,499.089 427.218,498.029 429.201,496.968 431.184,495.908 433.167,494.847 435.15,493.787 437.133,492.726 439.117,491.666 441.1,490.605 443.083,489.545 445.066,488.484 447.049,487.424 449.032,486.363 451.015,485.303 452.998,484.242 454.981,483.182 456.965,482.122 458.948,481.061 460.931,480.001 462.914,478.941 464.897,477.88 466.88,476.82 468.863,475.76 470.846,474.699 472.829,473.639 474.813,472.579 476.796,471.518 478.779,470.458 480.762,469.398 482.745,468.338 484.728,467.277 486.711,466.217 488.694,465.157 490.677,464.097 492.66,463.037 494.644,461.977 496.627,460.917 498.61,459.856 500.593,458.796 502.576,457.736 504.559,456.676 506.542,455.616 508.525,454.556 510.508,453.496 512.492,452.436 514.475,451.377 516.458,450.317 518.441,449.257 520.424,448.197 522.407,447.137 524.39,446.077 526.373,445.018 528.356,443.958 530.34,442.898 532.323,441.838 534.306,440.779 536.289,439.719 538.272,438.66 540.255,437.6 542.238,436.541 544.221,435.481 546.204,434.422 548.187,433.362 550.171,432.303 552.154,431.244 554.137,430.184 556.12,429.125 558.103,428.066 560.086,427.007 562.069,425.948 564.052,424.889 566.035,423.83 568.019,422.771 570.002,421.712 571.985,420.653 573.968,419.594 575.951,418.535 577.934,417.476 579.917,416.418 581.9,415.359 583.883,414.301 585.867,413.242 587.85,412.184 589.833,411.125 591.816,410.067 593.799,409.009 595.782,407.951 597.765,406.893 599.748,405.835 601.731,404.777 603.714,403.719 605.698,402.661 607.681,401.603 609.664,400.546 611.647,399.488 613.63,398.431 615.613,397.374 617.596,396.316 619.579,395.259 621.562,394.202 623.546,393.145 625.529,392.088 627.512,391.032 629.495,389.975 631.478,388.918 633.461,387.862 635.444,386.806 637.427,385.749 639.41,384.693 641.394,383.637 643.377,382.582 645.36,381.526 647.343,380.47 649.326,379.415 651.309,378.36 653.292,377.305 655.275,376.25 657.258,375.195 659.242,374.14 661.225,373.086 663.208,372.031 665.191,370.977 667.174,369.923 669.157,368.869 671.14,367.816 673.123,366.762 675.106,365.709 677.089,364.656 679.073,363.603 681.056,362.55 683.039,361.498 685.022,360.446 687.005,359.394 688.988,358.342 690.971,357.291 692.954,356.239 694.937,355.188 696.921,354.137 698.904,353.087 700.887,352.037 702.87,350.987 704.853,349.937 706.836,348.887 708.819,347.838 710.802,346.789 712.785,345.741 714.769,344.692 716.752,343.645 718.735,342.597 720.718,341.55 722.701,340.503 724.684,339.456 726.667,338.41 728.65,337.364 730.633,336.319 732.616,335.274 734.6,334.229 736.583,333.185 738.566,332.141 740.549,331.097 742.532,330.054 744.515,329.012 746.498,327.969 748.481,326.928 750.464,325.887 752.448,324.846 754.431,323.806 756.414,322.766 758.397,321.727 760.38,320.688 762.363,319.65 764.346,318.612 766.329,317.575 768.312,316.539 770.296,315.503 772.279,314.468 774.262,313.433 776.245,312.399 778.228,311.366 780.211,310.333 782.194,309.301 784.177,308.27 786.16,307.24 788.144,306.21 790.127,305.181 792.11,304.152 794.093,303.125 796.076,302.098 798.059,301.072 800.042,300.047 802.025,299.022 804.008,297.999 805.991,296.976 807.975,295.954 809.958,294.934 811.941,293.914 813.924,292.895 815.907,291.877 817.89,290.86 819.873,289.844 821.856,288.829 823.839,287.815 825.823,286.802 827.806,285.79 829.789,284.78 831.772,283.77 833.755,282.762 835.738,281.755 837.721,280.749 839.704,279.744 841.687,278.741 843.671,277.739 845.654,276.738 847.637,275.738 849.62,274.74 851.603,273.743 853.586,272.748 855.569,271.754 857.552,270.761 859.535,269.77 861.518,268.781 863.502,267.793 865.485,266.806 867.468,265.822 869.451,264.838 871.434,263.857 873.417,262.877 875.4,261.899 877.383,260.923 879.366,259.948 881.35,258.975 883.333,258.004 885.316,257.035 887.299,256.068 889.282,255.103 891.265,254.14 893.248,253.178 895.231,252.219 897.214,251.262 899.198,250.307 901.181,249.354 903.164,248.404 905.147,247.455 907.13,246.509 909.113,245.565 911.096,244.624 913.079,243.684 915.062,242.748 917.045,241.813 919.029,240.881 921.012,239.952 922.995,239.025 924.978,238.101 926.961,237.179 928.944,236.261 930.927,235.344 932.91,234.431 934.893,233.52 936.877,232.613 938.86,231.708 940.843,230.806 942.826,229.907 944.809,229.011 946.792,228.118 948.775,227.228 950.758,226.341 952.741,225.458 954.725,224.578 956.708,223.701 958.691,222.827 960.674,221.957 962.657,221.09 964.64,220.227 966.623,219.367 968.606,218.51 970.589,217.658 972.573,216.809 974.556,215.963 976.539,215.122 978.522,214.284 980.505,213.45 982.488,212.62 984.471,211.794 986.454,210.971 988.437,210.153 990.42,209.339 992.404,208.529 994.387,207.724 996.37,206.922 998.353,206.125 1000.34,205.333 1002.32,204.544 1004.3,203.76 1006.29,202.981 1008.27,202.206 1010.25,201.436 1012.23,200.67 1014.22,199.91 1016.2,199.154 1018.18,198.402 1020.17,197.656 1022.15,196.915 1024.13,196.178 1026.12,195.447 1028.1,194.721 1030.08,194 1032.07,193.284 1034.05,192.574 1036.03,191.869 1038.02,191.169 1040,190.475 1041.98,189.787 1043.96,189.104 1045.95,188.426 1047.93,187.755 1049.91,187.089 1051.9,186.429 1053.88,185.775 1055.86,185.127 1057.85,184.484 1059.83,183.849 1061.81,183.219 1063.8,182.595 1065.78,181.978 1067.76,181.367 1069.74,180.763 1071.73,180.165 1073.71,179.574 1075.69,178.989 1077.68,178.412 1079.66,177.841 1081.64,177.276 1083.63,176.719 1085.61,176.169 1087.59,175.626 1089.58,175.091 1091.56,174.562 1093.54,174.041 1095.53,173.528 1097.51,173.022 1099.49,172.524 1101.47,172.033 1103.46,171.55 1105.44,171.075 1107.42,170.609 1109.41,170.15 1111.39,169.699 1113.37,169.257 1115.36,168.823 1117.34,168.398 1119.32,167.982 1121.31,167.574 1123.29,167.175 1125.27,166.785 1127.25,166.404 1129.24,166.032 1131.22,165.67 1133.2,165.317 1135.19,164.974 1137.17,164.64 1139.15,164.316 1141.14,164.003 1143.12,163.699 1145.1,163.406 1147.09,163.123 1149.07,162.851 1151.05,162.589 1153.04,162.339 1155.02,162.1 1157,161.872 1158.98,161.655 1160.97,161.45 1162.95,161.257 1164.93,161.076 1166.92,160.907 1168.9,160.75 1170.88,160.606 1172.87,160.475 1174.85,160.357 1176.83,160.252 1178.82,160.161 1180.8,160.083 1182.78,160.019 1184.77,159.97 1186.75,159.935 1188.73,159.914 1190.71,159.909 1192.7,159.918 1194.68,159.944 1196.66,159.984 1198.65,160.041 1200.63,160.115 1202.61,160.204 1204.6,160.311 1206.58,160.435 1208.56,160.576 1210.55,160.734 1212.53,160.911 1214.51,161.106 1216.49,161.319 1218.48,161.552 1220.46,161.803 1222.44,162.074 1224.43,162.364 1226.41,162.674 1228.39,163.005 1230.38,163.356 1232.36,163.727 1234.34,164.12 1236.33,164.533 1238.31,164.968 1240.29,165.424 1242.28,165.902 1244.26,166.401 1246.24,166.923 1248.22,167.466 1250.21,168.032 1252.19,168.62 1254.17,169.23 1256.16,169.862 1258.14,170.517 1260.12,171.193 1262.11,171.892 1264.09,172.612 1266.07,173.355 1268.06,174.118 1270.04,174.903 1272.02,175.709 1274,176.536 1275.99,177.383 1277.97,178.249 1279.95,179.136 1281.94,180.041 1283.92,180.964 1285.9,181.906 1287.89,182.864 1289.87,183.84 1291.85,184.831 1293.84,185.837 1295.82,186.857 1297.8,187.891 1299.79,188.938 1301.77,189.997 1303.75,191.066 1305.73,192.145 1307.72,193.233 1309.7,194.33 1311.68,195.433 1313.67,196.542 1315.65,197.656 1317.63,198.774 1319.62,199.894 1321.6,201.016 1323.58,202.139 1325.57,203.26 1327.55,204.381 1329.53,205.498 1331.51,206.611 1333.5,207.719 1335.48,208.82 1337.46,209.914 1339.45,211 1341.43,212.076 1343.41,213.142 1345.4,214.196 1347.38,215.237 1349.36,216.265 1351.35,217.279 1353.33,218.278 1355.31,219.26 1357.3,220.227 1359.28,221.177 1361.26,222.11 1363.24,223.025 1365.23,223.924 1367.21,224.805 1369.19,225.67 1371.18,226.519 1373.16,227.353 1375.14,228.173 1377.13,228.98 1379.11,229.777 1381.09,230.565 1383.08,231.347 1385.06,232.125 1387.04,232.903 1389.03,233.684 1391.01,234.47 1392.99,235.268 1394.97,236.079 1396.96,236.91 1398.94,237.765 1400.92,238.649 1402.91,239.567 1404.89,240.523 1406.87,241.524 1408.86,242.575 1410.84,243.679 1412.82,244.844 1414.81,246.072 1416.79,247.369 1418.77,248.738 1420.75,250.182 1422.74,251.704 1424.72,253.305 1426.7,254.988 1428.69,256.75 1430.67,258.592 1432.65,260.51 1434.64,262.502 1436.62,264.561 1438.6,266.682 1440.59,268.856 1442.57,271.075 1444.55,273.327 1446.54,275.601 1448.52,277.884 1450.5,280.16 1452.48,282.417 1454.47,284.639 1456.45,286.81 1458.43,288.917 1460.42,290.946 1462.4,292.885 1464.38,294.724 1466.37,296.456 1468.35,298.076 1470.33,299.583 1472.32,300.979 1474.3,302.271 1476.28,303.469 1478.26,304.585 1480.25,305.638 1482.23,306.647 1484.21,307.634 1486.2,308.624 1488.18,309.641 1490.16,310.711 1492.15,311.858 1494.13,313.105 1496.11,314.472 1498.1,315.976 1500.08,317.63 1502.06,319.442 1504.05,321.415 1506.03,323.545 1508.01,325.824 1509.99,328.234 1511.98,330.755 1513.96,333.359 1515.94,336.012 1517.93,338.679 1519.91,341.322 1521.89,343.901 1523.88,346.381 1525.86,348.731 1527.84,350.924 1529.83,352.946 1531.81,354.792 1533.79,356.467 1535.78,357.99 1537.76,359.389 1539.74,360.703 1541.72,361.976 1543.71,363.256 1545.69,364.592 1547.67,366.03 1549.66,367.608 1551.64,369.356 1553.62,371.292 1555.61,373.419 1557.59,375.728 1559.57,378.193 1561.56,380.776 1563.54,383.43 1565.52,386.1 1567.5,388.729 1569.49,391.264 1571.47,393.662 1573.45,395.894 1575.44,397.95 1577.42,399.839 1579.4,401.59 1581.39,403.247 1583.37,404.868 1585.35,406.511 1587.34,408.234 1589.32,410.084 1591.3,412.09 1593.29,414.265 1595.27,416.598 1597.25,419.056 1599.23,421.593 1601.22,424.151 1603.2,426.672 1605.18,429.106 1607.17,431.416 1609.15,433.591 1611.13,435.642 1613.12,437.602 1615.1,439.519 1617.08,441.449 1619.07,443.443 1621.05,445.54 1623.03,447.755 1625.01,450.084 1627,452.499 1628.98,454.957 1630.96,457.408 1632.95,459.811 1634.93,462.134 1636.91,464.371 1638.9,466.537 1640.88,468.663 1642.86,470.791 1644.85,472.959 1646.83,475.194 1648.81,477.504 1650.8,479.875 1652.78,482.281 1654.76,484.688 1656.74,487.065 1658.73,489.396 1660.71,491.682 1662.69,493.939 1664.68,496.194 1666.66,498.472 1668.64,500.789 1670.63,503.148 1672.61,505.536 1674.59,507.934 1676.58,510.323 1678.56,512.689 1680.54,515.034 1682.53,517.367 1684.51,519.705 1686.49,522.062 1688.47,524.442 1690.46,526.842 1692.44,529.25 1694.42,531.655 1696.41,534.05 1698.39,536.437 1700.37,538.823 1702.36,541.216 1704.34,543.623 1706.32,546.043 1708.31,548.47 1710.29,550.897 1712.27,553.321 1714.25,555.742 1716.24,558.166 1718.22,560.597 1720.2,563.038 1722.19,565.485 1724.17,567.935 1726.15,570.385 1728.14,572.834 1730.12,575.286 1732.1,577.745 1734.09,580.21 1736.07,582.68 1738.05,585.152 1740.04,587.624 1742.02,590.099 1744,592.577 1745.98,595.062 1747.97,597.552 1749.95,600.044 1751.93,602.536 1753.92,605.031 1755.9,607.531 1757.88,610.036 1759.87,612.545 1761.85,615.055 1763.83,617.567 1765.82,620.082 1767.8,622.603 1769.78,625.128 1771.76,627.654 1773.75,630.182 1775.73,632.713 1777.71,635.25 1779.7,637.789 1781.68,640.331 1783.66,642.874 1785.65,645.422 1787.63,647.974 1789.61,650.528 1791.6,653.084 1793.58,655.643 1795.56,658.206 1797.55,660.773 1799.53,663.34 1801.51,665.911 1803.49,668.486 1805.48,671.064 1807.46,673.644 1809.44,676.226 1811.43,678.813 1813.41,681.402 1815.39,683.993 1817.38,686.587 1819.36,689.185 1821.34,691.784 1823.33,694.387 1825.31,696.993 1827.29,699.601 1829.27,702.211 1831.26,704.825 1833.24,707.442 1835.22,710.06 1837.21,712.682 1839.19,715.306 1841.17,717.933 1843.16,720.562 1845.14,723.195 1847.12,725.829 1849.11,728.467 1851.09,731.107 1853.07,733.749 1855.06,736.394 1857.04,739.042 1859.02,741.691 1861,744.344 1862.99,746.999 1864.97,749.657 1866.95,752.317 1868.94,754.979 1870.92,757.644 1872.9,760.311 1874.89,762.981 1876.87,765.653 1878.85,768.328 1880.84,771.005 1882.82,773.684 1884.8,776.366 1886.79,779.05 1888.77,781.736 1890.75,784.425 1892.73,787.115 1894.72,789.809 1896.7,792.504 1898.68,795.202 1900.67,797.902 1902.65,800.604 1904.63,803.309 1906.62,806.015 1908.6,808.724 1910.58,811.435 1912.57,814.148 1914.55,816.864 1916.53,819.581 1918.51,822.301 1920.5,825.023 1922.48,827.747 1924.46,830.473 1926.45,833.201 1928.43,835.931 1930.41,838.664 1932.4,841.398 1934.38,844.134 1936.36,846.873 1938.35,849.613 1940.33,852.355 1942.31,855.1 1944.3,857.846 1946.28,860.595 1948.26,863.345 1950.24,866.097 1952.23,868.851 1954.21,871.608 1956.19,874.366 1958.18,877.126 1960.16,879.887 1962.14,882.651 1964.13,885.417 1966.11,888.184 1968.09,890.953 1970.08,893.724 1972.06,896.497 1974.04,899.272 1976.02,902.048 1978.01,904.826 1979.99,907.606 1981.97,910.388 1983.96,913.171 1985.94,915.956 1987.92,918.743 1989.91,921.532 1991.89,924.322 1993.87,927.114 1995.86,929.907 1997.84,932.703 1999.82,935.499 2001.81,938.298 2003.79,941.098 2005.77,943.899 2007.75,946.703 2009.74,949.507 2011.72,952.314 2013.7,955.121 2015.69,957.931 2017.67,960.742 2019.65,963.554 2021.64,966.368 2023.62,969.183 2025.6,972 2027.59,974.818 2029.57,977.638 2031.55,980.459 2033.54,983.281 2035.52,986.105 2037.5,988.93 2039.48,991.756 2041.47,994.584 2043.45,997.413 2045.43,1000.24 2047.42,1003.08 2049.4,1005.91 2051.38,1008.74 2053.37,1011.58 2055.35,1014.41 2057.33,1017.25 2059.32,1020.09 2061.3,1022.93 2063.28,1025.77 2065.26,1028.62 2067.25,1031.46 2069.23,1034.3 2071.21,1037.15 2073.2,1040 2075.18,1042.84 2077.16,1045.69 2079.15,1048.54 2081.13,1051.39 2083.11,1054.25 2085.1,1057.1 2087.08,1059.95 2089.06,1062.81 2091.05,1065.66 2093.03,1068.52 2095.01,1071.38 2096.99,1074.23 2098.98,1077.09 2100.96,1079.95 2102.94,1082.81 2104.93,1085.67 2106.91,1088.54 2108.89,1091.4 2110.88,1094.26 2112.86,1097.13 2114.84,1099.99 2116.83,1102.85 2118.81,1105.72 2120.79,1108.59 2122.77,1111.45 2124.76,1114.32 2126.74,1117.19 2128.72,1120.05 2130.71,1122.92 2132.69,1125.79 2134.67,1128.66 2136.66,1131.53 2138.64,1134.4 2140.62,1137.27 2142.61,1140.14 2144.59,1143.01 2146.57,1145.88 2148.56,1148.75 2150.54,1151.62 2152.52,1154.49 2154.5,1157.36 2156.49,1160.23 2158.47,1163.1 2160.45,1165.97 2162.44,1168.83 2164.42,1171.7 2166.4,1174.57 2168.39,1177.44 2170.37,1180.31 2172.35,1183.18 2174.34,1186.04 2176.32,1188.91 2178.3,1191.78 2180.29,1194.64 2182.27,1197.5 2184.25,1200.37 2186.23,1203.23 2188.22,1206.09 2190.2,1208.95 2192.18,1211.81 2194.17,1214.67 2196.15,1217.53 2198.13,1220.39 2200.12,1223.24 2202.1,1226.1 2204.08,1228.95 2206.07,1231.8 2208.05,1234.65 2210.03,1237.5 2212.01,1240.35 2214,1243.19 2215.98,1246.04 2217.96,1248.88 2219.95,1251.72 2221.93,1254.55 2223.91,1257.39 2225.9,1260.22 2227.88,1263.05 2229.86,1265.88 2231.85,1268.71 2233.83,1271.53 2235.81,1274.35 2237.8,1277.17 2239.78,1279.98 2241.76,1282.79 2243.74,1285.6 2245.73,1288.4 2247.71,1291.21 2249.69,1294 2251.68,1296.8 2253.66,1299.59 2255.64,1302.38 2257.63,1305.16 2259.61,1307.94 2261.59,1310.71 2263.58,1313.48 2265.56,1316.25 2267.54,1319.01 2269.52,1321.77 2271.51,1324.52 2273.49,1327.26 2275.47,1330 2277.46,1332.74 2279.44,1335.47 2281.42,1338.19 2283.41,1340.91 2285.39,1343.63 2287.37,1346.33 2289.36,1349.03 2291.34,1351.72 2293.32,1354.41 "/>
<path clip-path="url(#clip910)" d="M1860.17 321.906 L2282.76 321.906 L2282.76 166.386 L1860.17 166.386  Z" fill="#ffffff" fill-rule="evenodd" fill-opacity="1"/>
<polyline clip-path="url(#clip910)" style="stroke:#000000; stroke-linecap:round; stroke-linejoin:round; stroke-width:4; stroke-opacity:1; fill:none" points="1860.17,321.906 2282.76,321.906 2282.76,166.386 1860.17,166.386 1860.17,321.906 "/>
<polyline clip-path="url(#clip910)" style="stroke:#009af9; stroke-linecap:round; stroke-linejoin:round; stroke-width:4; stroke-opacity:1; fill:none" points="1883.5,218.226 2023.5,218.226 "/>
<path clip-path="url(#clip910)" d="M2065.6 222.567 Q2065.6 217.867 2063.66 215.205 Q2061.74 212.52 2058.36 212.52 Q2054.98 212.52 2053.04 215.205 Q2051.11 217.867 2051.11 222.567 Q2051.11 227.266 2053.04 229.951 Q2054.98 232.613 2058.36 232.613 Q2061.74 232.613 2063.66 229.951 Q2065.6 227.266 2065.6 222.567 M2051.11 213.516 Q2052.46 211.201 2054.49 210.09 Q2056.55 208.955 2059.4 208.955 Q2064.12 208.955 2067.06 212.705 Q2070.03 216.455 2070.03 222.567 Q2070.03 228.678 2067.06 232.428 Q2064.12 236.178 2059.4 236.178 Q2056.55 236.178 2054.49 235.066 Q2052.46 233.932 2051.11 231.617 L2051.11 235.506 L2046.83 235.506 L2046.83 199.488 L2051.11 199.488 L2051.11 213.516 Z" fill="#000000" fill-rule="nonzero" fill-opacity="1" /><path clip-path="url(#clip910)" d="M2077.09 209.58 L2081.35 209.58 L2081.35 235.506 L2077.09 235.506 L2077.09 209.58 M2077.09 199.488 L2081.35 199.488 L2081.35 204.881 L2077.09 204.881 L2077.09 199.488 Z" fill="#000000" fill-rule="nonzero" fill-opacity="1" /><path clip-path="url(#clip910)" d="M2102.04 222.474 Q2096.88 222.474 2094.89 223.654 Q2092.9 224.835 2092.9 227.682 Q2092.9 229.951 2094.38 231.293 Q2095.88 232.613 2098.45 232.613 Q2101.99 232.613 2104.12 230.113 Q2106.28 227.59 2106.28 223.423 L2106.28 222.474 L2102.04 222.474 M2110.53 220.715 L2110.53 235.506 L2106.28 235.506 L2106.28 231.571 Q2104.82 233.932 2102.64 235.066 Q2100.47 236.178 2097.32 236.178 Q2093.34 236.178 2090.97 233.955 Q2088.64 231.71 2088.64 227.96 Q2088.64 223.585 2091.55 221.363 Q2094.49 219.141 2100.3 219.141 L2106.28 219.141 L2106.28 218.724 Q2106.28 215.784 2104.33 214.187 Q2102.41 212.567 2098.91 212.567 Q2096.69 212.567 2094.59 213.099 Q2092.48 213.631 2090.53 214.696 L2090.53 210.761 Q2092.87 209.858 2095.07 209.418 Q2097.27 208.955 2099.35 208.955 Q2104.98 208.955 2107.76 211.872 Q2110.53 214.789 2110.53 220.715 Z" fill="#000000" fill-rule="nonzero" fill-opacity="1" /><path clip-path="url(#clip910)" d="M2135.84 210.344 L2135.84 214.372 Q2134.03 213.446 2132.09 212.983 Q2130.14 212.52 2128.06 212.52 Q2124.89 212.52 2123.29 213.493 Q2121.72 214.465 2121.72 216.409 Q2121.72 217.891 2122.85 218.747 Q2123.98 219.58 2127.41 220.344 L2128.87 220.668 Q2133.41 221.641 2135.3 223.423 Q2137.22 225.182 2137.22 228.354 Q2137.22 231.965 2134.35 234.071 Q2131.51 236.178 2126.51 236.178 Q2124.42 236.178 2122.16 235.761 Q2119.91 235.367 2117.41 234.557 L2117.41 230.159 Q2119.77 231.386 2122.06 232.011 Q2124.35 232.613 2126.6 232.613 Q2129.61 232.613 2131.23 231.594 Q2132.85 230.553 2132.85 228.678 Q2132.85 226.942 2131.67 226.016 Q2130.51 225.09 2126.55 224.233 L2125.07 223.886 Q2121.11 223.053 2119.35 221.34 Q2117.59 219.604 2117.59 216.594 Q2117.59 212.937 2120.19 210.946 Q2122.78 208.955 2127.55 208.955 Q2129.91 208.955 2131.99 209.303 Q2134.08 209.65 2135.84 210.344 Z" fill="#000000" fill-rule="nonzero" fill-opacity="1" /><path clip-path="url(#clip910)" d="M2166.18 221.479 L2166.18 223.562 L2146.6 223.562 Q2146.88 227.96 2149.24 230.275 Q2151.62 232.566 2155.86 232.566 Q2158.31 232.566 2160.6 231.965 Q2162.92 231.363 2165.19 230.159 L2165.19 234.187 Q2162.9 235.159 2160.49 235.668 Q2158.08 236.178 2155.6 236.178 Q2149.4 236.178 2145.77 232.566 Q2142.16 228.955 2142.16 222.798 Q2142.16 216.432 2145.58 212.705 Q2149.03 208.955 2154.86 208.955 Q2160.09 208.955 2163.13 212.335 Q2166.18 215.692 2166.18 221.479 M2161.92 220.229 Q2161.88 216.733 2159.96 214.65 Q2158.06 212.567 2154.91 212.567 Q2151.34 212.567 2149.19 214.58 Q2147.06 216.594 2146.74 220.252 L2161.92 220.229 Z" fill="#000000" fill-rule="nonzero" fill-opacity="1" /><path clip-path="url(#clip910)" d="M2190.23 213.516 L2190.23 199.488 L2194.49 199.488 L2194.49 235.506 L2190.23 235.506 L2190.23 231.617 Q2188.89 233.932 2186.83 235.066 Q2184.79 236.178 2181.92 236.178 Q2177.22 236.178 2174.26 232.428 Q2171.32 228.678 2171.32 222.567 Q2171.32 216.455 2174.26 212.705 Q2177.22 208.955 2181.92 208.955 Q2184.79 208.955 2186.83 210.09 Q2188.89 211.201 2190.23 213.516 M2175.72 222.567 Q2175.72 227.266 2177.64 229.951 Q2179.59 232.613 2182.97 232.613 Q2186.34 232.613 2188.29 229.951 Q2190.23 227.266 2190.23 222.567 Q2190.23 217.867 2188.29 215.205 Q2186.34 212.52 2182.97 212.52 Q2179.59 212.52 2177.64 215.205 Q2175.72 217.867 2175.72 222.567 Z" fill="#000000" fill-rule="nonzero" fill-opacity="1" /><polyline clip-path="url(#clip910)" style="stroke:#e26f46; stroke-linecap:round; stroke-linejoin:round; stroke-width:4; stroke-opacity:1; fill:none" points="1883.5,270.066 2023.5,270.066 "/>
<path clip-path="url(#clip910)" d="M2046.83 252.786 L2051.53 252.786 L2051.53 273.782 Q2051.53 279.337 2053.54 281.791 Q2055.56 284.221 2060.07 284.221 Q2064.56 284.221 2066.58 281.791 Q2068.59 279.337 2068.59 273.782 L2068.59 252.786 L2073.29 252.786 L2073.29 274.36 Q2073.29 281.119 2069.93 284.569 Q2066.6 288.018 2060.07 288.018 Q2053.52 288.018 2050.16 284.569 Q2046.83 281.119 2046.83 274.36 L2046.83 252.786 Z" fill="#000000" fill-rule="nonzero" fill-opacity="1" /><path clip-path="url(#clip910)" d="M2103.43 271.698 L2103.43 287.346 L2099.17 287.346 L2099.17 271.837 Q2099.17 268.157 2097.73 266.328 Q2096.3 264.499 2093.43 264.499 Q2089.98 264.499 2087.99 266.698 Q2086 268.897 2086 272.694 L2086 287.346 L2081.72 287.346 L2081.72 261.42 L2086 261.42 L2086 265.448 Q2087.53 263.11 2089.59 261.953 Q2091.67 260.795 2094.38 260.795 Q2098.85 260.795 2101.14 263.573 Q2103.43 266.328 2103.43 271.698 Z" fill="#000000" fill-rule="nonzero" fill-opacity="1" /><path clip-path="url(#clip910)" d="M2130.53 274.407 Q2130.53 269.707 2128.59 267.045 Q2126.67 264.36 2123.29 264.36 Q2119.91 264.36 2117.97 267.045 Q2116.04 269.707 2116.04 274.407 Q2116.04 279.106 2117.97 281.791 Q2119.91 284.453 2123.29 284.453 Q2126.67 284.453 2128.59 281.791 Q2130.53 279.106 2130.53 274.407 M2116.04 265.356 Q2117.39 263.041 2119.42 261.93 Q2121.48 260.795 2124.33 260.795 Q2129.05 260.795 2131.99 264.545 Q2134.96 268.295 2134.96 274.407 Q2134.96 280.518 2131.99 284.268 Q2129.05 288.018 2124.33 288.018 Q2121.48 288.018 2119.42 286.906 Q2117.39 285.772 2116.04 283.457 L2116.04 287.346 L2111.76 287.346 L2111.76 251.328 L2116.04 251.328 L2116.04 265.356 Z" fill="#000000" fill-rule="nonzero" fill-opacity="1" /><path clip-path="url(#clip910)" d="M2142.02 261.42 L2146.28 261.42 L2146.28 287.346 L2142.02 287.346 L2142.02 261.42 M2142.02 251.328 L2146.28 251.328 L2146.28 256.721 L2142.02 256.721 L2142.02 251.328 Z" fill="#000000" fill-rule="nonzero" fill-opacity="1" /><path clip-path="url(#clip910)" d="M2166.97 274.314 Q2161.81 274.314 2159.82 275.494 Q2157.83 276.675 2157.83 279.522 Q2157.83 281.791 2159.31 283.133 Q2160.81 284.453 2163.38 284.453 Q2166.92 284.453 2169.05 281.953 Q2171.21 279.43 2171.21 275.263 L2171.21 274.314 L2166.97 274.314 M2175.47 272.555 L2175.47 287.346 L2171.21 287.346 L2171.21 283.411 Q2169.75 285.772 2167.57 286.906 Q2165.4 288.018 2162.25 288.018 Q2158.27 288.018 2155.9 285.795 Q2153.57 283.55 2153.57 279.8 Q2153.57 275.425 2156.48 273.203 Q2159.42 270.981 2165.23 270.981 L2171.21 270.981 L2171.21 270.564 Q2171.21 267.624 2169.26 266.027 Q2167.34 264.407 2163.84 264.407 Q2161.62 264.407 2159.52 264.939 Q2157.41 265.471 2155.47 266.536 L2155.47 262.601 Q2157.8 261.698 2160 261.258 Q2162.2 260.795 2164.28 260.795 Q2169.91 260.795 2172.69 263.712 Q2175.47 266.629 2175.47 272.555 Z" fill="#000000" fill-rule="nonzero" fill-opacity="1" /><path clip-path="url(#clip910)" d="M2200.77 262.184 L2200.77 266.212 Q2198.96 265.286 2197.02 264.823 Q2195.07 264.36 2192.99 264.36 Q2189.82 264.36 2188.22 265.333 Q2186.65 266.305 2186.65 268.249 Q2186.65 269.731 2187.78 270.587 Q2188.91 271.42 2192.34 272.184 L2193.8 272.508 Q2198.34 273.481 2200.23 275.263 Q2202.15 277.022 2202.15 280.194 Q2202.15 283.805 2199.28 285.911 Q2196.44 288.018 2191.44 288.018 Q2189.35 288.018 2187.09 287.601 Q2184.84 287.207 2182.34 286.397 L2182.34 281.999 Q2184.7 283.226 2186.99 283.851 Q2189.28 284.453 2191.53 284.453 Q2194.54 284.453 2196.16 283.434 Q2197.78 282.393 2197.78 280.518 Q2197.78 278.782 2196.6 277.856 Q2195.44 276.93 2191.48 276.073 L2190 275.726 Q2186.04 274.893 2184.28 273.18 Q2182.53 271.444 2182.53 268.434 Q2182.53 264.777 2185.12 262.786 Q2187.71 260.795 2192.48 260.795 Q2194.84 260.795 2196.92 261.143 Q2199.01 261.49 2200.77 262.184 Z" fill="#000000" fill-rule="nonzero" fill-opacity="1" /><path clip-path="url(#clip910)" d="M2231.11 273.319 L2231.11 275.402 L2211.53 275.402 Q2211.81 279.8 2214.17 282.115 Q2216.55 284.406 2220.79 284.406 Q2223.24 284.406 2225.53 283.805 Q2227.85 283.203 2230.12 281.999 L2230.12 286.027 Q2227.83 286.999 2225.42 287.508 Q2223.01 288.018 2220.53 288.018 Q2214.33 288.018 2210.7 284.406 Q2207.09 280.795 2207.09 274.638 Q2207.09 268.272 2210.51 264.545 Q2213.96 260.795 2219.79 260.795 Q2225.02 260.795 2228.06 264.175 Q2231.11 267.532 2231.11 273.319 M2226.85 272.069 Q2226.81 268.573 2224.89 266.49 Q2222.99 264.407 2219.84 264.407 Q2216.28 264.407 2214.12 266.42 Q2211.99 268.434 2211.67 272.092 L2226.85 272.069 Z" fill="#000000" fill-rule="nonzero" fill-opacity="1" /><path clip-path="url(#clip910)" d="M2255.16 265.356 L2255.16 251.328 L2259.42 251.328 L2259.42 287.346 L2255.16 287.346 L2255.16 283.457 Q2253.82 285.772 2251.76 286.906 Q2249.72 288.018 2246.85 288.018 Q2242.15 288.018 2239.19 284.268 Q2236.25 280.518 2236.25 274.407 Q2236.25 268.295 2239.19 264.545 Q2242.15 260.795 2246.85 260.795 Q2249.72 260.795 2251.76 261.93 Q2253.82 263.041 2255.16 265.356 M2240.65 274.407 Q2240.65 279.106 2242.57 281.791 Q2244.52 284.453 2247.9 284.453 Q2251.27 284.453 2253.22 281.791 Q2255.16 279.106 2255.16 274.407 Q2255.16 269.707 2253.22 267.045 Q2251.27 264.36 2247.9 264.36 Q2244.52 264.36 2242.57 267.045 Q2240.65 269.707 2240.65 274.407 Z" fill="#000000" fill-rule="nonzero" fill-opacity="1" /></svg>
