<?xml version="1.0" encoding="utf-8"?>
<svg xmlns="http://www.w3.org/2000/svg" xmlns:xlink="http://www.w3.org/1999/xlink" width="600" height="400" viewBox="0 0 2400 1600">
<defs>
  <clipPath id="clip740">
    <rect x="0" y="0" width="2400" height="1600"/>
  </clipPath>
</defs>
<path clip-path="url(#clip740)" d="M0 1600 L2400 1600 L2400 0 L0 0  Z" fill="#ffffff" fill-rule="evenodd" fill-opacity="1"/>
<defs>
  <clipPath id="clip741">
    <rect x="480" y="0" width="1681" height="1600"/>
  </clipPath>
</defs>
<path clip-path="url(#clip740)" d="M258.387 1410.9 L2352.76 1410.9 L2352.76 183.952 L258.387 183.952  Z" fill="#ffffff" fill-rule="evenodd" fill-opacity="1"/>
<defs>
  <clipPath id="clip742">
    <rect x="258" y="183" width="2095" height="1228"/>
  </clipPath>
</defs>
<polyline clip-path="url(#clip742)" style="stroke:#000000; stroke-linecap:round; stroke-linejoin:round; stroke-width:2; stroke-opacity:0.1; fill:none" points="804.083,1410.9 804.083,183.952 "/>
<polyline clip-path="url(#clip742)" style="stroke:#000000; stroke-linecap:round; stroke-linejoin:round; stroke-width:2; stroke-opacity:0.1; fill:none" points="1791.99,1410.9 1791.99,183.952 "/>
<polyline clip-path="url(#clip740)" style="stroke:#000000; stroke-linecap:round; stroke-linejoin:round; stroke-width:4; stroke-opacity:1; fill:none" points="258.387,1410.9 2352.76,1410.9 "/>
<polyline clip-path="url(#clip740)" style="stroke:#000000; stroke-linecap:round; stroke-linejoin:round; stroke-width:4; stroke-opacity:1; fill:none" points="804.083,1410.9 804.083,1392 "/>
<polyline clip-path="url(#clip740)" style="stroke:#000000; stroke-linecap:round; stroke-linejoin:round; stroke-width:4; stroke-opacity:1; fill:none" points="1791.99,1410.9 1791.99,1392 "/>
<path clip-path="url(#clip740)" d="M753.963 1485.02 L761.602 1485.02 L761.602 1458.66 L753.292 1460.32 L753.292 1456.06 L761.556 1454.4 L766.231 1454.4 L766.231 1485.02 L773.87 1485.02 L773.87 1488.96 L753.963 1488.96 L753.963 1485.02 Z" fill="#000000" fill-rule="nonzero" fill-opacity="1" /><path clip-path="url(#clip740)" d="M793.315 1457.48 Q789.704 1457.48 787.875 1461.04 Q786.069 1464.58 786.069 1471.71 Q786.069 1478.82 787.875 1482.38 Q789.704 1485.92 793.315 1485.92 Q796.949 1485.92 798.754 1482.38 Q800.583 1478.82 800.583 1471.71 Q800.583 1464.58 798.754 1461.04 Q796.949 1457.48 793.315 1457.48 M793.315 1453.77 Q799.125 1453.77 802.18 1458.38 Q805.259 1462.96 805.259 1471.71 Q805.259 1480.44 802.18 1485.04 Q799.125 1489.63 793.315 1489.63 Q787.504 1489.63 784.426 1485.04 Q781.37 1480.44 781.37 1471.71 Q781.37 1462.96 784.426 1458.38 Q787.504 1453.77 793.315 1453.77 Z" fill="#000000" fill-rule="nonzero" fill-opacity="1" /><path clip-path="url(#clip740)" d="M805.259 1447.87 L829.371 1447.87 L829.371 1451.07 L805.259 1451.07 L805.259 1447.87 Z" fill="#000000" fill-rule="nonzero" fill-opacity="1" /><path clip-path="url(#clip740)" d="M849.081 1446.41 Q851.808 1446.99 853.332 1448.83 Q854.874 1450.68 854.874 1453.38 Q854.874 1457.54 852.015 1459.82 Q849.156 1462.09 843.89 1462.09 Q842.122 1462.09 840.241 1461.73 Q838.38 1461.4 836.386 1460.7 L836.386 1457.03 Q837.966 1457.95 839.847 1458.42 Q841.727 1458.89 843.777 1458.89 Q847.351 1458.89 849.213 1457.48 Q851.094 1456.07 851.094 1453.38 Q851.094 1450.9 849.344 1449.51 Q847.614 1448.1 844.511 1448.1 L841.238 1448.1 L841.238 1444.98 L844.661 1444.98 Q847.464 1444.98 848.949 1443.87 Q850.435 1442.74 850.435 1440.63 Q850.435 1438.47 848.893 1437.32 Q847.37 1436.16 844.511 1436.16 Q842.95 1436.16 841.163 1436.49 Q839.376 1436.83 837.232 1437.55 L837.232 1434.16 Q839.395 1433.56 841.276 1433.26 Q843.175 1432.96 844.849 1432.96 Q849.175 1432.96 851.695 1434.93 Q854.216 1436.89 854.216 1440.24 Q854.216 1442.57 852.88 1444.19 Q851.545 1445.79 849.081 1446.41 Z" fill="#000000" fill-rule="nonzero" fill-opacity="1" /><path clip-path="url(#clip740)" d="M1756.98 1485.02 L1764.61 1485.02 L1764.61 1458.66 L1756.3 1460.32 L1756.3 1456.06 L1764.57 1454.4 L1769.24 1454.4 L1769.24 1485.02 L1776.88 1485.02 L1776.88 1488.96 L1756.98 1488.96 L1756.98 1485.02 Z" fill="#000000" fill-rule="nonzero" fill-opacity="1" /><path clip-path="url(#clip740)" d="M1796.33 1457.48 Q1792.72 1457.48 1790.89 1461.04 Q1789.08 1464.58 1789.08 1471.71 Q1789.08 1478.82 1790.89 1482.38 Q1792.72 1485.92 1796.33 1485.92 Q1799.96 1485.92 1801.77 1482.38 Q1803.6 1478.82 1803.6 1471.71 Q1803.6 1464.58 1801.77 1461.04 Q1799.96 1457.48 1796.33 1457.48 M1796.33 1453.77 Q1802.14 1453.77 1805.19 1458.38 Q1808.27 1462.96 1808.27 1471.71 Q1808.27 1480.44 1805.19 1485.04 Q1802.14 1489.63 1796.33 1489.63 Q1790.52 1489.63 1787.44 1485.04 Q1784.38 1480.44 1784.38 1471.71 Q1784.38 1462.96 1787.44 1458.38 Q1790.52 1453.77 1796.33 1453.77 Z" fill="#000000" fill-rule="nonzero" fill-opacity="1" /><path clip-path="url(#clip740)" d="M1817.98 1435.97 Q1815.04 1435.97 1813.56 1438.86 Q1812.09 1441.74 1812.09 1447.53 Q1812.09 1453.31 1813.56 1456.2 Q1815.04 1459.08 1817.98 1459.08 Q1820.93 1459.08 1822.4 1456.2 Q1823.88 1453.31 1823.88 1447.53 Q1823.88 1441.74 1822.4 1438.86 Q1820.93 1435.97 1817.98 1435.97 M1817.98 1432.96 Q1822.7 1432.96 1825.18 1436.7 Q1827.68 1440.43 1827.68 1447.53 Q1827.68 1454.62 1825.18 1458.37 Q1822.7 1462.09 1817.98 1462.09 Q1813.26 1462.09 1810.75 1458.37 Q1808.27 1454.62 1808.27 1447.53 Q1808.27 1440.43 1810.75 1436.7 Q1813.26 1432.96 1817.98 1432.96 Z" fill="#000000" fill-rule="nonzero" fill-opacity="1" /><path clip-path="url(#clip740)" d="M1260.79 1524.66 L1266.68 1524.66 L1266.68 1553.91 L1284.15 1538.54 L1291.63 1538.54 L1272.72 1555.22 L1292.43 1574.19 L1284.79 1574.19 L1266.68 1556.78 L1266.68 1574.19 L1260.79 1574.19 L1260.79 1524.66 Z" fill="#000000" fill-rule="nonzero" fill-opacity="1" /><path clip-path="url(#clip740)" d="M1309.17 1526.67 L1314.58 1526.67 L1298.03 1580.23 L1292.62 1580.23 L1309.17 1526.67 Z" fill="#000000" fill-rule="nonzero" fill-opacity="1" /><path clip-path="url(#clip740)" d="M1350.35 1552.67 L1350.35 1574.19 L1344.5 1574.19 L1344.5 1552.86 Q1344.5 1547.8 1342.52 1545.29 Q1340.55 1542.77 1336.6 1542.77 Q1331.86 1542.77 1329.12 1545.79 Q1326.39 1548.82 1326.39 1554.04 L1326.39 1574.19 L1320.5 1574.19 L1320.5 1524.66 L1326.39 1524.66 L1326.39 1544.08 Q1328.49 1540.86 1331.32 1539.27 Q1334.19 1537.68 1337.91 1537.68 Q1344.05 1537.68 1347.2 1541.5 Q1350.35 1545.29 1350.35 1552.67 Z" fill="#000000" fill-rule="nonzero" fill-opacity="1" /><polyline clip-path="url(#clip742)" style="stroke:#000000; stroke-linecap:round; stroke-linejoin:round; stroke-width:2; stroke-opacity:0.1; fill:none" points="258.387,1028.36 2352.76,1028.36 "/>
<polyline clip-path="url(#clip742)" style="stroke:#000000; stroke-linecap:round; stroke-linejoin:round; stroke-width:2; stroke-opacity:0.1; fill:none" points="258.387,582.654 2352.76,582.654 "/>
<polyline clip-path="url(#clip740)" style="stroke:#000000; stroke-linecap:round; stroke-linejoin:round; stroke-width:4; stroke-opacity:1; fill:none" points="258.387,1410.9 258.387,183.952 "/>
<polyline clip-path="url(#clip740)" style="stroke:#000000; stroke-linecap:round; stroke-linejoin:round; stroke-width:4; stroke-opacity:1; fill:none" points="258.387,1028.36 277.285,1028.36 "/>
<polyline clip-path="url(#clip740)" style="stroke:#000000; stroke-linecap:round; stroke-linejoin:round; stroke-width:4; stroke-opacity:1; fill:none" points="258.387,582.654 277.285,582.654 "/>
<path clip-path="url(#clip740)" d="M114.931 1048.15 L122.57 1048.15 L122.57 1021.78 L114.26 1023.45 L114.26 1019.19 L122.524 1017.53 L127.2 1017.53 L127.2 1048.15 L134.839 1048.15 L134.839 1052.09 L114.931 1052.09 L114.931 1048.15 Z" fill="#000000" fill-rule="nonzero" fill-opacity="1" /><path clip-path="url(#clip740)" d="M154.283 1020.6 Q150.672 1020.6 148.843 1024.17 Q147.038 1027.71 147.038 1034.84 Q147.038 1041.95 148.843 1045.51 Q150.672 1049.05 154.283 1049.05 Q157.917 1049.05 159.723 1045.51 Q161.552 1041.95 161.552 1034.84 Q161.552 1027.71 159.723 1024.17 Q157.917 1020.6 154.283 1020.6 M154.283 1016.9 Q160.093 1016.9 163.149 1021.51 Q166.227 1026.09 166.227 1034.84 Q166.227 1043.57 163.149 1048.17 Q160.093 1052.76 154.283 1052.76 Q148.473 1052.76 145.394 1048.17 Q142.339 1043.57 142.339 1034.84 Q142.339 1026.09 145.394 1021.51 Q148.473 1016.9 154.283 1016.9 Z" fill="#000000" fill-rule="nonzero" fill-opacity="1" /><path clip-path="url(#clip740)" d="M175.932 999.097 Q172.998 999.097 171.512 1001.99 Q170.045 1004.87 170.045 1010.66 Q170.045 1016.44 171.512 1019.33 Q172.998 1022.21 175.932 1022.21 Q178.885 1022.21 180.352 1019.33 Q181.838 1016.44 181.838 1010.66 Q181.838 1004.87 180.352 1001.99 Q178.885 999.097 175.932 999.097 M175.932 996.087 Q180.653 996.087 183.136 999.83 Q185.637 1003.55 185.637 1010.66 Q185.637 1017.75 183.136 1021.5 Q180.653 1025.22 175.932 1025.22 Q171.212 1025.22 168.71 1021.5 Q166.227 1017.75 166.227 1010.66 Q166.227 1003.55 168.71 999.83 Q171.212 996.087 175.932 996.087 Z" fill="#000000" fill-rule="nonzero" fill-opacity="1" /><path clip-path="url(#clip740)" d="M192.314 1019.9 L196.282 1019.9 L196.282 1024.68 L192.314 1024.68 L192.314 1019.9 Z" fill="#000000" fill-rule="nonzero" fill-opacity="1" /><path clip-path="url(#clip740)" d="M212.683 999.097 Q209.749 999.097 208.263 1001.99 Q206.796 1004.87 206.796 1010.66 Q206.796 1016.44 208.263 1019.33 Q209.749 1022.21 212.683 1022.21 Q215.635 1022.21 217.102 1019.33 Q218.588 1016.44 218.588 1010.66 Q218.588 1004.87 217.102 1001.99 Q215.635 999.097 212.683 999.097 M212.683 996.087 Q217.403 996.087 219.886 999.83 Q222.387 1003.55 222.387 1010.66 Q222.387 1017.75 219.886 1021.5 Q217.403 1025.22 212.683 1025.22 Q207.962 1025.22 205.46 1021.5 Q202.978 1017.75 202.978 1010.66 Q202.978 1003.55 205.46 999.83 Q207.962 996.087 212.683 996.087 Z" fill="#000000" fill-rule="nonzero" fill-opacity="1" /><path clip-path="url(#clip740)" d="M116.022 602.446 L123.661 602.446 L123.661 576.081 L115.351 577.747 L115.351 573.488 L123.615 571.821 L128.291 571.821 L128.291 602.446 L135.93 602.446 L135.93 606.381 L116.022 606.381 L116.022 602.446 Z" fill="#000000" fill-rule="nonzero" fill-opacity="1" /><path clip-path="url(#clip740)" d="M155.374 574.9 Q151.763 574.9 149.934 578.465 Q148.129 582.006 148.129 589.136 Q148.129 596.242 149.934 599.807 Q151.763 603.349 155.374 603.349 Q159.008 603.349 160.814 599.807 Q162.642 596.242 162.642 589.136 Q162.642 582.006 160.814 578.465 Q159.008 574.9 155.374 574.9 M155.374 571.196 Q161.184 571.196 164.24 575.803 Q167.318 580.386 167.318 589.136 Q167.318 597.863 164.24 602.469 Q161.184 607.053 155.374 607.053 Q149.564 607.053 146.485 602.469 Q143.43 597.863 143.43 589.136 Q143.43 580.386 146.485 575.803 Q149.564 571.196 155.374 571.196 Z" fill="#000000" fill-rule="nonzero" fill-opacity="1" /><path clip-path="url(#clip740)" d="M171.889 575.774 L185.148 575.774 L185.148 578.971 L167.318 578.971 L167.318 575.774 Q169.481 573.535 173.205 569.774 Q176.948 565.994 177.907 564.903 Q179.731 562.853 180.446 561.442 Q181.18 560.013 181.18 558.64 Q181.18 556.402 179.6 554.991 Q178.039 553.58 175.519 553.58 Q173.732 553.58 171.738 554.201 Q169.763 554.822 167.506 556.082 L167.506 552.245 Q169.801 551.323 171.795 550.853 Q173.788 550.383 175.443 550.383 Q179.807 550.383 182.402 552.565 Q184.998 554.747 184.998 558.395 Q184.998 560.126 184.339 561.687 Q183.7 563.229 181.988 565.335 Q181.518 565.881 178.998 568.495 Q176.478 571.09 171.889 575.774 Z" fill="#000000" fill-rule="nonzero" fill-opacity="1" /><path clip-path="url(#clip740)" d="M193.123 574.194 L197.091 574.194 L197.091 578.971 L193.123 578.971 L193.123 574.194 Z" fill="#000000" fill-rule="nonzero" fill-opacity="1" /><path clip-path="url(#clip740)" d="M205.404 550.891 L220.319 550.891 L220.319 554.088 L208.883 554.088 L208.883 560.972 Q209.711 560.69 210.539 560.558 Q211.366 560.408 212.194 560.408 Q216.896 560.408 219.642 562.984 Q222.387 565.561 222.387 569.962 Q222.387 574.495 219.566 577.015 Q216.745 579.516 211.611 579.516 Q209.843 579.516 208 579.215 Q206.175 578.914 204.219 578.313 L204.219 574.495 Q205.912 575.416 207.717 575.868 Q209.523 576.319 211.535 576.319 Q214.789 576.319 216.689 574.608 Q218.588 572.896 218.588 569.962 Q218.588 567.028 216.689 565.316 Q214.789 563.605 211.535 563.605 Q210.012 563.605 208.489 563.944 Q206.984 564.282 205.404 564.997 L205.404 550.891 Z" fill="#000000" fill-rule="nonzero" fill-opacity="1" /><path clip-path="url(#clip740)" d="M21.7677 806.336 L39.6235 806.336 L39.6235 798.252 Q39.6235 793.764 37.3 791.313 Q34.9765 788.863 30.6797 788.863 Q26.4147 788.863 24.0912 791.313 Q21.7677 793.764 21.7677 798.252 L21.7677 806.336 M16.4842 812.766 L16.4842 798.252 Q16.4842 790.263 20.1126 786.189 Q23.7092 782.083 30.6797 782.083 Q37.7138 782.083 41.3104 786.189 Q44.907 790.263 44.907 798.252 L44.907 806.336 L64.0042 806.336 L64.0042 812.766 L16.4842 812.766 Z" fill="#000000" fill-rule="nonzero" fill-opacity="1" /><path clip-path="url(#clip740)" d="M547.87 33.264 L558.889 33.264 L585.706 83.8598 L585.706 33.264 L593.646 33.264 L593.646 93.744 L582.627 93.744 L555.81 43.1482 L555.81 93.744 L547.87 93.744 L547.87 33.264 Z" fill="#000000" fill-rule="nonzero" fill-opacity="1" /><path clip-path="url(#clip740)" d="M627.187 53.5995 Q621.192 53.5995 617.708 58.2986 Q614.224 62.9571 614.224 71.0994 Q614.224 79.2418 617.667 83.9408 Q621.151 88.5994 627.187 88.5994 Q633.142 88.5994 636.626 83.9003 Q640.109 79.2013 640.109 71.0994 Q640.109 63.0381 636.626 58.3391 Q633.142 53.5995 627.187 53.5995 M627.187 47.2801 Q636.909 47.2801 642.459 53.5995 Q648.009 59.9189 648.009 71.0994 Q648.009 82.2394 642.459 88.5994 Q636.909 94.9188 627.187 94.9188 Q617.424 94.9188 611.875 88.5994 Q606.365 82.2394 606.365 71.0994 Q606.365 59.9189 611.875 53.5995 Q617.424 47.2801 627.187 47.2801 Z" fill="#000000" fill-rule="nonzero" fill-opacity="1" /><path clip-path="url(#clip740)" d="M698.078 66.3599 L698.078 93.744 L690.624 93.744 L690.624 66.6029 Q690.624 60.162 688.113 56.9618 Q685.601 53.7616 680.578 53.7616 Q674.542 53.7616 671.058 57.6099 Q667.575 61.4583 667.575 68.1018 L667.575 93.744 L660.08 93.744 L660.08 48.3739 L667.575 48.3739 L667.575 55.4224 Q670.248 51.331 673.853 49.3056 Q677.499 47.2801 682.239 47.2801 Q690.057 47.2801 694.067 52.1412 Q698.078 56.9618 698.078 66.3599 Z" fill="#000000" fill-rule="nonzero" fill-opacity="1" /><path clip-path="url(#clip740)" d="M712.945 30.7119 L720.398 30.7119 L720.398 93.744 L712.945 93.744 L712.945 30.7119 Z" fill="#000000" fill-rule="nonzero" fill-opacity="1" /><path clip-path="url(#clip740)" d="M753.575 53.5995 Q747.58 53.5995 744.096 58.2986 Q740.612 62.9571 740.612 71.0994 Q740.612 79.2418 744.056 83.9408 Q747.539 88.5994 753.575 88.5994 Q759.53 88.5994 763.014 83.9003 Q766.498 79.2013 766.498 71.0994 Q766.498 63.0381 763.014 58.3391 Q759.53 53.5995 753.575 53.5995 M753.575 47.2801 Q763.297 47.2801 768.847 53.5995 Q774.397 59.9189 774.397 71.0994 Q774.397 82.2394 768.847 88.5994 Q763.297 94.9188 753.575 94.9188 Q743.813 94.9188 738.263 88.5994 Q732.754 82.2394 732.754 71.0994 Q732.754 59.9189 738.263 53.5995 Q743.813 47.2801 753.575 47.2801 Z" fill="#000000" fill-rule="nonzero" fill-opacity="1" /><path clip-path="url(#clip740)" d="M819.402 50.1158 L819.402 57.0833 Q816.243 55.3414 813.042 54.4907 Q809.883 53.5995 806.642 53.5995 Q799.391 53.5995 795.381 58.2176 Q791.37 62.7951 791.37 71.0994 Q791.37 79.4038 795.381 84.0218 Q799.391 88.5994 806.642 88.5994 Q809.883 88.5994 813.042 87.7487 Q816.243 86.8575 819.402 85.1156 L819.402 92.0021 Q816.283 93.4604 812.921 94.1896 Q809.599 94.9188 805.832 94.9188 Q795.583 94.9188 789.547 88.4778 Q783.511 82.0369 783.511 71.0994 Q783.511 60 789.588 53.64 Q795.705 47.2801 806.318 47.2801 Q809.761 47.2801 813.042 48.0093 Q816.324 48.6979 819.402 50.1158 Z" fill="#000000" fill-rule="nonzero" fill-opacity="1" /><path clip-path="url(#clip740)" d="M852.984 70.9374 Q843.951 70.9374 840.467 73.0034 Q836.983 75.0693 836.983 80.0519 Q836.983 84.0218 839.576 86.3714 Q842.209 88.6804 846.706 88.6804 Q852.903 88.6804 856.63 84.3054 Q860.398 79.8899 860.398 72.5983 L860.398 70.9374 L852.984 70.9374 M867.851 67.8587 L867.851 93.744 L860.398 93.744 L860.398 86.8575 Q857.845 90.9894 854.038 92.9743 Q850.23 94.9188 844.721 94.9188 Q837.753 94.9188 833.621 91.0299 Q829.53 87.1005 829.53 80.5381 Q829.53 72.8818 834.634 68.993 Q839.778 65.1041 849.946 65.1041 L860.398 65.1041 L860.398 64.3749 Q860.398 59.2303 856.995 56.4352 Q853.633 53.5995 847.516 53.5995 Q843.627 53.5995 839.941 54.5312 Q836.254 55.463 832.851 57.3264 L832.851 50.4398 Q836.943 48.86 840.791 48.0903 Q844.64 47.2801 848.285 47.2801 Q858.129 47.2801 862.99 52.3843 Q867.851 57.4884 867.851 67.8587 Z" fill="#000000" fill-rule="nonzero" fill-opacity="1" /><path clip-path="url(#clip740)" d="M883.204 30.7119 L890.658 30.7119 L890.658 93.744 L883.204 93.744 L883.204 30.7119 Z" fill="#000000" fill-rule="nonzero" fill-opacity="1" /><path clip-path="url(#clip740)" d="M941.132 39.9885 L941.132 62.7141 L951.421 62.7141 Q957.133 62.7141 960.252 59.7569 Q963.372 56.7998 963.372 51.331 Q963.372 45.9028 960.252 42.9457 Q957.133 39.9885 951.421 39.9885 L941.132 39.9885 M932.949 33.264 L951.421 33.264 Q961.589 33.264 966.774 37.882 Q972 42.4596 972 51.331 Q972 60.2835 966.774 64.8611 Q961.589 69.4386 951.421 69.4386 L941.132 69.4386 L941.132 93.744 L932.949 93.744 L932.949 33.264 Z" fill="#000000" fill-rule="nonzero" fill-opacity="1" /><path clip-path="url(#clip740)" d="M997.278 53.5995 Q991.282 53.5995 987.799 58.2986 Q984.315 62.9571 984.315 71.0994 Q984.315 79.2418 987.758 83.9408 Q991.242 88.5994 997.278 88.5994 Q1003.23 88.5994 1006.72 83.9003 Q1010.2 79.2013 1010.2 71.0994 Q1010.2 63.0381 1006.72 58.3391 Q1003.23 53.5995 997.278 53.5995 M997.278 47.2801 Q1007 47.2801 1012.55 53.5995 Q1018.1 59.9189 1018.1 71.0994 Q1018.1 82.2394 1012.55 88.5994 Q1007 94.9188 997.278 94.9188 Q987.515 94.9188 981.965 88.5994 Q976.456 82.2394 976.456 71.0994 Q976.456 59.9189 981.965 53.5995 Q987.515 47.2801 997.278 47.2801 Z" fill="#000000" fill-rule="nonzero" fill-opacity="1" /><path clip-path="url(#clip740)" d="M1026.12 48.3739 L1033.57 48.3739 L1042.89 83.7788 L1052.17 48.3739 L1060.96 48.3739 L1070.27 83.7788 L1079.55 48.3739 L1087.01 48.3739 L1075.14 93.744 L1066.35 93.744 L1056.58 56.5567 L1046.78 93.744 L1037.99 93.744 L1026.12 48.3739 Z" fill="#000000" fill-rule="nonzero" fill-opacity="1" /><path clip-path="url(#clip740)" d="M1137.11 69.1955 L1137.11 72.8413 L1102.84 72.8413 Q1103.33 80.5381 1107.46 84.589 Q1111.63 88.5994 1119.05 88.5994 Q1123.34 88.5994 1127.35 87.5461 Q1131.4 86.4929 1135.37 84.3864 L1135.37 91.435 Q1131.36 93.1364 1127.15 94.0276 Q1122.94 94.9188 1118.6 94.9188 Q1107.75 94.9188 1101.39 88.5994 Q1095.07 82.2799 1095.07 71.5045 Q1095.07 60.3645 1101.06 53.8426 Q1107.1 47.2801 1117.31 47.2801 Q1126.46 47.2801 1131.77 53.1944 Q1137.11 59.0683 1137.11 69.1955 M1129.66 67.008 Q1129.58 60.8912 1126.22 57.2454 Q1122.9 53.5995 1117.39 53.5995 Q1111.15 53.5995 1107.38 57.1238 Q1103.65 60.6481 1103.09 67.0485 L1129.66 67.008 Z" fill="#000000" fill-rule="nonzero" fill-opacity="1" /><path clip-path="url(#clip740)" d="M1175.64 55.3414 Q1174.38 54.6123 1172.88 54.2882 Q1171.43 53.9236 1169.64 53.9236 Q1163.32 53.9236 1159.92 58.0555 Q1156.56 62.1469 1156.56 69.8437 L1156.56 93.744 L1149.07 93.744 L1149.07 48.3739 L1156.56 48.3739 L1156.56 55.4224 Q1158.91 51.2905 1162.68 49.3056 Q1166.44 47.2801 1171.83 47.2801 Q1172.6 47.2801 1173.53 47.4017 Q1174.46 47.4827 1175.6 47.6852 L1175.64 55.3414 Z" fill="#000000" fill-rule="nonzero" fill-opacity="1" /><path clip-path="url(#clip740)" d="M1246.41 35.2489 L1246.41 43.2292 Q1241.75 41.0012 1237.62 39.9075 Q1233.49 38.8137 1229.64 38.8137 Q1222.95 38.8137 1219.31 41.4063 Q1215.7 43.9989 1215.7 48.779 Q1215.7 52.7894 1218.09 54.8553 Q1220.52 56.8808 1227.25 58.1366 L1232.19 59.1493 Q1241.34 60.8912 1245.68 65.3067 Q1250.05 69.6816 1250.05 77.0543 Q1250.05 85.8447 1244.14 90.3817 Q1238.27 94.9188 1226.88 94.9188 Q1222.59 94.9188 1217.73 93.9465 Q1212.91 92.9743 1207.72 91.0704 L1207.72 82.6445 Q1212.7 85.4396 1217.48 86.8575 Q1222.26 88.2753 1226.88 88.2753 Q1233.89 88.2753 1237.7 85.5207 Q1241.51 82.766 1241.51 77.6619 Q1241.51 73.2059 1238.75 70.6944 Q1236.04 68.1828 1229.8 66.927 L1224.82 65.9548 Q1215.66 64.1319 1211.57 60.243 Q1207.48 56.3542 1207.48 49.4271 Q1207.48 41.4063 1213.11 36.7883 Q1218.78 32.1703 1228.71 32.1703 Q1232.96 32.1703 1237.37 32.9399 Q1241.79 33.7096 1246.41 35.2489 Z" fill="#000000" fill-rule="nonzero" fill-opacity="1" /><path clip-path="url(#clip740)" d="M1269.7 86.9385 L1269.7 111.001 L1262.21 111.001 L1262.21 48.3739 L1269.7 48.3739 L1269.7 55.2604 Q1272.05 51.2095 1275.62 49.2651 Q1279.22 47.2801 1284.2 47.2801 Q1292.47 47.2801 1297.61 53.8426 Q1302.8 60.4051 1302.8 71.0994 Q1302.8 81.7938 1297.61 88.3563 Q1292.47 94.9188 1284.2 94.9188 Q1279.22 94.9188 1275.62 92.9743 Q1272.05 90.9894 1269.7 86.9385 M1295.06 71.0994 Q1295.06 62.8761 1291.66 58.2176 Q1288.29 53.5185 1282.38 53.5185 Q1276.47 53.5185 1273.06 58.2176 Q1269.7 62.8761 1269.7 71.0994 Q1269.7 79.3228 1273.06 84.0218 Q1276.47 88.6804 1282.38 88.6804 Q1288.29 88.6804 1291.66 84.0218 Q1295.06 79.3228 1295.06 71.0994 Z" fill="#000000" fill-rule="nonzero" fill-opacity="1" /><path clip-path="url(#clip740)" d="M1353.96 69.1955 L1353.96 72.8413 L1319.69 72.8413 Q1320.18 80.5381 1324.31 84.589 Q1328.48 88.5994 1335.89 88.5994 Q1340.19 88.5994 1344.2 87.5461 Q1348.25 86.4929 1352.22 84.3864 L1352.22 91.435 Q1348.21 93.1364 1343.99 94.0276 Q1339.78 94.9188 1335.45 94.9188 Q1324.59 94.9188 1318.23 88.5994 Q1311.91 82.2799 1311.91 71.5045 Q1311.91 60.3645 1317.91 53.8426 Q1323.94 47.2801 1334.15 47.2801 Q1343.31 47.2801 1348.61 53.1944 Q1353.96 59.0683 1353.96 69.1955 M1346.51 67.008 Q1346.43 60.8912 1343.06 57.2454 Q1339.74 53.5995 1334.23 53.5995 Q1327.99 53.5995 1324.23 57.1238 Q1320.5 60.6481 1319.93 67.0485 L1346.51 67.008 Z" fill="#000000" fill-rule="nonzero" fill-opacity="1" /><path clip-path="url(#clip740)" d="M1398.84 50.1158 L1398.84 57.0833 Q1395.68 55.3414 1392.48 54.4907 Q1389.32 53.5995 1386.08 53.5995 Q1378.83 53.5995 1374.82 58.2176 Q1370.81 62.7951 1370.81 71.0994 Q1370.81 79.4038 1374.82 84.0218 Q1378.83 88.5994 1386.08 88.5994 Q1389.32 88.5994 1392.48 87.7487 Q1395.68 86.8575 1398.84 85.1156 L1398.84 92.0021 Q1395.72 93.4604 1392.36 94.1896 Q1389.04 94.9188 1385.27 94.9188 Q1375.02 94.9188 1368.99 88.4778 Q1362.95 82.0369 1362.95 71.0994 Q1362.95 60 1369.03 53.64 Q1375.15 47.2801 1385.76 47.2801 Q1389.2 47.2801 1392.48 48.0093 Q1395.77 48.6979 1398.84 50.1158 Z" fill="#000000" fill-rule="nonzero" fill-opacity="1" /><path clip-path="url(#clip740)" d="M1419.18 35.492 L1419.18 48.3739 L1434.53 48.3739 L1434.53 54.1667 L1419.18 54.1667 L1419.18 78.7962 Q1419.18 84.3459 1420.68 85.9258 Q1422.22 87.5056 1426.88 87.5056 L1434.53 87.5056 L1434.53 93.744 L1426.88 93.744 Q1418.25 93.744 1414.97 90.5438 Q1411.69 87.3031 1411.69 78.7962 L1411.69 54.1667 L1406.22 54.1667 L1406.22 48.3739 L1411.69 48.3739 L1411.69 35.492 L1419.18 35.492 Z" fill="#000000" fill-rule="nonzero" fill-opacity="1" /><path clip-path="url(#clip740)" d="M1470.63 55.3414 Q1469.37 54.6123 1467.87 54.2882 Q1466.41 53.9236 1464.63 53.9236 Q1458.31 53.9236 1454.91 58.0555 Q1451.55 62.1469 1451.55 69.8437 L1451.55 93.744 L1444.05 93.744 L1444.05 48.3739 L1451.55 48.3739 L1451.55 55.4224 Q1453.9 51.2905 1457.66 49.3056 Q1461.43 47.2801 1466.82 47.2801 Q1467.59 47.2801 1468.52 47.4017 Q1469.45 47.4827 1470.59 47.6852 L1470.63 55.3414 Z" fill="#000000" fill-rule="nonzero" fill-opacity="1" /><path clip-path="url(#clip740)" d="M1477.67 75.839 L1477.67 48.3739 L1485.13 48.3739 L1485.13 75.5554 Q1485.13 81.9964 1487.64 85.2371 Q1490.15 88.4373 1495.17 88.4373 Q1501.21 88.4373 1504.69 84.589 Q1508.22 80.7406 1508.22 74.0971 L1508.22 48.3739 L1515.67 48.3739 L1515.67 93.744 L1508.22 93.744 L1508.22 86.7764 Q1505.5 90.9084 1501.9 92.9338 Q1498.33 94.9188 1493.59 94.9188 Q1485.78 94.9188 1481.73 90.0577 Q1477.67 85.1966 1477.67 75.839 M1496.43 47.2801 L1496.43 47.2801 Z" fill="#000000" fill-rule="nonzero" fill-opacity="1" /><path clip-path="url(#clip740)" d="M1566.35 57.0833 Q1569.14 52.0602 1573.03 49.6702 Q1576.92 47.2801 1582.19 47.2801 Q1589.28 47.2801 1593.13 52.2627 Q1596.97 57.2048 1596.97 66.3599 L1596.97 93.744 L1589.48 93.744 L1589.48 66.6029 Q1589.48 60.081 1587.17 56.9213 Q1584.86 53.7616 1580.12 53.7616 Q1574.33 53.7616 1570.97 57.6099 Q1567.6 61.4583 1567.6 68.1018 L1567.6 93.744 L1560.11 93.744 L1560.11 66.6029 Q1560.11 60.0405 1557.8 56.9213 Q1555.49 53.7616 1550.67 53.7616 Q1544.96 53.7616 1541.6 57.6504 Q1538.24 61.4988 1538.24 68.1018 L1538.24 93.744 L1530.74 93.744 L1530.74 48.3739 L1538.24 48.3739 L1538.24 55.4224 Q1540.79 51.25 1544.35 49.2651 Q1547.92 47.2801 1552.82 47.2801 Q1557.76 47.2801 1561.2 49.7917 Q1564.69 52.3032 1566.35 57.0833 Z" fill="#000000" fill-rule="nonzero" fill-opacity="1" /><path clip-path="url(#clip740)" d="M1683.82 37.9225 L1683.82 46.551 Q1679.69 42.7026 1674.99 40.7987 Q1670.34 38.8948 1665.07 38.8948 Q1654.7 38.8948 1649.19 45.2547 Q1643.68 51.5741 1643.68 63.5648 Q1643.68 75.5149 1649.19 81.8749 Q1654.7 88.1943 1665.07 88.1943 Q1670.34 88.1943 1674.99 86.2903 Q1679.69 84.3864 1683.82 80.5381 L1683.82 89.0855 Q1679.53 92.0021 1674.71 93.4604 Q1669.93 94.9188 1664.58 94.9188 Q1650.85 94.9188 1642.95 86.5334 Q1635.05 78.1075 1635.05 63.5648 Q1635.05 48.9815 1642.95 40.5961 Q1650.85 32.1703 1664.58 32.1703 Q1670.01 32.1703 1674.79 33.6286 Q1679.61 35.0464 1683.82 37.9225 Z" fill="#000000" fill-rule="nonzero" fill-opacity="1" /><path clip-path="url(#clip740)" d="M1713.72 53.5995 Q1707.73 53.5995 1704.24 58.2986 Q1700.76 62.9571 1700.76 71.0994 Q1700.76 79.2418 1704.2 83.9408 Q1707.68 88.5994 1713.72 88.5994 Q1719.68 88.5994 1723.16 83.9003 Q1726.64 79.2013 1726.64 71.0994 Q1726.64 63.0381 1723.16 58.3391 Q1719.68 53.5995 1713.72 53.5995 M1713.72 47.2801 Q1723.44 47.2801 1728.99 53.5995 Q1734.54 59.9189 1734.54 71.0994 Q1734.54 82.2394 1728.99 88.5994 Q1723.44 94.9188 1713.72 94.9188 Q1703.96 94.9188 1698.41 88.5994 Q1692.9 82.2394 1692.9 71.0994 Q1692.9 59.9189 1698.41 53.5995 Q1703.96 47.2801 1713.72 47.2801 Z" fill="#000000" fill-rule="nonzero" fill-opacity="1" /><path clip-path="url(#clip740)" d="M1773.19 55.3414 Q1771.93 54.6123 1770.43 54.2882 Q1768.97 53.9236 1767.19 53.9236 Q1760.87 53.9236 1757.47 58.0555 Q1754.11 62.1469 1754.11 69.8437 L1754.11 93.744 L1746.61 93.744 L1746.61 48.3739 L1754.11 48.3739 L1754.11 55.4224 Q1756.46 51.2905 1760.22 49.3056 Q1763.99 47.2801 1769.38 47.2801 Q1770.15 47.2801 1771.08 47.4017 Q1772.01 47.4827 1773.15 47.6852 L1773.19 55.3414 Z" fill="#000000" fill-rule="nonzero" fill-opacity="1" /><path clip-path="url(#clip740)" d="M1805.84 55.3414 Q1804.58 54.6123 1803.08 54.2882 Q1801.63 53.9236 1799.84 53.9236 Q1793.52 53.9236 1790.12 58.0555 Q1786.76 62.1469 1786.76 69.8437 L1786.76 93.744 L1779.26 93.744 L1779.26 48.3739 L1786.76 48.3739 L1786.76 55.4224 Q1789.11 51.2905 1792.88 49.3056 Q1796.64 47.2801 1802.03 47.2801 Q1802.8 47.2801 1803.73 47.4017 Q1804.66 47.4827 1805.8 47.6852 L1805.84 55.3414 Z" fill="#000000" fill-rule="nonzero" fill-opacity="1" /><path clip-path="url(#clip740)" d="M1850.64 69.1955 L1850.64 72.8413 L1816.37 72.8413 Q1816.86 80.5381 1820.99 84.589 Q1825.16 88.5994 1832.57 88.5994 Q1836.87 88.5994 1840.88 87.5461 Q1844.93 86.4929 1848.9 84.3864 L1848.9 91.435 Q1844.89 93.1364 1840.68 94.0276 Q1836.46 94.9188 1832.13 94.9188 Q1821.27 94.9188 1814.91 88.5994 Q1808.59 82.2799 1808.59 71.5045 Q1808.59 60.3645 1814.59 53.8426 Q1820.62 47.2801 1830.83 47.2801 Q1839.99 47.2801 1845.29 53.1944 Q1850.64 59.0683 1850.64 69.1955 M1843.19 67.008 Q1843.11 60.8912 1839.74 57.2454 Q1836.42 53.5995 1830.91 53.5995 Q1824.67 53.5995 1820.91 57.1238 Q1817.18 60.6481 1816.61 67.0485 L1843.19 67.008 Z" fill="#000000" fill-rule="nonzero" fill-opacity="1" /><path clip-path="url(#clip740)" d="M1895.53 50.1158 L1895.53 57.0833 Q1892.37 55.3414 1889.17 54.4907 Q1886.01 53.5995 1882.76 53.5995 Q1875.51 53.5995 1871.5 58.2176 Q1867.49 62.7951 1867.49 71.0994 Q1867.49 79.4038 1871.5 84.0218 Q1875.51 88.5994 1882.76 88.5994 Q1886.01 88.5994 1889.17 87.7487 Q1892.37 86.8575 1895.53 85.1156 L1895.53 92.0021 Q1892.41 93.4604 1889.04 94.1896 Q1885.72 94.9188 1881.95 94.9188 Q1871.71 94.9188 1865.67 88.4778 Q1859.63 82.0369 1859.63 71.0994 Q1859.63 60 1865.71 53.64 Q1871.83 47.2801 1882.44 47.2801 Q1885.88 47.2801 1889.17 48.0093 Q1892.45 48.6979 1895.53 50.1158 Z" fill="#000000" fill-rule="nonzero" fill-opacity="1" /><path clip-path="url(#clip740)" d="M1915.86 35.492 L1915.86 48.3739 L1931.21 48.3739 L1931.21 54.1667 L1915.86 54.1667 L1915.86 78.7962 Q1915.86 84.3459 1917.36 85.9258 Q1918.9 87.5056 1923.56 87.5056 L1931.21 87.5056 L1931.21 93.744 L1923.56 93.744 Q1914.93 93.744 1911.65 90.5438 Q1908.37 87.3031 1908.37 78.7962 L1908.37 54.1667 L1902.9 54.1667 L1902.9 48.3739 L1908.37 48.3739 L1908.37 35.492 L1915.86 35.492 Z" fill="#000000" fill-rule="nonzero" fill-opacity="1" /><path clip-path="url(#clip740)" d="M1979.82 69.1955 L1979.82 72.8413 L1945.55 72.8413 Q1946.04 80.5381 1950.17 84.589 Q1954.34 88.5994 1961.76 88.5994 Q1966.05 88.5994 1970.06 87.5461 Q1974.11 86.4929 1978.08 84.3864 L1978.08 91.435 Q1974.07 93.1364 1969.86 94.0276 Q1965.65 94.9188 1961.31 94.9188 Q1950.46 94.9188 1944.1 88.5994 Q1937.78 82.2799 1937.78 71.5045 Q1937.78 60.3645 1943.77 53.8426 Q1949.81 47.2801 1960.02 47.2801 Q1969.17 47.2801 1974.48 53.1944 Q1979.82 59.0683 1979.82 69.1955 M1972.37 67.008 Q1972.29 60.8912 1968.93 57.2454 Q1965.61 53.5995 1960.1 53.5995 Q1953.86 53.5995 1950.09 57.1238 Q1946.36 60.6481 1945.8 67.0485 L1972.37 67.008 Z" fill="#000000" fill-rule="nonzero" fill-opacity="1" /><path clip-path="url(#clip740)" d="M2021.91 55.2604 L2021.91 30.7119 L2029.37 30.7119 L2029.37 93.744 L2021.91 93.744 L2021.91 86.9385 Q2019.56 90.9894 2015.96 92.9743 Q2012.39 94.9188 2007.37 94.9188 Q1999.15 94.9188 1993.96 88.3563 Q1988.82 81.7938 1988.82 71.0994 Q1988.82 60.4051 1993.96 53.8426 Q1999.15 47.2801 2007.37 47.2801 Q2012.39 47.2801 2015.96 49.2651 Q2019.56 51.2095 2021.91 55.2604 M1996.51 71.0994 Q1996.51 79.3228 1999.88 84.0218 Q2003.28 88.6804 2009.19 88.6804 Q2015.11 88.6804 2018.51 84.0218 Q2021.91 79.3228 2021.91 71.0994 Q2021.91 62.8761 2018.51 58.2176 Q2015.11 53.5185 2009.19 53.5185 Q2003.28 53.5185 1999.88 58.2176 Q1996.51 62.8761 1996.51 71.0994 Z" fill="#000000" fill-rule="nonzero" fill-opacity="1" /><path clip-path="url(#clip740)" d="M1171.2 139.094 L1178.66 139.094 L1187.97 174.499 L1197.25 139.094 L1206.04 139.094 L1215.36 174.499 L1224.63 139.094 L1232.09 139.094 L1220.22 184.464 L1211.43 184.464 L1201.67 147.277 L1191.86 184.464 L1183.07 184.464 L1171.2 139.094 Z" fill="#000000" fill-rule="nonzero" fill-opacity="1" /><path clip-path="url(#clip740)" d="M1243.39 139.094 L1250.84 139.094 L1250.84 184.464 L1243.39 184.464 L1243.39 139.094 M1243.39 121.432 L1250.84 121.432 L1250.84 130.871 L1243.39 130.871 L1243.39 121.432 Z" fill="#000000" fill-rule="nonzero" fill-opacity="1" /><path clip-path="url(#clip740)" d="M1273.81 126.212 L1273.81 139.094 L1289.17 139.094 L1289.17 144.887 L1273.81 144.887 L1273.81 169.516 Q1273.81 175.066 1275.31 176.646 Q1276.85 178.226 1281.51 178.226 L1289.17 178.226 L1289.17 184.464 L1281.51 184.464 Q1272.88 184.464 1269.6 181.264 Q1266.32 178.023 1266.32 169.516 L1266.32 144.887 L1260.85 144.887 L1260.85 139.094 L1266.32 139.094 L1266.32 126.212 L1273.81 126.212 Z" fill="#000000" fill-rule="nonzero" fill-opacity="1" /><path clip-path="url(#clip740)" d="M1336.68 157.08 L1336.68 184.464 L1329.23 184.464 L1329.23 157.323 Q1329.23 150.882 1326.72 147.682 Q1324.21 144.482 1319.18 144.482 Q1313.15 144.482 1309.66 148.33 Q1306.18 152.178 1306.18 158.822 L1306.18 184.464 L1298.69 184.464 L1298.69 121.432 L1306.18 121.432 L1306.18 146.142 Q1308.85 142.051 1312.46 140.026 Q1316.1 138 1320.84 138 Q1328.66 138 1332.67 142.861 Q1336.68 147.682 1336.68 157.08 Z" fill="#000000" fill-rule="nonzero" fill-opacity="1" /><path clip-path="url(#clip740)" d="M1395.5 145.008 Q1389.34 145.008 1386.02 149.464 Q1382.54 154.123 1382.54 161.819 Q1382.54 169.962 1385.98 174.661 Q1389.47 179.319 1395.5 179.319 Q1401.46 179.319 1404.94 174.62 Q1408.42 169.921 1408.42 161.819 Q1408.42 154.406 1404.94 149.464 Q1401.74 145.008 1395.5 145.008 M1395.5 139.094 L1420.25 139.094 L1420.25 146.548 L1411.91 146.548 Q1416.32 152.867 1416.32 161.819 Q1416.32 172.959 1410.77 179.279 Q1405.22 185.639 1395.5 185.639 Q1385.74 185.639 1380.23 179.279 Q1374.68 172.959 1374.68 161.819 Q1374.68 150.598 1380.23 144.32 Q1384.81 139.094 1395.5 139.094 Z" fill="#000000" fill-rule="nonzero" fill-opacity="1" /><path clip-path="url(#clip740)" d="M1449.05 155.743 Q1443.22 155.743 1439.86 158.862 Q1436.54 161.981 1436.54 167.45 Q1436.54 172.919 1439.86 176.038 Q1443.22 179.157 1449.05 179.157 Q1454.89 179.157 1458.25 176.038 Q1461.61 172.878 1461.61 167.45 Q1461.61 161.981 1458.25 158.862 Q1454.93 155.743 1449.05 155.743 M1440.87 152.259 Q1435.61 150.963 1432.65 147.358 Q1429.73 143.752 1429.73 138.567 Q1429.73 131.316 1434.88 127.103 Q1440.06 122.89 1449.05 122.89 Q1458.09 122.89 1463.23 127.103 Q1468.38 131.316 1468.38 138.567 Q1468.38 143.752 1465.42 147.358 Q1462.5 150.963 1457.28 152.259 Q1463.19 153.637 1466.47 157.647 Q1469.8 161.657 1469.8 167.45 Q1469.8 176.241 1464.41 180.94 Q1459.06 185.639 1449.05 185.639 Q1439.05 185.639 1433.66 180.94 Q1428.31 176.241 1428.31 167.45 Q1428.31 161.657 1431.64 157.647 Q1434.96 153.637 1440.87 152.259 M1437.87 139.337 Q1437.87 144.036 1440.79 146.669 Q1443.75 149.302 1449.05 149.302 Q1454.32 149.302 1457.28 146.669 Q1460.28 144.036 1460.28 139.337 Q1460.28 134.638 1457.28 132.005 Q1454.32 129.372 1449.05 129.372 Q1443.75 129.372 1440.79 132.005 Q1437.87 134.638 1437.87 139.337 Z" fill="#000000" fill-rule="nonzero" fill-opacity="1" /><polyline clip-path="url(#clip742)" style="stroke:#009af9; stroke-linecap:round; stroke-linejoin:round; stroke-width:4; stroke-opacity:1; fill:none" points="317.662,605.934 319.64,604.906 321.618,603.878 323.595,602.85 325.573,601.822 327.551,600.794 329.529,599.767 331.507,598.739 333.484,597.711 335.462,596.683 337.44,595.655 339.418,594.627 341.396,593.599 343.373,592.572 345.351,591.544 347.329,590.516 349.307,589.488 351.285,588.46 353.262,587.432 355.24,586.404 357.218,585.377 359.196,584.349 361.174,583.321 363.151,582.293 365.129,581.265 367.107,580.237 369.085,579.21 371.063,578.182 373.04,577.154 375.018,576.126 376.996,575.098 378.974,574.071 380.952,573.043 382.929,572.015 384.907,570.987 386.885,569.959 388.863,568.932 390.841,567.904 392.818,566.876 394.796,565.848 396.774,564.82 398.752,563.793 400.73,562.765 402.707,561.737 404.685,560.709 406.663,559.682 408.641,558.654 410.619,557.626 412.596,556.598 414.574,555.571 416.552,554.543 418.53,553.515 420.507,552.488 422.485,551.46 424.463,550.432 426.441,549.404 428.419,548.377 430.396,547.349 432.374,546.321 434.352,545.294 436.33,544.266 438.308,543.238 440.285,542.211 442.263,541.183 444.241,540.156 446.219,539.128 448.197,538.1 450.174,537.073 452.152,536.045 454.13,535.018 456.108,533.99 458.086,532.962 460.063,531.935 462.041,530.907 464.019,529.88 465.997,528.852 467.975,527.825 469.952,526.797 471.93,525.77 473.908,524.742 475.886,523.715 477.864,522.687 479.841,521.66 481.819,520.633 483.797,519.605 485.775,518.578 487.753,517.55 489.73,516.523 491.708,515.496 493.686,514.468 495.664,513.441 497.642,512.414 499.619,511.386 501.597,510.359 503.575,509.332 505.553,508.305 507.531,507.277 509.508,506.25 511.486,505.223 513.464,504.196 515.442,503.169 517.42,502.142 519.397,501.115 521.375,500.088 523.353,499.061 525.331,498.034 527.309,497.007 529.286,495.98 531.264,494.953 533.242,493.926 535.22,492.899 537.198,491.872 539.175,490.845 541.153,489.819 543.131,488.792 545.109,487.765 547.087,486.738 549.064,485.712 551.042,484.685 553.02,483.659 554.998,482.632 556.975,481.606 558.953,480.579 560.931,479.553 562.909,478.526 564.887,477.5 566.864,476.474 568.842,475.447 570.82,474.421 572.798,473.395 574.776,472.369 576.753,471.343 578.731,470.317 580.709,469.291 582.687,468.265 584.665,467.239 586.642,466.213 588.62,465.188 590.598,464.162 592.576,463.136 594.554,462.111 596.531,461.085 598.509,460.06 600.487,459.034 602.465,458.009 604.443,456.984 606.42,455.959 608.398,454.934 610.376,453.909 612.354,452.884 614.332,451.859 616.309,450.834 618.287,449.809 620.265,448.785 622.243,447.76 624.221,446.736 626.198,445.712 628.176,444.687 630.154,443.663 632.132,442.639 634.11,441.615 636.087,440.592 638.065,439.568 640.043,438.544 642.021,437.521 643.999,436.497 645.976,435.474 647.954,434.451 649.932,433.428 651.91,432.405 653.888,431.383 655.865,430.36 657.843,429.338 659.821,428.315 661.799,427.293 663.777,426.271 665.754,425.249 667.732,424.228 669.71,423.206 671.688,422.185 673.666,421.164 675.643,420.143 677.621,419.122 679.599,418.101 681.577,417.081 683.555,416.061 685.532,415.041 687.51,414.021 689.488,413.001 691.466,411.982 693.443,410.963 695.421,409.944 697.399,408.925 699.377,407.906 701.355,406.888 703.332,405.87 705.31,404.852 707.288,403.835 709.266,402.818 711.244,401.801 713.221,400.784 715.199,399.768 717.177,398.752 719.155,397.736 721.133,396.72 723.11,395.705 725.088,394.69 727.066,393.676 729.044,392.662 731.022,391.648 732.999,390.635 734.977,389.621 736.955,388.609 738.933,387.596 740.911,386.584 742.888,385.573 744.866,384.562 746.844,383.551 748.822,382.541 750.8,381.531 752.777,380.522 754.755,379.513 756.733,378.504 758.711,377.496 760.689,376.489 762.666,375.482 764.644,374.475 766.622,373.469 768.6,372.464 770.578,371.459 772.555,370.455 774.533,369.451 776.511,368.448 778.489,367.445 780.467,366.443 782.444,365.442 784.422,364.441 786.4,363.441 788.378,362.442 790.356,361.443 792.333,360.445 794.311,359.448 796.289,358.452 798.267,357.456 800.245,356.461 802.222,355.467 804.2,354.473 806.178,353.481 808.156,352.489 810.134,351.498 812.111,350.508 814.089,349.519 816.067,348.53 818.045,347.543 820.023,346.557 822,345.571 823.978,344.587 825.956,343.603 827.934,342.621 829.911,341.639 831.889,340.659 833.867,339.679 835.845,338.701 837.823,337.724 839.8,336.748 841.778,335.773 843.756,334.8 845.734,333.827 847.712,332.856 849.689,331.886 851.667,330.918 853.645,329.951 855.623,328.985 857.601,328.02 859.578,327.057 861.556,326.095 863.534,325.135 865.512,324.176 867.49,323.219 869.467,322.263 871.445,321.308 873.423,320.356 875.401,319.405 877.379,318.455 879.356,317.507 881.334,316.561 883.312,315.617 885.29,314.674 887.268,313.733 889.245,312.794 891.223,311.857 893.201,310.922 895.179,309.989 897.157,309.057 899.134,308.128 901.112,307.2 903.09,306.275 905.068,305.351 907.046,304.43 909.023,303.511 911.001,302.594 912.979,301.68 914.957,300.767 916.935,299.857 918.912,298.949 920.89,298.044 922.868,297.141 924.846,296.24 926.824,295.342 928.801,294.447 930.779,293.554 932.757,292.663 934.735,291.776 936.713,290.89 938.69,290.008 940.668,289.128 942.646,288.252 944.624,287.378 946.602,286.506 948.579,285.638 950.557,284.773 952.535,283.911 954.513,283.052 956.491,282.195 958.468,281.342 960.446,280.493 962.424,279.646 964.402,278.803 966.379,277.963 968.357,277.126 970.335,276.293 972.313,275.463 974.291,274.637 976.268,273.814 978.246,272.995 980.224,272.179 982.202,271.367 984.18,270.559 986.157,269.755 988.135,268.954 990.113,268.158 992.091,267.365 994.069,266.576 996.046,265.791 998.024,265.011 1000,264.234 1001.98,263.462 1003.96,262.694 1005.94,261.93 1007.91,261.17 1009.89,260.415 1011.87,259.664 1013.85,258.918 1015.82,258.176 1017.8,257.439 1019.78,256.706 1021.76,255.978 1023.74,255.255 1025.71,254.537 1027.69,253.823 1029.67,253.114 1031.65,252.411 1033.62,251.712 1035.6,251.019 1037.58,250.33 1039.56,249.647 1041.54,248.969 1043.51,248.296 1045.49,247.629 1047.47,246.967 1049.45,246.311 1051.42,245.66 1053.4,245.015 1055.38,244.375 1057.36,243.742 1059.34,243.114 1061.31,242.491 1063.29,241.875 1065.27,241.265 1067.25,240.661 1069.22,240.063 1071.2,239.471 1073.18,238.885 1075.16,238.306 1077.14,237.733 1079.11,237.166 1081.09,236.607 1083.07,236.053 1085.05,235.507 1087.03,234.967 1089,234.434 1090.98,233.908 1092.96,233.389 1094.94,232.877 1096.91,232.372 1098.89,231.874 1100.87,231.384 1102.85,230.901 1104.83,230.426 1106.8,229.958 1108.78,229.498 1110.76,229.045 1112.74,228.601 1114.71,228.164 1116.69,227.736 1118.67,227.316 1120.65,226.903 1122.63,226.5 1124.6,226.105 1126.58,225.718 1128.56,225.34 1130.54,224.971 1132.51,224.611 1134.49,224.26 1136.47,223.918 1138.45,223.585 1140.43,223.262 1142.4,222.948 1144.38,222.644 1146.36,222.35 1148.34,222.066 1150.31,221.792 1152.29,221.528 1154.27,221.275 1156.25,221.032 1158.23,220.8 1160.2,220.579 1162.18,220.369 1164.16,220.17 1166.14,219.983 1168.11,219.808 1170.09,219.644 1172.07,219.492 1174.05,219.353 1176.03,219.226 1178,219.111 1179.98,219.01 1181.96,218.921 1183.94,218.846 1185.91,218.784 1187.89,218.736 1189.87,218.702 1191.85,218.682 1193.83,218.677 1195.8,218.686 1197.78,218.711 1199.76,218.75 1201.74,218.806 1203.72,218.876 1205.69,218.963 1207.67,219.067 1209.65,219.187 1211.63,219.323 1213.6,219.477 1215.58,219.648 1217.56,219.837 1219.54,220.044 1221.52,220.269 1223.49,220.513 1225.47,220.775 1227.45,221.056 1229.43,221.357 1231.4,221.677 1233.38,222.017 1235.36,222.377 1237.34,222.757 1239.32,223.158 1241.29,223.579 1243.27,224.021 1245.25,224.484 1247.23,224.968 1249.2,225.474 1251.18,226.001 1253.16,226.549 1255.14,227.118 1257.12,227.71 1259.09,228.322 1261.07,228.956 1263.05,229.612 1265.03,230.289 1267,230.987 1268.98,231.706 1270.96,232.446 1272.94,233.207 1274.92,233.988 1276.89,234.789 1278.87,235.61 1280.85,236.45 1282.83,237.308 1284.8,238.185 1286.78,239.08 1288.76,239.993 1290.74,240.922 1292.72,241.867 1294.69,242.827 1296.67,243.802 1298.65,244.791 1300.63,245.793 1302.6,246.807 1304.58,247.833 1306.56,248.869 1308.54,249.915 1310.52,250.969 1312.49,252.032 1314.47,253.101 1316.45,254.175 1318.43,255.255 1320.41,256.338 1322.38,257.424 1324.36,258.511 1326.34,259.599 1328.32,260.686 1330.29,261.771 1332.27,262.854 1334.25,263.932 1336.23,265.006 1338.21,266.073 1340.18,267.133 1342.16,268.186 1344.14,269.228 1346.12,270.261 1348.09,271.282 1350.07,272.291 1352.05,273.288 1354.03,274.27 1356.01,275.237 1357.98,276.19 1359.96,277.127 1361.94,278.047 1363.92,278.951 1365.89,279.838 1367.87,280.709 1369.85,281.563 1371.83,282.401 1373.81,283.223 1375.78,284.031 1377.76,284.826 1379.74,285.609 1381.72,286.381 1383.69,287.145 1385.67,287.902 1387.65,288.656 1389.63,289.41 1391.61,290.166 1393.58,290.929 1395.56,291.701 1397.54,292.488 1399.52,293.293 1401.49,294.121 1403.47,294.978 1405.45,295.867 1407.43,296.794 1409.41,297.764 1411.38,298.782 1413.36,299.852 1415.34,300.981 1417.32,302.171 1419.3,303.428 1421.27,304.754 1423.25,306.153 1425.23,307.628 1427.21,309.18 1429.18,310.81 1431.16,312.518 1433.14,314.303 1435.12,316.162 1437.1,318.091 1439.07,320.087 1441.05,322.142 1443.03,324.249 1445.01,326.399 1446.98,328.582 1448.96,330.785 1450.94,332.997 1452.92,335.203 1454.9,337.39 1456.87,339.543 1458.85,341.647 1460.83,343.689 1462.81,345.655 1464.78,347.534 1466.76,349.316 1468.74,350.994 1470.72,352.564 1472.7,354.024 1474.67,355.377 1476.65,356.629 1478.63,357.789 1480.61,358.871 1482.58,359.891 1484.56,360.869 1486.54,361.826 1488.52,362.785 1490.5,363.771 1492.47,364.807 1494.45,365.919 1496.43,367.127 1498.41,368.451 1500.38,369.909 1502.36,371.511 1504.34,373.267 1506.32,375.179 1508.3,377.244 1510.27,379.452 1512.25,381.788 1514.23,384.231 1516.21,386.753 1518.18,389.325 1520.16,391.909 1522.14,394.47 1524.12,396.969 1526.1,399.372 1528.07,401.649 1530.05,403.775 1532.03,405.734 1534.01,407.522 1535.99,409.145 1537.96,410.621 1539.94,411.977 1541.92,413.25 1543.9,414.484 1545.87,415.724 1547.85,417.019 1549.83,418.412 1551.81,419.942 1553.79,421.636 1555.76,423.511 1557.74,425.573 1559.72,427.81 1561.7,430.198 1563.67,432.702 1565.65,435.274 1567.63,437.86 1569.61,440.408 1571.59,442.864 1573.56,445.188 1575.54,447.351 1577.52,449.343 1579.5,451.174 1581.47,452.87 1583.45,454.477 1585.43,456.047 1587.41,457.639 1589.39,459.309 1591.36,461.101 1593.34,463.046 1595.32,465.153 1597.3,467.413 1599.27,469.795 1601.25,472.254 1603.23,474.733 1605.21,477.176 1607.19,479.534 1609.16,481.773 1611.14,483.88 1613.12,485.868 1615.1,487.766 1617.07,489.624 1619.05,491.495 1621.03,493.427 1623.01,495.459 1624.99,497.605 1626.96,499.862 1628.94,502.202 1630.92,504.584 1632.9,506.96 1634.87,509.287 1636.85,511.539 1638.83,513.707 1640.81,515.805 1642.79,517.866 1644.76,519.927 1646.74,522.029 1648.72,524.194 1650.7,526.432 1652.68,528.73 1654.65,531.062 1656.63,533.394 1658.61,535.698 1660.59,537.956 1662.56,540.171 1664.54,542.359 1666.52,544.544 1668.5,546.751 1670.48,548.996 1672.45,551.282 1674.43,553.596 1676.41,555.92 1678.39,558.234 1680.36,560.528 1682.34,562.8 1684.32,565.061 1686.3,567.327 1688.28,569.61 1690.25,571.917 1692.23,574.242 1694.21,576.575 1696.19,578.906 1698.16,581.227 1700.14,583.54 1702.12,585.851 1704.1,588.171 1706.08,590.503 1708.05,592.848 1710.03,595.2 1712.01,597.552 1713.99,599.9 1715.96,602.247 1717.94,604.596 1719.92,606.952 1721.9,609.316 1723.88,611.688 1725.85,614.062 1727.83,616.436 1729.81,618.809 1731.79,621.186 1733.76,623.568 1735.74,625.957 1737.72,628.35 1739.7,630.746 1741.68,633.141 1743.65,635.539 1745.63,637.941 1747.61,640.349 1749.59,642.761 1751.56,645.176 1753.54,647.591 1755.52,650.009 1757.5,652.431 1759.48,654.859 1761.45,657.29 1763.43,659.722 1765.41,662.156 1767.39,664.594 1769.37,667.036 1771.34,669.483 1773.32,671.931 1775.3,674.38 1777.28,676.833 1779.25,679.291 1781.23,681.752 1783.21,684.215 1785.19,686.679 1787.17,689.148 1789.14,691.621 1791.12,694.096 1793.1,696.572 1795.08,699.052 1797.05,701.537 1799.03,704.023 1801.01,706.512 1802.99,709.003 1804.97,711.498 1806.94,713.996 1808.92,716.496 1810.9,718.998 1812.88,721.505 1814.85,724.014 1816.83,726.524 1818.81,729.038 1820.79,731.555 1822.77,734.074 1824.74,736.596 1826.72,739.121 1828.7,741.649 1830.68,744.178 1832.65,746.711 1834.63,749.247 1836.61,751.784 1838.59,754.324 1840.57,756.868 1842.54,759.413 1844.52,761.961 1846.5,764.512 1848.48,767.064 1850.45,769.62 1852.43,772.179 1854.41,774.739 1856.39,777.302 1858.37,779.868 1860.34,782.435 1862.32,785.006 1864.3,787.579 1866.28,790.154 1868.25,792.732 1870.23,795.311 1872.21,797.894 1874.19,800.478 1876.17,803.065 1878.14,805.655 1880.12,808.246 1882.1,810.84 1884.08,813.437 1886.06,816.035 1888.03,818.636 1890.01,821.239 1891.99,823.844 1893.97,826.452 1895.94,829.062 1897.92,831.674 1899.9,834.288 1901.88,836.904 1903.86,839.523 1905.83,842.143 1907.81,844.766 1909.79,847.391 1911.77,850.018 1913.74,852.647 1915.72,855.279 1917.7,857.912 1919.68,860.547 1921.66,863.185 1923.63,865.824 1925.61,868.466 1927.59,871.11 1929.57,873.755 1931.54,876.403 1933.52,879.053 1935.5,881.704 1937.48,884.358 1939.46,887.013 1941.43,889.671 1943.41,892.33 1945.39,894.991 1947.37,897.655 1949.34,900.32 1951.32,902.987 1953.3,905.656 1955.28,908.326 1957.26,910.999 1959.23,913.673 1961.21,916.35 1963.19,919.028 1965.17,921.708 1967.14,924.389 1969.12,927.073 1971.1,929.758 1973.08,932.445 1975.06,935.133 1977.03,937.824 1979.01,940.516 1980.99,943.21 1982.97,945.905 1984.94,948.602 1986.92,951.301 1988.9,954.002 1990.88,956.704 1992.86,959.408 1994.83,962.113 1996.81,964.82 1998.79,967.528 2000.77,970.239 2002.75,972.95 2004.72,975.664 2006.7,978.378 2008.68,981.095 2010.66,983.813 2012.63,986.532 2014.61,989.253 2016.59,991.975 2018.57,994.699 2020.55,997.424 2022.52,1000.15 2024.5,1002.88 2026.48,1005.61 2028.46,1008.34 2030.43,1011.07 2032.41,1013.8 2034.39,1016.54 2036.37,1019.28 2038.35,1022.01 2040.32,1024.75 2042.3,1027.49 2044.28,1030.23 2046.26,1032.98 2048.23,1035.72 2050.21,1038.47 2052.19,1041.21 2054.17,1043.96 2056.15,1046.71 2058.12,1049.46 2060.1,1052.21 2062.08,1054.96 2064.06,1057.72 2066.03,1060.47 2068.01,1063.23 2069.99,1065.98 2071.97,1068.74 2073.95,1071.5 2075.92,1074.26 2077.9,1077.02 2079.88,1079.78 2081.86,1082.54 2083.83,1085.31 2085.81,1088.07 2087.79,1090.84 2089.77,1093.6 2091.75,1096.37 2093.72,1099.14 2095.7,1101.91 2097.68,1104.68 2099.66,1107.45 2101.64,1110.22 2103.61,1112.99 2105.59,1115.76 2107.57,1118.53 2109.55,1121.31 2111.52,1124.08 2113.5,1126.86 2115.48,1129.63 2117.46,1132.41 2119.44,1135.19 2121.41,1137.96 2123.39,1140.74 2125.37,1143.52 2127.35,1146.3 2129.32,1149.08 2131.3,1151.86 2133.28,1154.63 2135.26,1157.41 2137.24,1160.19 2139.21,1162.97 2141.19,1165.76 2143.17,1168.54 2145.15,1171.32 2147.12,1174.1 2149.1,1176.88 2151.08,1179.66 2153.06,1182.44 2155.04,1185.22 2157.01,1188 2158.99,1190.78 2160.97,1193.56 2162.95,1196.34 2164.92,1199.12 2166.9,1201.9 2168.88,1204.68 2170.86,1207.46 2172.84,1210.24 2174.81,1213.02 2176.79,1215.8 2178.77,1218.57 2180.75,1221.35 2182.72,1224.13 2184.7,1226.9 2186.68,1229.68 2188.66,1232.45 2190.64,1235.22 2192.61,1237.99 2194.59,1240.76 2196.57,1243.53 2198.55,1246.3 2200.52,1249.07 2202.5,1251.83 2204.48,1254.6 2206.46,1257.36 2208.44,1260.12 2210.41,1262.88 2212.39,1265.64 2214.37,1268.4 2216.35,1271.15 2218.33,1273.91 2220.3,1276.66 2222.28,1279.41 2224.26,1282.16 2226.24,1284.9 2228.21,1287.64 2230.19,1290.38 2232.17,1293.12 2234.15,1295.86 2236.13,1298.59 2238.1,1301.32 2240.08,1304.05 2242.06,1306.77 2244.04,1309.49 2246.01,1312.21 2247.99,1314.92 2249.97,1317.64 2251.95,1320.34 2253.93,1323.05 2255.9,1325.75 2257.88,1328.45 2259.86,1331.14 2261.84,1333.83 2263.81,1336.51 2265.79,1339.19 2267.77,1341.87 2269.75,1344.54 2271.73,1347.2 2273.7,1349.86 2275.68,1352.52 2277.66,1355.17 2279.64,1357.82 2281.61,1360.46 2283.59,1363.09 2285.57,1365.72 2287.55,1368.34 2289.53,1370.96 2291.5,1373.57 2293.48,1376.17 "/>
<polyline clip-path="url(#clip742)" style="stroke:#e26f46; stroke-linecap:round; stroke-linejoin:round; stroke-width:4; stroke-opacity:1; fill:none" points="474.78,542.224 477.64,540.738 480.5,539.253 483.361,537.767 486.221,536.281 489.081,534.796 491.942,533.31 494.801,531.825 497.662,530.34 500.523,528.854 503.382,527.369 506.243,525.883 509.103,524.398 511.963,522.913 514.824,521.428 517.684,519.943 520.545,518.458 523.405,516.973 526.265,515.488 529.125,514.003 531.985,512.518 534.846,511.034 537.706,509.549 540.566,508.065 543.426,506.58 546.287,505.096 549.147,503.612 552.008,502.128 554.868,500.644 557.728,499.16 560.588,497.676 563.449,496.192 566.309,494.708 569.169,493.225 572.03,491.742 574.89,490.258 577.75,488.775 580.611,487.292 583.471,485.809 586.331,484.327 589.191,482.845 592.052,481.362 594.912,479.88 597.772,478.397 600.632,476.916 603.493,475.434 606.353,473.953 609.213,472.471 612.074,470.991 614.934,469.51 617.794,468.029 620.654,466.549 623.515,465.069 626.375,463.588 629.235,462.109 632.096,460.63 634.956,459.151 637.816,457.672 640.676,456.194 643.537,454.715 646.397,453.237 649.257,451.76 652.118,450.283 654.978,448.806 657.838,447.33 660.699,445.854 663.559,444.378 666.419,442.903 669.279,441.428 672.14,439.954 675,438.48 677.86,437.007 680.721,435.534 683.581,434.061 686.441,432.589 689.301,431.118 692.162,429.647 695.022,428.177 697.882,426.708 700.743,425.239 703.603,423.77 706.463,422.303 709.324,420.836 712.184,419.369 715.044,417.904 717.904,416.439 720.765,414.975 723.625,413.512 726.485,412.049 729.346,410.588 732.206,409.127 735.066,407.667 737.926,406.208 740.787,404.75 743.647,403.294 746.507,401.838 749.368,400.383 752.228,398.929 755.088,397.476 757.948,396.024 760.809,394.574 763.669,393.124 766.529,391.676 769.39,390.23 772.25,388.784 775.11,387.34 777.971,385.897 780.831,384.455 783.691,383.015 786.551,381.577 789.412,380.14 792.272,378.704 795.132,377.271 797.993,375.838 800.853,374.408 803.713,372.979 806.574,371.552 809.433,370.127 812.295,368.704 815.154,367.282 818.015,365.863 820.875,364.446 823.735,363.03 826.595,361.617 829.456,360.206 832.316,358.798 835.176,357.391 838.037,355.987 840.897,354.586 843.757,353.187 846.617,351.79 849.478,350.396 852.338,349.005 855.198,347.617 858.059,346.232 860.919,344.849 863.779,343.469 866.64,342.093 869.499,340.719 872.36,339.349 875.22,337.982 878.08,336.619 880.941,335.258 883.801,333.902 886.662,332.549 889.522,331.2 892.382,329.854 895.242,328.512 898.103,327.175 900.963,325.841 903.823,324.512 906.684,323.187 909.544,321.866 912.404,320.549 915.264,319.237 918.124,317.93 920.985,316.628 923.846,315.33 926.706,314.037 929.566,312.749 932.426,311.467 935.286,310.19 938.147,308.917 941.007,307.651 943.868,306.39 946.727,305.135 949.588,303.886 952.448,302.642 955.309,301.405 958.169,300.173 961.029,298.948 963.889,297.73 966.75,296.518 969.61,295.312 972.47,294.113 975.331,292.922 978.191,291.737 981.051,290.559 983.911,289.388 986.772,288.225 989.632,287.07 992.492,285.922 995.353,284.782 998.213,283.65 1001.07,282.526 1003.93,281.411 1006.79,280.303 1009.65,279.205 1012.51,278.115 1015.37,277.034 1018.24,275.962 1021.1,274.899 1023.96,273.845 1026.82,272.802 1029.68,271.767 1032.54,270.743 1035.4,269.729 1038.26,268.724 1041.12,267.73 1043.98,266.746 1046.84,265.773 1049.7,264.811 1052.56,263.861 1055.42,262.922 1058.28,261.995 1061.14,261.081 1064,260.177 1066.86,259.287 1069.72,258.409 1072.58,257.544 1075.44,256.691 1078.3,255.853 1081.16,255.028 1084.02,254.216 1086.88,253.42 1089.74,252.637 1092.6,251.869 1095.46,251.116 1098.32,250.378 1101.18,249.655 1104.04,248.947 1106.9,248.256 1109.76,247.581 1112.62,246.923 1115.48,246.282 1118.35,245.659 1121.21,245.053 1124.07,244.465 1126.93,243.896 1129.79,243.346 1132.65,242.816 1135.51,242.305 1138.37,241.814 1141.23,241.345 1144.09,240.896 1146.95,240.469 1149.81,240.064 1152.67,239.682 1155.53,239.322 1158.39,238.987 1161.25,238.675 1164.11,238.388 1166.97,238.127 1169.83,237.891 1172.69,237.682 1175.55,237.5 1178.41,237.346 1181.27,237.221 1184.13,237.124 1186.99,237.057 1189.85,237.021 1192.71,237.016 1195.57,237.042 1198.43,237.101 1201.29,237.194 1204.15,237.321 1207.01,237.483 1209.87,237.68 1212.73,237.914 1215.6,238.185 1218.46,238.494 1221.32,238.841 1224.18,239.228 1227.04,239.656 1229.9,240.124 1232.76,240.634 1235.62,241.187 1238.48,241.783 1241.34,242.422 1244.2,243.106 1247.06,243.835 1249.92,244.609 1252.78,245.429 1255.64,246.295 1258.5,247.207 1261.36,248.166 1264.22,249.171 1267.08,250.223 1269.94,251.322 1272.8,252.466 1275.66,253.655 1278.52,254.889 1281.38,256.167 1284.24,257.488 1287.1,258.85 1289.96,260.252 1292.82,261.691 1295.68,263.166 1298.54,264.675 1301.4,266.214 1304.26,267.782 1307.12,269.373 1309.98,270.987 1312.84,272.618 1315.71,274.262 1318.57,275.912 1321.43,277.566 1324.29,279.218 1327.15,280.864 1330.01,282.501 1332.87,284.126 1335.73,285.734 1338.59,287.322 1341.45,288.881 1344.31,290.404 1347.17,291.883 1350.03,293.309 1352.89,294.68 1355.75,296.001 1358.61,297.273 1361.47,298.502 1364.33,299.691 1367.19,300.844 1370.05,301.966 1372.91,303.06 1375.77,304.132 1378.63,305.186 1381.49,306.23 1384.35,307.27 1387.21,308.316 1390.07,309.383 1392.93,310.488 1395.79,311.647 1398.65,312.876 1401.51,314.191 1404.37,315.61 1407.23,317.148 1410.09,318.819 1412.96,320.639 1415.82,322.613 1418.68,324.744 1421.54,327.031 1424.4,329.47 1427.26,332.055 1430.12,334.777 1432.98,337.62 1435.84,340.569 1438.7,343.603 1441.56,346.697 1444.42,349.823 1447.28,352.944 1450.14,356.022 1453,359.015 1455.86,361.88 1458.72,364.574 1461.58,367.062 1464.44,369.326 1467.3,371.351 1470.16,373.151 1473.02,374.75 1475.88,376.187 1478.74,377.515 1481.6,378.794 1484.46,380.087 1487.32,381.462 1490.18,382.98 1493.04,384.701 1495.9,386.672 1498.76,388.934 1501.62,391.505 1504.48,394.393 1507.34,397.582 1510.2,401.038 1513.07,404.697 1515.93,408.474 1518.79,412.256 1521.65,415.919 1524.51,419.346 1527.37,422.447 1530.23,425.175 1533.09,427.534 1535.95,429.567 1538.81,431.347 1541.67,432.979 1544.53,434.588 1547.39,436.329 1550.25,438.346 1553.11,440.75 1555.97,443.584 1558.83,446.823 1561.69,450.389 1564.55,454.167 1567.41,458.011 1570.27,461.752 1573.13,465.228 1575.99,468.322 1578.85,471.006 1581.71,473.341 1584.57,475.461 1587.43,477.554 1590.29,479.814 1593.15,482.397 1596.01,485.371 1598.87,488.71 1601.73,492.311 1604.59,496.01 1607.45,499.612 1610.32,502.951 1613.18,505.959 1616.04,508.678 1618.9,511.24 1621.76,513.824 1624.62,516.605 1627.48,519.681 1630.34,523.032 1633.2,526.541 1636.06,530.05 1638.92,533.412 1641.78,536.554 1644.64,539.514 1647.5,542.41 1650.36,545.384 1653.22,548.537 1656.08,551.873 1658.94,555.297 1661.8,558.699 1664.66,561.993 1667.52,565.164 1670.38,568.288 1673.24,571.458 1676.1,574.731 1678.96,578.101 1681.82,581.495 1684.68,584.848 1687.54,588.143 1690.4,591.407 1693.26,594.702 1696.12,598.056 1698.98,601.45 1701.84,604.848 1704.7,608.217 1707.57,611.572 1710.43,614.943 1713.29,618.347 1716.15,621.769 1719.01,625.192 1721.87,628.613 1724.73,632.036 1727.59,635.466 1730.45,638.906 1733.31,642.356 1736.17,645.816 1739.03,649.284 1741.89,652.762 1744.75,656.248 1747.61,659.742 1750.47,663.245 1753.33,666.755 1756.19,670.274 1759.05,673.8 1761.91,677.333 1764.77,680.873 1767.63,684.419 1770.49,687.973 1773.35,691.532 1776.21,695.098 1779.07,698.67 1781.93,702.248 1784.79,705.832 1787.65,709.423 1790.51,713.02 1793.37,716.622 1796.23,720.231 1799.09,723.846 1801.95,727.467 1804.81,731.093 1807.68,734.726 1810.54,738.364 1813.4,742.009 1816.26,745.659 1819.12,749.315 1821.98,752.976 1824.84,756.644 1827.7,760.318 1830.56,763.998 1833.42,767.684 1836.28,771.375 1839.14,775.074 1842,778.778 1844.86,782.488 1847.72,786.205 1850.58,789.928 1853.44,793.657 1856.3,797.393 1859.16,801.135 1862.02,804.882 1864.88,808.635 1867.74,812.393 1870.6,816.156 1873.46,819.922 1876.32,823.693 1879.18,827.466 1882.04,831.242 1884.9,835.021 1887.76,838.802 1890.62,842.584 1893.48,846.367 1896.34,850.151 "/>
<path clip-path="url(#clip740)" d="M1746.7 380.37 L2282.94 380.37 L2282.94 224.85 L1746.7 224.85  Z" fill="#ffffff" fill-rule="evenodd" fill-opacity="1"/>
<polyline clip-path="url(#clip740)" style="stroke:#000000; stroke-linecap:round; stroke-linejoin:round; stroke-width:4; stroke-opacity:1; fill:none" points="1746.7,380.37 2282.94,380.37 2282.94,224.85 1746.7,224.85 1746.7,380.37 "/>
<polyline clip-path="url(#clip740)" style="stroke:#009af9; stroke-linecap:round; stroke-linejoin:round; stroke-width:4; stroke-opacity:1; fill:none" points="1769.97,276.69 1909.6,276.69 "/>
<path clip-path="url(#clip740)" d="M1932.87 259.41 L1939.17 259.41 L1954.49 288.322 L1954.49 259.41 L1959.03 259.41 L1959.03 293.97 L1952.73 293.97 L1937.41 265.058 L1937.41 293.97 L1932.87 293.97 L1932.87 259.41 Z" fill="#000000" fill-rule="nonzero" fill-opacity="1" /><path clip-path="url(#clip740)" d="M1978.19 271.031 Q1974.77 271.031 1972.78 273.716 Q1970.79 276.378 1970.79 281.031 Q1970.79 285.683 1972.75 288.368 Q1974.74 291.03 1978.19 291.03 Q1981.6 291.03 1983.59 288.345 Q1985.58 285.66 1985.58 281.031 Q1985.58 276.424 1983.59 273.739 Q1981.6 271.031 1978.19 271.031 M1978.19 267.419 Q1983.75 267.419 1986.92 271.031 Q1990.09 274.642 1990.09 281.031 Q1990.09 287.396 1986.92 291.03 Q1983.75 294.642 1978.19 294.642 Q1972.61 294.642 1969.44 291.03 Q1966.29 287.396 1966.29 281.031 Q1966.29 274.642 1969.44 271.031 Q1972.61 267.419 1978.19 267.419 Z" fill="#000000" fill-rule="nonzero" fill-opacity="1" /><path clip-path="url(#clip740)" d="M2018.7 278.322 L2018.7 293.97 L2014.44 293.97 L2014.44 278.461 Q2014.44 274.781 2013.01 272.952 Q2011.57 271.123 2008.7 271.123 Q2005.25 271.123 2003.26 273.322 Q2001.27 275.521 2001.27 279.318 L2001.27 293.97 L1996.99 293.97 L1996.99 268.044 L2001.27 268.044 L2001.27 272.072 Q2002.8 269.734 2004.86 268.577 Q2006.94 267.419 2009.65 267.419 Q2014.12 267.419 2016.41 270.197 Q2018.7 272.952 2018.7 278.322 Z" fill="#000000" fill-rule="nonzero" fill-opacity="1" /><path clip-path="url(#clip740)" d="M2027.2 257.952 L2031.46 257.952 L2031.46 293.97 L2027.2 293.97 L2027.2 257.952 Z" fill="#000000" fill-rule="nonzero" fill-opacity="1" /><path clip-path="url(#clip740)" d="M2050.41 271.031 Q2046.99 271.031 2045 273.716 Q2043.01 276.378 2043.01 281.031 Q2043.01 285.683 2044.97 288.368 Q2046.97 291.03 2050.41 291.03 Q2053.82 291.03 2055.81 288.345 Q2057.8 285.66 2057.8 281.031 Q2057.8 276.424 2055.81 273.739 Q2053.82 271.031 2050.41 271.031 M2050.41 267.419 Q2055.97 267.419 2059.14 271.031 Q2062.31 274.642 2062.31 281.031 Q2062.31 287.396 2059.14 291.03 Q2055.97 294.642 2050.41 294.642 Q2044.84 294.642 2041.66 291.03 Q2038.52 287.396 2038.52 281.031 Q2038.52 274.642 2041.66 271.031 Q2044.84 267.419 2050.41 267.419 Z" fill="#000000" fill-rule="nonzero" fill-opacity="1" /><path clip-path="url(#clip740)" d="M2088.03 269.04 L2088.03 273.021 Q2086.22 272.026 2084.4 271.54 Q2082.59 271.031 2080.74 271.031 Q2076.6 271.031 2074.3 273.669 Q2072.01 276.285 2072.01 281.031 Q2072.01 285.776 2074.3 288.415 Q2076.6 291.03 2080.74 291.03 Q2082.59 291.03 2084.4 290.544 Q2086.22 290.035 2088.03 289.04 L2088.03 292.975 Q2086.25 293.808 2084.33 294.225 Q2082.43 294.642 2080.28 294.642 Q2074.42 294.642 2070.97 290.961 Q2067.52 287.28 2067.52 281.031 Q2067.52 274.688 2070.99 271.054 Q2074.49 267.419 2080.55 267.419 Q2082.52 267.419 2084.4 267.836 Q2086.27 268.23 2088.03 269.04 Z" fill="#000000" fill-rule="nonzero" fill-opacity="1" /><path clip-path="url(#clip740)" d="M2107.22 280.938 Q2102.06 280.938 2100.07 282.118 Q2098.08 283.299 2098.08 286.146 Q2098.08 288.415 2099.56 289.757 Q2101.06 291.077 2103.63 291.077 Q2107.17 291.077 2109.3 288.577 Q2111.46 286.054 2111.46 281.887 L2111.46 280.938 L2107.22 280.938 M2115.72 279.179 L2115.72 293.97 L2111.46 293.97 L2111.46 290.035 Q2110 292.396 2107.82 293.53 Q2105.65 294.642 2102.5 294.642 Q2098.52 294.642 2096.16 292.419 Q2093.82 290.174 2093.82 286.424 Q2093.82 282.049 2096.73 279.827 Q2099.67 277.605 2105.48 277.605 L2111.46 277.605 L2111.46 277.188 Q2111.46 274.248 2109.51 272.651 Q2107.59 271.031 2104.09 271.031 Q2101.87 271.031 2099.77 271.563 Q2097.66 272.095 2095.72 273.16 L2095.72 269.225 Q2098.05 268.322 2100.25 267.882 Q2102.45 267.419 2104.53 267.419 Q2110.16 267.419 2112.94 270.336 Q2115.72 273.253 2115.72 279.179 Z" fill="#000000" fill-rule="nonzero" fill-opacity="1" /><path clip-path="url(#clip740)" d="M2124.49 257.952 L2128.75 257.952 L2128.75 293.97 L2124.49 293.97 L2124.49 257.952 Z" fill="#000000" fill-rule="nonzero" fill-opacity="1" /><path clip-path="url(#clip740)" d="M2165.85 257.952 L2165.85 261.494 L2161.78 261.494 Q2159.49 261.494 2158.59 262.42 Q2157.71 263.345 2157.71 265.753 L2157.71 268.044 L2164.72 268.044 L2164.72 271.355 L2157.71 271.355 L2157.71 293.97 L2153.42 293.97 L2153.42 271.355 L2149.35 271.355 L2149.35 268.044 L2153.42 268.044 L2153.42 266.239 Q2153.42 261.91 2155.44 259.943 Q2157.45 257.952 2161.83 257.952 L2165.85 257.952 Z" fill="#000000" fill-rule="nonzero" fill-opacity="1" /><path clip-path="url(#clip740)" d="M2169.42 268.044 L2173.68 268.044 L2173.68 293.97 L2169.42 293.97 L2169.42 268.044 M2169.42 257.952 L2173.68 257.952 L2173.68 263.345 L2169.42 263.345 L2169.42 257.952 Z" fill="#000000" fill-rule="nonzero" fill-opacity="1" /><path clip-path="url(#clip740)" d="M2204.14 268.044 L2194.77 280.66 L2204.63 293.97 L2199.6 293.97 L2192.06 283.785 L2184.51 293.97 L2179.49 293.97 L2189.56 280.406 L2180.34 268.044 L2185.37 268.044 L2192.24 277.281 L2199.12 268.044 L2204.14 268.044 Z" fill="#000000" fill-rule="nonzero" fill-opacity="1" /><path clip-path="url(#clip740)" d="M2231.36 279.943 L2231.36 282.026 L2211.78 282.026 Q2212.06 286.424 2214.42 288.739 Q2216.8 291.03 2221.04 291.03 Q2223.49 291.03 2225.78 290.429 Q2228.1 289.827 2230.37 288.623 L2230.37 292.651 Q2228.08 293.623 2225.67 294.132 Q2223.26 294.642 2220.78 294.642 Q2214.58 294.642 2210.95 291.03 Q2207.34 287.419 2207.34 281.262 Q2207.34 274.896 2210.76 271.169 Q2214.21 267.419 2220.04 267.419 Q2225.27 267.419 2228.31 270.799 Q2231.36 274.156 2231.36 279.943 M2227.1 278.693 Q2227.06 275.197 2225.14 273.114 Q2223.24 271.031 2220.09 271.031 Q2216.52 271.031 2214.37 273.044 Q2212.24 275.058 2211.92 278.716 L2227.1 278.693 Z" fill="#000000" fill-rule="nonzero" fill-opacity="1" /><path clip-path="url(#clip740)" d="M2255.41 271.98 L2255.41 257.952 L2259.67 257.952 L2259.67 293.97 L2255.41 293.97 L2255.41 290.081 Q2254.07 292.396 2252.01 293.53 Q2249.97 294.642 2247.1 294.642 Q2242.4 294.642 2239.44 290.892 Q2236.5 287.142 2236.5 281.031 Q2236.5 274.919 2239.44 271.169 Q2242.4 267.419 2247.1 267.419 Q2249.97 267.419 2252.01 268.554 Q2254.07 269.665 2255.41 271.98 M2240.9 281.031 Q2240.9 285.73 2242.82 288.415 Q2244.77 291.077 2248.15 291.077 Q2251.52 291.077 2253.47 288.415 Q2255.41 285.73 2255.41 281.031 Q2255.41 276.331 2253.47 273.669 Q2251.52 270.984 2248.15 270.984 Q2244.77 270.984 2242.82 273.669 Q2240.9 276.331 2240.9 281.031 Z" fill="#000000" fill-rule="nonzero" fill-opacity="1" /><polyline clip-path="url(#clip740)" style="stroke:#e26f46; stroke-linecap:round; stroke-linejoin:round; stroke-width:4; stroke-opacity:1; fill:none" points="1769.97,328.53 1909.6,328.53 "/>
<path clip-path="url(#clip740)" d="M1932.87 311.25 L1937.54 311.25 L1937.54 341.875 L1954.37 341.875 L1954.37 345.81 L1932.87 345.81 L1932.87 311.25 Z" fill="#000000" fill-rule="nonzero" fill-opacity="1" /><path clip-path="url(#clip740)" d="M1985.16 313.912 L1985.16 318.843 Q1982.8 316.644 1980.11 315.556 Q1977.45 314.468 1974.44 314.468 Q1968.52 314.468 1965.37 318.102 Q1962.22 321.713 1962.22 328.565 Q1962.22 335.394 1965.37 339.028 Q1968.52 342.639 1974.44 342.639 Q1977.45 342.639 1980.11 341.551 Q1982.8 340.463 1985.16 338.264 L1985.16 343.148 Q1982.71 344.815 1979.95 345.648 Q1977.22 346.482 1974.17 346.482 Q1966.32 346.482 1961.8 341.69 Q1957.29 336.875 1957.29 328.565 Q1957.29 320.232 1961.8 315.44 Q1966.32 310.625 1974.17 310.625 Q1977.27 310.625 1980 311.459 Q1982.75 312.269 1985.16 313.912 Z" fill="#000000" fill-rule="nonzero" fill-opacity="1" /><path clip-path="url(#clip740)" d="M1997.06 315.093 L1997.06 341.968 L2002.71 341.968 Q2009.86 341.968 2013.17 338.727 Q2016.5 335.486 2016.5 328.496 Q2016.5 321.551 2013.17 318.334 Q2009.86 315.093 2002.71 315.093 L1997.06 315.093 M1992.38 311.25 L2001.99 311.25 Q2012.04 311.25 2016.73 315.44 Q2021.43 319.607 2021.43 328.496 Q2021.43 337.431 2016.71 341.62 Q2011.99 345.81 2001.99 345.81 L1992.38 345.81 L1992.38 311.25 Z" fill="#000000" fill-rule="nonzero" fill-opacity="1" /><path clip-path="url(#clip740)" d="M2028.89 311.25 L2035.85 311.25 L2044.67 334.769 L2053.54 311.25 L2060.51 311.25 L2060.51 345.81 L2055.95 345.81 L2055.95 315.463 L2047.04 339.167 L2042.34 339.167 L2033.42 315.463 L2033.42 345.81 L2028.89 345.81 L2028.89 311.25 Z" fill="#000000" fill-rule="nonzero" fill-opacity="1" /></svg>
