<?xml version="1.0" encoding="utf-8"?>
<svg xmlns="http://www.w3.org/2000/svg" xmlns:xlink="http://www.w3.org/1999/xlink" width="600" height="400" viewBox="0 0 2400 1600">
<defs>
  <clipPath id="clip570">
    <rect x="0" y="0" width="2400" height="1600"/>
  </clipPath>
</defs>
<path clip-path="url(#clip570)" d="M0 1600 L2400 1600 L2400 0 L0 0  Z" fill="#ffffff" fill-rule="evenodd" fill-opacity="1"/>
<defs>
  <clipPath id="clip571">
    <rect x="480" y="0" width="1681" height="1600"/>
  </clipPath>
</defs>
<path clip-path="url(#clip570)" d="M251.071 1410.9 L2352.76 1410.9 L2352.76 123.472 L251.071 123.472  Z" fill="#ffffff" fill-rule="evenodd" fill-opacity="1"/>
<defs>
  <clipPath id="clip572">
    <rect x="251" y="123" width="2103" height="1288"/>
  </clipPath>
</defs>
<polyline clip-path="url(#clip572)" style="stroke:#000000; stroke-linecap:round; stroke-linejoin:round; stroke-width:2; stroke-opacity:0.1; fill:none" points="561.178,1410.9 561.178,123.472 "/>
<polyline clip-path="url(#clip572)" style="stroke:#000000; stroke-linecap:round; stroke-linejoin:round; stroke-width:2; stroke-opacity:0.1; fill:none" points="957.722,1410.9 957.722,123.472 "/>
<polyline clip-path="url(#clip572)" style="stroke:#000000; stroke-linecap:round; stroke-linejoin:round; stroke-width:2; stroke-opacity:0.1; fill:none" points="1354.27,1410.9 1354.27,123.472 "/>
<polyline clip-path="url(#clip572)" style="stroke:#000000; stroke-linecap:round; stroke-linejoin:round; stroke-width:2; stroke-opacity:0.1; fill:none" points="1750.81,1410.9 1750.81,123.472 "/>
<polyline clip-path="url(#clip572)" style="stroke:#000000; stroke-linecap:round; stroke-linejoin:round; stroke-width:2; stroke-opacity:0.1; fill:none" points="2147.36,1410.9 2147.36,123.472 "/>
<polyline clip-path="url(#clip570)" style="stroke:#000000; stroke-linecap:round; stroke-linejoin:round; stroke-width:4; stroke-opacity:1; fill:none" points="251.071,1410.9 2352.76,1410.9 "/>
<polyline clip-path="url(#clip570)" style="stroke:#000000; stroke-linecap:round; stroke-linejoin:round; stroke-width:4; stroke-opacity:1; fill:none" points="561.178,1410.9 561.178,1392 "/>
<polyline clip-path="url(#clip570)" style="stroke:#000000; stroke-linecap:round; stroke-linejoin:round; stroke-width:4; stroke-opacity:1; fill:none" points="957.722,1410.9 957.722,1392 "/>
<polyline clip-path="url(#clip570)" style="stroke:#000000; stroke-linecap:round; stroke-linejoin:round; stroke-width:4; stroke-opacity:1; fill:none" points="1354.27,1410.9 1354.27,1392 "/>
<polyline clip-path="url(#clip570)" style="stroke:#000000; stroke-linecap:round; stroke-linejoin:round; stroke-width:4; stroke-opacity:1; fill:none" points="1750.81,1410.9 1750.81,1392 "/>
<polyline clip-path="url(#clip570)" style="stroke:#000000; stroke-linecap:round; stroke-linejoin:round; stroke-width:4; stroke-opacity:1; fill:none" points="2147.36,1410.9 2147.36,1392 "/>
<path clip-path="url(#clip570)" d="M510.597 1485.02 L518.236 1485.02 L518.236 1458.66 L509.926 1460.32 L509.926 1456.06 L518.19 1454.4 L522.866 1454.4 L522.866 1485.02 L530.505 1485.02 L530.505 1488.96 L510.597 1488.96 L510.597 1485.02 Z" fill="#000000" fill-rule="nonzero" fill-opacity="1" /><path clip-path="url(#clip570)" d="M549.949 1457.48 Q546.338 1457.48 544.509 1461.04 Q542.704 1464.58 542.704 1471.71 Q542.704 1478.82 544.509 1482.38 Q546.338 1485.92 549.949 1485.92 Q553.583 1485.92 555.389 1482.38 Q557.218 1478.82 557.218 1471.71 Q557.218 1464.58 555.389 1461.04 Q553.583 1457.48 549.949 1457.48 M549.949 1453.77 Q555.759 1453.77 558.815 1458.38 Q561.893 1462.96 561.893 1471.71 Q561.893 1480.44 558.815 1485.04 Q555.759 1489.63 549.949 1489.63 Q544.139 1489.63 541.06 1485.04 Q538.005 1480.44 538.005 1471.71 Q538.005 1462.96 541.06 1458.38 Q544.139 1453.77 549.949 1453.77 Z" fill="#000000" fill-rule="nonzero" fill-opacity="1" /><path clip-path="url(#clip570)" d="M561.893 1447.87 L586.005 1447.87 L586.005 1451.07 L561.893 1451.07 L561.893 1447.87 Z" fill="#000000" fill-rule="nonzero" fill-opacity="1" /><path clip-path="url(#clip570)" d="M604.644 1436.78 L595.052 1451.77 L604.644 1451.77 L604.644 1436.78 M603.647 1433.47 L608.424 1433.47 L608.424 1451.77 L612.43 1451.77 L612.43 1454.93 L608.424 1454.93 L608.424 1461.55 L604.644 1461.55 L604.644 1454.93 L591.967 1454.93 L591.967 1451.26 L603.647 1433.47 Z" fill="#000000" fill-rule="nonzero" fill-opacity="1" /><path clip-path="url(#clip570)" d="M907.603 1485.02 L915.241 1485.02 L915.241 1458.66 L906.931 1460.32 L906.931 1456.06 L915.195 1454.4 L919.871 1454.4 L919.871 1485.02 L927.51 1485.02 L927.51 1488.96 L907.603 1488.96 L907.603 1485.02 Z" fill="#000000" fill-rule="nonzero" fill-opacity="1" /><path clip-path="url(#clip570)" d="M946.954 1457.48 Q943.343 1457.48 941.514 1461.04 Q939.709 1464.58 939.709 1471.71 Q939.709 1478.82 941.514 1482.38 Q943.343 1485.92 946.954 1485.92 Q950.588 1485.92 952.394 1482.38 Q954.223 1478.82 954.223 1471.71 Q954.223 1464.58 952.394 1461.04 Q950.588 1457.48 946.954 1457.48 M946.954 1453.77 Q952.764 1453.77 955.82 1458.38 Q958.899 1462.96 958.899 1471.71 Q958.899 1480.44 955.82 1485.04 Q952.764 1489.63 946.954 1489.63 Q941.144 1489.63 938.065 1485.04 Q935.01 1480.44 935.01 1471.71 Q935.01 1462.96 938.065 1458.38 Q941.144 1453.77 946.954 1453.77 Z" fill="#000000" fill-rule="nonzero" fill-opacity="1" /><path clip-path="url(#clip570)" d="M958.899 1447.87 L983.01 1447.87 L983.01 1451.07 L958.899 1451.07 L958.899 1447.87 Z" fill="#000000" fill-rule="nonzero" fill-opacity="1" /><path clip-path="url(#clip570)" d="M1002.72 1446.41 Q1005.45 1446.99 1006.97 1448.83 Q1008.51 1450.68 1008.51 1453.38 Q1008.51 1457.54 1005.65 1459.82 Q1002.8 1462.09 997.53 1462.09 Q995.762 1462.09 993.881 1461.73 Q992.019 1461.4 990.025 1460.7 L990.025 1457.03 Q991.605 1457.95 993.486 1458.42 Q995.367 1458.89 997.417 1458.89 Q1000.99 1458.89 1002.85 1457.48 Q1004.73 1456.07 1004.73 1453.38 Q1004.73 1450.9 1002.98 1449.51 Q1001.25 1448.1 998.15 1448.1 L994.878 1448.1 L994.878 1444.98 L998.301 1444.98 Q1001.1 1444.98 1002.59 1443.87 Q1004.07 1442.74 1004.07 1440.63 Q1004.07 1438.47 1002.53 1437.32 Q1001.01 1436.16 998.15 1436.16 Q996.589 1436.16 994.803 1436.49 Q993.016 1436.83 990.872 1437.55 L990.872 1434.16 Q993.035 1433.56 994.915 1433.26 Q996.815 1432.96 998.489 1432.96 Q1002.81 1432.96 1005.33 1434.93 Q1007.86 1436.89 1007.86 1440.24 Q1007.86 1442.57 1006.52 1444.19 Q1005.18 1445.79 1002.72 1446.41 Z" fill="#000000" fill-rule="nonzero" fill-opacity="1" /><path clip-path="url(#clip570)" d="M1304.53 1485.02 L1312.17 1485.02 L1312.17 1458.66 L1303.86 1460.32 L1303.86 1456.06 L1312.12 1454.4 L1316.8 1454.4 L1316.8 1485.02 L1324.44 1485.02 L1324.44 1488.96 L1304.53 1488.96 L1304.53 1485.02 Z" fill="#000000" fill-rule="nonzero" fill-opacity="1" /><path clip-path="url(#clip570)" d="M1343.88 1457.48 Q1340.27 1457.48 1338.44 1461.04 Q1336.64 1464.58 1336.64 1471.71 Q1336.64 1478.82 1338.44 1482.38 Q1340.27 1485.92 1343.88 1485.92 Q1347.52 1485.92 1349.32 1482.38 Q1351.15 1478.82 1351.15 1471.71 Q1351.15 1464.58 1349.32 1461.04 Q1347.52 1457.48 1343.88 1457.48 M1343.88 1453.77 Q1349.69 1453.77 1352.75 1458.38 Q1355.83 1462.96 1355.83 1471.71 Q1355.83 1480.44 1352.75 1485.04 Q1349.69 1489.63 1343.88 1489.63 Q1338.07 1489.63 1335 1485.04 Q1331.94 1480.44 1331.94 1471.71 Q1331.94 1462.96 1335 1458.38 Q1338.07 1453.77 1343.88 1453.77 Z" fill="#000000" fill-rule="nonzero" fill-opacity="1" /><path clip-path="url(#clip570)" d="M1355.83 1447.87 L1379.94 1447.87 L1379.94 1451.07 L1355.83 1451.07 L1355.83 1447.87 Z" fill="#000000" fill-rule="nonzero" fill-opacity="1" /><path clip-path="url(#clip570)" d="M1391.41 1458.35 L1404.67 1458.35 L1404.67 1461.55 L1386.84 1461.55 L1386.84 1458.35 Q1389.01 1456.11 1392.73 1452.35 Q1396.47 1448.57 1397.43 1447.48 Q1399.26 1445.43 1399.97 1444.02 Q1400.7 1442.59 1400.7 1441.22 Q1400.7 1438.98 1399.12 1437.57 Q1397.56 1436.16 1395.04 1436.16 Q1393.26 1436.16 1391.26 1436.78 Q1389.29 1437.4 1387.03 1438.66 L1387.03 1434.82 Q1389.33 1433.9 1391.32 1433.43 Q1393.31 1432.96 1394.97 1432.96 Q1399.33 1432.96 1401.93 1435.14 Q1404.52 1437.32 1404.52 1440.97 Q1404.52 1442.7 1403.86 1444.26 Q1403.22 1445.8 1401.51 1447.91 Q1401.04 1448.46 1398.52 1451.07 Q1396 1453.67 1391.41 1458.35 Z" fill="#000000" fill-rule="nonzero" fill-opacity="1" /><path clip-path="url(#clip570)" d="M1700.93 1485.02 L1708.57 1485.02 L1708.57 1458.66 L1700.25 1460.32 L1700.25 1456.06 L1708.52 1454.4 L1713.19 1454.4 L1713.19 1485.02 L1720.83 1485.02 L1720.83 1488.96 L1700.93 1488.96 L1700.93 1485.02 Z" fill="#000000" fill-rule="nonzero" fill-opacity="1" /><path clip-path="url(#clip570)" d="M1740.28 1457.48 Q1736.67 1457.48 1734.84 1461.04 Q1733.03 1464.58 1733.03 1471.71 Q1733.03 1478.82 1734.84 1482.38 Q1736.67 1485.92 1740.28 1485.92 Q1743.91 1485.92 1745.72 1482.38 Q1747.55 1478.82 1747.55 1471.71 Q1747.55 1464.58 1745.72 1461.04 Q1743.91 1457.48 1740.28 1457.48 M1740.28 1453.77 Q1746.09 1453.77 1749.14 1458.38 Q1752.22 1462.96 1752.22 1471.71 Q1752.22 1480.44 1749.14 1485.04 Q1746.09 1489.63 1740.28 1489.63 Q1734.47 1489.63 1731.39 1485.04 Q1728.33 1480.44 1728.33 1471.71 Q1728.33 1462.96 1731.39 1458.38 Q1734.47 1453.77 1740.28 1453.77 Z" fill="#000000" fill-rule="nonzero" fill-opacity="1" /><path clip-path="url(#clip570)" d="M1752.22 1447.87 L1776.33 1447.87 L1776.33 1451.07 L1752.22 1451.07 L1752.22 1447.87 Z" fill="#000000" fill-rule="nonzero" fill-opacity="1" /><path clip-path="url(#clip570)" d="M1785.19 1458.35 L1791.4 1458.35 L1791.4 1436.93 L1784.65 1438.28 L1784.65 1434.82 L1791.36 1433.47 L1795.16 1433.47 L1795.16 1458.35 L1801.37 1458.35 L1801.37 1461.55 L1785.19 1461.55 L1785.19 1458.35 Z" fill="#000000" fill-rule="nonzero" fill-opacity="1" /><path clip-path="url(#clip570)" d="M2112.34 1485.02 L2119.98 1485.02 L2119.98 1458.66 L2111.67 1460.32 L2111.67 1456.06 L2119.93 1454.4 L2124.61 1454.4 L2124.61 1485.02 L2132.25 1485.02 L2132.25 1488.96 L2112.34 1488.96 L2112.34 1485.02 Z" fill="#000000" fill-rule="nonzero" fill-opacity="1" /><path clip-path="url(#clip570)" d="M2151.69 1457.48 Q2148.08 1457.48 2146.25 1461.04 Q2144.44 1464.58 2144.44 1471.71 Q2144.44 1478.82 2146.25 1482.38 Q2148.08 1485.92 2151.69 1485.92 Q2155.32 1485.92 2157.13 1482.38 Q2158.96 1478.82 2158.96 1471.71 Q2158.96 1464.58 2157.13 1461.04 Q2155.32 1457.48 2151.69 1457.48 M2151.69 1453.77 Q2157.5 1453.77 2160.56 1458.38 Q2163.63 1462.96 2163.63 1471.71 Q2163.63 1480.44 2160.56 1485.04 Q2157.5 1489.63 2151.69 1489.63 Q2145.88 1489.63 2142.8 1485.04 Q2139.75 1480.44 2139.75 1471.71 Q2139.75 1462.96 2142.8 1458.38 Q2145.88 1453.77 2151.69 1453.77 Z" fill="#000000" fill-rule="nonzero" fill-opacity="1" /><path clip-path="url(#clip570)" d="M2173.34 1435.97 Q2170.4 1435.97 2168.92 1438.86 Q2167.45 1441.74 2167.45 1447.53 Q2167.45 1453.31 2168.92 1456.2 Q2170.4 1459.08 2173.34 1459.08 Q2176.29 1459.08 2177.76 1456.2 Q2179.24 1453.31 2179.24 1447.53 Q2179.24 1441.74 2177.76 1438.86 Q2176.29 1435.97 2173.34 1435.97 M2173.34 1432.96 Q2178.06 1432.96 2180.54 1436.7 Q2183.04 1440.43 2183.04 1447.53 Q2183.04 1454.62 2180.54 1458.37 Q2178.06 1462.09 2173.34 1462.09 Q2168.62 1462.09 2166.12 1458.37 Q2163.63 1454.62 2163.63 1447.53 Q2163.63 1440.43 2166.12 1436.7 Q2168.62 1432.96 2173.34 1432.96 Z" fill="#000000" fill-rule="nonzero" fill-opacity="1" /><path clip-path="url(#clip570)" d="M1154.56 1524.66 L1160.45 1524.66 L1160.45 1553.91 L1177.93 1538.54 L1185.41 1538.54 L1166.5 1555.22 L1186.2 1574.19 L1178.56 1574.19 L1160.45 1556.78 L1160.45 1574.19 L1154.56 1574.19 L1154.56 1524.66 Z" fill="#000000" fill-rule="nonzero" fill-opacity="1" /><path clip-path="url(#clip570)" d="M1227.32 1524.72 Q1223.06 1532.04 1220.99 1539.21 Q1218.92 1546.37 1218.92 1553.72 Q1218.92 1561.07 1220.99 1568.3 Q1223.09 1575.49 1227.32 1582.78 L1222.23 1582.78 Q1217.46 1575.3 1215.07 1568.07 Q1212.71 1560.85 1212.71 1553.72 Q1212.71 1546.62 1215.07 1539.43 Q1217.42 1532.24 1222.23 1524.72 L1227.32 1524.72 Z" fill="#000000" fill-rule="nonzero" fill-opacity="1" /><path clip-path="url(#clip570)" d="M1240.63 1568.77 L1251.13 1568.77 L1251.13 1532.52 L1239.7 1534.81 L1239.7 1528.96 L1251.07 1526.67 L1257.5 1526.67 L1257.5 1568.77 L1268 1568.77 L1268 1574.19 L1240.63 1574.19 L1240.63 1568.77 Z" fill="#000000" fill-rule="nonzero" fill-opacity="1" /><path clip-path="url(#clip570)" d="M1290.57 1526.67 L1295.98 1526.67 L1279.43 1580.23 L1274.02 1580.23 L1290.57 1526.67 Z" fill="#000000" fill-rule="nonzero" fill-opacity="1" /><path clip-path="url(#clip570)" d="M1302.38 1526.67 L1311.96 1526.67 L1324.08 1559 L1336.27 1526.67 L1345.85 1526.67 L1345.85 1574.19 L1339.58 1574.19 L1339.58 1532.46 L1327.33 1565.05 L1320.87 1565.05 L1308.61 1532.46 L1308.61 1574.19 L1302.38 1574.19 L1302.38 1526.67 Z" fill="#000000" fill-rule="nonzero" fill-opacity="1" /><path clip-path="url(#clip570)" d="M1364.03 1568.84 L1364.03 1587.74 L1358.14 1587.74 L1358.14 1538.54 L1364.03 1538.54 L1364.03 1543.95 Q1365.87 1540.77 1368.67 1539.24 Q1371.51 1537.68 1375.42 1537.68 Q1381.91 1537.68 1385.96 1542.83 Q1390.03 1547.99 1390.03 1556.39 Q1390.03 1564.8 1385.96 1569.95 Q1381.91 1575.11 1375.42 1575.11 Q1371.51 1575.11 1368.67 1573.58 Q1365.87 1572.02 1364.03 1568.84 M1383.95 1556.39 Q1383.95 1549.93 1381.28 1546.27 Q1378.64 1542.58 1373.99 1542.58 Q1369.34 1542.58 1366.67 1546.27 Q1364.03 1549.93 1364.03 1556.39 Q1364.03 1562.85 1366.67 1566.55 Q1369.34 1570.21 1373.99 1570.21 Q1378.64 1570.21 1381.28 1566.55 Q1383.95 1562.85 1383.95 1556.39 Z" fill="#000000" fill-rule="nonzero" fill-opacity="1" /><path clip-path="url(#clip570)" d="M1425.39 1539.91 L1425.39 1545.38 Q1422.91 1544.01 1420.4 1543.34 Q1417.91 1542.64 1415.37 1542.64 Q1409.67 1542.64 1406.52 1546.27 Q1403.37 1549.87 1403.37 1556.39 Q1403.37 1562.92 1406.52 1566.55 Q1409.67 1570.14 1415.37 1570.14 Q1417.91 1570.14 1420.4 1569.47 Q1422.91 1568.77 1425.39 1567.41 L1425.39 1572.82 Q1422.94 1573.96 1420.3 1574.54 Q1417.69 1575.11 1414.73 1575.11 Q1406.68 1575.11 1401.93 1570.05 Q1397.19 1564.99 1397.19 1556.39 Q1397.19 1547.67 1401.97 1542.68 Q1406.77 1537.68 1415.11 1537.68 Q1417.82 1537.68 1420.4 1538.25 Q1422.97 1538.79 1425.39 1539.91 Z" fill="#000000" fill-rule="nonzero" fill-opacity="1" /><path clip-path="url(#clip570)" d="M1434.65 1524.72 L1439.75 1524.72 Q1444.52 1532.24 1446.88 1539.43 Q1449.26 1546.62 1449.26 1553.72 Q1449.26 1560.85 1446.88 1568.07 Q1444.52 1575.3 1439.75 1582.78 L1434.65 1582.78 Q1438.89 1575.49 1440.96 1568.3 Q1443.06 1561.07 1443.06 1553.72 Q1443.06 1546.37 1440.96 1539.21 Q1438.89 1532.04 1434.65 1524.72 Z" fill="#000000" fill-rule="nonzero" fill-opacity="1" /><polyline clip-path="url(#clip572)" style="stroke:#000000; stroke-linecap:round; stroke-linejoin:round; stroke-width:2; stroke-opacity:0.1; fill:none" points="251.071,899.998 2352.76,899.998 "/>
<polyline clip-path="url(#clip572)" style="stroke:#000000; stroke-linecap:round; stroke-linejoin:round; stroke-width:2; stroke-opacity:0.1; fill:none" points="251.071,159.907 2352.76,159.907 "/>
<polyline clip-path="url(#clip570)" style="stroke:#000000; stroke-linecap:round; stroke-linejoin:round; stroke-width:4; stroke-opacity:1; fill:none" points="251.071,1410.9 251.071,123.472 "/>
<polyline clip-path="url(#clip570)" style="stroke:#000000; stroke-linecap:round; stroke-linejoin:round; stroke-width:4; stroke-opacity:1; fill:none" points="251.071,899.998 269.969,899.998 "/>
<polyline clip-path="url(#clip570)" style="stroke:#000000; stroke-linecap:round; stroke-linejoin:round; stroke-width:4; stroke-opacity:1; fill:none" points="251.071,159.907 269.969,159.907 "/>
<path clip-path="url(#clip570)" d="M114.931 919.79 L122.57 919.79 L122.57 893.425 L114.26 895.091 L114.26 890.832 L122.524 889.165 L127.2 889.165 L127.2 919.79 L134.839 919.79 L134.839 923.725 L114.931 923.725 L114.931 919.79 Z" fill="#000000" fill-rule="nonzero" fill-opacity="1" /><path clip-path="url(#clip570)" d="M154.283 892.244 Q150.672 892.244 148.843 895.809 Q147.038 899.351 147.038 906.48 Q147.038 913.587 148.843 917.151 Q150.672 920.693 154.283 920.693 Q157.917 920.693 159.723 917.151 Q161.552 913.587 161.552 906.48 Q161.552 899.351 159.723 895.809 Q157.917 892.244 154.283 892.244 M154.283 888.54 Q160.093 888.54 163.149 893.147 Q166.227 897.73 166.227 906.48 Q166.227 915.207 163.149 919.813 Q160.093 924.397 154.283 924.397 Q148.473 924.397 145.394 919.813 Q142.339 915.207 142.339 906.48 Q142.339 897.73 145.394 893.147 Q148.473 888.54 154.283 888.54 Z" fill="#000000" fill-rule="nonzero" fill-opacity="1" /><path clip-path="url(#clip570)" d="M166.227 882.642 L190.339 882.642 L190.339 885.839 L166.227 885.839 L166.227 882.642 Z" fill="#000000" fill-rule="nonzero" fill-opacity="1" /><path clip-path="url(#clip570)" d="M201.812 893.118 L215.071 893.118 L215.071 896.315 L197.241 896.315 L197.241 893.118 Q199.404 890.88 203.128 887.118 Q206.871 883.338 207.83 882.247 Q209.655 880.197 210.369 878.786 Q211.103 877.357 211.103 875.984 Q211.103 873.746 209.523 872.335 Q207.962 870.925 205.442 870.925 Q203.655 870.925 201.661 871.545 Q199.686 872.166 197.43 873.426 L197.43 869.589 Q199.724 868.668 201.718 868.197 Q203.711 867.727 205.366 867.727 Q209.73 867.727 212.325 869.909 Q214.921 872.091 214.921 875.739 Q214.921 877.47 214.263 879.031 Q213.623 880.573 211.912 882.679 Q211.441 883.225 208.921 885.839 Q206.401 888.435 201.812 893.118 Z" fill="#000000" fill-rule="nonzero" fill-opacity="1" /><path clip-path="url(#clip570)" d="M144.366 179.699 L152.004 179.699 L152.004 153.333 L143.694 155 L143.694 150.741 L151.958 149.074 L156.634 149.074 L156.634 179.699 L164.273 179.699 L164.273 183.634 L144.366 183.634 L144.366 179.699 Z" fill="#000000" fill-rule="nonzero" fill-opacity="1" /><path clip-path="url(#clip570)" d="M183.717 152.153 Q180.106 152.153 178.277 155.718 Q176.472 159.259 176.472 166.389 Q176.472 173.495 178.277 177.06 Q180.106 180.602 183.717 180.602 Q187.351 180.602 189.157 177.06 Q190.986 173.495 190.986 166.389 Q190.986 159.259 189.157 155.718 Q187.351 152.153 183.717 152.153 M183.717 148.449 Q189.527 148.449 192.583 153.056 Q195.662 157.639 195.662 166.389 Q195.662 175.116 192.583 179.722 Q189.527 184.306 183.717 184.306 Q177.907 184.306 174.828 179.722 Q171.773 175.116 171.773 166.389 Q171.773 157.639 174.828 153.056 Q177.907 148.449 183.717 148.449 Z" fill="#000000" fill-rule="nonzero" fill-opacity="1" /><path clip-path="url(#clip570)" d="M205.366 130.645 Q202.432 130.645 200.947 133.542 Q199.48 136.419 199.48 142.212 Q199.48 147.986 200.947 150.882 Q202.432 153.76 205.366 153.76 Q208.319 153.76 209.786 150.882 Q211.272 147.986 211.272 142.212 Q211.272 136.419 209.786 133.542 Q208.319 130.645 205.366 130.645 M205.366 127.636 Q210.087 127.636 212.57 131.379 Q215.071 135.103 215.071 142.212 Q215.071 149.303 212.57 153.045 Q210.087 156.769 205.366 156.769 Q200.646 156.769 198.144 153.045 Q195.662 149.303 195.662 142.212 Q195.662 135.103 198.144 131.379 Q200.646 127.636 205.366 127.636 Z" fill="#000000" fill-rule="nonzero" fill-opacity="1" /><path clip-path="url(#clip570)" d="M16.4842 804.042 L16.4842 763.842 L21.895 763.842 L21.895 780.712 L64.0042 780.712 L64.0042 787.173 L21.895 787.173 L21.895 804.042 L16.4842 804.042 Z" fill="#000000" fill-rule="nonzero" fill-opacity="1" /><path clip-path="url(#clip570)" d="M16.4842 757.636 L16.4842 730.327 L21.895 730.327 L21.895 751.206 L35.8996 751.206 L35.8996 732.364 L41.3104 732.364 L41.3104 751.206 L64.0042 751.206 L64.0042 757.636 L16.4842 757.636 Z" fill="#000000" fill-rule="nonzero" fill-opacity="1" /><path clip-path="url(#clip570)" d="M882.503 12.096 L920.744 12.096 L920.744 18.9825 L890.686 18.9825 L890.686 36.8875 L919.488 36.8875 L919.488 43.7741 L890.686 43.7741 L890.686 65.6895 L921.473 65.6895 L921.473 72.576 L882.503 72.576 L882.503 12.096 Z" fill="#000000" fill-rule="nonzero" fill-opacity="1" /><path clip-path="url(#clip570)" d="M934.922 12.096 L943.105 12.096 L943.105 36.8875 L972.838 36.8875 L972.838 12.096 L981.021 12.096 L981.021 72.576 L972.838 72.576 L972.838 43.7741 L943.105 43.7741 L943.105 72.576 L934.922 72.576 L934.922 12.096 Z" fill="#000000" fill-rule="nonzero" fill-opacity="1" /><path clip-path="url(#clip570)" d="M1015.29 12.096 L1066.45 12.096 L1066.45 18.9825 L1044.98 18.9825 L1044.98 72.576 L1036.76 72.576 L1036.76 18.9825 L1015.29 18.9825 L1015.29 12.096 Z" fill="#000000" fill-rule="nonzero" fill-opacity="1" /><path clip-path="url(#clip570)" d="M1088.13 34.1734 Q1086.87 33.4443 1085.37 33.1202 Q1083.91 32.7556 1082.13 32.7556 Q1075.81 32.7556 1072.41 36.8875 Q1069.05 40.9789 1069.05 48.6757 L1069.05 72.576 L1061.55 72.576 L1061.55 27.2059 L1069.05 27.2059 L1069.05 34.2544 Q1071.4 30.1225 1075.16 28.1376 Q1078.93 26.1121 1084.32 26.1121 Q1085.09 26.1121 1086.02 26.2337 Q1086.95 26.3147 1088.09 26.5172 L1088.13 34.1734 Z" fill="#000000" fill-rule="nonzero" fill-opacity="1" /><path clip-path="url(#clip570)" d="M1116.56 49.7694 Q1107.53 49.7694 1104.05 51.8354 Q1100.56 53.9013 1100.56 58.8839 Q1100.56 62.8538 1103.16 65.2034 Q1105.79 67.5124 1110.29 67.5124 Q1116.48 67.5124 1120.21 63.1374 Q1123.98 58.7219 1123.98 51.4303 L1123.98 49.7694 L1116.56 49.7694 M1131.43 46.6907 L1131.43 72.576 L1123.98 72.576 L1123.98 65.6895 Q1121.43 69.8214 1117.62 71.8063 Q1113.81 73.7508 1108.3 73.7508 Q1101.33 73.7508 1097.2 69.8619 Q1093.11 65.9325 1093.11 59.3701 Q1093.11 51.7138 1098.21 47.825 Q1103.36 43.9361 1113.53 43.9361 L1123.98 43.9361 L1123.98 43.2069 Q1123.98 38.0623 1120.57 35.2672 Q1117.21 32.4315 1111.1 32.4315 Q1107.21 32.4315 1103.52 33.3632 Q1099.83 34.295 1096.43 36.1584 L1096.43 29.2718 Q1100.52 27.692 1104.37 26.9223 Q1108.22 26.1121 1111.87 26.1121 Q1121.71 26.1121 1126.57 31.2163 Q1131.43 36.3204 1131.43 46.6907 Z" fill="#000000" fill-rule="nonzero" fill-opacity="1" /><path clip-path="url(#clip570)" d="M1184.5 45.1919 L1184.5 72.576 L1177.04 72.576 L1177.04 45.4349 Q1177.04 38.994 1174.53 35.7938 Q1172.02 32.5936 1167 32.5936 Q1160.96 32.5936 1157.48 36.4419 Q1153.99 40.2903 1153.99 46.9338 L1153.99 72.576 L1146.5 72.576 L1146.5 27.2059 L1153.99 27.2059 L1153.99 34.2544 Q1156.67 30.163 1160.27 28.1376 Q1163.92 26.1121 1168.66 26.1121 Q1176.48 26.1121 1180.49 30.9732 Q1184.5 35.7938 1184.5 45.1919 Z" fill="#000000" fill-rule="nonzero" fill-opacity="1" /><path clip-path="url(#clip570)" d="M1228.29 28.5427 L1228.29 35.5912 Q1225.13 33.9709 1221.73 33.1607 Q1218.32 32.3505 1214.68 32.3505 Q1209.13 32.3505 1206.33 34.0519 Q1203.58 35.7533 1203.58 39.156 Q1203.58 41.7486 1205.56 43.2475 Q1207.55 44.7058 1213.54 46.0426 L1216.1 46.6097 Q1224.03 48.3111 1227.36 51.4303 Q1230.72 54.509 1230.72 60.0587 Q1230.72 66.3781 1225.7 70.0644 Q1220.71 73.7508 1211.96 73.7508 Q1208.32 73.7508 1204.35 73.0216 Q1200.42 72.3329 1196.04 70.9151 L1196.04 63.2184 Q1200.18 65.3654 1204.19 66.4591 Q1208.2 67.5124 1212.13 67.5124 Q1217.39 67.5124 1220.23 65.73 Q1223.06 63.9071 1223.06 60.6258 Q1223.06 57.5877 1221 55.9673 Q1218.97 54.3469 1212.04 52.8481 L1209.45 52.2405 Q1202.52 50.7821 1199.45 47.7845 Q1196.37 44.7463 1196.37 39.4801 Q1196.37 33.0797 1200.9 29.5959 Q1205.44 26.1121 1213.79 26.1121 Q1217.92 26.1121 1221.56 26.7198 Q1225.21 27.3274 1228.29 28.5427 Z" fill="#000000" fill-rule="nonzero" fill-opacity="1" /><path clip-path="url(#clip570)" d="M1265.56 9.54393 L1265.56 15.7418 L1258.43 15.7418 Q1254.42 15.7418 1252.84 17.3622 Q1251.3 18.9825 1251.3 23.1955 L1251.3 27.2059 L1263.57 27.2059 L1263.57 32.9987 L1251.3 32.9987 L1251.3 72.576 L1243.8 72.576 L1243.8 32.9987 L1236.67 32.9987 L1236.67 27.2059 L1243.8 27.2059 L1243.8 24.0462 Q1243.8 16.471 1247.33 13.0277 Q1250.85 9.54393 1258.51 9.54393 L1265.56 9.54393 Z" fill="#000000" fill-rule="nonzero" fill-opacity="1" /><path clip-path="url(#clip570)" d="M1310.6 48.0275 L1310.6 51.6733 L1276.33 51.6733 Q1276.82 59.3701 1280.95 63.421 Q1285.12 67.4314 1292.54 67.4314 Q1296.83 67.4314 1300.84 66.3781 Q1304.89 65.3249 1308.86 63.2184 L1308.86 70.267 Q1304.85 71.9684 1300.64 72.8596 Q1296.42 73.7508 1292.09 73.7508 Q1281.23 73.7508 1274.87 67.4314 Q1268.55 61.1119 1268.55 50.3365 Q1268.55 39.1965 1274.55 32.6746 Q1280.59 26.1121 1290.79 26.1121 Q1299.95 26.1121 1305.26 32.0264 Q1310.6 37.9003 1310.6 48.0275 M1303.15 45.84 Q1303.07 39.7232 1299.71 36.0774 Q1296.38 32.4315 1290.87 32.4315 Q1284.64 32.4315 1280.87 35.9558 Q1277.14 39.4801 1276.58 45.8805 L1303.15 45.84 Z" fill="#000000" fill-rule="nonzero" fill-opacity="1" /><path clip-path="url(#clip570)" d="M1349.13 34.1734 Q1347.87 33.4443 1346.37 33.1202 Q1344.91 32.7556 1343.13 32.7556 Q1336.81 32.7556 1333.41 36.8875 Q1330.05 40.9789 1330.05 48.6757 L1330.05 72.576 L1322.55 72.576 L1322.55 27.2059 L1330.05 27.2059 L1330.05 34.2544 Q1332.4 30.1225 1336.16 28.1376 Q1339.93 26.1121 1345.32 26.1121 Q1346.09 26.1121 1347.02 26.2337 Q1347.95 26.3147 1349.09 26.5172 L1349.13 34.1734 Z" fill="#000000" fill-rule="nonzero" fill-opacity="1" /><path clip-path="url(#clip570)" d="M1383.64 12.096 L1418.4 12.096 L1418.4 18.9825 L1391.82 18.9825 L1391.82 36.8065 L1415.8 36.8065 L1415.8 43.6931 L1391.82 43.6931 L1391.82 72.576 L1383.64 72.576 L1383.64 12.096 Z" fill="#000000" fill-rule="nonzero" fill-opacity="1" /><path clip-path="url(#clip570)" d="M1425.73 54.671 L1425.73 27.2059 L1433.18 27.2059 L1433.18 54.3874 Q1433.18 60.8284 1435.69 64.0691 Q1438.21 67.2693 1443.23 67.2693 Q1449.27 67.2693 1452.75 63.421 Q1456.27 59.5726 1456.27 52.9291 L1456.27 27.2059 L1463.73 27.2059 L1463.73 72.576 L1456.27 72.576 L1456.27 65.6084 Q1453.56 69.7404 1449.95 71.7658 Q1446.39 73.7508 1441.65 73.7508 Q1433.83 73.7508 1429.78 68.8897 Q1425.73 64.0286 1425.73 54.671 M1444.49 26.1121 L1444.49 26.1121 Z" fill="#000000" fill-rule="nonzero" fill-opacity="1" /><path clip-path="url(#clip570)" d="M1516.79 45.1919 L1516.79 72.576 L1509.34 72.576 L1509.34 45.4349 Q1509.34 38.994 1506.83 35.7938 Q1504.32 32.5936 1499.29 32.5936 Q1493.26 32.5936 1489.77 36.4419 Q1486.29 40.2903 1486.29 46.9338 L1486.29 72.576 L1478.8 72.576 L1478.8 27.2059 L1486.29 27.2059 L1486.29 34.2544 Q1488.96 30.163 1492.57 28.1376 Q1496.22 26.1121 1500.95 26.1121 Q1508.77 26.1121 1512.78 30.9732 Q1516.79 35.7938 1516.79 45.1919 Z" fill="#000000" fill-rule="nonzero" fill-opacity="1" /><path clip-path="url(#clip570)" d="M1564.31 28.9478 L1564.31 35.9153 Q1561.15 34.1734 1557.95 33.3227 Q1554.79 32.4315 1551.55 32.4315 Q1544.3 32.4315 1540.29 37.0496 Q1536.28 41.6271 1536.28 49.9314 Q1536.28 58.2358 1540.29 62.8538 Q1544.3 67.4314 1551.55 67.4314 Q1554.79 67.4314 1557.95 66.5807 Q1561.15 65.6895 1564.31 63.9476 L1564.31 70.8341 Q1561.19 72.2924 1557.83 73.0216 Q1554.51 73.7508 1550.74 73.7508 Q1540.49 73.7508 1534.46 67.3098 Q1528.42 60.8689 1528.42 49.9314 Q1528.42 38.832 1534.5 32.472 Q1540.61 26.1121 1551.23 26.1121 Q1554.67 26.1121 1557.95 26.8413 Q1561.23 27.5299 1564.31 28.9478 Z" fill="#000000" fill-rule="nonzero" fill-opacity="1" /><path clip-path="url(#clip570)" d="M1584.65 14.324 L1584.65 27.2059 L1600 27.2059 L1600 32.9987 L1584.65 32.9987 L1584.65 57.6282 Q1584.65 63.1779 1586.15 64.7578 Q1587.68 66.3376 1592.34 66.3376 L1600 66.3376 L1600 72.576 L1592.34 72.576 Q1583.71 72.576 1580.43 69.3758 Q1577.15 66.1351 1577.15 57.6282 L1577.15 32.9987 L1571.68 32.9987 L1571.68 27.2059 L1577.15 27.2059 L1577.15 14.324 L1584.65 14.324 Z" fill="#000000" fill-rule="nonzero" fill-opacity="1" /><path clip-path="url(#clip570)" d="M1609.8 27.2059 L1617.26 27.2059 L1617.26 72.576 L1609.8 72.576 L1609.8 27.2059 M1609.8 9.54393 L1617.26 9.54393 L1617.26 18.9825 L1609.8 18.9825 L1609.8 9.54393 Z" fill="#000000" fill-rule="nonzero" fill-opacity="1" /><path clip-path="url(#clip570)" d="M1650.43 32.4315 Q1644.44 32.4315 1640.95 37.1306 Q1637.47 41.7891 1637.47 49.9314 Q1637.47 58.0738 1640.91 62.7728 Q1644.4 67.4314 1650.43 67.4314 Q1656.39 67.4314 1659.87 62.7323 Q1663.36 58.0333 1663.36 49.9314 Q1663.36 41.8701 1659.87 37.1711 Q1656.39 32.4315 1650.43 32.4315 M1650.43 26.1121 Q1660.16 26.1121 1665.71 32.4315 Q1671.25 38.7509 1671.25 49.9314 Q1671.25 61.0714 1665.71 67.4314 Q1660.16 73.7508 1650.43 73.7508 Q1640.67 73.7508 1635.12 67.4314 Q1629.61 61.0714 1629.61 49.9314 Q1629.61 38.7509 1635.12 32.4315 Q1640.67 26.1121 1650.43 26.1121 Z" fill="#000000" fill-rule="nonzero" fill-opacity="1" /><path clip-path="url(#clip570)" d="M1721.32 45.1919 L1721.32 72.576 L1713.87 72.576 L1713.87 45.4349 Q1713.87 38.994 1711.36 35.7938 Q1708.85 32.5936 1703.82 32.5936 Q1697.79 32.5936 1694.3 36.4419 Q1690.82 40.2903 1690.82 46.9338 L1690.82 72.576 L1683.33 72.576 L1683.33 27.2059 L1690.82 27.2059 L1690.82 34.2544 Q1693.49 30.163 1697.1 28.1376 Q1700.75 26.1121 1705.48 26.1121 Q1713.3 26.1121 1717.31 30.9732 Q1721.32 35.7938 1721.32 45.1919 Z" fill="#000000" fill-rule="nonzero" fill-opacity="1" /><polyline clip-path="url(#clip572)" style="stroke:#009af9; stroke-linecap:round; stroke-linejoin:round; stroke-width:4; stroke-opacity:1; fill:none" points="310.553,159.909 312.538,159.909 314.522,159.909 316.507,159.909 318.492,159.909 320.476,159.909 322.461,159.909 324.446,159.909 326.431,159.909 328.415,159.909 330.4,159.909 332.385,159.909 334.369,159.909 336.354,159.909 338.339,159.909 340.323,159.909 342.308,159.91 344.293,159.91 346.278,159.91 348.262,159.91 350.247,159.91 352.232,159.91 354.216,159.91 356.201,159.91 358.186,159.91 360.171,159.91 362.155,159.91 364.14,159.91 366.125,159.91 368.109,159.911 370.094,159.911 372.079,159.911 374.063,159.911 376.048,159.911 378.033,159.911 380.018,159.911 382.002,159.911 383.987,159.911 385.972,159.911 387.956,159.912 389.941,159.912 391.926,159.912 393.911,159.912 395.895,159.912 397.88,159.912 399.865,159.912 401.849,159.912 403.834,159.913 405.819,159.913 407.803,159.913 409.788,159.913 411.773,159.913 413.758,159.913 415.742,159.913 417.727,159.914 419.712,159.914 421.696,159.914 423.681,159.914 425.666,159.914 427.651,159.914 429.635,159.915 431.62,159.915 433.605,159.915 435.589,159.915 437.574,159.915 439.559,159.916 441.543,159.916 443.528,159.916 445.513,159.916 447.498,159.916 449.482,159.917 451.467,159.917 453.452,159.917 455.436,159.917 457.421,159.918 459.406,159.918 461.391,159.918 463.375,159.918 465.36,159.919 467.345,159.919 469.329,159.919 471.314,159.92 473.299,159.92 475.283,159.92 477.268,159.92 479.253,159.921 481.238,159.921 483.222,159.921 485.207,159.922 487.192,159.922 489.176,159.922 491.161,159.923 493.146,159.923 495.131,159.924 497.115,159.924 499.1,159.924 501.085,159.925 503.069,159.925 505.054,159.926 507.039,159.926 509.023,159.926 511.008,159.927 512.993,159.927 514.978,159.928 516.962,159.928 518.947,159.929 520.932,159.929 522.916,159.93 524.901,159.93 526.886,159.931 528.871,159.932 530.855,159.932 532.84,159.933 534.825,159.933 536.809,159.934 538.794,159.935 540.779,159.935 542.764,159.936 544.748,159.937 546.733,159.937 548.718,159.938 550.702,159.939 552.687,159.939 554.672,159.94 556.656,159.941 558.641,159.942 560.626,159.942 562.611,159.943 564.595,159.944 566.58,159.945 568.565,159.946 570.549,159.947 572.534,159.948 574.519,159.949 576.504,159.95 578.488,159.951 580.473,159.952 582.458,159.953 584.442,159.954 586.427,159.955 588.412,159.956 590.396,159.957 592.381,159.958 594.366,159.959 596.351,159.96 598.335,159.962 600.32,159.963 602.305,159.964 604.289,159.966 606.274,159.967 608.259,159.968 610.244,159.97 612.228,159.971 614.213,159.973 616.198,159.974 618.182,159.976 620.167,159.977 622.152,159.979 624.136,159.981 626.121,159.982 628.106,159.984 630.091,159.986 632.075,159.987 634.06,159.989 636.045,159.991 638.029,159.993 640.014,159.995 641.999,159.997 643.984,159.999 645.968,160.001 647.953,160.003 649.938,160.006 651.922,160.008 653.907,160.01 655.892,160.012 657.876,160.015 659.861,160.017 661.846,160.02 663.831,160.022 665.815,160.025 667.8,160.028 669.785,160.03 671.769,160.033 673.754,160.036 675.739,160.039 677.724,160.042 679.708,160.045 681.693,160.048 683.678,160.051 685.662,160.055 687.647,160.058 689.632,160.061 691.616,160.065 693.601,160.068 695.586,160.072 697.571,160.076 699.555,160.08 701.54,160.083 703.525,160.087 705.509,160.092 707.494,160.096 709.479,160.1 711.464,160.104 713.448,160.109 715.433,160.113 717.418,160.118 719.402,160.123 721.387,160.127 723.372,160.132 725.356,160.137 727.341,160.143 729.326,160.148 731.311,160.153 733.295,160.159 735.28,160.164 737.265,160.17 739.249,160.176 741.234,160.182 743.219,160.188 745.204,160.194 747.188,160.201 749.173,160.207 751.158,160.214 753.142,160.221 755.127,160.228 757.112,160.235 759.096,160.242 761.081,160.249 763.066,160.257 765.051,160.265 767.035,160.273 769.02,160.281 771.005,160.289 772.989,160.297 774.974,160.306 776.959,160.315 778.944,160.324 780.928,160.333 782.913,160.342 784.898,160.352 786.882,160.362 788.867,160.372 790.852,160.382 792.836,160.392 794.821,160.403 796.806,160.414 798.791,160.425 800.775,160.436 802.76,160.448 804.745,160.459 806.729,160.471 808.714,160.484 810.699,160.496 812.684,160.509 814.668,160.522 816.653,160.536 818.638,160.549 820.622,160.563 822.607,160.577 824.592,160.592 826.576,160.607 828.561,160.622 830.546,160.637 832.531,160.653 834.515,160.669 836.5,160.685 838.485,160.702 840.469,160.719 842.454,160.737 844.439,160.754 846.424,160.772 848.408,160.791 850.393,160.81 852.378,160.829 854.362,160.849 856.347,160.869 858.332,160.889 860.316,160.91 862.301,160.932 864.286,160.953 866.271,160.975 868.255,160.998 870.24,161.021 872.225,161.045 874.209,161.069 876.194,161.093 878.179,161.118 880.164,161.144 882.148,161.17 884.133,161.196 886.118,161.223 888.102,161.251 890.087,161.279 892.072,161.307 894.056,161.337 896.041,161.366 898.026,161.397 900.011,161.428 901.995,161.459 903.98,161.491 905.965,161.524 907.949,161.558 909.934,161.592 911.919,161.627 913.904,161.662 915.888,161.698 917.873,161.735 919.858,161.772 921.842,161.811 923.827,161.849 925.812,161.889 927.796,161.93 929.781,161.971 931.766,162.013 933.751,162.055 935.735,162.099 937.72,162.143 939.705,162.189 941.689,162.235 943.674,162.282 945.659,162.329 947.644,162.378 949.628,162.428 951.613,162.478 953.598,162.53 955.582,162.582 957.567,162.635 959.552,162.69 961.536,162.745 963.521,162.801 965.506,162.859 967.491,162.917 969.475,162.976 971.46,163.037 973.445,163.098 975.429,163.161 977.414,163.225 979.399,163.29 981.384,163.356 983.368,163.423 985.353,163.492 987.338,163.561 989.322,163.632 991.307,163.704 993.292,163.778 995.276,163.852 997.261,163.928 999.246,164.006 1001.23,164.084 1003.22,164.164 1005.2,164.245 1007.18,164.328 1009.17,164.412 1011.15,164.498 1013.14,164.585 1015.12,164.674 1017.11,164.764 1019.09,164.855 1021.08,164.948 1023.06,165.043 1025.05,165.139 1027.03,165.237 1029.02,165.336 1031,165.437 1032.99,165.54 1034.97,165.644 1036.96,165.751 1038.94,165.858 1040.92,165.968 1042.91,166.079 1044.89,166.193 1046.88,166.308 1048.86,166.425 1050.85,166.543 1052.83,166.664 1054.82,166.786 1056.8,166.911 1058.79,167.037 1060.77,167.166 1062.76,167.296 1064.74,167.429 1066.73,167.563 1068.71,167.7 1070.7,167.839 1072.68,167.98 1074.66,168.123 1076.65,168.268 1078.63,168.416 1080.62,168.565 1082.6,168.717 1084.59,168.872 1086.57,169.028 1088.56,169.187 1090.54,169.349 1092.53,169.512 1094.51,169.678 1096.5,169.847 1098.48,170.018 1100.47,170.192 1102.45,170.368 1104.44,170.547 1106.42,170.728 1108.4,170.912 1110.39,171.099 1112.37,171.288 1114.36,171.48 1116.34,171.674 1118.33,171.872 1120.31,172.072 1122.3,172.275 1124.28,172.481 1126.27,172.69 1128.25,172.902 1130.24,173.117 1132.22,173.334 1134.21,173.555 1136.19,173.779 1138.18,174.005 1140.16,174.235 1142.14,174.468 1144.13,174.704 1146.11,174.944 1148.1,175.186 1150.08,175.432 1152.07,175.681 1154.05,175.934 1156.04,176.189 1158.02,176.449 1160.01,176.711 1161.99,176.977 1163.98,177.247 1165.96,177.52 1167.95,177.796 1169.93,178.076 1171.92,178.36 1173.9,178.647 1175.88,178.938 1177.87,179.233 1179.85,179.532 1181.84,179.834 1183.82,180.14 1185.81,180.45 1187.79,180.764 1189.78,181.082 1191.76,181.403 1193.75,181.729 1195.73,182.059 1197.72,182.393 1199.7,182.731 1201.69,183.073 1203.67,183.419 1205.66,183.77 1207.64,184.124 1209.62,184.483 1211.61,184.847 1213.59,185.215 1215.58,185.587 1217.56,185.963 1219.55,186.345 1221.53,186.73 1223.52,187.121 1225.5,187.516 1227.49,187.915 1229.47,188.319 1231.46,188.728 1233.44,189.142 1235.43,189.561 1237.41,189.985 1239.4,190.413 1241.38,190.847 1243.36,191.285 1245.35,191.729 1247.33,192.178 1249.32,192.632 1251.3,193.091 1253.29,193.555 1255.27,194.025 1257.26,194.5 1259.24,194.981 1261.23,195.467 1263.21,195.958 1265.2,196.456 1267.18,196.958 1269.17,197.467 1271.15,197.981 1273.14,198.502 1275.12,199.028 1277.1,199.56 1279.09,200.098 1281.07,200.642 1283.06,201.192 1285.04,201.749 1287.03,202.311 1289.01,202.881 1291,203.456 1292.98,204.038 1294.97,204.627 1296.95,205.222 1298.94,205.824 1300.92,206.433 1302.91,207.048 1304.89,207.671 1306.88,208.301 1308.86,208.937 1310.84,209.581 1312.83,210.233 1314.81,210.891 1316.8,211.557 1318.78,212.231 1320.77,212.913 1322.75,213.602 1324.74,214.299 1326.72,215.004 1328.71,215.717 1330.69,216.438 1332.68,217.168 1334.66,217.906 1336.65,218.652 1338.63,219.408 1340.62,220.171 1342.6,220.944 1344.58,221.726 1346.57,222.517 1348.55,223.317 1350.54,224.127 1352.52,224.946 1354.51,225.775 1356.49,226.613 1358.48,227.462 1360.46,228.32 1362.45,229.189 1364.43,230.068 1366.42,230.958 1368.4,231.858 1370.39,232.769 1372.37,233.692 1374.36,234.625 1376.34,235.57 1378.32,236.526 1380.31,237.493 1382.29,238.473 1384.28,239.464 1386.26,240.468 1388.25,241.484 1390.23,242.512 1392.22,243.553 1394.2,244.606 1396.19,245.673 1398.17,246.753 1400.16,247.846 1402.14,248.952 1404.13,250.072 1406.11,251.206 1408.1,252.353 1410.08,253.515 1412.06,254.691 1414.05,255.881 1416.03,257.086 1418.02,258.305 1420,259.539 1421.99,260.788 1423.97,262.052 1425.96,263.331 1427.94,264.625 1429.93,265.934 1431.91,267.258 1433.9,268.598 1435.88,269.954 1437.87,271.324 1439.85,272.711 1441.84,274.113 1443.82,275.53 1445.8,276.963 1447.79,278.411 1449.77,279.875 1451.76,281.354 1453.74,282.848 1455.73,284.357 1457.71,285.882 1459.7,287.421 1461.68,288.976 1463.67,290.544 1465.65,292.127 1467.64,293.725 1469.62,295.336 1471.61,296.961 1473.59,298.599 1475.58,300.251 1477.56,301.915 1479.54,303.592 1481.53,305.281 1483.51,306.981 1485.5,308.693 1487.48,310.416 1489.47,312.149 1491.45,313.892 1493.44,315.645 1495.42,317.407 1497.41,319.177 1499.39,320.956 1501.38,322.742 1503.36,324.535 1505.35,326.334 1507.33,328.139 1509.32,329.949 1511.3,331.764 1513.28,333.583 1515.27,335.405 1517.25,337.23 1519.24,339.057 1521.22,340.886 1523.21,342.716 1525.19,344.545 1527.18,346.374 1529.16,348.203 1531.15,350.029 1533.13,351.853 1535.12,353.674 1537.1,355.491 1539.09,357.303 1541.07,359.111 1543.06,360.913 1545.04,362.709 1547.02,364.497 1549.01,366.279 1550.99,368.052 1552.98,369.816 1554.96,371.572 1556.95,373.317 1558.93,375.053 1560.92,376.777 1562.9,378.491 1564.89,380.194 1566.87,381.885 1568.86,383.564 1570.84,385.231 1572.83,386.886 1574.81,388.529 1576.8,390.16 1578.78,391.78 1580.76,393.388 1582.75,394.985 1584.73,396.572 1586.72,398.149 1588.7,399.717 1590.69,401.278 1592.67,402.831 1594.66,404.379 1596.64,405.923 1598.63,407.464 1600.61,409.005 1602.6,410.547 1604.58,412.091 1606.57,413.642 1608.55,415.2 1610.54,416.768 1612.52,418.349 1614.5,419.945 1616.49,421.56 1618.47,423.196 1620.46,424.857 1622.44,426.545 1624.43,428.263 1626.41,430.014 1628.4,431.802 1630.38,433.629 1632.37,435.498 1634.35,437.412 1636.34,439.373 1638.32,441.383 1640.31,443.445 1642.29,445.561 1644.28,447.731 1646.26,449.956 1648.24,452.238 1650.23,454.576 1652.21,456.97 1654.2,459.419 1656.18,461.921 1658.17,464.474 1660.15,467.075 1662.14,469.721 1664.12,472.407 1666.11,475.128 1668.09,477.88 1670.08,480.654 1672.06,483.445 1674.05,486.246 1676.03,489.047 1678.02,491.841 1680,494.62 1681.98,497.374 1683.97,500.094 1685.95,502.773 1687.94,505.402 1689.92,507.974 1691.91,510.481 1693.89,512.919 1695.88,515.282 1697.86,517.568 1699.85,519.775 1701.83,521.904 1703.82,523.955 1705.8,525.934 1707.79,527.845 1709.77,529.696 1711.76,531.497 1713.74,533.257 1715.72,534.989 1717.71,536.706 1719.69,538.422 1721.68,540.151 1723.66,541.908 1725.65,543.707 1727.63,545.564 1729.62,547.489 1731.6,549.497 1733.59,551.597 1735.57,553.797 1737.56,556.105 1739.54,558.524 1741.53,561.055 1743.51,563.697 1745.5,566.446 1747.48,569.292 1749.46,572.227 1751.45,575.236 1753.43,578.302 1755.42,581.407 1757.4,584.531 1759.39,587.651 1761.37,590.745 1763.36,593.79 1765.34,596.766 1767.33,599.654 1769.31,602.438 1771.3,605.106 1773.28,607.653 1775.27,610.076 1777.25,612.38 1779.24,614.575 1781.22,616.676 1783.2,618.703 1785.19,620.681 1787.17,622.635 1789.16,624.594 1791.14,626.587 1793.13,628.641 1795.11,630.78 1797.1,633.025 1799.08,635.391 1801.07,637.889 1803.05,640.521 1805.04,643.284 1807.02,646.165 1809.01,649.149 1810.99,652.21 1812.98,655.32 1814.96,658.448 1816.94,661.561 1818.93,664.626 1820.91,667.614 1822.9,670.502 1824.88,673.274 1826.87,675.923 1828.85,678.451 1830.84,680.871 1832.82,683.203 1834.81,685.476 1836.79,687.723 1838.78,689.979 1840.76,692.278 1842.75,694.651 1844.73,697.121 1846.72,699.703 1848.7,702.404 1850.68,705.216 1852.67,708.126 1854.65,711.109 1856.64,714.133 1858.62,717.166 1860.61,720.173 1862.59,723.124 1864.58,725.994 1866.56,728.773 1868.55,731.457 1870.53,734.056 1872.52,736.592 1874.5,739.092 1876.49,741.588 1878.47,744.111 1880.46,746.69 1882.44,749.344 1884.42,752.081 1886.41,754.9 1888.39,757.787 1890.38,760.72 1892.36,763.672 1894.35,766.614 1896.33,769.521 1898.32,772.376 1900.3,775.169 1902.29,777.905 1904.27,780.598 1906.26,783.267 1908.24,785.937 1910.23,788.632 1912.21,791.369 1914.2,794.157 1916.18,796.996 1918.16,799.876 1920.15,802.781 1922.13,805.69 1924.12,808.584 1926.1,811.45 1928.09,814.283 1930.07,817.084 1932.06,819.866 1934.04,822.643 1936.03,825.43 1938.01,828.241 1940,831.08 1941.98,833.949 1943.97,836.838 1945.95,839.737 1947.94,842.633 1949.92,845.517 1951.9,848.384 1953.89,851.237 1955.87,854.081 1957.86,856.928 1959.84,859.784 1961.83,862.656 1963.81,865.545 1965.8,868.446 1967.78,871.353 1969.77,874.259 1971.75,877.159 1973.74,880.052 1975.72,882.94 1977.71,885.829 1979.69,888.723 1981.68,891.626 1983.66,894.539 1985.64,897.459 1987.63,900.383 1989.61,903.306 1991.6,906.227 1993.58,909.145 1995.57,912.064 1997.55,914.986 1999.54,917.915 2001.52,920.85 2003.51,923.79 2005.49,926.732 2007.48,929.674 2009.46,932.616 2011.45,935.558 2013.43,938.502 2015.42,941.451 2017.4,944.405 2019.38,947.363 2021.37,950.323 2023.35,953.284 2025.34,956.245 2027.32,959.207 2029.31,962.173 2031.29,965.142 2033.28,968.116 2035.26,971.092 2037.25,974.069 2039.23,977.047 2041.22,980.027 2043.2,983.009 2045.19,985.995 2047.17,988.985 2049.16,991.976 2051.14,994.969 2053.12,997.963 2055.11,1000.96 2057.09,1003.96 2059.08,1006.96 2061.06,1009.97 2063.05,1012.97 2065.03,1015.98 2067.02,1018.99 2069,1022 2070.99,1025.02 2072.97,1028.03 2074.96,1031.05 2076.94,1034.07 2078.93,1037.1 2080.91,1040.12 2082.9,1043.15 2084.88,1046.18 2086.86,1049.21 2088.85,1052.24 2090.83,1055.28 2092.82,1058.32 2094.8,1061.36 2096.79,1064.4 2098.77,1067.44 2100.76,1070.49 2102.74,1073.54 2104.73,1076.59 2106.71,1079.64 2108.7,1082.69 2110.68,1085.75 2112.67,1088.81 2114.65,1091.87 2116.64,1094.93 2118.62,1098 2120.6,1101.06 2122.59,1104.13 2124.57,1107.2 2126.56,1110.27 2128.54,1113.35 2130.53,1116.42 2132.51,1119.5 2134.5,1122.58 2136.48,1125.66 2138.47,1128.74 2140.45,1131.83 2142.44,1134.92 2144.42,1138.01 2146.41,1141.1 2148.39,1144.19 2150.38,1147.28 2152.36,1150.38 2154.34,1153.48 2156.33,1156.58 2158.31,1159.68 2160.3,1162.78 2162.28,1165.89 2164.27,1169 2166.25,1172.1 2168.24,1175.21 2170.22,1178.33 2172.21,1181.44 2174.19,1184.56 2176.18,1187.67 2178.16,1190.79 2180.15,1193.92 2182.13,1197.04 2184.12,1200.16 2186.1,1203.29 2188.08,1206.42 2190.07,1209.55 2192.05,1212.68 2194.04,1215.81 2196.02,1218.95 2198.01,1222.08 2199.99,1225.22 2201.98,1228.36 2203.96,1231.5 2205.95,1234.64 2207.93,1237.79 2209.92,1240.94 2211.9,1244.08 2213.89,1247.23 2215.87,1250.38 2217.86,1253.54 2219.84,1256.69 2221.82,1259.85 2223.81,1263 2225.79,1266.16 2227.78,1269.32 2229.76,1272.49 2231.75,1275.65 2233.73,1278.82 2235.72,1281.98 2237.7,1285.15 2239.69,1288.32 2241.67,1291.49 2243.66,1294.66 2245.64,1297.84 2247.63,1301.01 2249.61,1304.19 2251.6,1307.37 2253.58,1310.55 2255.56,1313.73 2257.55,1316.92 2259.53,1320.1 2261.52,1323.29 2263.5,1326.47 2265.49,1329.66 2267.47,1332.85 2269.46,1336.05 2271.44,1339.24 2273.43,1342.43 2275.41,1345.63 2277.4,1348.83 2279.38,1352.03 2281.37,1355.23 2283.35,1358.43 2285.34,1361.63 2287.32,1364.84 2289.3,1368.04 2291.29,1371.25 2293.27,1374.46 "/>
</svg>
